%TF.GenerationSoftware,KiCad,Pcbnew,6.0.5-a6ca702e91~116~ubuntu20.04.1*%
%TF.CreationDate,2022-05-11T23:16:09+02:00*%
%TF.ProjectId,uHoubolt_PCB_GNSS,75486f75-626f-46c7-945f-5043425f474e,rev?*%
%TF.SameCoordinates,PX8f0d180PY5f5e100*%
%TF.FileFunction,Soldermask,Bot*%
%TF.FilePolarity,Negative*%
%FSLAX46Y46*%
G04 Gerber Fmt 4.6, Leading zero omitted, Abs format (unit mm)*
G04 Created by KiCad (PCBNEW 6.0.5-a6ca702e91~116~ubuntu20.04.1) date 2022-05-11 23:16:09*
%MOMM*%
%LPD*%
G01*
G04 APERTURE LIST*
G04 Aperture macros list*
%AMRoundRect*
0 Rectangle with rounded corners*
0 $1 Rounding radius*
0 $2 $3 $4 $5 $6 $7 $8 $9 X,Y pos of 4 corners*
0 Add a 4 corners polygon primitive as box body*
4,1,4,$2,$3,$4,$5,$6,$7,$8,$9,$2,$3,0*
0 Add four circle primitives for the rounded corners*
1,1,$1+$1,$2,$3*
1,1,$1+$1,$4,$5*
1,1,$1+$1,$6,$7*
1,1,$1+$1,$8,$9*
0 Add four rect primitives between the rounded corners*
20,1,$1+$1,$2,$3,$4,$5,0*
20,1,$1+$1,$4,$5,$6,$7,0*
20,1,$1+$1,$6,$7,$8,$9,0*
20,1,$1+$1,$8,$9,$2,$3,0*%
%AMFreePoly0*
4,1,22,0.945671,0.830970,1.026777,0.776777,1.080970,0.695671,1.100000,0.600000,1.100000,-0.600000,1.080970,-0.695671,1.026777,-0.776777,0.945671,-0.830970,0.850000,-0.850000,-0.850000,-0.850000,-0.945671,-0.830970,-1.026777,-0.776777,-1.080970,-0.695671,-1.100000,-0.600000,-1.100000,0.200000,-1.080970,0.295671,-1.026777,0.376777,-0.626777,0.776777,-0.545671,0.830970,-0.450000,0.850000,
0.850000,0.850000,0.945671,0.830970,0.945671,0.830970,$1*%
G04 Aperture macros list end*
%ADD10C,0.800000*%
%ADD11C,6.400000*%
%ADD12RoundRect,0.087500X0.187500X0.087500X-0.187500X0.087500X-0.187500X-0.087500X0.187500X-0.087500X0*%
%ADD13RoundRect,0.087500X0.087500X0.187500X-0.087500X0.187500X-0.087500X-0.187500X0.087500X-0.187500X0*%
%ADD14RoundRect,0.250000X-0.250000X-0.475000X0.250000X-0.475000X0.250000X0.475000X-0.250000X0.475000X0*%
%ADD15RoundRect,0.225000X-0.250000X0.225000X-0.250000X-0.225000X0.250000X-0.225000X0.250000X0.225000X0*%
%ADD16R,0.740000X2.400000*%
%ADD17RoundRect,0.150000X-0.700000X0.150000X-0.700000X-0.150000X0.700000X-0.150000X0.700000X0.150000X0*%
%ADD18RoundRect,0.250000X-1.150000X0.250000X-1.150000X-0.250000X1.150000X-0.250000X1.150000X0.250000X0*%
%ADD19RoundRect,0.225000X0.225000X0.250000X-0.225000X0.250000X-0.225000X-0.250000X0.225000X-0.250000X0*%
%ADD20RoundRect,0.218750X0.256250X-0.218750X0.256250X0.218750X-0.256250X0.218750X-0.256250X-0.218750X0*%
%ADD21RoundRect,0.150000X0.700000X-0.150000X0.700000X0.150000X-0.700000X0.150000X-0.700000X-0.150000X0*%
%ADD22RoundRect,0.250000X1.150000X-0.250000X1.150000X0.250000X-1.150000X0.250000X-1.150000X-0.250000X0*%
%ADD23RoundRect,0.225000X-0.225000X-0.250000X0.225000X-0.250000X0.225000X0.250000X-0.225000X0.250000X0*%
%ADD24R,1.400000X1.200000*%
%ADD25RoundRect,0.150000X-0.587500X-0.150000X0.587500X-0.150000X0.587500X0.150000X-0.587500X0.150000X0*%
%ADD26RoundRect,0.250000X1.950000X1.000000X-1.950000X1.000000X-1.950000X-1.000000X1.950000X-1.000000X0*%
%ADD27R,0.500000X1.000000*%
%ADD28R,4.500000X3.500000*%
%ADD29RoundRect,0.200000X-0.275000X0.200000X-0.275000X-0.200000X0.275000X-0.200000X0.275000X0.200000X0*%
%ADD30RoundRect,0.062500X-0.062500X0.675000X-0.062500X-0.675000X0.062500X-0.675000X0.062500X0.675000X0*%
%ADD31RoundRect,0.062500X-0.675000X0.062500X-0.675000X-0.062500X0.675000X-0.062500X0.675000X0.062500X0*%
%ADD32R,4.200000X2.000000*%
%ADD33RoundRect,0.100000X-0.250000X0.150000X-0.250000X-0.150000X0.250000X-0.150000X0.250000X0.150000X0*%
%ADD34RoundRect,0.225000X0.250000X-0.225000X0.250000X0.225000X-0.250000X0.225000X-0.250000X-0.225000X0*%
%ADD35RoundRect,0.200000X0.200000X0.275000X-0.200000X0.275000X-0.200000X-0.275000X0.200000X-0.275000X0*%
%ADD36R,1.500000X1.000000*%
%ADD37RoundRect,0.062500X-0.325000X-0.062500X0.325000X-0.062500X0.325000X0.062500X-0.325000X0.062500X0*%
%ADD38RoundRect,0.062500X-0.062500X-0.325000X0.062500X-0.325000X0.062500X0.325000X-0.062500X0.325000X0*%
%ADD39R,1.750000X1.750000*%
%ADD40R,4.200000X1.400000*%
%ADD41C,1.300000*%
%ADD42FreePoly0,90.000000*%
%ADD43O,1.700000X2.200000*%
%ADD44R,0.500000X0.500000*%
%ADD45RoundRect,0.150000X0.150000X-0.587500X0.150000X0.587500X-0.150000X0.587500X-0.150000X-0.587500X0*%
%ADD46R,1.000000X2.510000*%
%ADD47RoundRect,0.250000X-0.475000X0.250000X-0.475000X-0.250000X0.475000X-0.250000X0.475000X0.250000X0*%
%ADD48R,0.405000X0.990000*%
%ADD49R,0.405000X0.760000*%
%ADD50R,2.245000X1.725000*%
%ADD51R,0.650000X0.350000*%
%ADD52R,1.550000X2.400000*%
%ADD53RoundRect,0.100000X0.175000X0.100000X-0.175000X0.100000X-0.175000X-0.100000X0.175000X-0.100000X0*%
%ADD54RoundRect,0.100000X0.100000X0.175000X-0.100000X0.175000X-0.100000X-0.175000X0.100000X-0.175000X0*%
%ADD55RoundRect,0.200000X0.275000X-0.200000X0.275000X0.200000X-0.275000X0.200000X-0.275000X-0.200000X0*%
%ADD56RoundRect,0.500000X0.900000X-0.500000X0.900000X0.500000X-0.900000X0.500000X-0.900000X-0.500000X0*%
%ADD57C,1.524000*%
%ADD58RoundRect,0.200000X-0.200000X-0.275000X0.200000X-0.275000X0.200000X0.275000X-0.200000X0.275000X0*%
G04 APERTURE END LIST*
D10*
%TO.C,H1*%
X23600000Y28000000D03*
X24302944Y29697056D03*
X26000000Y30400000D03*
D11*
X26000000Y28000000D03*
D10*
X28400000Y28000000D03*
X24302944Y26302944D03*
X27697056Y29697056D03*
X27697056Y26302944D03*
X26000000Y25600000D03*
%TD*%
%TO.C,H2*%
X-24302944Y29697056D03*
X-23600000Y28000000D03*
X-26000000Y25600000D03*
X-28400000Y28000000D03*
X-27697056Y29697056D03*
D11*
X-26000000Y28000000D03*
D10*
X-26000000Y30400000D03*
X-27697056Y26302944D03*
X-24302944Y26302944D03*
%TD*%
%TO.C,H3*%
X-27697056Y-26302944D03*
X-26000000Y-25600000D03*
X-27697056Y-29697056D03*
X-24302944Y-29697056D03*
X-28400000Y-28000000D03*
X-24302944Y-26302944D03*
X-26000000Y-30400000D03*
X-23600000Y-28000000D03*
D11*
X-26000000Y-28000000D03*
%TD*%
D10*
%TO.C,H4*%
X27697056Y-26302944D03*
D11*
X26000000Y-28000000D03*
D10*
X27697056Y-29697056D03*
X23600000Y-28000000D03*
X24302944Y-29697056D03*
X26000000Y-25600000D03*
X28400000Y-28000000D03*
X26000000Y-30400000D03*
X24302944Y-26302944D03*
%TD*%
D12*
%TO.C,U9*%
X-10637000Y18780000D03*
X-10637000Y18280000D03*
X-10637000Y17780000D03*
X-10637000Y17280000D03*
X-10637000Y16780000D03*
D13*
X-11362000Y16555000D03*
X-11862000Y16555000D03*
X-12362000Y16555000D03*
D12*
X-13087000Y16780000D03*
X-13087000Y17280000D03*
X-13087000Y17780000D03*
X-13087000Y18280000D03*
X-13087000Y18780000D03*
D13*
X-12362000Y19005000D03*
X-11862000Y19005000D03*
X-11362000Y19005000D03*
%TD*%
D14*
%TO.C,C29*%
X35880000Y-13462000D03*
X37780000Y-13462000D03*
%TD*%
D15*
%TO.C,C12*%
X5588000Y10427000D03*
X5588000Y8877000D03*
%TD*%
D16*
%TO.C,J3*%
X-39370000Y-1606000D03*
X-39370000Y-5506000D03*
X-38100000Y-1606000D03*
X-38100000Y-5506000D03*
X-36830000Y-1606000D03*
X-36830000Y-5506000D03*
X-35560000Y-1606000D03*
X-35560000Y-5506000D03*
%TD*%
D15*
%TO.C,C2*%
X7620000Y25426000D03*
X7620000Y23876000D03*
%TD*%
D17*
%TO.C,J6*%
X-29038000Y7463000D03*
X-29038000Y6213000D03*
X-29038000Y4963000D03*
X-29038000Y3713000D03*
D18*
X-32388000Y1863000D03*
X-32388000Y9313000D03*
%TD*%
D19*
%TO.C,C7*%
X267000Y12446000D03*
X-1283000Y12446000D03*
%TD*%
D20*
%TO.C,D5*%
X22098000Y19424250D03*
X22098000Y20999250D03*
%TD*%
D21*
%TO.C,J7*%
X-25826000Y14083283D03*
X-25826000Y15333283D03*
X-25826000Y16583283D03*
X-25826000Y17833283D03*
D22*
X-22476000Y19683283D03*
X-22476000Y12233283D03*
%TD*%
D23*
%TO.C,C27*%
X-13907000Y22339000D03*
X-12357000Y22339000D03*
%TD*%
D15*
%TO.C,C3*%
X7950000Y14999000D03*
X7950000Y13449000D03*
%TD*%
D24*
%TO.C,X1*%
X-6858000Y32088000D03*
X-4318000Y32088000D03*
X-4318000Y29888000D03*
X-6858000Y29888000D03*
%TD*%
D25*
%TO.C,U8*%
X14048500Y16830000D03*
X14048500Y18730000D03*
X15923500Y17780000D03*
%TD*%
D26*
%TO.C,SuperCap1*%
X4200000Y-254000D03*
X-4200000Y-254000D03*
%TD*%
D27*
%TO.C,U3*%
X14351000Y20892000D03*
X13081000Y20892000D03*
X11811000Y20892000D03*
X10541000Y20892000D03*
X10541000Y28892000D03*
X11811000Y28892000D03*
X13081000Y28892000D03*
X14351000Y28892000D03*
D28*
X12446000Y24892000D03*
%TD*%
D29*
%TO.C,R9*%
X7620000Y7175000D03*
X7620000Y5525000D03*
%TD*%
D19*
%TO.C,C9*%
X-8890000Y14986000D03*
X-10440000Y14986000D03*
%TD*%
D29*
%TO.C,R11*%
X-19558000Y15395000D03*
X-19558000Y13745000D03*
%TD*%
D19*
%TO.C,C11*%
X7633000Y27178000D03*
X6083000Y27178000D03*
%TD*%
D30*
%TO.C,U2*%
X-5944000Y27769500D03*
X-5444000Y27769500D03*
X-4944000Y27769500D03*
X-4444000Y27769500D03*
X-3944000Y27769500D03*
X-3444000Y27769500D03*
X-2944000Y27769500D03*
X-2444000Y27769500D03*
X-1944000Y27769500D03*
X-1444000Y27769500D03*
X-944000Y27769500D03*
X-444000Y27769500D03*
X56000Y27769500D03*
X556000Y27769500D03*
X1056000Y27769500D03*
X1556000Y27769500D03*
X2056000Y27769500D03*
X2556000Y27769500D03*
X3056000Y27769500D03*
X3556000Y27769500D03*
D31*
X5493500Y25832000D03*
X5493500Y25332000D03*
X5493500Y24832000D03*
X5493500Y24332000D03*
X5493500Y23832000D03*
X5493500Y23332000D03*
X5493500Y22832000D03*
X5493500Y22332000D03*
X5493500Y21832000D03*
X5493500Y21332000D03*
X5493500Y20832000D03*
X5493500Y20332000D03*
X5493500Y19832000D03*
X5493500Y19332000D03*
X5493500Y18832000D03*
X5493500Y18332000D03*
X5493500Y17832000D03*
X5493500Y17332000D03*
X5493500Y16832000D03*
X5493500Y16332000D03*
D30*
X3556000Y14394500D03*
X3056000Y14394500D03*
X2556000Y14394500D03*
X2056000Y14394500D03*
X1556000Y14394500D03*
X1056000Y14394500D03*
X556000Y14394500D03*
X56000Y14394500D03*
X-444000Y14394500D03*
X-944000Y14394500D03*
X-1444000Y14394500D03*
X-1944000Y14394500D03*
X-2444000Y14394500D03*
X-2944000Y14394500D03*
X-3444000Y14394500D03*
X-3944000Y14394500D03*
X-4444000Y14394500D03*
X-4944000Y14394500D03*
X-5444000Y14394500D03*
X-5944000Y14394500D03*
D31*
X-7881500Y16332000D03*
X-7881500Y16832000D03*
X-7881500Y17332000D03*
X-7881500Y17832000D03*
X-7881500Y18332000D03*
X-7881500Y18832000D03*
X-7881500Y19332000D03*
X-7881500Y19832000D03*
X-7881500Y20332000D03*
X-7881500Y20832000D03*
X-7881500Y21332000D03*
X-7881500Y21832000D03*
X-7881500Y22332000D03*
X-7881500Y22832000D03*
X-7881500Y23332000D03*
X-7881500Y23832000D03*
X-7881500Y24332000D03*
X-7881500Y24832000D03*
X-7881500Y25332000D03*
X-7881500Y25832000D03*
%TD*%
D15*
%TO.C,C34*%
X8140000Y30585000D03*
X8140000Y29035000D03*
%TD*%
D17*
%TO.C,J5*%
X-29038000Y17833283D03*
X-29038000Y16583283D03*
X-29038000Y15333283D03*
X-29038000Y14083283D03*
D18*
X-32388000Y19683283D03*
X-32388000Y12233283D03*
%TD*%
D29*
%TO.C,R5*%
X-10922000Y33083000D03*
X-10922000Y31433000D03*
%TD*%
D14*
%TO.C,C24*%
X17846000Y22098000D03*
X19746000Y22098000D03*
%TD*%
D32*
%TO.C,LS1*%
X-17200000Y32448000D03*
X-17200000Y24448000D03*
%TD*%
D20*
%TO.C,D1*%
X31242000Y19398750D03*
X31242000Y20973750D03*
%TD*%
D29*
%TO.C,R17*%
X23876000Y21036750D03*
X23876000Y19386750D03*
%TD*%
D33*
%TO.C,D4*%
X10922000Y17418000D03*
X10922000Y16618000D03*
%TD*%
D23*
%TO.C,C28*%
X-13894000Y20574000D03*
X-12344000Y20574000D03*
%TD*%
D19*
%TO.C,C13*%
X-18141500Y3048000D03*
X-19691500Y3048000D03*
%TD*%
D29*
%TO.C,R10*%
X-19678500Y6450569D03*
X-19678500Y4800569D03*
%TD*%
D15*
%TO.C,C19*%
X13208000Y33487000D03*
X13208000Y31937000D03*
%TD*%
D19*
%TO.C,C14*%
X-18021000Y12030000D03*
X-19571000Y12030000D03*
%TD*%
D34*
%TO.C,C1*%
X-9398000Y28435000D03*
X-9398000Y29985000D03*
%TD*%
D15*
%TO.C,C22*%
X21336000Y32217000D03*
X21336000Y30667000D03*
%TD*%
D23*
%TO.C,C30*%
X36055000Y-15240000D03*
X37605000Y-15240000D03*
%TD*%
D35*
%TO.C,R7*%
X3111000Y32004000D03*
X1461000Y32004000D03*
%TD*%
D36*
%TO.C,JP1*%
X-9906000Y5476000D03*
X-9906000Y4176000D03*
%TD*%
D34*
%TO.C,C5*%
X-9700000Y24225000D03*
X-9700000Y25775000D03*
%TD*%
D37*
%TO.C,U7*%
X16825500Y31192500D03*
X16825500Y31692500D03*
X16825500Y32192500D03*
X16825500Y32692500D03*
D38*
X17538000Y33405000D03*
X18038000Y33405000D03*
X18538000Y33405000D03*
X19038000Y33405000D03*
D37*
X19750500Y32692500D03*
X19750500Y32192500D03*
X19750500Y31692500D03*
X19750500Y31192500D03*
D38*
X19038000Y30480000D03*
X18538000Y30480000D03*
X18038000Y30480000D03*
X17538000Y30480000D03*
D39*
X18288000Y31942500D03*
%TD*%
D35*
%TO.C,R12*%
X18605000Y34922500D03*
X16955000Y34922500D03*
%TD*%
D40*
%TO.C,L1*%
X18288000Y28962000D03*
X18288000Y26162000D03*
%TD*%
D41*
%TO.C,J1*%
X-488000Y36506000D03*
D42*
X762000Y37846000D03*
D43*
X-1738000Y37846000D03*
%TD*%
D21*
%TO.C,J4*%
X-25826000Y3713000D03*
X-25826000Y4963000D03*
X-25826000Y6213000D03*
X-25826000Y7463000D03*
D22*
X-22476000Y1863000D03*
X-22476000Y9313000D03*
%TD*%
D23*
%TO.C,C21*%
X-3569000Y-6604000D03*
X-2019000Y-6604000D03*
%TD*%
D36*
%TO.C,JP2*%
X36576000Y-478000D03*
X36576000Y-1778000D03*
%TD*%
D20*
%TO.C,LED2*%
X-9652000Y9528365D03*
X-9652000Y11103365D03*
%TD*%
D29*
%TO.C,R2*%
X-6559750Y11134115D03*
X-6559750Y9484115D03*
%TD*%
D15*
%TO.C,C26*%
X12192000Y18301000D03*
X12192000Y16751000D03*
%TD*%
D19*
%TO.C,C17*%
X-14973000Y12030000D03*
X-16523000Y12030000D03*
%TD*%
D34*
%TO.C,C4*%
X7620000Y20574000D03*
X7620000Y22124000D03*
%TD*%
D19*
%TO.C,C16*%
X-15093500Y3048000D03*
X-16643500Y3048000D03*
%TD*%
D20*
%TO.C,D3*%
X26670000Y19424250D03*
X26670000Y20999250D03*
%TD*%
D19*
%TO.C,C15*%
X3590500Y6293500D03*
X2040500Y6293500D03*
%TD*%
D44*
%TO.C,D2*%
X5842000Y7450000D03*
X5842000Y5250000D03*
%TD*%
D29*
%TO.C,R3*%
X-11430000Y11140865D03*
X-11430000Y9490865D03*
%TD*%
%TO.C,R6*%
X33020000Y21011250D03*
X33020000Y19361250D03*
%TD*%
D15*
%TO.C,C25*%
X17780000Y18301000D03*
X17780000Y16751000D03*
%TD*%
D45*
%TO.C,U4*%
X3831500Y8228500D03*
X1931500Y8228500D03*
X2881500Y10103500D03*
%TD*%
D14*
%TO.C,C23*%
X17846000Y24308500D03*
X19746000Y24308500D03*
%TD*%
D46*
%TO.C,J2*%
X-11910000Y-4957000D03*
X-14450000Y-1647000D03*
X-16990000Y-4957000D03*
X-19530000Y-1647000D03*
X-22070000Y-4957000D03*
X-24610000Y-1647000D03*
X-27150000Y-4957000D03*
X-29690000Y-1647000D03*
%TD*%
D34*
%TO.C,C31*%
X-10833000Y20561000D03*
X-10833000Y22111000D03*
%TD*%
D47*
%TO.C,C18*%
X14986000Y33408000D03*
X14986000Y31508000D03*
%TD*%
D48*
%TO.C,Q1*%
X-18592000Y19444000D03*
D49*
X-17932000Y22429000D03*
X-16612000Y22429000D03*
X-17272000Y22429000D03*
D50*
X-17602000Y21436500D03*
D49*
X-18592000Y22429000D03*
D48*
X-16612000Y19444000D03*
X-17272000Y19444000D03*
X-17932000Y19444000D03*
%TD*%
D51*
%TO.C,U6*%
X-15087000Y15580000D03*
X-15087000Y14930000D03*
X-15087000Y14280000D03*
X-15087000Y13630000D03*
X-18187000Y13630000D03*
X-18187000Y14280000D03*
X-18187000Y14930000D03*
X-18187000Y15580000D03*
D52*
X-16637000Y14605000D03*
%TD*%
D15*
%TO.C,C20*%
X-6604000Y3823000D03*
X-6604000Y2273000D03*
%TD*%
D23*
%TO.C,C33*%
X4825000Y32284000D03*
X6375000Y32284000D03*
%TD*%
D35*
%TO.C,R4*%
X-16701000Y17780000D03*
X-18351000Y17780000D03*
%TD*%
D15*
%TO.C,C32*%
X-14416191Y18809000D03*
X-14416191Y17259000D03*
%TD*%
D51*
%TO.C,U5*%
X-15214000Y6563000D03*
X-15214000Y5913000D03*
X-15214000Y5263000D03*
X-15214000Y4613000D03*
X-18314000Y4613000D03*
X-18314000Y5263000D03*
X-18314000Y5913000D03*
X-18314000Y6563000D03*
D52*
X-16764000Y5588000D03*
%TD*%
D29*
%TO.C,R14*%
X28448000Y21036750D03*
X28448000Y19386750D03*
%TD*%
D53*
%TO.C,U11*%
X6604000Y30064000D03*
X6604000Y29464000D03*
D54*
X6279000Y28839000D03*
X5679000Y28839000D03*
X5079000Y28839000D03*
D53*
X4754000Y29464000D03*
X4754000Y30064000D03*
D54*
X5079000Y30689000D03*
X5679000Y30689000D03*
X6279000Y30689000D03*
%TD*%
D35*
%TO.C,R16*%
X-191000Y30226000D03*
X-1841000Y30226000D03*
%TD*%
D19*
%TO.C,C8*%
X11443000Y30480000D03*
X9893000Y30480000D03*
%TD*%
D34*
%TO.C,C35*%
X-9398000Y31483000D03*
X-9398000Y33033000D03*
%TD*%
D55*
%TO.C,R1*%
X-10922000Y28385000D03*
X-10922000Y30035000D03*
%TD*%
D56*
%TO.C,U10*%
X33114000Y-17810000D03*
X33114000Y-13810000D03*
X33114000Y-9810000D03*
X33114000Y-5810000D03*
X33114000Y-1810000D03*
X33114000Y2190000D03*
X33114000Y6190000D03*
X33114000Y10190000D03*
X13114000Y10190000D03*
X13114000Y6190000D03*
X13114000Y2190000D03*
X13114000Y-1810000D03*
X13114000Y-5810000D03*
X13114000Y-9810000D03*
X13114000Y-13810000D03*
X13114000Y-17810000D03*
%TD*%
D57*
%TO.C,J12*%
X8800000Y-21200000D03*
X7530000Y-19930000D03*
X10070000Y-19930000D03*
X10070000Y-22470000D03*
X7530000Y-22470000D03*
%TD*%
D35*
%TO.C,R8*%
X-191000Y32004000D03*
X-1841000Y32004000D03*
%TD*%
D15*
%TO.C,C6*%
X6172000Y14999000D03*
X6172000Y13449000D03*
%TD*%
D35*
%TO.C,R15*%
X3111000Y30226000D03*
X1461000Y30226000D03*
%TD*%
D34*
%TO.C,C10*%
X-11200000Y24225000D03*
X-11200000Y25775000D03*
%TD*%
D20*
%TO.C,LED1*%
X-4781750Y9521615D03*
X-4781750Y11096615D03*
%TD*%
D58*
%TO.C,R13*%
X13653000Y34922500D03*
X15303000Y34922500D03*
%TD*%
M02*
