%TF.GenerationSoftware,KiCad,Pcbnew,6.0.5-a6ca702e91~116~ubuntu20.04.1*%
%TF.CreationDate,2022-05-11T23:16:09+02:00*%
%TF.ProjectId,uHoubolt_PCB_GNSS,75486f75-626f-46c7-945f-5043425f474e,rev?*%
%TF.SameCoordinates,PX8f0d180PY5f5e100*%
%TF.FileFunction,Legend,Bot*%
%TF.FilePolarity,Positive*%
%FSLAX46Y46*%
G04 Gerber Fmt 4.6, Leading zero omitted, Abs format (unit mm)*
G04 Created by KiCad (PCBNEW 6.0.5-a6ca702e91~116~ubuntu20.04.1) date 2022-05-11 23:16:09*
%MOMM*%
%LPD*%
G01*
G04 APERTURE LIST*
%ADD10C,0.120000*%
%ADD11C,0.150000*%
%ADD12C,0.500000*%
%ADD13C,0.200000*%
%ADD14C,0.250000*%
%ADD15C,0.300000*%
%ADD16C,0.010000*%
G04 APERTURE END LIST*
D10*
X20574000Y22098000D02*
X34290000Y22098000D01*
X34290000Y22098000D02*
X34290000Y16510000D01*
X34290000Y16510000D02*
X20574000Y16510000D01*
X20574000Y16510000D02*
X20574000Y22098000D01*
X-2286000Y8128000D02*
X-2286000Y12192000D01*
X-35052000Y10922000D02*
X-20574000Y10922000D01*
X-20574000Y10922000D02*
X-20574000Y21082000D01*
X-20574000Y21082000D02*
X-35052000Y21082000D01*
X-35052000Y21082000D02*
X-35052000Y10922000D01*
X-20574000Y10705569D02*
X-35052000Y10705569D01*
X-35052000Y10705569D02*
X-35052000Y545569D01*
X-35052000Y545569D02*
X-20574000Y545569D01*
X-20574000Y545569D02*
X-20574000Y10705569D01*
X-12954000Y12192000D02*
X-12954000Y8128000D01*
X-12954000Y8128000D02*
X-2286000Y8128000D01*
X-2286000Y12322365D02*
X-12954000Y12322365D01*
X-40194000Y254000D02*
X-9800000Y254000D01*
X-9800000Y254000D02*
X-9800000Y-7366000D01*
X-9800000Y-7366000D02*
X-40194000Y-7366000D01*
X-40194000Y-7366000D02*
X-40194000Y254000D01*
D11*
X-7647620Y11419048D02*
X-7647620Y11895239D01*
X-8647620Y11895239D01*
X-8171429Y11085715D02*
X-8171429Y10752381D01*
X-7647620Y10609524D02*
X-7647620Y11085715D01*
X-8647620Y11085715D01*
X-8647620Y10609524D01*
X-7647620Y10180953D02*
X-8647620Y10180953D01*
X-8647620Y9942858D01*
X-8600000Y9800000D01*
X-8504762Y9704762D01*
X-8409524Y9657143D01*
X-8219048Y9609524D01*
X-8076191Y9609524D01*
X-7885715Y9657143D01*
X-7790477Y9704762D01*
X-7695239Y9800000D01*
X-7647620Y9942858D01*
X-7647620Y10180953D01*
X-8552381Y9228572D02*
X-8600000Y9180953D01*
X-8647620Y9085715D01*
X-8647620Y8847620D01*
X-8600000Y8752381D01*
X-8552381Y8704762D01*
X-8457143Y8657143D01*
X-8361905Y8657143D01*
X-8219048Y8704762D01*
X-7647620Y9276191D01*
X-7647620Y8657143D01*
X23590095Y18200620D02*
X22971047Y18200620D01*
X23304380Y17819667D01*
X23161523Y17819667D01*
X23066285Y17772048D01*
X23018666Y17724429D01*
X22971047Y17629191D01*
X22971047Y17391096D01*
X23018666Y17295858D01*
X23066285Y17248239D01*
X23161523Y17200620D01*
X23447238Y17200620D01*
X23542476Y17248239D01*
X23590095Y17295858D01*
X22685333Y18200620D02*
X22352000Y17200620D01*
X22018666Y18200620D01*
X21780571Y18200620D02*
X21161523Y18200620D01*
X21494857Y17819667D01*
X21352000Y17819667D01*
X21256761Y17772048D01*
X21209142Y17724429D01*
X21161523Y17629191D01*
X21161523Y17391096D01*
X21209142Y17295858D01*
X21256761Y17248239D01*
X21352000Y17200620D01*
X21637714Y17200620D01*
X21732952Y17248239D01*
X21780571Y17295858D01*
D12*
X-35607715Y18038096D02*
X-35512477Y18133334D01*
X-35417239Y18419048D01*
X-35417239Y18609524D01*
X-35512477Y18895239D01*
X-35702953Y19085715D01*
X-35893429Y19180953D01*
X-36274381Y19276191D01*
X-36560096Y19276191D01*
X-36941048Y19180953D01*
X-37131524Y19085715D01*
X-37322000Y18895239D01*
X-37417239Y18609524D01*
X-37417239Y18419048D01*
X-37322000Y18133334D01*
X-37226762Y18038096D01*
X-35988667Y17276191D02*
X-35988667Y16323810D01*
X-35417239Y17466667D02*
X-37417239Y16800000D01*
X-35417239Y16133334D01*
X-35417239Y15466667D02*
X-37417239Y15466667D01*
X-35417239Y14323810D01*
X-37417239Y14323810D01*
X-35417239Y12323810D02*
X-35417239Y13466667D01*
X-35417239Y12895239D02*
X-37417239Y12895239D01*
X-37131524Y13085715D01*
X-36941048Y13276191D01*
X-36845810Y13466667D01*
D11*
X32115047Y17193870D02*
X32686476Y17193870D01*
X32400761Y17193870D02*
X32400761Y18193870D01*
X32496000Y18051012D01*
X32591238Y17955774D01*
X32686476Y17908155D01*
X31734095Y18098631D02*
X31686476Y18146250D01*
X31591238Y18193870D01*
X31353142Y18193870D01*
X31257904Y18146250D01*
X31210285Y18098631D01*
X31162666Y18003393D01*
X31162666Y17908155D01*
X31210285Y17765298D01*
X31781714Y17193870D01*
X31162666Y17193870D01*
X30876952Y18193870D02*
X30543619Y17193870D01*
X30210285Y18193870D01*
D13*
X-4057143Y-25414285D02*
X-3657143Y-25414285D01*
X-3657143Y-26042857D02*
X-3657143Y-24842857D01*
X-4228572Y-24842857D01*
X-5200000Y-26042857D02*
X-5200000Y-25414285D01*
X-5142858Y-25300000D01*
X-5028572Y-25242857D01*
X-4800000Y-25242857D01*
X-4685715Y-25300000D01*
X-5200000Y-25985714D02*
X-5085715Y-26042857D01*
X-4800000Y-26042857D01*
X-4685715Y-25985714D01*
X-4628572Y-25871428D01*
X-4628572Y-25757142D01*
X-4685715Y-25642857D01*
X-4800000Y-25585714D01*
X-5085715Y-25585714D01*
X-5200000Y-25528571D01*
X-5771429Y-26042857D02*
X-5771429Y-24842857D01*
X-5771429Y-25300000D02*
X-5885715Y-25242857D01*
X-6114286Y-25242857D01*
X-6228572Y-25300000D01*
X-6285715Y-25357142D01*
X-6342858Y-25471428D01*
X-6342858Y-25814285D01*
X-6285715Y-25928571D01*
X-6228572Y-25985714D01*
X-6114286Y-26042857D01*
X-5885715Y-26042857D01*
X-5771429Y-25985714D01*
X-6857143Y-26042857D02*
X-6857143Y-25242857D01*
X-6857143Y-24842857D02*
X-6800000Y-24900000D01*
X-6857143Y-24957142D01*
X-6914286Y-24900000D01*
X-6857143Y-24842857D01*
X-6857143Y-24957142D01*
X-7600000Y-26042857D02*
X-7485715Y-25985714D01*
X-7428572Y-25928571D01*
X-7371429Y-25814285D01*
X-7371429Y-25471428D01*
X-7428572Y-25357142D01*
X-7485715Y-25300000D01*
X-7600000Y-25242857D01*
X-7771429Y-25242857D01*
X-7885715Y-25300000D01*
X-7942858Y-25357142D01*
X-8000000Y-25471428D01*
X-8000000Y-25814285D01*
X-7942858Y-25928571D01*
X-7885715Y-25985714D01*
X-7771429Y-26042857D01*
X-7600000Y-26042857D01*
X-9371429Y-25985714D02*
X-9542858Y-26042857D01*
X-9828572Y-26042857D01*
X-9942858Y-25985714D01*
X-10000000Y-25928571D01*
X-10057143Y-25814285D01*
X-10057143Y-25700000D01*
X-10000000Y-25585714D01*
X-9942858Y-25528571D01*
X-9828572Y-25471428D01*
X-9600000Y-25414285D01*
X-9485715Y-25357142D01*
X-9428572Y-25300000D01*
X-9371429Y-25185714D01*
X-9371429Y-25071428D01*
X-9428572Y-24957142D01*
X-9485715Y-24900000D01*
X-9600000Y-24842857D01*
X-9885715Y-24842857D01*
X-10057143Y-24900000D01*
X-11085715Y-25985714D02*
X-10971429Y-26042857D01*
X-10742858Y-26042857D01*
X-10628572Y-25985714D01*
X-10571429Y-25928571D01*
X-10514286Y-25814285D01*
X-10514286Y-25471428D01*
X-10571429Y-25357142D01*
X-10628572Y-25300000D01*
X-10742858Y-25242857D01*
X-10971429Y-25242857D01*
X-11085715Y-25300000D01*
X-11600000Y-26042857D02*
X-11600000Y-24842857D01*
X-12114286Y-26042857D02*
X-12114286Y-25414285D01*
X-12057143Y-25300000D01*
X-11942858Y-25242857D01*
X-11771429Y-25242857D01*
X-11657143Y-25300000D01*
X-11600000Y-25357142D01*
X-13200000Y-26042857D02*
X-13200000Y-25414285D01*
X-13142858Y-25300000D01*
X-13028572Y-25242857D01*
X-12800000Y-25242857D01*
X-12685715Y-25300000D01*
X-13200000Y-25985714D02*
X-13085715Y-26042857D01*
X-12800000Y-26042857D01*
X-12685715Y-25985714D01*
X-12628572Y-25871428D01*
X-12628572Y-25757142D01*
X-12685715Y-25642857D01*
X-12800000Y-25585714D01*
X-13085715Y-25585714D01*
X-13200000Y-25528571D01*
X-13771429Y-26042857D02*
X-13771429Y-25242857D01*
X-13771429Y-25471428D02*
X-13828572Y-25357142D01*
X-13885715Y-25300000D01*
X-14000000Y-25242857D01*
X-14114286Y-25242857D01*
X-14342858Y-25242857D02*
X-14800000Y-25242857D01*
X-14514286Y-24842857D02*
X-14514286Y-25871428D01*
X-14571429Y-25985714D01*
X-14685715Y-26042857D01*
X-14800000Y-26042857D01*
X-15200000Y-26042857D02*
X-15200000Y-25242857D01*
X-15200000Y-25357142D02*
X-15257143Y-25300000D01*
X-15371429Y-25242857D01*
X-15542858Y-25242857D01*
X-15657143Y-25300000D01*
X-15714286Y-25414285D01*
X-15714286Y-26042857D01*
X-15714286Y-25414285D02*
X-15771429Y-25300000D01*
X-15885715Y-25242857D01*
X-16057143Y-25242857D01*
X-16171429Y-25300000D01*
X-16228572Y-25414285D01*
X-16228572Y-26042857D01*
X-17314286Y-25242857D02*
X-17314286Y-26042857D01*
X-16800000Y-25242857D02*
X-16800000Y-25871428D01*
X-16857143Y-25985714D01*
X-16971429Y-26042857D01*
X-17142858Y-26042857D01*
X-17257143Y-25985714D01*
X-17314286Y-25928571D01*
X-16857143Y-24842857D02*
X-16914286Y-24900000D01*
X-16857143Y-24957142D01*
X-16800000Y-24900000D01*
X-16857143Y-24842857D01*
X-16857143Y-24957142D01*
X-17314286Y-24842857D02*
X-17371429Y-24900000D01*
X-17314286Y-24957142D01*
X-17257143Y-24900000D01*
X-17314286Y-24842857D01*
X-17314286Y-24957142D01*
X-18057143Y-26042857D02*
X-17942858Y-25985714D01*
X-17885715Y-25871428D01*
X-17885715Y-24842857D01*
X-18685715Y-26042857D02*
X-18571429Y-25985714D01*
X-18514286Y-25871428D01*
X-18514286Y-24842857D01*
X-19600000Y-25985714D02*
X-19485715Y-26042857D01*
X-19257143Y-26042857D01*
X-19142858Y-25985714D01*
X-19085715Y-25871428D01*
X-19085715Y-25414285D01*
X-19142858Y-25300000D01*
X-19257143Y-25242857D01*
X-19485715Y-25242857D01*
X-19600000Y-25300000D01*
X-19657143Y-25414285D01*
X-19657143Y-25528571D01*
X-19085715Y-25642857D01*
X-20171429Y-26042857D02*
X-20171429Y-25242857D01*
X-20171429Y-25471428D02*
X-20228572Y-25357142D01*
X-20285715Y-25300000D01*
X-20400000Y-25242857D01*
X-20514286Y-25242857D01*
D14*
X-7921429Y-484571D02*
X-9421429Y-484571D01*
X-9421429Y-841714D01*
X-9350000Y-1056000D01*
X-9207143Y-1198857D01*
X-9064286Y-1270285D01*
X-8778572Y-1341714D01*
X-8564286Y-1341714D01*
X-8278572Y-1270285D01*
X-8135715Y-1198857D01*
X-7992858Y-1056000D01*
X-7921429Y-841714D01*
X-7921429Y-484571D01*
X-7992858Y-2556000D02*
X-7921429Y-2413142D01*
X-7921429Y-2127428D01*
X-7992858Y-1984571D01*
X-8135715Y-1913142D01*
X-8707143Y-1913142D01*
X-8850000Y-1984571D01*
X-8921429Y-2127428D01*
X-8921429Y-2413142D01*
X-8850000Y-2556000D01*
X-8707143Y-2627428D01*
X-8564286Y-2627428D01*
X-8421429Y-1913142D01*
X-7921429Y-3270285D02*
X-9421429Y-3270285D01*
X-8850000Y-3270285D02*
X-8921429Y-3413142D01*
X-8921429Y-3698857D01*
X-8850000Y-3841714D01*
X-8778572Y-3913142D01*
X-8635715Y-3984571D01*
X-8207143Y-3984571D01*
X-8064286Y-3913142D01*
X-7992858Y-3841714D01*
X-7921429Y-3698857D01*
X-7921429Y-3413142D01*
X-7992858Y-3270285D01*
X-8921429Y-5270285D02*
X-7921429Y-5270285D01*
X-8921429Y-4627428D02*
X-8135715Y-4627428D01*
X-7992858Y-4698857D01*
X-7921429Y-4841714D01*
X-7921429Y-5056000D01*
X-7992858Y-5198857D01*
X-8064286Y-5270285D01*
X-8921429Y-6627428D02*
X-7707143Y-6627428D01*
X-7564286Y-6556000D01*
X-7492858Y-6484571D01*
X-7421429Y-6341714D01*
X-7421429Y-6127428D01*
X-7492858Y-5984571D01*
X-7992858Y-6627428D02*
X-7921429Y-6484571D01*
X-7921429Y-6198857D01*
X-7992858Y-6056000D01*
X-8064286Y-5984571D01*
X-8207143Y-5913142D01*
X-8635715Y-5913142D01*
X-8778572Y-5984571D01*
X-8850000Y-6056000D01*
X-8921429Y-6198857D01*
X-8921429Y-6484571D01*
X-8850000Y-6627428D01*
D15*
X3428571Y37892858D02*
X4571428Y37892858D01*
X4000000Y37321429D02*
X4000000Y38464286D01*
D11*
X-39655715Y563620D02*
X-39084286Y563620D01*
X-39370000Y563620D02*
X-39370000Y1563620D01*
X-39274762Y1420762D01*
X-39179524Y1325524D01*
X-39084286Y1277905D01*
X27114476Y18193870D02*
X27590666Y18193870D01*
X27638285Y17717679D01*
X27590666Y17765298D01*
X27495428Y17812917D01*
X27257333Y17812917D01*
X27162095Y17765298D01*
X27114476Y17717679D01*
X27066857Y17622441D01*
X27066857Y17384346D01*
X27114476Y17289108D01*
X27162095Y17241489D01*
X27257333Y17193870D01*
X27495428Y17193870D01*
X27590666Y17241489D01*
X27638285Y17289108D01*
X26781142Y18193870D02*
X26447809Y17193870D01*
X26114476Y18193870D01*
D12*
X-6666667Y-23904761D02*
X-6000000Y-22952380D01*
X-5523810Y-23904761D02*
X-5523810Y-21904761D01*
X-6285715Y-21904761D01*
X-6476191Y-22000000D01*
X-6571429Y-22095238D01*
X-6666667Y-22285714D01*
X-6666667Y-22571428D01*
X-6571429Y-22761904D01*
X-6476191Y-22857142D01*
X-6285715Y-22952380D01*
X-5523810Y-22952380D01*
X-8666667Y-23714285D02*
X-8571429Y-23809523D01*
X-8285715Y-23904761D01*
X-8095239Y-23904761D01*
X-7809524Y-23809523D01*
X-7619048Y-23619047D01*
X-7523810Y-23428571D01*
X-7428572Y-23047619D01*
X-7428572Y-22761904D01*
X-7523810Y-22380952D01*
X-7619048Y-22190476D01*
X-7809524Y-22000000D01*
X-8095239Y-21904761D01*
X-8285715Y-21904761D01*
X-8571429Y-22000000D01*
X-8666667Y-22095238D01*
X-9523810Y-21904761D02*
X-9523810Y-23523809D01*
X-9619048Y-23714285D01*
X-9714286Y-23809523D01*
X-9904762Y-23904761D01*
X-10285715Y-23904761D01*
X-10476191Y-23809523D01*
X-10571429Y-23714285D01*
X-10666667Y-23523809D01*
X-10666667Y-21904761D01*
X-12952381Y-22571428D02*
X-13428572Y-23904761D01*
X-13904762Y-22571428D01*
X-15714286Y-23904761D02*
X-14571429Y-23904761D01*
X-15142858Y-23904761D02*
X-15142858Y-21904761D01*
X-14952381Y-22190476D01*
X-14761905Y-22380952D01*
X-14571429Y-22476190D01*
X-16571429Y-23714285D02*
X-16666667Y-23809523D01*
X-16571429Y-23904761D01*
X-16476191Y-23809523D01*
X-16571429Y-23714285D01*
X-16571429Y-23904761D01*
X-17904762Y-21904761D02*
X-18095239Y-21904761D01*
X-18285715Y-22000000D01*
X-18380953Y-22095238D01*
X-18476191Y-22285714D01*
X-18571429Y-22666666D01*
X-18571429Y-23142857D01*
X-18476191Y-23523809D01*
X-18380953Y-23714285D01*
X-18285715Y-23809523D01*
X-18095239Y-23904761D01*
X-17904762Y-23904761D01*
X-17714286Y-23809523D01*
X-17619048Y-23714285D01*
X-17523810Y-23523809D01*
X-17428572Y-23142857D01*
X-17428572Y-22666666D01*
X-17523810Y-22285714D01*
X-17619048Y-22095238D01*
X-17714286Y-22000000D01*
X-17904762Y-21904761D01*
D11*
X3619047Y18647620D02*
X3619047Y17933334D01*
X3666666Y17790477D01*
X3761904Y17695239D01*
X3904761Y17647620D01*
X4000000Y17647620D01*
X2666666Y17647620D02*
X3142857Y17647620D01*
X3142857Y18647620D01*
X1761904Y17742858D02*
X1809523Y17695239D01*
X1952380Y17647620D01*
X2047619Y17647620D01*
X2190476Y17695239D01*
X2285714Y17790477D01*
X2333333Y17885715D01*
X2380952Y18076191D01*
X2380952Y18219048D01*
X2333333Y18409524D01*
X2285714Y18504762D01*
X2190476Y18600000D01*
X2047619Y18647620D01*
X1952380Y18647620D01*
X1809523Y18600000D01*
X1761904Y18552381D01*
X1047619Y18647620D02*
X1047619Y17933334D01*
X1095238Y17790477D01*
X1190476Y17695239D01*
X1333333Y17647620D01*
X1428571Y17647620D01*
X95238Y17647620D02*
X571428Y17647620D01*
X571428Y18647620D01*
X-809524Y17742858D02*
X-761905Y17695239D01*
X-619048Y17647620D01*
X-523810Y17647620D01*
X-380953Y17695239D01*
X-285715Y17790477D01*
X-238096Y17885715D01*
X-190477Y18076191D01*
X-190477Y18219048D01*
X-238096Y18409524D01*
X-285715Y18504762D01*
X-380953Y18600000D01*
X-523810Y18647620D01*
X-619048Y18647620D01*
X-761905Y18600000D01*
X-809524Y18552381D01*
X-1523810Y18647620D02*
X-1523810Y17933334D01*
X-1476191Y17790477D01*
X-1380953Y17695239D01*
X-1238096Y17647620D01*
X-1142858Y17647620D01*
X-2476191Y17647620D02*
X-2000000Y17647620D01*
X-2000000Y18647620D01*
X-3380953Y17742858D02*
X-3333334Y17695239D01*
X-3190477Y17647620D01*
X-3095239Y17647620D01*
X-2952381Y17695239D01*
X-2857143Y17790477D01*
X-2809524Y17885715D01*
X-2761905Y18076191D01*
X-2761905Y18219048D01*
X-2809524Y18409524D01*
X-2857143Y18504762D01*
X-2952381Y18600000D01*
X-3095239Y18647620D01*
X-3190477Y18647620D01*
X-3333334Y18600000D01*
X-3380953Y18552381D01*
X-4095239Y18647620D02*
X-4095239Y17933334D01*
X-4047620Y17790477D01*
X-3952381Y17695239D01*
X-3809524Y17647620D01*
X-3714286Y17647620D01*
X-5047620Y17647620D02*
X-4571429Y17647620D01*
X-4571429Y18647620D01*
X-5952381Y17742858D02*
X-5904762Y17695239D01*
X-5761905Y17647620D01*
X-5666667Y17647620D01*
X-5523810Y17695239D01*
X-5428572Y17790477D01*
X-5380953Y17885715D01*
X-5333334Y18076191D01*
X-5333334Y18219048D01*
X-5380953Y18409524D01*
X-5428572Y18504762D01*
X-5523810Y18600000D01*
X-5666667Y18647620D01*
X-5761905Y18647620D01*
X-5904762Y18600000D01*
X-5952381Y18552381D01*
D12*
X-35607715Y7838096D02*
X-35512477Y7933334D01*
X-35417239Y8219048D01*
X-35417239Y8409524D01*
X-35512477Y8695239D01*
X-35702953Y8885715D01*
X-35893429Y8980953D01*
X-36274381Y9076191D01*
X-36560096Y9076191D01*
X-36941048Y8980953D01*
X-37131524Y8885715D01*
X-37322000Y8695239D01*
X-37417239Y8409524D01*
X-37417239Y8219048D01*
X-37322000Y7933334D01*
X-37226762Y7838096D01*
X-35988667Y7076191D02*
X-35988667Y6123810D01*
X-35417239Y7266667D02*
X-37417239Y6600000D01*
X-35417239Y5933334D01*
X-35417239Y5266667D02*
X-37417239Y5266667D01*
X-35417239Y4123810D01*
X-37417239Y4123810D01*
X-37226762Y3266667D02*
X-37322000Y3171429D01*
X-37417239Y2980953D01*
X-37417239Y2504762D01*
X-37322000Y2314286D01*
X-37226762Y2219048D01*
X-37036286Y2123810D01*
X-36845810Y2123810D01*
X-36560096Y2219048D01*
X-35417239Y3361905D01*
X-35417239Y2123810D01*
D11*
X-10885715Y-6452380D02*
X-10314286Y-6452380D01*
X-10600000Y-6452380D02*
X-10600000Y-5452380D01*
X-10504762Y-5595238D01*
X-10409524Y-5690476D01*
X-10314286Y-5738095D01*
X-2747620Y11419048D02*
X-2747620Y11895239D01*
X-3747620Y11895239D01*
X-3271429Y11085715D02*
X-3271429Y10752381D01*
X-2747620Y10609524D02*
X-2747620Y11085715D01*
X-3747620Y11085715D01*
X-3747620Y10609524D01*
X-2747620Y10180953D02*
X-3747620Y10180953D01*
X-3747620Y9942858D01*
X-3700000Y9800000D01*
X-3604762Y9704762D01*
X-3509524Y9657143D01*
X-3319048Y9609524D01*
X-3176191Y9609524D01*
X-2985715Y9657143D01*
X-2890477Y9704762D01*
X-2795239Y9800000D01*
X-2747620Y9942858D01*
X-2747620Y10180953D01*
X-2747620Y8657143D02*
X-2747620Y9228572D01*
X-2747620Y8942858D02*
X-3747620Y8942858D01*
X-3604762Y9038096D01*
X-3509524Y9133334D01*
X-3461905Y9228572D01*
D10*
%TO.C,U9*%
X-10927000Y16170000D02*
X-10252000Y16170000D01*
X-13472000Y16170000D02*
X-13472000Y16345000D01*
X-10252000Y16170000D02*
X-10252000Y16345000D01*
X-12797000Y19390000D02*
X-13472000Y19390000D01*
X-12797000Y16170000D02*
X-13472000Y16170000D01*
X-13472000Y19390000D02*
X-13472000Y19215000D01*
X-10927000Y19390000D02*
X-10252000Y19390000D01*
%TO.C,C29*%
X36568748Y-12727000D02*
X37091252Y-12727000D01*
X36568748Y-14197000D02*
X37091252Y-14197000D01*
%TO.C,C12*%
X6098000Y9792580D02*
X6098000Y9511420D01*
X5078000Y9792580D02*
X5078000Y9511420D01*
%TO.C,J3*%
X-40065000Y-5321000D02*
X-40000000Y-5321000D01*
X-40065000Y-1791000D02*
X-40065000Y-5321000D01*
X-40000000Y-466000D02*
X-40000000Y-1791000D01*
X-34930000Y-5321000D02*
X-34865000Y-5321000D01*
X-40065000Y-1791000D02*
X-40000000Y-1791000D01*
X-34930000Y-1791000D02*
X-34865000Y-1791000D01*
X-34865000Y-1791000D02*
X-34865000Y-5321000D01*
%TO.C,C2*%
X8130000Y24791580D02*
X8130000Y24510420D01*
X7110000Y24791580D02*
X7110000Y24510420D01*
%TO.C,J6*%
X-30728000Y1353000D02*
X-29128000Y1353000D01*
X-30728000Y9823000D02*
X-29128000Y9823000D01*
X-33598000Y8553000D02*
X-33598000Y2623000D01*
X-29128000Y8023000D02*
X-28188000Y8023000D01*
X-29128000Y9823000D02*
X-29128000Y8023000D01*
X-29128000Y1353000D02*
X-29128000Y3153000D01*
%TO.C,C7*%
X-367420Y11936000D02*
X-648580Y11936000D01*
X-367420Y12956000D02*
X-648580Y12956000D01*
%TO.C,D5*%
X22833000Y21011750D02*
X22833000Y18726750D01*
X21363000Y18726750D02*
X21363000Y21011750D01*
X22833000Y18726750D02*
X21363000Y18726750D01*
%TO.C,J7*%
X-24136000Y11723283D02*
X-25736000Y11723283D01*
X-25736000Y11723283D02*
X-25736000Y13523283D01*
X-21266000Y12993283D02*
X-21266000Y18923283D01*
X-25736000Y13523283D02*
X-26676000Y13523283D01*
X-24136000Y20193283D02*
X-25736000Y20193283D01*
X-25736000Y20193283D02*
X-25736000Y18393283D01*
%TO.C,C27*%
X-13272580Y22849000D02*
X-12991420Y22849000D01*
X-13272580Y21829000D02*
X-12991420Y21829000D01*
%TO.C,C3*%
X8460000Y14364580D02*
X8460000Y14083420D01*
X7440000Y14364580D02*
X7440000Y14083420D01*
%TO.C,X1*%
X-5958000Y29188000D02*
X-5218000Y29188000D01*
X-7758000Y32788000D02*
X-8288000Y32788000D01*
X-8288000Y29188000D02*
X-7758000Y29188000D01*
X-5958000Y32788000D02*
X-5958000Y33028000D01*
X-5218000Y32788000D02*
X-5958000Y32788000D01*
X-8288000Y32788000D02*
X-8288000Y29188000D01*
X-3418000Y29188000D02*
X-2888000Y29188000D01*
X-7758000Y33028000D02*
X-7758000Y32788000D01*
X-2888000Y29188000D02*
X-2888000Y32788000D01*
X-2888000Y32788000D02*
X-3418000Y32788000D01*
%TO.C,U8*%
X14986000Y19340000D02*
X15636000Y19340000D01*
X14986000Y16220000D02*
X15636000Y16220000D01*
X14986000Y16220000D02*
X13311000Y16220000D01*
X14986000Y19340000D02*
X14336000Y19340000D01*
%TO.C,SuperCap1*%
X6225000Y3131000D02*
X6225000Y1881000D01*
X5360000Y4041563D02*
X5360000Y1256000D01*
X5360000Y-4549563D02*
X5360000Y-1764000D01*
X-5360000Y5106000D02*
X-5360000Y1256000D01*
X4295563Y5106000D02*
X-5360000Y5106000D01*
X6850000Y2506000D02*
X5600000Y2506000D01*
X5360000Y-4549563D02*
X4295563Y-5614000D01*
X4295563Y-5614000D02*
X-5360000Y-5614000D01*
X5360000Y4041563D02*
X4295563Y5106000D01*
X-5360000Y-5614000D02*
X-5360000Y-1764000D01*
%TO.C,U3*%
X15246000Y21892000D02*
X15346000Y21892000D01*
X15346000Y21892000D02*
X15346000Y20392000D01*
X15446000Y27892000D02*
X15446000Y20392000D01*
X9446000Y21892000D02*
X9446000Y27892000D01*
X15446000Y20392000D02*
X15246000Y20392000D01*
X9446000Y27892000D02*
X15446000Y27892000D01*
X15446000Y21892000D02*
X9446000Y21892000D01*
X15246000Y20392000D02*
X15246000Y21892000D01*
%TO.C,R9*%
X7097500Y6587258D02*
X7097500Y6112742D01*
X8142500Y6587258D02*
X8142500Y6112742D01*
%TO.C,C9*%
X-9524420Y14476000D02*
X-9805580Y14476000D01*
X-9524420Y15496000D02*
X-9805580Y15496000D01*
%TO.C,G\u002A\u002A\u002A*%
G36*
X-12822977Y-12552364D02*
G01*
X-12656797Y-12552364D01*
X-12684312Y-12817909D01*
X-12694716Y-12931157D01*
X-12710822Y-13137342D01*
X-12727596Y-13379608D01*
X-12742737Y-13626091D01*
X-12773647Y-14168727D01*
X-12919135Y-14168727D01*
X-12969769Y-14166426D01*
X-13023146Y-14149518D01*
X-13073686Y-14104213D01*
X-13132089Y-14016793D01*
X-13209051Y-13873537D01*
X-13315273Y-13660727D01*
X-13321094Y-13648948D01*
X-13419349Y-13455812D01*
X-13504679Y-13298081D01*
X-13568112Y-13191728D01*
X-13600671Y-13152727D01*
X-13613024Y-13181330D01*
X-13627752Y-13285330D01*
X-13640193Y-13447566D01*
X-13648529Y-13649182D01*
X-13661637Y-14145636D01*
X-13958499Y-14174332D01*
X-14352704Y-13386951D01*
X-14360398Y-13371580D01*
X-14482502Y-13126372D01*
X-14588595Y-12911061D01*
X-14672288Y-12738793D01*
X-14727189Y-12622713D01*
X-14746909Y-12575967D01*
X-14746334Y-12573916D01*
X-14697589Y-12558628D01*
X-14594345Y-12552364D01*
X-14573398Y-12552512D01*
X-14515875Y-12558718D01*
X-14466786Y-12583594D01*
X-14416401Y-12640038D01*
X-14354989Y-12740942D01*
X-14272818Y-12899203D01*
X-14160157Y-13127716D01*
X-13878534Y-13703068D01*
X-13845348Y-13127716D01*
X-13845180Y-13124800D01*
X-13830816Y-12887108D01*
X-13817676Y-12726420D01*
X-13802025Y-12627669D01*
X-13780124Y-12575788D01*
X-13748235Y-12555708D01*
X-13702620Y-12552364D01*
X-13683939Y-12553609D01*
X-13634390Y-12573618D01*
X-13580345Y-12627699D01*
X-13513089Y-12728224D01*
X-13423907Y-12887564D01*
X-13304083Y-13118091D01*
X-13015091Y-13683818D01*
X-13002124Y-13118091D01*
X-12989157Y-12552363D01*
X-12822977Y-12552364D01*
G37*
D16*
X-12822977Y-12552364D02*
X-12656797Y-12552364D01*
X-12684312Y-12817909D01*
X-12694716Y-12931157D01*
X-12710822Y-13137342D01*
X-12727596Y-13379608D01*
X-12742737Y-13626091D01*
X-12773647Y-14168727D01*
X-12919135Y-14168727D01*
X-12969769Y-14166426D01*
X-13023146Y-14149518D01*
X-13073686Y-14104213D01*
X-13132089Y-14016793D01*
X-13209051Y-13873537D01*
X-13315273Y-13660727D01*
X-13321094Y-13648948D01*
X-13419349Y-13455812D01*
X-13504679Y-13298081D01*
X-13568112Y-13191728D01*
X-13600671Y-13152727D01*
X-13613024Y-13181330D01*
X-13627752Y-13285330D01*
X-13640193Y-13447566D01*
X-13648529Y-13649182D01*
X-13661637Y-14145636D01*
X-13958499Y-14174332D01*
X-14352704Y-13386951D01*
X-14360398Y-13371580D01*
X-14482502Y-13126372D01*
X-14588595Y-12911061D01*
X-14672288Y-12738793D01*
X-14727189Y-12622713D01*
X-14746909Y-12575967D01*
X-14746334Y-12573916D01*
X-14697589Y-12558628D01*
X-14594345Y-12552364D01*
X-14573398Y-12552512D01*
X-14515875Y-12558718D01*
X-14466786Y-12583594D01*
X-14416401Y-12640038D01*
X-14354989Y-12740942D01*
X-14272818Y-12899203D01*
X-14160157Y-13127716D01*
X-13878534Y-13703068D01*
X-13845348Y-13127716D01*
X-13845180Y-13124800D01*
X-13830816Y-12887108D01*
X-13817676Y-12726420D01*
X-13802025Y-12627669D01*
X-13780124Y-12575788D01*
X-13748235Y-12555708D01*
X-13702620Y-12552364D01*
X-13683939Y-12553609D01*
X-13634390Y-12573618D01*
X-13580345Y-12627699D01*
X-13513089Y-12728224D01*
X-13423907Y-12887564D01*
X-13304083Y-13118091D01*
X-13015091Y-13683818D01*
X-13002124Y-13118091D01*
X-12989157Y-12552363D01*
X-12822977Y-12552364D01*
G36*
X-23394360Y-16804602D02*
G01*
X-22978592Y-17500841D01*
X-22872403Y-16804602D01*
X-22766214Y-16108364D01*
X-21831738Y-16108364D01*
X-21564708Y-17320636D01*
X-21495080Y-17636471D01*
X-21428244Y-17939101D01*
X-21369687Y-18203699D01*
X-21322299Y-18417221D01*
X-21288971Y-18566622D01*
X-21272593Y-18638860D01*
X-21264228Y-18682399D01*
X-21274049Y-18717309D01*
X-21323167Y-18733859D01*
X-21429245Y-18736885D01*
X-21609943Y-18731224D01*
X-21972379Y-18717636D01*
X-22121594Y-18048000D01*
X-22184346Y-17766051D01*
X-22232423Y-17551256D01*
X-22266272Y-17404770D01*
X-22289066Y-17315510D01*
X-22303978Y-17272395D01*
X-22314180Y-17264341D01*
X-22322846Y-17280267D01*
X-22333149Y-17309091D01*
X-22338684Y-17328688D01*
X-22359559Y-17431255D01*
X-22389256Y-17599300D01*
X-22424656Y-17814753D01*
X-22462641Y-18059545D01*
X-22565419Y-18740727D01*
X-22909341Y-18740727D01*
X-23363550Y-17980636D01*
X-23376749Y-17958559D01*
X-23516760Y-17725714D01*
X-23639169Y-17524503D01*
X-23736597Y-17366876D01*
X-23801662Y-17264785D01*
X-23826984Y-17230182D01*
X-23825784Y-17245336D01*
X-23809379Y-17334151D01*
X-23777411Y-17488724D01*
X-23733158Y-17693404D01*
X-23679897Y-17932545D01*
X-23651116Y-18061002D01*
X-23600530Y-18291635D01*
X-23559843Y-18483589D01*
X-23532643Y-18619748D01*
X-23522520Y-18683000D01*
X-23522697Y-18686442D01*
X-23560726Y-18717666D01*
X-23671570Y-18735228D01*
X-23864706Y-18740727D01*
X-24021457Y-18738418D01*
X-24141275Y-18727112D01*
X-24205190Y-18702391D01*
X-24233006Y-18659909D01*
X-24233825Y-18657209D01*
X-24255500Y-18572213D01*
X-24291863Y-18416296D01*
X-24339754Y-18204103D01*
X-24396015Y-17950277D01*
X-24457487Y-17669462D01*
X-24521012Y-17376300D01*
X-24583430Y-17085436D01*
X-24641583Y-16811513D01*
X-24692311Y-16569175D01*
X-24732457Y-16373066D01*
X-24758861Y-16237828D01*
X-24768364Y-16178106D01*
X-24764763Y-16160015D01*
X-24731633Y-16134130D01*
X-24651374Y-16118354D01*
X-24508930Y-16110496D01*
X-24289246Y-16108364D01*
X-23810128Y-16108364D01*
X-23394360Y-16804602D01*
G37*
X-23394360Y-16804602D02*
X-22978592Y-17500841D01*
X-22872403Y-16804602D01*
X-22766214Y-16108364D01*
X-21831738Y-16108364D01*
X-21564708Y-17320636D01*
X-21495080Y-17636471D01*
X-21428244Y-17939101D01*
X-21369687Y-18203699D01*
X-21322299Y-18417221D01*
X-21288971Y-18566622D01*
X-21272593Y-18638860D01*
X-21264228Y-18682399D01*
X-21274049Y-18717309D01*
X-21323167Y-18733859D01*
X-21429245Y-18736885D01*
X-21609943Y-18731224D01*
X-21972379Y-18717636D01*
X-22121594Y-18048000D01*
X-22184346Y-17766051D01*
X-22232423Y-17551256D01*
X-22266272Y-17404770D01*
X-22289066Y-17315510D01*
X-22303978Y-17272395D01*
X-22314180Y-17264341D01*
X-22322846Y-17280267D01*
X-22333149Y-17309091D01*
X-22338684Y-17328688D01*
X-22359559Y-17431255D01*
X-22389256Y-17599300D01*
X-22424656Y-17814753D01*
X-22462641Y-18059545D01*
X-22565419Y-18740727D01*
X-22909341Y-18740727D01*
X-23363550Y-17980636D01*
X-23376749Y-17958559D01*
X-23516760Y-17725714D01*
X-23639169Y-17524503D01*
X-23736597Y-17366876D01*
X-23801662Y-17264785D01*
X-23826984Y-17230182D01*
X-23825784Y-17245336D01*
X-23809379Y-17334151D01*
X-23777411Y-17488724D01*
X-23733158Y-17693404D01*
X-23679897Y-17932545D01*
X-23651116Y-18061002D01*
X-23600530Y-18291635D01*
X-23559843Y-18483589D01*
X-23532643Y-18619748D01*
X-23522520Y-18683000D01*
X-23522697Y-18686442D01*
X-23560726Y-18717666D01*
X-23671570Y-18735228D01*
X-23864706Y-18740727D01*
X-24021457Y-18738418D01*
X-24141275Y-18727112D01*
X-24205190Y-18702391D01*
X-24233006Y-18659909D01*
X-24233825Y-18657209D01*
X-24255500Y-18572213D01*
X-24291863Y-18416296D01*
X-24339754Y-18204103D01*
X-24396015Y-17950277D01*
X-24457487Y-17669462D01*
X-24521012Y-17376300D01*
X-24583430Y-17085436D01*
X-24641583Y-16811513D01*
X-24692311Y-16569175D01*
X-24732457Y-16373066D01*
X-24758861Y-16237828D01*
X-24768364Y-16178106D01*
X-24764763Y-16160015D01*
X-24731633Y-16134130D01*
X-24651374Y-16118354D01*
X-24508930Y-16110496D01*
X-24289246Y-16108364D01*
X-23810128Y-16108364D01*
X-23394360Y-16804602D01*
G36*
X-3393823Y-14627102D02*
G01*
X-3133364Y-14700802D01*
X-2909088Y-14823026D01*
X-2733459Y-14990039D01*
X-2618942Y-15198109D01*
X-2578000Y-15443502D01*
X-2579219Y-15494192D01*
X-2613466Y-15684948D01*
X-2701821Y-15846476D01*
X-2853749Y-15988222D01*
X-3078714Y-16119633D01*
X-3386182Y-16250154D01*
X-3579412Y-16334239D01*
X-3721838Y-16426889D01*
X-3776788Y-16512722D01*
X-3742965Y-16589487D01*
X-3619077Y-16654933D01*
X-3505583Y-16676023D01*
X-3295584Y-16656720D01*
X-3062761Y-16580807D01*
X-2831736Y-16454549D01*
X-2603247Y-16300788D01*
X-2417442Y-16522712D01*
X-2331328Y-16630526D01*
X-2259305Y-16732211D01*
X-2231637Y-16787904D01*
X-2248189Y-16837275D01*
X-2335492Y-16929604D01*
X-2480948Y-17028771D01*
X-2665470Y-17124088D01*
X-2869971Y-17204865D01*
X-3075364Y-17260413D01*
X-3355927Y-17293381D01*
X-3678272Y-17272408D01*
X-3965129Y-17188719D01*
X-4204714Y-17047672D01*
X-4385242Y-16854624D01*
X-4494930Y-16614935D01*
X-4506182Y-16569144D01*
X-4523266Y-16345485D01*
X-4465596Y-16149373D01*
X-4328785Y-15974821D01*
X-4108450Y-15815844D01*
X-3800207Y-15666456D01*
X-3745593Y-15643652D01*
X-3530059Y-15547856D01*
X-3391778Y-15471965D01*
X-3322024Y-15408637D01*
X-3312069Y-15350528D01*
X-3353187Y-15290294D01*
X-3448734Y-15239460D01*
X-3611366Y-15228800D01*
X-3809457Y-15266841D01*
X-4022719Y-15349381D01*
X-4230869Y-15472213D01*
X-4276947Y-15495033D01*
X-4330836Y-15483732D01*
X-4404876Y-15422512D01*
X-4517731Y-15300182D01*
X-4619338Y-15181514D01*
X-4694368Y-15086484D01*
X-4723680Y-15038988D01*
X-4704642Y-15013283D01*
X-4626705Y-14948423D01*
X-4508824Y-14865213D01*
X-4267666Y-14734467D01*
X-3973438Y-14640201D01*
X-3678003Y-14605657D01*
X-3393823Y-14627102D01*
G37*
X-3393823Y-14627102D02*
X-3133364Y-14700802D01*
X-2909088Y-14823026D01*
X-2733459Y-14990039D01*
X-2618942Y-15198109D01*
X-2578000Y-15443502D01*
X-2579219Y-15494192D01*
X-2613466Y-15684948D01*
X-2701821Y-15846476D01*
X-2853749Y-15988222D01*
X-3078714Y-16119633D01*
X-3386182Y-16250154D01*
X-3579412Y-16334239D01*
X-3721838Y-16426889D01*
X-3776788Y-16512722D01*
X-3742965Y-16589487D01*
X-3619077Y-16654933D01*
X-3505583Y-16676023D01*
X-3295584Y-16656720D01*
X-3062761Y-16580807D01*
X-2831736Y-16454549D01*
X-2603247Y-16300788D01*
X-2417442Y-16522712D01*
X-2331328Y-16630526D01*
X-2259305Y-16732211D01*
X-2231637Y-16787904D01*
X-2248189Y-16837275D01*
X-2335492Y-16929604D01*
X-2480948Y-17028771D01*
X-2665470Y-17124088D01*
X-2869971Y-17204865D01*
X-3075364Y-17260413D01*
X-3355927Y-17293381D01*
X-3678272Y-17272408D01*
X-3965129Y-17188719D01*
X-4204714Y-17047672D01*
X-4385242Y-16854624D01*
X-4494930Y-16614935D01*
X-4506182Y-16569144D01*
X-4523266Y-16345485D01*
X-4465596Y-16149373D01*
X-4328785Y-15974821D01*
X-4108450Y-15815844D01*
X-3800207Y-15666456D01*
X-3745593Y-15643652D01*
X-3530059Y-15547856D01*
X-3391778Y-15471965D01*
X-3322024Y-15408637D01*
X-3312069Y-15350528D01*
X-3353187Y-15290294D01*
X-3448734Y-15239460D01*
X-3611366Y-15228800D01*
X-3809457Y-15266841D01*
X-4022719Y-15349381D01*
X-4230869Y-15472213D01*
X-4276947Y-15495033D01*
X-4330836Y-15483732D01*
X-4404876Y-15422512D01*
X-4517731Y-15300182D01*
X-4619338Y-15181514D01*
X-4694368Y-15086484D01*
X-4723680Y-15038988D01*
X-4704642Y-15013283D01*
X-4626705Y-14948423D01*
X-4508824Y-14865213D01*
X-4267666Y-14734467D01*
X-3973438Y-14640201D01*
X-3678003Y-14605657D01*
X-3393823Y-14627102D01*
G36*
X-6786266Y-16646578D02*
G01*
X-6663844Y-16853661D01*
X-6574402Y-17005382D01*
X-6525051Y-17089727D01*
X-6425059Y-17262909D01*
X-7244293Y-17262909D01*
X-7357818Y-17055091D01*
X-7471344Y-16847273D01*
X-7963822Y-16847273D01*
X-8163055Y-16848424D01*
X-8330029Y-16857280D01*
X-8432988Y-16881764D01*
X-8487391Y-16929792D01*
X-8508697Y-17009279D01*
X-8512364Y-17128141D01*
X-8512364Y-17262909D01*
X-8881818Y-17262909D01*
X-8933768Y-17262565D01*
X-9095919Y-17256481D01*
X-9209739Y-17244366D01*
X-9253221Y-17228273D01*
X-9253158Y-17226102D01*
X-9245027Y-17161413D01*
X-9224696Y-17019071D01*
X-9193947Y-16811021D01*
X-9154560Y-16549210D01*
X-9108518Y-16246909D01*
X-8431805Y-16246909D01*
X-8125721Y-16246909D01*
X-7972323Y-16243778D01*
X-7861810Y-16235475D01*
X-7819637Y-16223812D01*
X-7834491Y-16189446D01*
X-7886559Y-16088647D01*
X-7967247Y-15939302D01*
X-8067307Y-15758776D01*
X-8314978Y-15316837D01*
X-8346855Y-15608691D01*
X-8362384Y-15744611D01*
X-8385518Y-15931075D01*
X-8405269Y-16073727D01*
X-8431805Y-16246909D01*
X-9108518Y-16246909D01*
X-9108316Y-16245584D01*
X-9056996Y-15912091D01*
X-8858822Y-14630545D01*
X-8420047Y-14631845D01*
X-7981273Y-14633145D01*
X-7303158Y-15774845D01*
X-7280311Y-15813314D01*
X-7101610Y-16114389D01*
X-7036734Y-16223812D01*
X-6934558Y-16396149D01*
X-6786266Y-16646578D01*
G37*
X-6786266Y-16646578D02*
X-6663844Y-16853661D01*
X-6574402Y-17005382D01*
X-6525051Y-17089727D01*
X-6425059Y-17262909D01*
X-7244293Y-17262909D01*
X-7357818Y-17055091D01*
X-7471344Y-16847273D01*
X-7963822Y-16847273D01*
X-8163055Y-16848424D01*
X-8330029Y-16857280D01*
X-8432988Y-16881764D01*
X-8487391Y-16929792D01*
X-8508697Y-17009279D01*
X-8512364Y-17128141D01*
X-8512364Y-17262909D01*
X-8881818Y-17262909D01*
X-8933768Y-17262565D01*
X-9095919Y-17256481D01*
X-9209739Y-17244366D01*
X-9253221Y-17228273D01*
X-9253158Y-17226102D01*
X-9245027Y-17161413D01*
X-9224696Y-17019071D01*
X-9193947Y-16811021D01*
X-9154560Y-16549210D01*
X-9108518Y-16246909D01*
X-8431805Y-16246909D01*
X-8125721Y-16246909D01*
X-7972323Y-16243778D01*
X-7861810Y-16235475D01*
X-7819637Y-16223812D01*
X-7834491Y-16189446D01*
X-7886559Y-16088647D01*
X-7967247Y-15939302D01*
X-8067307Y-15758776D01*
X-8314978Y-15316837D01*
X-8346855Y-15608691D01*
X-8362384Y-15744611D01*
X-8385518Y-15931075D01*
X-8405269Y-16073727D01*
X-8431805Y-16246909D01*
X-9108518Y-16246909D01*
X-9108316Y-16245584D01*
X-9056996Y-15912091D01*
X-8858822Y-14630545D01*
X-8420047Y-14631845D01*
X-7981273Y-14633145D01*
X-7303158Y-15774845D01*
X-7280311Y-15813314D01*
X-7101610Y-16114389D01*
X-7036734Y-16223812D01*
X-6934558Y-16396149D01*
X-6786266Y-16646578D01*
G36*
X-8812546Y-12575454D02*
G01*
X-8797933Y-12702454D01*
X-8793396Y-12761837D01*
X-8810609Y-12808349D01*
X-8875347Y-12826415D01*
X-9010022Y-12829454D01*
X-9236725Y-12829454D01*
X-9106919Y-13418273D01*
X-9099889Y-13450271D01*
X-9051814Y-13675259D01*
X-9012486Y-13869773D01*
X-8985799Y-14013946D01*
X-8975648Y-14087909D01*
X-8975630Y-14089232D01*
X-9005019Y-14150473D01*
X-9105018Y-14168727D01*
X-9145493Y-14167698D01*
X-9191836Y-14154981D01*
X-9226966Y-14114844D01*
X-9258330Y-14031523D01*
X-9293377Y-13889254D01*
X-9339552Y-13672273D01*
X-9341706Y-13661956D01*
X-9402250Y-13370622D01*
X-9448520Y-13156785D01*
X-9486686Y-13008285D01*
X-9522921Y-12912963D01*
X-9563395Y-12858661D01*
X-9614278Y-12833220D01*
X-9681743Y-12824480D01*
X-9771959Y-12820283D01*
X-9877301Y-12812691D01*
X-9970028Y-12793851D01*
X-10012028Y-12753532D01*
X-10028017Y-12678001D01*
X-10042762Y-12549638D01*
X-8812546Y-12575454D01*
G37*
X-8812546Y-12575454D02*
X-8797933Y-12702454D01*
X-8793396Y-12761837D01*
X-8810609Y-12808349D01*
X-8875347Y-12826415D01*
X-9010022Y-12829454D01*
X-9236725Y-12829454D01*
X-9106919Y-13418273D01*
X-9099889Y-13450271D01*
X-9051814Y-13675259D01*
X-9012486Y-13869773D01*
X-8985799Y-14013946D01*
X-8975648Y-14087909D01*
X-8975630Y-14089232D01*
X-9005019Y-14150473D01*
X-9105018Y-14168727D01*
X-9145493Y-14167698D01*
X-9191836Y-14154981D01*
X-9226966Y-14114844D01*
X-9258330Y-14031523D01*
X-9293377Y-13889254D01*
X-9339552Y-13672273D01*
X-9341706Y-13661956D01*
X-9402250Y-13370622D01*
X-9448520Y-13156785D01*
X-9486686Y-13008285D01*
X-9522921Y-12912963D01*
X-9563395Y-12858661D01*
X-9614278Y-12833220D01*
X-9681743Y-12824480D01*
X-9771959Y-12820283D01*
X-9877301Y-12812691D01*
X-9970028Y-12793851D01*
X-10012028Y-12753532D01*
X-10028017Y-12678001D01*
X-10042762Y-12549638D01*
X-8812546Y-12575454D01*
G36*
X-4856234Y-15880805D02*
G01*
X-4784946Y-16207343D01*
X-4720753Y-16506846D01*
X-4666267Y-16766693D01*
X-4624098Y-16974264D01*
X-4596856Y-17116936D01*
X-4587151Y-17182091D01*
X-4587150Y-17182836D01*
X-4599260Y-17224475D01*
X-4647803Y-17248764D01*
X-4751391Y-17260107D01*
X-4928637Y-17262909D01*
X-5270365Y-17262909D01*
X-5347471Y-16905000D01*
X-5354961Y-16870348D01*
X-5394148Y-16692727D01*
X-5427186Y-16548549D01*
X-5447582Y-16466273D01*
X-5454683Y-16447876D01*
X-5488731Y-16415709D01*
X-5561504Y-16396699D01*
X-5690860Y-16387608D01*
X-5894658Y-16385197D01*
X-6156064Y-16378970D01*
X-6394654Y-16352772D01*
X-6580765Y-16300254D01*
X-6735256Y-16215188D01*
X-6878986Y-16091349D01*
X-6879907Y-16090427D01*
X-7046691Y-15869374D01*
X-7141080Y-15625188D01*
X-7158356Y-15436049D01*
X-6434966Y-15436049D01*
X-6428764Y-15550768D01*
X-6338426Y-15672706D01*
X-6267557Y-15717732D01*
X-6128067Y-15756403D01*
X-5916384Y-15777801D01*
X-5809565Y-15783589D01*
X-5684655Y-15786302D01*
X-5623079Y-15774785D01*
X-5606466Y-15743462D01*
X-5616442Y-15686755D01*
X-5618612Y-15677604D01*
X-5645779Y-15551133D01*
X-5674169Y-15404091D01*
X-5705552Y-15230909D01*
X-5967228Y-15230909D01*
X-6030692Y-15232720D01*
X-6227737Y-15267273D01*
X-6365226Y-15338300D01*
X-6434966Y-15436049D01*
X-7158356Y-15436049D01*
X-7163934Y-15374978D01*
X-7116115Y-15135851D01*
X-6998485Y-14924918D01*
X-6811905Y-14759287D01*
X-6776821Y-14738171D01*
X-6708677Y-14704561D01*
X-6630147Y-14681249D01*
X-6524836Y-14666367D01*
X-6376350Y-14658050D01*
X-6168295Y-14654428D01*
X-5884276Y-14653636D01*
X-5126552Y-14653636D01*
X-4886487Y-15743462D01*
X-4856972Y-15877454D01*
X-4856234Y-15880805D01*
G37*
X-4856234Y-15880805D02*
X-4784946Y-16207343D01*
X-4720753Y-16506846D01*
X-4666267Y-16766693D01*
X-4624098Y-16974264D01*
X-4596856Y-17116936D01*
X-4587151Y-17182091D01*
X-4587150Y-17182836D01*
X-4599260Y-17224475D01*
X-4647803Y-17248764D01*
X-4751391Y-17260107D01*
X-4928637Y-17262909D01*
X-5270365Y-17262909D01*
X-5347471Y-16905000D01*
X-5354961Y-16870348D01*
X-5394148Y-16692727D01*
X-5427186Y-16548549D01*
X-5447582Y-16466273D01*
X-5454683Y-16447876D01*
X-5488731Y-16415709D01*
X-5561504Y-16396699D01*
X-5690860Y-16387608D01*
X-5894658Y-16385197D01*
X-6156064Y-16378970D01*
X-6394654Y-16352772D01*
X-6580765Y-16300254D01*
X-6735256Y-16215188D01*
X-6878986Y-16091349D01*
X-6879907Y-16090427D01*
X-7046691Y-15869374D01*
X-7141080Y-15625188D01*
X-7158356Y-15436049D01*
X-6434966Y-15436049D01*
X-6428764Y-15550768D01*
X-6338426Y-15672706D01*
X-6267557Y-15717732D01*
X-6128067Y-15756403D01*
X-5916384Y-15777801D01*
X-5809565Y-15783589D01*
X-5684655Y-15786302D01*
X-5623079Y-15774785D01*
X-5606466Y-15743462D01*
X-5616442Y-15686755D01*
X-5618612Y-15677604D01*
X-5645779Y-15551133D01*
X-5674169Y-15404091D01*
X-5705552Y-15230909D01*
X-5967228Y-15230909D01*
X-6030692Y-15232720D01*
X-6227737Y-15267273D01*
X-6365226Y-15338300D01*
X-6434966Y-15436049D01*
X-7158356Y-15436049D01*
X-7163934Y-15374978D01*
X-7116115Y-15135851D01*
X-6998485Y-14924918D01*
X-6811905Y-14759287D01*
X-6776821Y-14738171D01*
X-6708677Y-14704561D01*
X-6630147Y-14681249D01*
X-6524836Y-14666367D01*
X-6376350Y-14658050D01*
X-6168295Y-14654428D01*
X-5884276Y-14653636D01*
X-5126552Y-14653636D01*
X-4886487Y-15743462D01*
X-4856972Y-15877454D01*
X-4856234Y-15880805D01*
G36*
X-10718701Y-14614747D02*
G01*
X-10529159Y-14631430D01*
X-10365344Y-14671951D01*
X-10184123Y-14744954D01*
X-10070942Y-14801973D01*
X-9804151Y-14993659D01*
X-9592874Y-15231281D01*
X-9439075Y-15501746D01*
X-9344721Y-15791965D01*
X-9311775Y-16088846D01*
X-9342204Y-16379299D01*
X-9437973Y-16650232D01*
X-9601047Y-16888555D01*
X-9833392Y-17081177D01*
X-9869566Y-17102312D01*
X-10043131Y-17185554D01*
X-10218808Y-17249053D01*
X-10399214Y-17282070D01*
X-10683612Y-17286981D01*
X-10973463Y-17248458D01*
X-11226759Y-17169804D01*
X-11328894Y-17117434D01*
X-11478957Y-17019144D01*
X-11612596Y-16910416D01*
X-11708226Y-16809415D01*
X-11744261Y-16734304D01*
X-11727088Y-16708039D01*
X-11652706Y-16641111D01*
X-11542833Y-16556937D01*
X-11423205Y-16473970D01*
X-11319560Y-16410658D01*
X-11257637Y-16385454D01*
X-11245301Y-16389593D01*
X-11175029Y-16432390D01*
X-11072079Y-16506615D01*
X-10885619Y-16609803D01*
X-10673079Y-16650398D01*
X-10469016Y-16621934D01*
X-10289340Y-16532628D01*
X-10149959Y-16390693D01*
X-10066783Y-16204345D01*
X-10055720Y-15981798D01*
X-10117935Y-15766691D01*
X-10244256Y-15560013D01*
X-10414896Y-15389500D01*
X-10611179Y-15273637D01*
X-10814428Y-15230909D01*
X-10900966Y-15240795D01*
X-11054487Y-15289897D01*
X-11192958Y-15364364D01*
X-11278009Y-15446363D01*
X-11321674Y-15521549D01*
X-11376563Y-15592451D01*
X-11440684Y-15616306D01*
X-11540283Y-15599417D01*
X-11701609Y-15548087D01*
X-11854351Y-15494404D01*
X-11977985Y-15444868D01*
X-12040592Y-15411954D01*
X-12045370Y-15406886D01*
X-12050470Y-15334197D01*
X-11995434Y-15224985D01*
X-11893810Y-15094713D01*
X-11759148Y-14958843D01*
X-11604998Y-14832838D01*
X-11444909Y-14732161D01*
X-11339791Y-14681585D01*
X-11206897Y-14637998D01*
X-11053768Y-14617388D01*
X-10844546Y-14612615D01*
X-10718701Y-14614747D01*
G37*
X-10718701Y-14614747D02*
X-10529159Y-14631430D01*
X-10365344Y-14671951D01*
X-10184123Y-14744954D01*
X-10070942Y-14801973D01*
X-9804151Y-14993659D01*
X-9592874Y-15231281D01*
X-9439075Y-15501746D01*
X-9344721Y-15791965D01*
X-9311775Y-16088846D01*
X-9342204Y-16379299D01*
X-9437973Y-16650232D01*
X-9601047Y-16888555D01*
X-9833392Y-17081177D01*
X-9869566Y-17102312D01*
X-10043131Y-17185554D01*
X-10218808Y-17249053D01*
X-10399214Y-17282070D01*
X-10683612Y-17286981D01*
X-10973463Y-17248458D01*
X-11226759Y-17169804D01*
X-11328894Y-17117434D01*
X-11478957Y-17019144D01*
X-11612596Y-16910416D01*
X-11708226Y-16809415D01*
X-11744261Y-16734304D01*
X-11727088Y-16708039D01*
X-11652706Y-16641111D01*
X-11542833Y-16556937D01*
X-11423205Y-16473970D01*
X-11319560Y-16410658D01*
X-11257637Y-16385454D01*
X-11245301Y-16389593D01*
X-11175029Y-16432390D01*
X-11072079Y-16506615D01*
X-10885619Y-16609803D01*
X-10673079Y-16650398D01*
X-10469016Y-16621934D01*
X-10289340Y-16532628D01*
X-10149959Y-16390693D01*
X-10066783Y-16204345D01*
X-10055720Y-15981798D01*
X-10117935Y-15766691D01*
X-10244256Y-15560013D01*
X-10414896Y-15389500D01*
X-10611179Y-15273637D01*
X-10814428Y-15230909D01*
X-10900966Y-15240795D01*
X-11054487Y-15289897D01*
X-11192958Y-15364364D01*
X-11278009Y-15446363D01*
X-11321674Y-15521549D01*
X-11376563Y-15592451D01*
X-11440684Y-15616306D01*
X-11540283Y-15599417D01*
X-11701609Y-15548087D01*
X-11854351Y-15494404D01*
X-11977985Y-15444868D01*
X-12040592Y-15411954D01*
X-12045370Y-15406886D01*
X-12050470Y-15334197D01*
X-11995434Y-15224985D01*
X-11893810Y-15094713D01*
X-11759148Y-14958843D01*
X-11604998Y-14832838D01*
X-11444909Y-14732161D01*
X-11339791Y-14681585D01*
X-11206897Y-14637998D01*
X-11053768Y-14617388D01*
X-10844546Y-14612615D01*
X-10718701Y-14614747D01*
G36*
X-15169018Y-11831630D02*
G01*
X-15139113Y-11868148D01*
X-15106474Y-11933262D01*
X-15069727Y-12032116D01*
X-15027496Y-12169856D01*
X-14978407Y-12351628D01*
X-14921084Y-12582576D01*
X-14854153Y-12867846D01*
X-14776238Y-13212583D01*
X-14685965Y-13621933D01*
X-14581959Y-14101040D01*
X-14462845Y-14655051D01*
X-14327248Y-15289110D01*
X-14173793Y-16008363D01*
X-14053495Y-16572381D01*
X-13926150Y-17169326D01*
X-13803904Y-17742241D01*
X-13688333Y-18283761D01*
X-13581008Y-18786516D01*
X-13483504Y-19243141D01*
X-13397392Y-19646268D01*
X-13324247Y-19988530D01*
X-13265641Y-20262560D01*
X-13223148Y-20460990D01*
X-13198340Y-20576454D01*
X-13096155Y-21049818D01*
X-13205714Y-21049818D01*
X-13275808Y-21045453D01*
X-13315273Y-21031077D01*
X-13318560Y-21015108D01*
X-13339642Y-20919801D01*
X-13379053Y-20743987D01*
X-13435415Y-20493751D01*
X-13507352Y-20175178D01*
X-13593486Y-19794353D01*
X-13692438Y-19357362D01*
X-13802832Y-18870290D01*
X-13923290Y-18339223D01*
X-14052435Y-17770245D01*
X-14188888Y-17169443D01*
X-14331273Y-16542900D01*
X-14410885Y-16192443D01*
X-14550342Y-15577360D01*
X-14683084Y-14990406D01*
X-14807725Y-14437774D01*
X-14922884Y-13925653D01*
X-15027177Y-13460238D01*
X-15119220Y-13047719D01*
X-15197630Y-12694289D01*
X-15261024Y-12406140D01*
X-15308018Y-12189463D01*
X-15337228Y-12050451D01*
X-15347273Y-11995296D01*
X-15338623Y-11949456D01*
X-15281619Y-11862640D01*
X-15256079Y-11842195D01*
X-15226126Y-11823799D01*
X-15197564Y-11818562D01*
X-15169018Y-11831630D01*
G37*
X-15169018Y-11831630D02*
X-15139113Y-11868148D01*
X-15106474Y-11933262D01*
X-15069727Y-12032116D01*
X-15027496Y-12169856D01*
X-14978407Y-12351628D01*
X-14921084Y-12582576D01*
X-14854153Y-12867846D01*
X-14776238Y-13212583D01*
X-14685965Y-13621933D01*
X-14581959Y-14101040D01*
X-14462845Y-14655051D01*
X-14327248Y-15289110D01*
X-14173793Y-16008363D01*
X-14053495Y-16572381D01*
X-13926150Y-17169326D01*
X-13803904Y-17742241D01*
X-13688333Y-18283761D01*
X-13581008Y-18786516D01*
X-13483504Y-19243141D01*
X-13397392Y-19646268D01*
X-13324247Y-19988530D01*
X-13265641Y-20262560D01*
X-13223148Y-20460990D01*
X-13198340Y-20576454D01*
X-13096155Y-21049818D01*
X-13205714Y-21049818D01*
X-13275808Y-21045453D01*
X-13315273Y-21031077D01*
X-13318560Y-21015108D01*
X-13339642Y-20919801D01*
X-13379053Y-20743987D01*
X-13435415Y-20493751D01*
X-13507352Y-20175178D01*
X-13593486Y-19794353D01*
X-13692438Y-19357362D01*
X-13802832Y-18870290D01*
X-13923290Y-18339223D01*
X-14052435Y-17770245D01*
X-14188888Y-17169443D01*
X-14331273Y-16542900D01*
X-14410885Y-16192443D01*
X-14550342Y-15577360D01*
X-14683084Y-14990406D01*
X-14807725Y-14437774D01*
X-14922884Y-13925653D01*
X-15027177Y-13460238D01*
X-15119220Y-13047719D01*
X-15197630Y-12694289D01*
X-15261024Y-12406140D01*
X-15308018Y-12189463D01*
X-15337228Y-12050451D01*
X-15347273Y-11995296D01*
X-15338623Y-11949456D01*
X-15281619Y-11862640D01*
X-15256079Y-11842195D01*
X-15226126Y-11823799D01*
X-15197564Y-11818562D01*
X-15169018Y-11831630D01*
G36*
X-13301036Y-14630561D02*
G01*
X-12992207Y-14631399D01*
X-12761771Y-14634209D01*
X-12597940Y-14639950D01*
X-12488927Y-14649578D01*
X-12422944Y-14664051D01*
X-12388204Y-14684327D01*
X-12372921Y-14711364D01*
X-12371768Y-14715214D01*
X-12349921Y-14801636D01*
X-12313455Y-14958676D01*
X-12265520Y-15171714D01*
X-12209263Y-15426136D01*
X-12147833Y-15707323D01*
X-12084379Y-16000659D01*
X-12022048Y-16291527D01*
X-11963991Y-16565311D01*
X-11913354Y-16807393D01*
X-11873287Y-17003157D01*
X-11846937Y-17137985D01*
X-11837455Y-17197261D01*
X-11841394Y-17211761D01*
X-11870099Y-17230818D01*
X-11936032Y-17244108D01*
X-12050213Y-17252266D01*
X-12223660Y-17255927D01*
X-12467394Y-17255727D01*
X-12792436Y-17252300D01*
X-13747417Y-17239818D01*
X-13778150Y-17124364D01*
X-13780446Y-17115604D01*
X-13810876Y-16985024D01*
X-13841261Y-16835727D01*
X-13873640Y-16662545D01*
X-12664542Y-16662545D01*
X-12695791Y-16489364D01*
X-12700915Y-16461884D01*
X-12726316Y-16346242D01*
X-12746791Y-16281545D01*
X-12748833Y-16279597D01*
X-12811530Y-16266831D01*
X-12945960Y-16256446D01*
X-13134071Y-16249464D01*
X-13357805Y-16246909D01*
X-13949067Y-16246909D01*
X-14001625Y-15985207D01*
X-14023713Y-15871633D01*
X-14045680Y-15748281D01*
X-14054182Y-15685025D01*
X-14053424Y-15683058D01*
X-13999530Y-15668806D01*
X-13872919Y-15657205D01*
X-13690988Y-15649402D01*
X-13471137Y-15646545D01*
X-12888091Y-15646545D01*
X-12916955Y-15502227D01*
X-12937136Y-15383111D01*
X-12945818Y-15294409D01*
X-12960222Y-15269969D01*
X-13016907Y-15250965D01*
X-13128475Y-15238971D01*
X-13307401Y-15232712D01*
X-13566161Y-15230909D01*
X-13797739Y-15231293D01*
X-13979017Y-15228510D01*
X-14097767Y-15215814D01*
X-14169610Y-15186447D01*
X-14210166Y-15133649D01*
X-14235057Y-15050662D01*
X-14259901Y-14930727D01*
X-14286244Y-14815704D01*
X-14313487Y-14711364D01*
X-14316081Y-14700593D01*
X-14311983Y-14676263D01*
X-14282768Y-14658303D01*
X-14217228Y-14645757D01*
X-14104157Y-14637665D01*
X-13932347Y-14633071D01*
X-13690590Y-14631017D01*
X-13367679Y-14630545D01*
X-13301036Y-14630561D01*
G37*
X-13301036Y-14630561D02*
X-12992207Y-14631399D01*
X-12761771Y-14634209D01*
X-12597940Y-14639950D01*
X-12488927Y-14649578D01*
X-12422944Y-14664051D01*
X-12388204Y-14684327D01*
X-12372921Y-14711364D01*
X-12371768Y-14715214D01*
X-12349921Y-14801636D01*
X-12313455Y-14958676D01*
X-12265520Y-15171714D01*
X-12209263Y-15426136D01*
X-12147833Y-15707323D01*
X-12084379Y-16000659D01*
X-12022048Y-16291527D01*
X-11963991Y-16565311D01*
X-11913354Y-16807393D01*
X-11873287Y-17003157D01*
X-11846937Y-17137985D01*
X-11837455Y-17197261D01*
X-11841394Y-17211761D01*
X-11870099Y-17230818D01*
X-11936032Y-17244108D01*
X-12050213Y-17252266D01*
X-12223660Y-17255927D01*
X-12467394Y-17255727D01*
X-12792436Y-17252300D01*
X-13747417Y-17239818D01*
X-13778150Y-17124364D01*
X-13780446Y-17115604D01*
X-13810876Y-16985024D01*
X-13841261Y-16835727D01*
X-13873640Y-16662545D01*
X-12664542Y-16662545D01*
X-12695791Y-16489364D01*
X-12700915Y-16461884D01*
X-12726316Y-16346242D01*
X-12746791Y-16281545D01*
X-12748833Y-16279597D01*
X-12811530Y-16266831D01*
X-12945960Y-16256446D01*
X-13134071Y-16249464D01*
X-13357805Y-16246909D01*
X-13949067Y-16246909D01*
X-14001625Y-15985207D01*
X-14023713Y-15871633D01*
X-14045680Y-15748281D01*
X-14054182Y-15685025D01*
X-14053424Y-15683058D01*
X-13999530Y-15668806D01*
X-13872919Y-15657205D01*
X-13690988Y-15649402D01*
X-13471137Y-15646545D01*
X-12888091Y-15646545D01*
X-12916955Y-15502227D01*
X-12937136Y-15383111D01*
X-12945818Y-15294409D01*
X-12960222Y-15269969D01*
X-13016907Y-15250965D01*
X-13128475Y-15238971D01*
X-13307401Y-15232712D01*
X-13566161Y-15230909D01*
X-13797739Y-15231293D01*
X-13979017Y-15228510D01*
X-14097767Y-15215814D01*
X-14169610Y-15186447D01*
X-14210166Y-15133649D01*
X-14235057Y-15050662D01*
X-14259901Y-14930727D01*
X-14286244Y-14815704D01*
X-14313487Y-14711364D01*
X-14316081Y-14700593D01*
X-14311983Y-14676263D01*
X-14282768Y-14658303D01*
X-14217228Y-14645757D01*
X-14104157Y-14637665D01*
X-13932347Y-14633071D01*
X-13690590Y-14631017D01*
X-13367679Y-14630545D01*
X-13301036Y-14630561D01*
G36*
X-15815008Y-9024927D02*
G01*
X-15748843Y-9116176D01*
X-15665833Y-9266171D01*
X-15574657Y-9456314D01*
X-15483993Y-9668005D01*
X-15402519Y-9882646D01*
X-15338913Y-10081636D01*
X-15332250Y-10104900D01*
X-15262041Y-10311927D01*
X-15179063Y-10508175D01*
X-15099878Y-10653987D01*
X-15067463Y-10705061D01*
X-14972983Y-10883161D01*
X-14888941Y-11081285D01*
X-14820112Y-11282147D01*
X-14771269Y-11468462D01*
X-14747186Y-11622944D01*
X-14752637Y-11728310D01*
X-14792397Y-11767273D01*
X-14831676Y-11754715D01*
X-14932645Y-11704392D01*
X-15063050Y-11628727D01*
X-15160514Y-11570074D01*
X-15262354Y-11512468D01*
X-15310841Y-11490182D01*
X-15336598Y-11515284D01*
X-15398487Y-11600356D01*
X-15479317Y-11724805D01*
X-15550739Y-11828014D01*
X-15629233Y-11914632D01*
X-15681478Y-11940659D01*
X-15730835Y-11898873D01*
X-15785552Y-11769058D01*
X-15824570Y-11563230D01*
X-15846368Y-11290278D01*
X-15849427Y-10959091D01*
X-15848881Y-10791147D01*
X-15857346Y-10485511D01*
X-15875401Y-10179734D01*
X-15900765Y-9920000D01*
X-15915984Y-9785698D01*
X-15933703Y-9529433D01*
X-15934107Y-9309696D01*
X-15918102Y-9140189D01*
X-15886593Y-9034617D01*
X-15840483Y-9006683D01*
X-15815008Y-9024927D01*
G37*
X-15815008Y-9024927D02*
X-15748843Y-9116176D01*
X-15665833Y-9266171D01*
X-15574657Y-9456314D01*
X-15483993Y-9668005D01*
X-15402519Y-9882646D01*
X-15338913Y-10081636D01*
X-15332250Y-10104900D01*
X-15262041Y-10311927D01*
X-15179063Y-10508175D01*
X-15099878Y-10653987D01*
X-15067463Y-10705061D01*
X-14972983Y-10883161D01*
X-14888941Y-11081285D01*
X-14820112Y-11282147D01*
X-14771269Y-11468462D01*
X-14747186Y-11622944D01*
X-14752637Y-11728310D01*
X-14792397Y-11767273D01*
X-14831676Y-11754715D01*
X-14932645Y-11704392D01*
X-15063050Y-11628727D01*
X-15160514Y-11570074D01*
X-15262354Y-11512468D01*
X-15310841Y-11490182D01*
X-15336598Y-11515284D01*
X-15398487Y-11600356D01*
X-15479317Y-11724805D01*
X-15550739Y-11828014D01*
X-15629233Y-11914632D01*
X-15681478Y-11940659D01*
X-15730835Y-11898873D01*
X-15785552Y-11769058D01*
X-15824570Y-11563230D01*
X-15846368Y-11290278D01*
X-15849427Y-10959091D01*
X-15848881Y-10791147D01*
X-15857346Y-10485511D01*
X-15875401Y-10179734D01*
X-15900765Y-9920000D01*
X-15915984Y-9785698D01*
X-15933703Y-9529433D01*
X-15934107Y-9309696D01*
X-15918102Y-9140189D01*
X-15886593Y-9034617D01*
X-15840483Y-9006683D01*
X-15815008Y-9024927D01*
G36*
X-18641367Y-18197037D02*
G01*
X-18526913Y-18385977D01*
X-18446432Y-18516919D01*
X-18406411Y-18579091D01*
X-18367629Y-18630385D01*
X-18349489Y-18635166D01*
X-18363072Y-18556000D01*
X-18387932Y-18435827D01*
X-18417907Y-18290454D01*
X-18448793Y-18140364D01*
X-17236542Y-18140364D01*
X-17267791Y-17967182D01*
X-17272915Y-17939702D01*
X-17298316Y-17824060D01*
X-17318791Y-17759364D01*
X-17320833Y-17757415D01*
X-17383530Y-17744650D01*
X-17517960Y-17734264D01*
X-17706071Y-17727282D01*
X-17929805Y-17724727D01*
X-18521067Y-17724727D01*
X-18573625Y-17463025D01*
X-18595713Y-17349451D01*
X-18617680Y-17226099D01*
X-18626182Y-17162843D01*
X-18625646Y-17161180D01*
X-18573443Y-17146821D01*
X-18448263Y-17135122D01*
X-18267590Y-17127247D01*
X-18048909Y-17124364D01*
X-18023954Y-17124326D01*
X-17808542Y-17120672D01*
X-17633029Y-17111909D01*
X-17514899Y-17099262D01*
X-17471637Y-17083954D01*
X-17471638Y-17083575D01*
X-17480203Y-17012458D01*
X-17500500Y-16899227D01*
X-17529364Y-16754909D01*
X-18758179Y-16754909D01*
X-18813060Y-16490549D01*
X-18837920Y-16375343D01*
X-18869252Y-16242576D01*
X-18890548Y-16167276D01*
X-18891193Y-16165254D01*
X-18877385Y-16145433D01*
X-18818352Y-16130528D01*
X-18704672Y-16119954D01*
X-18526920Y-16113125D01*
X-18275673Y-16109456D01*
X-17941508Y-16108364D01*
X-17872167Y-16108380D01*
X-17563629Y-16109227D01*
X-17333409Y-16112048D01*
X-17169732Y-16117797D01*
X-17060820Y-16127430D01*
X-16994898Y-16141902D01*
X-16960190Y-16162168D01*
X-16944921Y-16189182D01*
X-16943759Y-16193064D01*
X-16921915Y-16279494D01*
X-16885452Y-16436534D01*
X-16837518Y-16649567D01*
X-16781263Y-16903979D01*
X-16719834Y-17185152D01*
X-16656380Y-17478470D01*
X-16594049Y-17769316D01*
X-16535992Y-18043076D01*
X-16485355Y-18285131D01*
X-16445287Y-18480866D01*
X-16418938Y-18615665D01*
X-16409455Y-18674912D01*
X-16420015Y-18694203D01*
X-16458104Y-18709312D01*
X-16532982Y-18720468D01*
X-16653910Y-18728043D01*
X-16830146Y-18732408D01*
X-17070951Y-18733934D01*
X-17385583Y-18732991D01*
X-17783304Y-18729951D01*
X-19157153Y-18717636D01*
X-19249576Y-18544579D01*
X-19342000Y-18371522D01*
X-19855643Y-18371397D01*
X-20369286Y-18371273D01*
X-20428364Y-18740727D01*
X-21173521Y-18740727D01*
X-21147017Y-18613727D01*
X-21141782Y-18586065D01*
X-21121437Y-18467028D01*
X-21090603Y-18278687D01*
X-21051693Y-18036021D01*
X-21007117Y-17754010D01*
X-21004080Y-17734559D01*
X-20318796Y-17734559D01*
X-20280204Y-17757911D01*
X-20184764Y-17768449D01*
X-20014749Y-17770909D01*
X-19999327Y-17770891D01*
X-19842073Y-17768508D01*
X-19730667Y-17762889D01*
X-19688364Y-17755158D01*
X-19688481Y-17753368D01*
X-19712601Y-17693352D01*
X-19770907Y-17581216D01*
X-19852142Y-17435958D01*
X-19945048Y-17276578D01*
X-20038368Y-17122074D01*
X-20120842Y-16991445D01*
X-20181215Y-16903690D01*
X-20208228Y-16877809D01*
X-20210029Y-16881775D01*
X-20225512Y-16955149D01*
X-20244039Y-17090843D01*
X-20261985Y-17262909D01*
X-20263733Y-17281925D01*
X-20282407Y-17460024D01*
X-20301539Y-17606086D01*
X-20317247Y-17690091D01*
X-20318268Y-17693656D01*
X-20318796Y-17734559D01*
X-21004080Y-17734559D01*
X-20959288Y-17447636D01*
X-20937262Y-17305833D01*
X-20890557Y-17006142D01*
X-20848278Y-16736168D01*
X-20812846Y-16511302D01*
X-20786684Y-16346934D01*
X-20772212Y-16258454D01*
X-20746360Y-16108364D01*
X-19883222Y-16108364D01*
X-19178461Y-17297545D01*
X-19123668Y-17389936D01*
X-18946233Y-17688245D01*
X-18906243Y-17755158D01*
X-18783303Y-17960869D01*
X-18641367Y-18197037D01*
G37*
X-18641367Y-18197037D02*
X-18526913Y-18385977D01*
X-18446432Y-18516919D01*
X-18406411Y-18579091D01*
X-18367629Y-18630385D01*
X-18349489Y-18635166D01*
X-18363072Y-18556000D01*
X-18387932Y-18435827D01*
X-18417907Y-18290454D01*
X-18448793Y-18140364D01*
X-17236542Y-18140364D01*
X-17267791Y-17967182D01*
X-17272915Y-17939702D01*
X-17298316Y-17824060D01*
X-17318791Y-17759364D01*
X-17320833Y-17757415D01*
X-17383530Y-17744650D01*
X-17517960Y-17734264D01*
X-17706071Y-17727282D01*
X-17929805Y-17724727D01*
X-18521067Y-17724727D01*
X-18573625Y-17463025D01*
X-18595713Y-17349451D01*
X-18617680Y-17226099D01*
X-18626182Y-17162843D01*
X-18625646Y-17161180D01*
X-18573443Y-17146821D01*
X-18448263Y-17135122D01*
X-18267590Y-17127247D01*
X-18048909Y-17124364D01*
X-18023954Y-17124326D01*
X-17808542Y-17120672D01*
X-17633029Y-17111909D01*
X-17514899Y-17099262D01*
X-17471637Y-17083954D01*
X-17471638Y-17083575D01*
X-17480203Y-17012458D01*
X-17500500Y-16899227D01*
X-17529364Y-16754909D01*
X-18758179Y-16754909D01*
X-18813060Y-16490549D01*
X-18837920Y-16375343D01*
X-18869252Y-16242576D01*
X-18890548Y-16167276D01*
X-18891193Y-16165254D01*
X-18877385Y-16145433D01*
X-18818352Y-16130528D01*
X-18704672Y-16119954D01*
X-18526920Y-16113125D01*
X-18275673Y-16109456D01*
X-17941508Y-16108364D01*
X-17872167Y-16108380D01*
X-17563629Y-16109227D01*
X-17333409Y-16112048D01*
X-17169732Y-16117797D01*
X-17060820Y-16127430D01*
X-16994898Y-16141902D01*
X-16960190Y-16162168D01*
X-16944921Y-16189182D01*
X-16943759Y-16193064D01*
X-16921915Y-16279494D01*
X-16885452Y-16436534D01*
X-16837518Y-16649567D01*
X-16781263Y-16903979D01*
X-16719834Y-17185152D01*
X-16656380Y-17478470D01*
X-16594049Y-17769316D01*
X-16535992Y-18043076D01*
X-16485355Y-18285131D01*
X-16445287Y-18480866D01*
X-16418938Y-18615665D01*
X-16409455Y-18674912D01*
X-16420015Y-18694203D01*
X-16458104Y-18709312D01*
X-16532982Y-18720468D01*
X-16653910Y-18728043D01*
X-16830146Y-18732408D01*
X-17070951Y-18733934D01*
X-17385583Y-18732991D01*
X-17783304Y-18729951D01*
X-19157153Y-18717636D01*
X-19249576Y-18544579D01*
X-19342000Y-18371522D01*
X-19855643Y-18371397D01*
X-20369286Y-18371273D01*
X-20428364Y-18740727D01*
X-21173521Y-18740727D01*
X-21147017Y-18613727D01*
X-21141782Y-18586065D01*
X-21121437Y-18467028D01*
X-21090603Y-18278687D01*
X-21051693Y-18036021D01*
X-21007117Y-17754010D01*
X-21004080Y-17734559D01*
X-20318796Y-17734559D01*
X-20280204Y-17757911D01*
X-20184764Y-17768449D01*
X-20014749Y-17770909D01*
X-19999327Y-17770891D01*
X-19842073Y-17768508D01*
X-19730667Y-17762889D01*
X-19688364Y-17755158D01*
X-19688481Y-17753368D01*
X-19712601Y-17693352D01*
X-19770907Y-17581216D01*
X-19852142Y-17435958D01*
X-19945048Y-17276578D01*
X-20038368Y-17122074D01*
X-20120842Y-16991445D01*
X-20181215Y-16903690D01*
X-20208228Y-16877809D01*
X-20210029Y-16881775D01*
X-20225512Y-16955149D01*
X-20244039Y-17090843D01*
X-20261985Y-17262909D01*
X-20263733Y-17281925D01*
X-20282407Y-17460024D01*
X-20301539Y-17606086D01*
X-20317247Y-17690091D01*
X-20318268Y-17693656D01*
X-20318796Y-17734559D01*
X-21004080Y-17734559D01*
X-20959288Y-17447636D01*
X-20937262Y-17305833D01*
X-20890557Y-17006142D01*
X-20848278Y-16736168D01*
X-20812846Y-16511302D01*
X-20786684Y-16346934D01*
X-20772212Y-16258454D01*
X-20746360Y-16108364D01*
X-19883222Y-16108364D01*
X-19178461Y-17297545D01*
X-19123668Y-17389936D01*
X-18946233Y-17688245D01*
X-18906243Y-17755158D01*
X-18783303Y-17960869D01*
X-18641367Y-18197037D01*
G36*
X-18094950Y-12552632D02*
G01*
X-18041108Y-12561075D01*
X-18001996Y-12593809D01*
X-17969010Y-12667323D01*
X-17933546Y-12798102D01*
X-17887001Y-13002636D01*
X-17861291Y-13117802D01*
X-17816132Y-13318491D01*
X-17778476Y-13483882D01*
X-17754549Y-13586533D01*
X-17739984Y-13630747D01*
X-17718850Y-13642604D01*
X-17685690Y-13608416D01*
X-17634065Y-13518623D01*
X-17557533Y-13363667D01*
X-17449656Y-13133989D01*
X-17411869Y-13052845D01*
X-17313451Y-12844749D01*
X-17241641Y-12703998D01*
X-17187375Y-12617952D01*
X-17141586Y-12573970D01*
X-17095209Y-12559412D01*
X-17039180Y-12561637D01*
X-16901363Y-12575454D01*
X-16748506Y-13268182D01*
X-16721953Y-13388391D01*
X-16668865Y-13627967D01*
X-16623087Y-13833567D01*
X-16588798Y-13986448D01*
X-16570179Y-14067867D01*
X-16561195Y-14133348D01*
X-16593837Y-14163280D01*
X-16694540Y-14160230D01*
X-16844370Y-14145636D01*
X-16960577Y-13603000D01*
X-16961679Y-13597861D01*
X-17008672Y-13388956D01*
X-17051227Y-13218071D01*
X-17084703Y-13102707D01*
X-17104460Y-13060364D01*
X-17107749Y-13062364D01*
X-17143749Y-13118185D01*
X-17208310Y-13239149D01*
X-17293420Y-13409765D01*
X-17391070Y-13614545D01*
X-17486025Y-13815824D01*
X-17567099Y-13978352D01*
X-17627894Y-14081600D01*
X-17677811Y-14138875D01*
X-17726253Y-14163482D01*
X-17782619Y-14168727D01*
X-17915233Y-14168727D01*
X-18085980Y-13394520D01*
X-18130861Y-13189824D01*
X-18181039Y-12957712D01*
X-18220915Y-12769477D01*
X-18247231Y-12640543D01*
X-18256727Y-12586338D01*
X-18217648Y-12562471D01*
X-18121973Y-12552364D01*
X-18094950Y-12552632D01*
G37*
X-18094950Y-12552632D02*
X-18041108Y-12561075D01*
X-18001996Y-12593809D01*
X-17969010Y-12667323D01*
X-17933546Y-12798102D01*
X-17887001Y-13002636D01*
X-17861291Y-13117802D01*
X-17816132Y-13318491D01*
X-17778476Y-13483882D01*
X-17754549Y-13586533D01*
X-17739984Y-13630747D01*
X-17718850Y-13642604D01*
X-17685690Y-13608416D01*
X-17634065Y-13518623D01*
X-17557533Y-13363667D01*
X-17449656Y-13133989D01*
X-17411869Y-13052845D01*
X-17313451Y-12844749D01*
X-17241641Y-12703998D01*
X-17187375Y-12617952D01*
X-17141586Y-12573970D01*
X-17095209Y-12559412D01*
X-17039180Y-12561637D01*
X-16901363Y-12575454D01*
X-16748506Y-13268182D01*
X-16721953Y-13388391D01*
X-16668865Y-13627967D01*
X-16623087Y-13833567D01*
X-16588798Y-13986448D01*
X-16570179Y-14067867D01*
X-16561195Y-14133348D01*
X-16593837Y-14163280D01*
X-16694540Y-14160230D01*
X-16844370Y-14145636D01*
X-16960577Y-13603000D01*
X-16961679Y-13597861D01*
X-17008672Y-13388956D01*
X-17051227Y-13218071D01*
X-17084703Y-13102707D01*
X-17104460Y-13060364D01*
X-17107749Y-13062364D01*
X-17143749Y-13118185D01*
X-17208310Y-13239149D01*
X-17293420Y-13409765D01*
X-17391070Y-13614545D01*
X-17486025Y-13815824D01*
X-17567099Y-13978352D01*
X-17627894Y-14081600D01*
X-17677811Y-14138875D01*
X-17726253Y-14163482D01*
X-17782619Y-14168727D01*
X-17915233Y-14168727D01*
X-18085980Y-13394520D01*
X-18130861Y-13189824D01*
X-18181039Y-12957712D01*
X-18220915Y-12769477D01*
X-18247231Y-12640543D01*
X-18256727Y-12586338D01*
X-18217648Y-12562471D01*
X-18121973Y-12552364D01*
X-18094950Y-12552632D01*
G36*
X-15462727Y-12552565D02*
G01*
X-15311629Y-13256737D01*
X-15283548Y-13387195D01*
X-15231369Y-13627438D01*
X-15186173Y-13832775D01*
X-15152042Y-13984727D01*
X-15133061Y-14064818D01*
X-15132940Y-14065274D01*
X-15124234Y-14108735D01*
X-15135074Y-14137916D01*
X-15180023Y-14155662D01*
X-15273644Y-14164816D01*
X-15430502Y-14168223D01*
X-15665159Y-14168727D01*
X-16224727Y-14168727D01*
X-16224727Y-13891636D01*
X-15855273Y-13891636D01*
X-15829425Y-13891637D01*
X-15648356Y-13889148D01*
X-15542107Y-13873327D01*
X-15494920Y-13831618D01*
X-15491031Y-13751467D01*
X-15514682Y-13620318D01*
X-15543546Y-13476000D01*
X-15953409Y-13476000D01*
X-15980472Y-13475997D01*
X-16166008Y-13474692D01*
X-16279159Y-13467536D01*
X-16337821Y-13449488D01*
X-16359893Y-13415505D01*
X-16363273Y-13360545D01*
X-16360743Y-13310076D01*
X-16340660Y-13273014D01*
X-16284317Y-13253665D01*
X-16173012Y-13246275D01*
X-15988046Y-13245091D01*
X-15612818Y-13245091D01*
X-15641682Y-13100773D01*
X-15661863Y-12981657D01*
X-15670546Y-12892954D01*
X-15685796Y-12865191D01*
X-15750559Y-12843902D01*
X-15879324Y-12832708D01*
X-16086182Y-12829454D01*
X-16178895Y-12828580D01*
X-16344684Y-12821900D01*
X-16459417Y-12810073D01*
X-16502449Y-12794818D01*
X-16508623Y-12752131D01*
X-16530926Y-12656273D01*
X-16539821Y-12614386D01*
X-16530602Y-12584237D01*
X-16487774Y-12565901D01*
X-16396649Y-12556448D01*
X-16242537Y-12552946D01*
X-16010750Y-12552464D01*
X-15462727Y-12552565D01*
G37*
X-15462727Y-12552565D02*
X-15311629Y-13256737D01*
X-15283548Y-13387195D01*
X-15231369Y-13627438D01*
X-15186173Y-13832775D01*
X-15152042Y-13984727D01*
X-15133061Y-14064818D01*
X-15132940Y-14065274D01*
X-15124234Y-14108735D01*
X-15135074Y-14137916D01*
X-15180023Y-14155662D01*
X-15273644Y-14164816D01*
X-15430502Y-14168223D01*
X-15665159Y-14168727D01*
X-16224727Y-14168727D01*
X-16224727Y-13891636D01*
X-15855273Y-13891636D01*
X-15829425Y-13891637D01*
X-15648356Y-13889148D01*
X-15542107Y-13873327D01*
X-15494920Y-13831618D01*
X-15491031Y-13751467D01*
X-15514682Y-13620318D01*
X-15543546Y-13476000D01*
X-15953409Y-13476000D01*
X-15980472Y-13475997D01*
X-16166008Y-13474692D01*
X-16279159Y-13467536D01*
X-16337821Y-13449488D01*
X-16359893Y-13415505D01*
X-16363273Y-13360545D01*
X-16360743Y-13310076D01*
X-16340660Y-13273014D01*
X-16284317Y-13253665D01*
X-16173012Y-13246275D01*
X-15988046Y-13245091D01*
X-15612818Y-13245091D01*
X-15641682Y-13100773D01*
X-15661863Y-12981657D01*
X-15670546Y-12892954D01*
X-15685796Y-12865191D01*
X-15750559Y-12843902D01*
X-15879324Y-12832708D01*
X-16086182Y-12829454D01*
X-16178895Y-12828580D01*
X-16344684Y-12821900D01*
X-16459417Y-12810073D01*
X-16502449Y-12794818D01*
X-16508623Y-12752131D01*
X-16530926Y-12656273D01*
X-16539821Y-12614386D01*
X-16530602Y-12584237D01*
X-16487774Y-12565901D01*
X-16396649Y-12556448D01*
X-16242537Y-12552946D01*
X-16010750Y-12552464D01*
X-15462727Y-12552565D01*
G36*
X-14522376Y-16370066D02*
G01*
X-14510495Y-16428796D01*
X-14480149Y-16594411D01*
X-14481907Y-16691749D01*
X-14529717Y-16738892D01*
X-14637529Y-16753918D01*
X-14819294Y-16754909D01*
X-14868075Y-16754998D01*
X-15026438Y-16758499D01*
X-15113799Y-16770257D01*
X-15147453Y-16794568D01*
X-15144697Y-16835727D01*
X-15140585Y-16850454D01*
X-15115320Y-16953601D01*
X-15077137Y-17120035D01*
X-15029704Y-17332708D01*
X-14976692Y-17574571D01*
X-14921769Y-17828575D01*
X-14868604Y-18077672D01*
X-14820866Y-18304815D01*
X-14782225Y-18492953D01*
X-14756350Y-18625039D01*
X-14746909Y-18684025D01*
X-14764754Y-18705060D01*
X-14850894Y-18728653D01*
X-14984312Y-18741286D01*
X-15137991Y-18742998D01*
X-15284919Y-18733828D01*
X-15398081Y-18713815D01*
X-15450463Y-18683000D01*
X-15452683Y-18675673D01*
X-15472548Y-18594412D01*
X-15507588Y-18440814D01*
X-15554594Y-18229289D01*
X-15610356Y-17974245D01*
X-15671663Y-17690091D01*
X-15872154Y-16754909D01*
X-16232288Y-16754909D01*
X-16378152Y-16754266D01*
X-16502048Y-16747986D01*
X-16570045Y-16729329D01*
X-16602777Y-16691551D01*
X-16620875Y-16627909D01*
X-16621067Y-16627051D01*
X-16653299Y-16490094D01*
X-16690770Y-16339273D01*
X-16695725Y-16319708D01*
X-16721734Y-16207244D01*
X-16732470Y-16143000D01*
X-16715483Y-16136871D01*
X-16620968Y-16127703D01*
X-16454758Y-16119858D01*
X-16229640Y-16113746D01*
X-15958402Y-16109778D01*
X-15653830Y-16108364D01*
X-14574933Y-16108364D01*
X-14522376Y-16370066D01*
G37*
X-14522376Y-16370066D02*
X-14510495Y-16428796D01*
X-14480149Y-16594411D01*
X-14481907Y-16691749D01*
X-14529717Y-16738892D01*
X-14637529Y-16753918D01*
X-14819294Y-16754909D01*
X-14868075Y-16754998D01*
X-15026438Y-16758499D01*
X-15113799Y-16770257D01*
X-15147453Y-16794568D01*
X-15144697Y-16835727D01*
X-15140585Y-16850454D01*
X-15115320Y-16953601D01*
X-15077137Y-17120035D01*
X-15029704Y-17332708D01*
X-14976692Y-17574571D01*
X-14921769Y-17828575D01*
X-14868604Y-18077672D01*
X-14820866Y-18304815D01*
X-14782225Y-18492953D01*
X-14756350Y-18625039D01*
X-14746909Y-18684025D01*
X-14764754Y-18705060D01*
X-14850894Y-18728653D01*
X-14984312Y-18741286D01*
X-15137991Y-18742998D01*
X-15284919Y-18733828D01*
X-15398081Y-18713815D01*
X-15450463Y-18683000D01*
X-15452683Y-18675673D01*
X-15472548Y-18594412D01*
X-15507588Y-18440814D01*
X-15554594Y-18229289D01*
X-15610356Y-17974245D01*
X-15671663Y-17690091D01*
X-15872154Y-16754909D01*
X-16232288Y-16754909D01*
X-16378152Y-16754266D01*
X-16502048Y-16747986D01*
X-16570045Y-16729329D01*
X-16602777Y-16691551D01*
X-16620875Y-16627909D01*
X-16621067Y-16627051D01*
X-16653299Y-16490094D01*
X-16690770Y-16339273D01*
X-16695725Y-16319708D01*
X-16721734Y-16207244D01*
X-16732470Y-16143000D01*
X-16715483Y-16136871D01*
X-16620968Y-16127703D01*
X-16454758Y-16119858D01*
X-16229640Y-16113746D01*
X-15958402Y-16109778D01*
X-15653830Y-16108364D01*
X-14574933Y-16108364D01*
X-14522376Y-16370066D01*
G36*
X-10399855Y-12557382D02*
G01*
X-10359637Y-12569248D01*
X-10350842Y-12614460D01*
X-10325399Y-12732350D01*
X-10287323Y-12904294D01*
X-10240649Y-13111884D01*
X-10207493Y-13265918D01*
X-10164094Y-13530156D01*
X-10157060Y-13729323D01*
X-10188346Y-13877618D01*
X-10259907Y-13989244D01*
X-10373697Y-14078399D01*
X-10540604Y-14143935D01*
X-10765165Y-14170070D01*
X-10992264Y-14147098D01*
X-11182143Y-14075180D01*
X-11194006Y-14067613D01*
X-11314507Y-13957760D01*
X-11399428Y-13827810D01*
X-11421646Y-13762951D01*
X-11462536Y-13620177D01*
X-11512074Y-13431814D01*
X-11564815Y-13220323D01*
X-11615314Y-13008168D01*
X-11658126Y-12817811D01*
X-11687806Y-12671713D01*
X-11698909Y-12592339D01*
X-11659807Y-12564250D01*
X-11564155Y-12552364D01*
X-11537059Y-12552632D01*
X-11483252Y-12561067D01*
X-11444210Y-12593791D01*
X-11411349Y-12667297D01*
X-11376087Y-12798081D01*
X-11329839Y-13002636D01*
X-11329313Y-13005013D01*
X-11266505Y-13281933D01*
X-11215703Y-13483636D01*
X-11171265Y-13625445D01*
X-11127548Y-13722682D01*
X-11078908Y-13790670D01*
X-11019702Y-13844732D01*
X-10901579Y-13913545D01*
X-10736011Y-13938933D01*
X-10587565Y-13885039D01*
X-10476154Y-13755146D01*
X-10449476Y-13690167D01*
X-10439350Y-13615094D01*
X-10447384Y-13510187D01*
X-10475106Y-13355552D01*
X-10524044Y-13131293D01*
X-10562427Y-12959054D01*
X-10600902Y-12780376D01*
X-10627070Y-12651508D01*
X-10636727Y-12592550D01*
X-10636718Y-12592072D01*
X-10595484Y-12564011D01*
X-10498182Y-12552364D01*
X-10496727Y-12552364D01*
X-10399855Y-12557382D01*
G37*
X-10399855Y-12557382D02*
X-10359637Y-12569248D01*
X-10350842Y-12614460D01*
X-10325399Y-12732350D01*
X-10287323Y-12904294D01*
X-10240649Y-13111884D01*
X-10207493Y-13265918D01*
X-10164094Y-13530156D01*
X-10157060Y-13729323D01*
X-10188346Y-13877618D01*
X-10259907Y-13989244D01*
X-10373697Y-14078399D01*
X-10540604Y-14143935D01*
X-10765165Y-14170070D01*
X-10992264Y-14147098D01*
X-11182143Y-14075180D01*
X-11194006Y-14067613D01*
X-11314507Y-13957760D01*
X-11399428Y-13827810D01*
X-11421646Y-13762951D01*
X-11462536Y-13620177D01*
X-11512074Y-13431814D01*
X-11564815Y-13220323D01*
X-11615314Y-13008168D01*
X-11658126Y-12817811D01*
X-11687806Y-12671713D01*
X-11698909Y-12592339D01*
X-11659807Y-12564250D01*
X-11564155Y-12552364D01*
X-11537059Y-12552632D01*
X-11483252Y-12561067D01*
X-11444210Y-12593791D01*
X-11411349Y-12667297D01*
X-11376087Y-12798081D01*
X-11329839Y-13002636D01*
X-11329313Y-13005013D01*
X-11266505Y-13281933D01*
X-11215703Y-13483636D01*
X-11171265Y-13625445D01*
X-11127548Y-13722682D01*
X-11078908Y-13790670D01*
X-11019702Y-13844732D01*
X-10901579Y-13913545D01*
X-10736011Y-13938933D01*
X-10587565Y-13885039D01*
X-10476154Y-13755146D01*
X-10449476Y-13690167D01*
X-10439350Y-13615094D01*
X-10447384Y-13510187D01*
X-10475106Y-13355552D01*
X-10524044Y-13131293D01*
X-10562427Y-12959054D01*
X-10600902Y-12780376D01*
X-10627070Y-12651508D01*
X-10636727Y-12592550D01*
X-10636718Y-12592072D01*
X-10595484Y-12564011D01*
X-10498182Y-12552364D01*
X-10496727Y-12552364D01*
X-10399855Y-12557382D01*
D10*
%TO.C,R11*%
X-20080500Y14807258D02*
X-20080500Y14332742D01*
X-19035500Y14807258D02*
X-19035500Y14332742D01*
%TO.C,C11*%
X6998580Y26668000D02*
X6717420Y26668000D01*
X6998580Y27688000D02*
X6717420Y27688000D01*
%TO.C,U2*%
X4916000Y27192000D02*
X3941000Y27192000D01*
X-7304000Y27192000D02*
X-6329000Y27192000D01*
X4916000Y15947000D02*
X4916000Y14972000D01*
X-6329000Y27192000D02*
X-6329000Y28507000D01*
X-7304000Y14972000D02*
X-6329000Y14972000D01*
X-7304000Y26217000D02*
X-7304000Y27192000D01*
X4916000Y14972000D02*
X3941000Y14972000D01*
X4916000Y26217000D02*
X4916000Y27192000D01*
X-7304000Y15947000D02*
X-7304000Y14972000D01*
%TO.C,C34*%
X7630000Y29950580D02*
X7630000Y29669420D01*
X8650000Y29950580D02*
X8650000Y29669420D01*
%TO.C,J5*%
X-30728000Y11723283D02*
X-29128000Y11723283D01*
X-29128000Y18393283D02*
X-28188000Y18393283D01*
X-29128000Y11723283D02*
X-29128000Y13523283D01*
X-29128000Y20193283D02*
X-29128000Y18393283D01*
X-33598000Y18923283D02*
X-33598000Y12993283D01*
X-30728000Y20193283D02*
X-29128000Y20193283D01*
%TO.C,R5*%
X-11444500Y32495258D02*
X-11444500Y32020742D01*
X-10399500Y32495258D02*
X-10399500Y32020742D01*
%TO.C,C24*%
X18534748Y22833000D02*
X19057252Y22833000D01*
X18534748Y21363000D02*
X19057252Y21363000D01*
%TO.C,LS1*%
X-12200000Y23448000D02*
X-12200000Y33448000D01*
X-14700000Y23448000D02*
X-12200000Y23448000D01*
X-14700000Y33448000D02*
X-12200000Y33448000D01*
X-22200000Y23448000D02*
X-19700000Y23448000D01*
X-22200000Y33448000D02*
X-22200000Y23448000D01*
X-19700000Y33448000D02*
X-22200000Y33448000D01*
%TO.C,D1*%
X31977000Y20986250D02*
X31977000Y18701250D01*
X30507000Y18701250D02*
X30507000Y20986250D01*
X31977000Y18701250D02*
X30507000Y18701250D01*
%TO.C,R17*%
X24398500Y20449008D02*
X24398500Y19974492D01*
X23353500Y20449008D02*
X23353500Y19974492D01*
%TO.C,D4*%
X11222000Y17068000D02*
X11222000Y16968000D01*
X10622000Y17068000D02*
X10622000Y16968000D01*
%TO.C,C28*%
X-13259580Y20064000D02*
X-12978420Y20064000D01*
X-13259580Y21084000D02*
X-12978420Y21084000D01*
%TO.C,C13*%
X-18775920Y2538000D02*
X-19057080Y2538000D01*
X-18775920Y3558000D02*
X-19057080Y3558000D01*
%TO.C,R10*%
X-20201000Y5862827D02*
X-20201000Y5388311D01*
X-19156000Y5862827D02*
X-19156000Y5388311D01*
%TO.C,C19*%
X13718000Y32852580D02*
X13718000Y32571420D01*
X12698000Y32852580D02*
X12698000Y32571420D01*
%TO.C,C14*%
X-18655420Y12540000D02*
X-18936580Y12540000D01*
X-18655420Y11520000D02*
X-18936580Y11520000D01*
%TO.C,C1*%
X-9908000Y29069420D02*
X-9908000Y29350580D01*
X-8888000Y29069420D02*
X-8888000Y29350580D01*
%TO.C,C22*%
X20826000Y31582580D02*
X20826000Y31301420D01*
X21846000Y31582580D02*
X21846000Y31301420D01*
%TO.C,C30*%
X36689420Y-14730000D02*
X36970580Y-14730000D01*
X36689420Y-15750000D02*
X36970580Y-15750000D01*
%TO.C,R7*%
X2523258Y32526500D02*
X2048742Y32526500D01*
X2523258Y31481500D02*
X2048742Y31481500D01*
%TO.C,JP1*%
X-10906000Y3426000D02*
X-8906000Y3426000D01*
X-10906000Y6226000D02*
X-10906000Y3426000D01*
X-8906000Y6226000D02*
X-10906000Y6226000D01*
X-8906000Y3426000D02*
X-8906000Y6226000D01*
%TO.C,C5*%
X-9190000Y24859420D02*
X-9190000Y25140580D01*
X-10210000Y24859420D02*
X-10210000Y25140580D01*
%TO.C,U7*%
X16678000Y33552500D02*
X16678000Y33077500D01*
X19898000Y30332500D02*
X19898000Y30807500D01*
X19423000Y33552500D02*
X19898000Y33552500D01*
X19898000Y33552500D02*
X19898000Y33077500D01*
X19423000Y30332500D02*
X19898000Y30332500D01*
X17153000Y33552500D02*
X16678000Y33552500D01*
X17153000Y30332500D02*
X16678000Y30332500D01*
%TO.C,R12*%
X18017258Y34400000D02*
X17542742Y34400000D01*
X18017258Y35445000D02*
X17542742Y35445000D01*
D11*
%TO.C,L1*%
X16288000Y28162000D02*
X16288000Y26962000D01*
X20288000Y28162000D02*
X20288000Y26962000D01*
D10*
%TO.C,J1*%
X-3568000Y39696000D02*
X-3568000Y35996000D01*
X-3198000Y33136000D02*
X-488000Y33136000D01*
X-488000Y39696000D02*
X-3568000Y39696000D01*
X2222000Y33136000D02*
X-488000Y33136000D01*
X2222000Y35996000D02*
X2222000Y33136000D01*
X-3198000Y35996000D02*
X-3198000Y33136000D01*
X2592000Y39696000D02*
X2592000Y35996000D01*
X-3568000Y35996000D02*
X-3198000Y35996000D01*
X-488000Y39696000D02*
X2592000Y39696000D01*
X2592000Y35996000D02*
X2222000Y35996000D01*
%TO.C,J4*%
X-25736000Y3153000D02*
X-26676000Y3153000D01*
X-24136000Y9823000D02*
X-25736000Y9823000D01*
X-25736000Y9823000D02*
X-25736000Y8023000D01*
X-24136000Y1353000D02*
X-25736000Y1353000D01*
X-21266000Y2623000D02*
X-21266000Y8553000D01*
X-25736000Y1353000D02*
X-25736000Y3153000D01*
%TO.C,C21*%
X-2934580Y-7114000D02*
X-2653420Y-7114000D01*
X-2934580Y-6094000D02*
X-2653420Y-6094000D01*
%TO.C,JP2*%
X35576000Y272000D02*
X35576000Y-2528000D01*
X37576000Y-2528000D02*
X37576000Y272000D01*
X37576000Y272000D02*
X35576000Y272000D01*
X35576000Y-2528000D02*
X37576000Y-2528000D01*
%TO.C,LED2*%
X-10387000Y8830865D02*
X-10387000Y11115865D01*
X-8917000Y11115865D02*
X-8917000Y8830865D01*
X-8917000Y8830865D02*
X-10387000Y8830865D01*
%TO.C,R2*%
X-7082250Y10546373D02*
X-7082250Y10071857D01*
X-6037250Y10546373D02*
X-6037250Y10071857D01*
%TO.C,C26*%
X12702000Y17666580D02*
X12702000Y17385420D01*
X11682000Y17666580D02*
X11682000Y17385420D01*
%TO.C,C17*%
X-15607420Y11520000D02*
X-15888580Y11520000D01*
X-15607420Y12540000D02*
X-15888580Y12540000D01*
%TO.C,C4*%
X8130000Y21208420D02*
X8130000Y21489580D01*
X7110000Y21208420D02*
X7110000Y21489580D01*
%TO.C,C16*%
X-15727920Y2538000D02*
X-16009080Y2538000D01*
X-15727920Y3558000D02*
X-16009080Y3558000D01*
%TO.C,D3*%
X25935000Y18726750D02*
X25935000Y21011750D01*
X27405000Y21011750D02*
X27405000Y18726750D01*
X27405000Y18726750D02*
X25935000Y18726750D01*
%TO.C,C15*%
X2956080Y6803500D02*
X2674920Y6803500D01*
X2956080Y5783500D02*
X2674920Y5783500D01*
%TO.C,D2*%
X4992000Y7850000D02*
X4992000Y5300000D01*
X6692000Y7850000D02*
X6692000Y5300000D01*
X4992000Y7850000D02*
X6692000Y7850000D01*
%TO.C,R3*%
X-11952500Y10553123D02*
X-11952500Y10078607D01*
X-10907500Y10553123D02*
X-10907500Y10078607D01*
%TO.C,R6*%
X33542500Y20423508D02*
X33542500Y19948992D01*
X32497500Y20423508D02*
X32497500Y19948992D01*
%TO.C,C25*%
X18290000Y17666580D02*
X18290000Y17385420D01*
X17270000Y17666580D02*
X17270000Y17385420D01*
%TO.C,U4*%
X1321500Y9166000D02*
X1321500Y9816000D01*
X4441500Y9166000D02*
X4441500Y7491000D01*
X1321500Y9166000D02*
X1321500Y8516000D01*
X4441500Y9166000D02*
X4441500Y9816000D01*
%TO.C,C23*%
X18534748Y23573500D02*
X19057252Y23573500D01*
X18534748Y25043500D02*
X19057252Y25043500D01*
%TO.C,J2*%
X-20290000Y-1972000D02*
X-23850000Y-1972000D01*
X-22830000Y-4632000D02*
X-26390000Y-4632000D01*
X-31020000Y-4632000D02*
X-31020000Y-1972000D01*
X-12670000Y-4632000D02*
X-16230000Y-4632000D01*
X-10580000Y-4632000D02*
X-11150000Y-4632000D01*
X-30450000Y-1972000D02*
X-31020000Y-1972000D01*
X-10580000Y-1972000D02*
X-13690000Y-1972000D01*
X-27910000Y-4632000D02*
X-31020000Y-4632000D01*
X-11150000Y-4632000D02*
X-11150000Y-6152000D01*
X-25370000Y-1972000D02*
X-28930000Y-1972000D01*
X-17750000Y-4632000D02*
X-21310000Y-4632000D01*
X-15210000Y-1972000D02*
X-18770000Y-1972000D01*
X-10580000Y-4632000D02*
X-10580000Y-1972000D01*
%TO.C,C31*%
X-10323000Y21195420D02*
X-10323000Y21476580D01*
X-11343000Y21195420D02*
X-11343000Y21476580D01*
%TO.C,C18*%
X14251000Y32719252D02*
X14251000Y32196748D01*
X15721000Y32719252D02*
X15721000Y32196748D01*
D11*
%TO.C,Q1*%
X-16202000Y22524000D02*
X-15952000Y22524000D01*
X-16202000Y19224000D02*
X-15952000Y19224000D01*
X-19252000Y19224000D02*
X-19252000Y22524000D01*
X-19252000Y19224000D02*
X-19002000Y19224000D01*
X-15952000Y19224000D02*
X-15952000Y22524000D01*
X-19252000Y22524000D02*
X-19002000Y22524000D01*
D10*
%TO.C,U6*%
X-18197000Y16165000D02*
X-18197000Y16015000D01*
X-16637000Y16165000D02*
X-18197000Y16165000D01*
X-15077000Y13045000D02*
X-18197000Y13045000D01*
X-18197000Y13045000D02*
X-18197000Y13195000D01*
X-15077000Y13045000D02*
X-15077000Y13195000D01*
%TO.C,C20*%
X-7114000Y3188580D02*
X-7114000Y2907420D01*
X-6094000Y3188580D02*
X-6094000Y2907420D01*
%TO.C,C33*%
X5459420Y31774000D02*
X5740580Y31774000D01*
X5459420Y32794000D02*
X5740580Y32794000D01*
%TO.C,R4*%
X-17288742Y17257500D02*
X-17763258Y17257500D01*
X-17288742Y18302500D02*
X-17763258Y18302500D01*
%TO.C,C32*%
X-13906191Y18174580D02*
X-13906191Y17893420D01*
X-14926191Y18174580D02*
X-14926191Y17893420D01*
%TO.C,U5*%
X-18324000Y4028000D02*
X-18324000Y4178000D01*
X-15204000Y4028000D02*
X-15204000Y4178000D01*
X-18324000Y7148000D02*
X-18324000Y6998000D01*
X-15204000Y4028000D02*
X-18324000Y4028000D01*
X-16764000Y7148000D02*
X-18324000Y7148000D01*
%TO.C,R14*%
X27925500Y20449008D02*
X27925500Y19974492D01*
X28970500Y20449008D02*
X28970500Y19974492D01*
%TO.C,U11*%
X6739000Y28404000D02*
X7039000Y28404000D01*
X7039000Y28404000D02*
X7039000Y29004000D01*
X4619000Y28404000D02*
X4319000Y28404000D01*
X4319000Y28404000D02*
X4319000Y29004000D01*
X4619000Y31124000D02*
X4319000Y31124000D01*
X4319000Y31124000D02*
X4319000Y30524000D01*
X6739000Y31124000D02*
X7039000Y31124000D01*
%TO.C,R16*%
X-778742Y29703500D02*
X-1253258Y29703500D01*
X-778742Y30748500D02*
X-1253258Y30748500D01*
%TO.C,C8*%
X10808580Y29970000D02*
X10527420Y29970000D01*
X10808580Y30990000D02*
X10527420Y30990000D01*
%TO.C,C35*%
X-8888000Y32117420D02*
X-8888000Y32398580D01*
X-9908000Y32117420D02*
X-9908000Y32398580D01*
%TO.C,R1*%
X-10399500Y28972742D02*
X-10399500Y29447258D01*
X-11444500Y28972742D02*
X-11444500Y29447258D01*
%TO.C,U10*%
X33114000Y11690000D02*
X33114000Y15190000D01*
X33114000Y-22810000D02*
X33114000Y-19310000D01*
X13114000Y-22810000D02*
X13114000Y-19310000D01*
X33114000Y15190000D02*
X13114000Y15190000D01*
X13114000Y15190000D02*
X13114000Y11690000D01*
X33114000Y-22810000D02*
X13114000Y-22810000D01*
%TO.C,R8*%
X-778742Y31481500D02*
X-1253258Y31481500D01*
X-778742Y32526500D02*
X-1253258Y32526500D01*
%TO.C,C6*%
X5662000Y14364580D02*
X5662000Y14083420D01*
X6682000Y14364580D02*
X6682000Y14083420D01*
%TO.C,R15*%
X2523258Y30748500D02*
X2048742Y30748500D01*
X2523258Y29703500D02*
X2048742Y29703500D01*
%TO.C,C10*%
X-10690000Y24859420D02*
X-10690000Y25140580D01*
X-11710000Y24859420D02*
X-11710000Y25140580D01*
%TO.C,LED1*%
X-4046750Y11109115D02*
X-4046750Y8824115D01*
X-4046750Y8824115D02*
X-5516750Y8824115D01*
X-5516750Y8824115D02*
X-5516750Y11109115D01*
%TO.C,R13*%
X14240742Y34400000D02*
X14715258Y34400000D01*
X14240742Y35445000D02*
X14715258Y35445000D01*
%TD*%
M02*
