%TF.GenerationSoftware,KiCad,Pcbnew,5.1.7-a382d34a8~88~ubuntu20.04.1*%
%TF.CreationDate,2021-06-08T03:13:41+02:00*%
%TF.ProjectId,uHoubolt_PCB_GNSS,75486f75-626f-46c7-945f-5043425f474e,rev?*%
%TF.SameCoordinates,PX8f0d180PY5f5e100*%
%TF.FileFunction,Legend,Bot*%
%TF.FilePolarity,Positive*%
%FSLAX46Y46*%
G04 Gerber Fmt 4.6, Leading zero omitted, Abs format (unit mm)*
G04 Created by KiCad (PCBNEW 5.1.7-a382d34a8~88~ubuntu20.04.1) date 2021-06-08 03:13:41*
%MOMM*%
%LPD*%
G01*
G04 APERTURE LIST*
%ADD10C,0.150000*%
%ADD11C,0.120000*%
G04 APERTURE END LIST*
D10*
X-2975000Y5261905D02*
X-3022620Y5357143D01*
X-3022620Y5500000D01*
X-2975000Y5642858D01*
X-2879762Y5738096D01*
X-2784524Y5785715D01*
X-2594048Y5833334D01*
X-2451191Y5833334D01*
X-2260715Y5785715D01*
X-2165477Y5738096D01*
X-2070239Y5642858D01*
X-2022620Y5500000D01*
X-2022620Y5404762D01*
X-2070239Y5261905D01*
X-2117858Y5214286D01*
X-2451191Y5214286D01*
X-2451191Y5404762D01*
X-2022620Y4785715D02*
X-3022620Y4785715D01*
X-2022620Y4214286D01*
X-3022620Y4214286D01*
X-2022620Y3738096D02*
X-3022620Y3738096D01*
X-3022620Y3500000D01*
X-2975000Y3357143D01*
X-2879762Y3261905D01*
X-2784524Y3214286D01*
X-2594048Y3166667D01*
X-2451191Y3166667D01*
X-2260715Y3214286D01*
X-2165477Y3261905D01*
X-2070239Y3357143D01*
X-2022620Y3500000D01*
X-2022620Y3738096D01*
X-372620Y5095239D02*
X-848810Y5428572D01*
X-372620Y5666667D02*
X-1372620Y5666667D01*
X-1372620Y5285715D01*
X-1325000Y5190477D01*
X-1277381Y5142858D01*
X-1182143Y5095239D01*
X-1039286Y5095239D01*
X-944048Y5142858D01*
X-896429Y5190477D01*
X-848810Y5285715D01*
X-848810Y5666667D01*
X-372620Y4761905D02*
X-1039286Y4238096D01*
X-1039286Y4761905D02*
X-372620Y4238096D01*
X-372620Y3857143D02*
X-1372620Y3857143D01*
X-1372620Y3619048D01*
X-1325000Y3476191D01*
X-1229762Y3380953D01*
X-1134524Y3333334D01*
X-944048Y3285715D01*
X-801191Y3285715D01*
X-610715Y3333334D01*
X-515477Y3380953D01*
X-420239Y3476191D01*
X-372620Y3619048D01*
X-372620Y3857143D01*
X277380Y5690477D02*
X277380Y5119048D01*
X1277380Y5404762D02*
X277380Y5404762D01*
X1277380Y4880953D02*
X610714Y4357143D01*
X610714Y4880953D02*
X1277380Y4357143D01*
X1277380Y3976191D02*
X277380Y3976191D01*
X277380Y3738096D01*
X325000Y3595239D01*
X420238Y3500000D01*
X515476Y3452381D01*
X705952Y3404762D01*
X848809Y3404762D01*
X1039285Y3452381D01*
X1134523Y3500000D01*
X1229761Y3595239D01*
X1277380Y3738096D01*
X1277380Y3976191D01*
X1927380Y5738096D02*
X1927380Y5119048D01*
X2308333Y5452381D01*
X2308333Y5309524D01*
X2355952Y5214286D01*
X2403571Y5166667D01*
X2498809Y5119048D01*
X2736904Y5119048D01*
X2832142Y5166667D01*
X2879761Y5214286D01*
X2927380Y5309524D01*
X2927380Y5595239D01*
X2879761Y5690477D01*
X2832142Y5738096D01*
X1927380Y4833334D02*
X2927380Y4500000D01*
X1927380Y4166667D01*
X1927380Y3928572D02*
X1927380Y3309524D01*
X2308333Y3642858D01*
X2308333Y3500000D01*
X2355952Y3404762D01*
X2403571Y3357143D01*
X2498809Y3309524D01*
X2736904Y3309524D01*
X2832142Y3357143D01*
X2879761Y3404762D01*
X2927380Y3500000D01*
X2927380Y3785715D01*
X2879761Y3880953D01*
X2832142Y3928572D01*
D11*
%TO.C,J2*%
X33700000Y2200000D02*
X33700000Y-2200000D01*
X38100000Y2200000D02*
X33700000Y2200000D01*
X38100000Y-2200000D02*
X38100000Y2200000D01*
X33700000Y-2200000D02*
X38100000Y-2200000D01*
%TO.C,J3*%
X42050000Y0D02*
G75*
G03*
X42050000Y0I-950000J0D01*
G01*
%TO.C,C4*%
X5360000Y-5440000D02*
X5360000Y-9290000D01*
X5360000Y-16160000D02*
X5360000Y-12310000D01*
X-4295563Y-16160000D02*
X5360000Y-16160000D01*
X-4295563Y-5440000D02*
X5360000Y-5440000D01*
X-5360000Y-6504437D02*
X-5360000Y-9290000D01*
X-5360000Y-15095563D02*
X-5360000Y-12310000D01*
X-5360000Y-15095563D02*
X-4295563Y-16160000D01*
X-5360000Y-6504437D02*
X-4295563Y-5440000D01*
X-6850000Y-13560000D02*
X-5600000Y-13560000D01*
X-6225000Y-14185000D02*
X-6225000Y-12935000D01*
%TO.C,R1*%
X-7122500Y-7462742D02*
X-7122500Y-7937258D01*
X-6077500Y-7462742D02*
X-6077500Y-7937258D01*
%TO.C,D1*%
X-5600000Y-6100000D02*
X-7600000Y-6100000D01*
X-7600000Y-6100000D02*
X-7600000Y-2250000D01*
X-5600000Y-6100000D02*
X-5600000Y-2250000D01*
%TO.C,J1*%
X4235000Y-260000D02*
X4235000Y-1860000D01*
X4235000Y-1860000D02*
X2435000Y-1860000D01*
X2435000Y-1860000D02*
X2435000Y-2800000D01*
X-4235000Y-260000D02*
X-4235000Y-1860000D01*
X-4235000Y-1860000D02*
X-2435000Y-1860000D01*
X2965000Y2610000D02*
X-2965000Y2610000D01*
%TD*%
M02*
