%TF.GenerationSoftware,KiCad,Pcbnew,5.1.7-a382d34a8~88~ubuntu20.04.1*%
%TF.CreationDate,2021-06-08T03:13:41+02:00*%
%TF.ProjectId,uHoubolt_PCB_GNSS,75486f75-626f-46c7-945f-5043425f474e,rev?*%
%TF.SameCoordinates,PX8f0d180PY5f5e100*%
%TF.FileFunction,Copper,L1,Top*%
%TF.FilePolarity,Positive*%
%FSLAX46Y46*%
G04 Gerber Fmt 4.6, Leading zero omitted, Abs format (unit mm)*
G04 Created by KiCad (PCBNEW 5.1.7-a382d34a8~88~ubuntu20.04.1) date 2021-06-08 03:13:41*
%MOMM*%
%LPD*%
G01*
G04 APERTURE LIST*
%TA.AperFunction,ComponentPad*%
%ADD10C,1.500000*%
%TD*%
%TA.AperFunction,ComponentPad*%
%ADD11C,0.800000*%
%TD*%
%TA.AperFunction,ComponentPad*%
%ADD12C,6.400000*%
%TD*%
%TA.AperFunction,ViaPad*%
%ADD13C,0.800000*%
%TD*%
%TA.AperFunction,Conductor*%
%ADD14C,0.500000*%
%TD*%
%TA.AperFunction,Conductor*%
%ADD15C,0.200000*%
%TD*%
%TA.AperFunction,Conductor*%
%ADD16C,0.100000*%
%TD*%
G04 APERTURE END LIST*
D10*
%TO.P,J3,1*%
%TO.N,Net-(J3-Pad1)*%
X41100000Y0D03*
%TD*%
D11*
%TO.P,H4,1*%
%TO.N,GND*%
X28597056Y-25202944D03*
X26900000Y-24500000D03*
X25202944Y-25202944D03*
X24500000Y-26900000D03*
X25202944Y-28597056D03*
X26900000Y-29300000D03*
X28597056Y-28597056D03*
X29300000Y-26900000D03*
D12*
X26900000Y-26900000D03*
%TD*%
D11*
%TO.P,H3,1*%
%TO.N,GND*%
X-25202944Y-25202944D03*
X-26900000Y-24500000D03*
X-28597056Y-25202944D03*
X-29300000Y-26900000D03*
X-28597056Y-28597056D03*
X-26900000Y-29300000D03*
X-25202944Y-28597056D03*
X-24500000Y-26900000D03*
D12*
X-26900000Y-26900000D03*
%TD*%
D11*
%TO.P,H2,1*%
%TO.N,GND*%
X-25202944Y28597056D03*
X-26900000Y29300000D03*
X-28597056Y28597056D03*
X-29300000Y26900000D03*
X-28597056Y25202944D03*
X-26900000Y24500000D03*
X-25202944Y25202944D03*
X-24500000Y26900000D03*
D12*
X-26900000Y26900000D03*
%TD*%
D11*
%TO.P,H1,1*%
%TO.N,GND*%
X28597056Y28597056D03*
X26900000Y29300000D03*
X25202944Y28597056D03*
X24500000Y26900000D03*
X25202944Y25202944D03*
X26900000Y24500000D03*
X28597056Y25202944D03*
X29300000Y26900000D03*
D12*
X26900000Y26900000D03*
%TD*%
%TO.P,U1,9*%
%TO.N,Net-(U1-Pad9)*%
%TA.AperFunction,SMDPad,CuDef*%
G36*
G01*
X7401000Y1150000D02*
X5799000Y1150000D01*
G75*
G02*
X5700000Y1249000I0J99000D01*
G01*
X5700000Y2551000D01*
G75*
G02*
X5799000Y2650000I99000J0D01*
G01*
X7401000Y2650000D01*
G75*
G02*
X7500000Y2551000I0J-99000D01*
G01*
X7500000Y1249000D01*
G75*
G02*
X7401000Y1150000I-99000J0D01*
G01*
G37*
%TD.AperFunction*%
%TO.P,U1,10*%
%TO.N,GND*%
%TA.AperFunction,SMDPad,CuDef*%
G36*
G01*
X7401000Y3050000D02*
X5799000Y3050000D01*
G75*
G02*
X5700000Y3149000I0J99000D01*
G01*
X5700000Y4451000D01*
G75*
G02*
X5799000Y4550000I99000J0D01*
G01*
X7401000Y4550000D01*
G75*
G02*
X7500000Y4451000I0J-99000D01*
G01*
X7500000Y3149000D01*
G75*
G02*
X7401000Y3050000I-99000J0D01*
G01*
G37*
%TD.AperFunction*%
%TO.P,U1,8*%
%TO.N,Net-(U1-Pad8)*%
%TA.AperFunction,SMDPad,CuDef*%
G36*
G01*
X7401000Y-750000D02*
X5799000Y-750000D01*
G75*
G02*
X5700000Y-651000I0J99000D01*
G01*
X5700000Y651000D01*
G75*
G02*
X5799000Y750000I99000J0D01*
G01*
X7401000Y750000D01*
G75*
G02*
X7500000Y651000I0J-99000D01*
G01*
X7500000Y-651000D01*
G75*
G02*
X7401000Y-750000I-99000J0D01*
G01*
G37*
%TD.AperFunction*%
%TO.P,U1,7*%
%TO.N,Net-(U1-Pad7)*%
%TA.AperFunction,SMDPad,CuDef*%
G36*
G01*
X7401000Y-2650000D02*
X5799000Y-2650000D01*
G75*
G02*
X5700000Y-2551000I0J99000D01*
G01*
X5700000Y-1249000D01*
G75*
G02*
X5799000Y-1150000I99000J0D01*
G01*
X7401000Y-1150000D01*
G75*
G02*
X7500000Y-1249000I0J-99000D01*
G01*
X7500000Y-2551000D01*
G75*
G02*
X7401000Y-2650000I-99000J0D01*
G01*
G37*
%TD.AperFunction*%
%TO.P,U1,6*%
%TO.N,GND*%
%TA.AperFunction,SMDPad,CuDef*%
G36*
G01*
X7401000Y-4550000D02*
X5799000Y-4550000D01*
G75*
G02*
X5700000Y-4451000I0J99000D01*
G01*
X5700000Y-3149000D01*
G75*
G02*
X5799000Y-3050000I99000J0D01*
G01*
X7401000Y-3050000D01*
G75*
G02*
X7500000Y-3149000I0J-99000D01*
G01*
X7500000Y-4451000D01*
G75*
G02*
X7401000Y-4550000I-99000J0D01*
G01*
G37*
%TD.AperFunction*%
%TO.P,U1,19*%
%TO.N,Net-(U1-Pad19)*%
%TA.AperFunction,SMDPad,CuDef*%
G36*
G01*
X-5799000Y-2650000D02*
X-7401000Y-2650000D01*
G75*
G02*
X-7500000Y-2551000I0J99000D01*
G01*
X-7500000Y-1249000D01*
G75*
G02*
X-7401000Y-1150000I99000J0D01*
G01*
X-5799000Y-1150000D01*
G75*
G02*
X-5700000Y-1249000I0J-99000D01*
G01*
X-5700000Y-2551000D01*
G75*
G02*
X-5799000Y-2650000I-99000J0D01*
G01*
G37*
%TD.AperFunction*%
%TO.P,U1,17*%
%TO.N,+3V3*%
%TA.AperFunction,SMDPad,CuDef*%
G36*
G01*
X-5799000Y1150000D02*
X-7401000Y1150000D01*
G75*
G02*
X-7500000Y1249000I0J99000D01*
G01*
X-7500000Y2551000D01*
G75*
G02*
X-7401000Y2650000I99000J0D01*
G01*
X-5799000Y2650000D01*
G75*
G02*
X-5700000Y2551000I0J-99000D01*
G01*
X-5700000Y1249000D01*
G75*
G02*
X-5799000Y1150000I-99000J0D01*
G01*
G37*
%TD.AperFunction*%
%TO.P,U1,18*%
%TO.N,Net-(U1-Pad18)*%
%TA.AperFunction,SMDPad,CuDef*%
G36*
G01*
X-5799000Y-750000D02*
X-7401000Y-750000D01*
G75*
G02*
X-7500000Y-651000I0J99000D01*
G01*
X-7500000Y651000D01*
G75*
G02*
X-7401000Y750000I99000J0D01*
G01*
X-5799000Y750000D01*
G75*
G02*
X-5700000Y651000I0J-99000D01*
G01*
X-5700000Y-651000D01*
G75*
G02*
X-5799000Y-750000I-99000J0D01*
G01*
G37*
%TD.AperFunction*%
%TO.P,U1,20*%
%TO.N,GND*%
%TA.AperFunction,SMDPad,CuDef*%
G36*
G01*
X-5799000Y-4550000D02*
X-7401000Y-4550000D01*
G75*
G02*
X-7500000Y-4451000I0J99000D01*
G01*
X-7500000Y-3149000D01*
G75*
G02*
X-7401000Y-3050000I99000J0D01*
G01*
X-5799000Y-3050000D01*
G75*
G02*
X-5700000Y-3149000I0J-99000D01*
G01*
X-5700000Y-4451000D01*
G75*
G02*
X-5799000Y-4550000I-99000J0D01*
G01*
G37*
%TD.AperFunction*%
%TO.P,U1,16*%
%TA.AperFunction,SMDPad,CuDef*%
G36*
G01*
X-5799000Y3050000D02*
X-7401000Y3050000D01*
G75*
G02*
X-7500000Y3149000I0J99000D01*
G01*
X-7500000Y4451000D01*
G75*
G02*
X-7401000Y4550000I99000J0D01*
G01*
X-5799000Y4550000D01*
G75*
G02*
X-5700000Y4451000I0J-99000D01*
G01*
X-5700000Y3149000D01*
G75*
G02*
X-5799000Y3050000I-99000J0D01*
G01*
G37*
%TD.AperFunction*%
%TO.P,U1,14*%
%TO.N,/RxD*%
%TA.AperFunction,SMDPad,CuDef*%
G36*
G01*
X-2650000Y5799000D02*
X-2650000Y7401000D01*
G75*
G02*
X-2551000Y7500000I99000J0D01*
G01*
X-1249000Y7500000D01*
G75*
G02*
X-1150000Y7401000I0J-99000D01*
G01*
X-1150000Y5799000D01*
G75*
G02*
X-1249000Y5700000I-99000J0D01*
G01*
X-2551000Y5700000D01*
G75*
G02*
X-2650000Y5799000I0J99000D01*
G01*
G37*
%TD.AperFunction*%
%TO.P,U1,12*%
%TO.N,Net-(U1-Pad12)*%
%TA.AperFunction,SMDPad,CuDef*%
G36*
G01*
X1150000Y5799000D02*
X1150000Y7401000D01*
G75*
G02*
X1249000Y7500000I99000J0D01*
G01*
X2551000Y7500000D01*
G75*
G02*
X2650000Y7401000I0J-99000D01*
G01*
X2650000Y5799000D01*
G75*
G02*
X2551000Y5700000I-99000J0D01*
G01*
X1249000Y5700000D01*
G75*
G02*
X1150000Y5799000I0J99000D01*
G01*
G37*
%TD.AperFunction*%
%TO.P,U1,13*%
%TO.N,/TxD*%
%TA.AperFunction,SMDPad,CuDef*%
G36*
G01*
X-750000Y5799000D02*
X-750000Y7401000D01*
G75*
G02*
X-651000Y7500000I99000J0D01*
G01*
X651000Y7500000D01*
G75*
G02*
X750000Y7401000I0J-99000D01*
G01*
X750000Y5799000D01*
G75*
G02*
X651000Y5700000I-99000J0D01*
G01*
X-651000Y5700000D01*
G75*
G02*
X-750000Y5799000I0J99000D01*
G01*
G37*
%TD.AperFunction*%
%TO.P,U1,15*%
%TO.N,GND*%
%TA.AperFunction,SMDPad,CuDef*%
G36*
G01*
X-4550000Y5799000D02*
X-4550000Y7401000D01*
G75*
G02*
X-4451000Y7500000I99000J0D01*
G01*
X-3149000Y7500000D01*
G75*
G02*
X-3050000Y7401000I0J-99000D01*
G01*
X-3050000Y5799000D01*
G75*
G02*
X-3149000Y5700000I-99000J0D01*
G01*
X-4451000Y5700000D01*
G75*
G02*
X-4550000Y5799000I0J99000D01*
G01*
G37*
%TD.AperFunction*%
%TO.P,U1,11*%
%TA.AperFunction,SMDPad,CuDef*%
G36*
G01*
X3050000Y5799000D02*
X3050000Y7401000D01*
G75*
G02*
X3149000Y7500000I99000J0D01*
G01*
X4451000Y7500000D01*
G75*
G02*
X4550000Y7401000I0J-99000D01*
G01*
X4550000Y5799000D01*
G75*
G02*
X4451000Y5700000I-99000J0D01*
G01*
X3149000Y5700000D01*
G75*
G02*
X3050000Y5799000I0J99000D01*
G01*
G37*
%TD.AperFunction*%
%TO.P,U1,1*%
%TA.AperFunction,SMDPad,CuDef*%
G36*
G01*
X-4550000Y-7401000D02*
X-4550000Y-5799000D01*
G75*
G02*
X-4451000Y-5700000I99000J0D01*
G01*
X-3149000Y-5700000D01*
G75*
G02*
X-3050000Y-5799000I0J-99000D01*
G01*
X-3050000Y-7401000D01*
G75*
G02*
X-3149000Y-7500000I-99000J0D01*
G01*
X-4451000Y-7500000D01*
G75*
G02*
X-4550000Y-7401000I0J99000D01*
G01*
G37*
%TD.AperFunction*%
%TO.P,U1,2*%
%TO.N,+3V3*%
%TA.AperFunction,SMDPad,CuDef*%
G36*
G01*
X-2650000Y-7401000D02*
X-2650000Y-5799000D01*
G75*
G02*
X-2551000Y-5700000I99000J0D01*
G01*
X-1249000Y-5700000D01*
G75*
G02*
X-1150000Y-5799000I0J-99000D01*
G01*
X-1150000Y-7401000D01*
G75*
G02*
X-1249000Y-7500000I-99000J0D01*
G01*
X-2551000Y-7500000D01*
G75*
G02*
X-2650000Y-7401000I0J99000D01*
G01*
G37*
%TD.AperFunction*%
%TO.P,U1,3*%
%TO.N,Net-(C3-Pad1)*%
%TA.AperFunction,SMDPad,CuDef*%
G36*
G01*
X-750000Y-7401000D02*
X-750000Y-5799000D01*
G75*
G02*
X-651000Y-5700000I99000J0D01*
G01*
X651000Y-5700000D01*
G75*
G02*
X750000Y-5799000I0J-99000D01*
G01*
X750000Y-7401000D01*
G75*
G02*
X651000Y-7500000I-99000J0D01*
G01*
X-651000Y-7500000D01*
G75*
G02*
X-750000Y-7401000I0J99000D01*
G01*
G37*
%TD.AperFunction*%
%TO.P,U1,4*%
%TO.N,GND*%
%TA.AperFunction,SMDPad,CuDef*%
G36*
G01*
X1150000Y-7401000D02*
X1150000Y-5799000D01*
G75*
G02*
X1249000Y-5700000I99000J0D01*
G01*
X2551000Y-5700000D01*
G75*
G02*
X2650000Y-5799000I0J-99000D01*
G01*
X2650000Y-7401000D01*
G75*
G02*
X2551000Y-7500000I-99000J0D01*
G01*
X1249000Y-7500000D01*
G75*
G02*
X1150000Y-7401000I0J99000D01*
G01*
G37*
%TD.AperFunction*%
%TO.P,U1,5*%
%TA.AperFunction,SMDPad,CuDef*%
G36*
G01*
X3050000Y-7401000D02*
X3050000Y-5799000D01*
G75*
G02*
X3149000Y-5700000I99000J0D01*
G01*
X4451000Y-5700000D01*
G75*
G02*
X4550000Y-5799000I0J-99000D01*
G01*
X4550000Y-7401000D01*
G75*
G02*
X4451000Y-7500000I-99000J0D01*
G01*
X3149000Y-7500000D01*
G75*
G02*
X3050000Y-7401000I0J99000D01*
G01*
G37*
%TD.AperFunction*%
%TD*%
%TO.P,C3,2*%
%TO.N,GND*%
%TA.AperFunction,SMDPad,CuDef*%
G36*
G01*
X1450000Y-9475000D02*
X1450000Y-8525000D01*
G75*
G02*
X1700000Y-8275000I250000J0D01*
G01*
X2200000Y-8275000D01*
G75*
G02*
X2450000Y-8525000I0J-250000D01*
G01*
X2450000Y-9475000D01*
G75*
G02*
X2200000Y-9725000I-250000J0D01*
G01*
X1700000Y-9725000D01*
G75*
G02*
X1450000Y-9475000I0J250000D01*
G01*
G37*
%TD.AperFunction*%
%TO.P,C3,1*%
%TO.N,Net-(C3-Pad1)*%
%TA.AperFunction,SMDPad,CuDef*%
G36*
G01*
X-450000Y-9475000D02*
X-450000Y-8525000D01*
G75*
G02*
X-200000Y-8275000I250000J0D01*
G01*
X300000Y-8275000D01*
G75*
G02*
X550000Y-8525000I0J-250000D01*
G01*
X550000Y-9475000D01*
G75*
G02*
X300000Y-9725000I-250000J0D01*
G01*
X-200000Y-9725000D01*
G75*
G02*
X-450000Y-9475000I0J250000D01*
G01*
G37*
%TD.AperFunction*%
%TD*%
%TO.P,C2,2*%
%TO.N,GND*%
%TA.AperFunction,SMDPad,CuDef*%
G36*
G01*
X-3350000Y-8525000D02*
X-3350000Y-9475000D01*
G75*
G02*
X-3600000Y-9725000I-250000J0D01*
G01*
X-4100000Y-9725000D01*
G75*
G02*
X-4350000Y-9475000I0J250000D01*
G01*
X-4350000Y-8525000D01*
G75*
G02*
X-4100000Y-8275000I250000J0D01*
G01*
X-3600000Y-8275000D01*
G75*
G02*
X-3350000Y-8525000I0J-250000D01*
G01*
G37*
%TD.AperFunction*%
%TO.P,C2,1*%
%TO.N,+3V3*%
%TA.AperFunction,SMDPad,CuDef*%
G36*
G01*
X-1450000Y-8525000D02*
X-1450000Y-9475000D01*
G75*
G02*
X-1700000Y-9725000I-250000J0D01*
G01*
X-2200000Y-9725000D01*
G75*
G02*
X-2450000Y-9475000I0J250000D01*
G01*
X-2450000Y-8525000D01*
G75*
G02*
X-2200000Y-8275000I250000J0D01*
G01*
X-1700000Y-8275000D01*
G75*
G02*
X-1450000Y-8525000I0J-250000D01*
G01*
G37*
%TD.AperFunction*%
%TD*%
%TO.P,C1,2*%
%TO.N,GND*%
%TA.AperFunction,SMDPad,CuDef*%
G36*
G01*
X-8525000Y3350000D02*
X-9475000Y3350000D01*
G75*
G02*
X-9725000Y3600000I0J250000D01*
G01*
X-9725000Y4100000D01*
G75*
G02*
X-9475000Y4350000I250000J0D01*
G01*
X-8525000Y4350000D01*
G75*
G02*
X-8275000Y4100000I0J-250000D01*
G01*
X-8275000Y3600000D01*
G75*
G02*
X-8525000Y3350000I-250000J0D01*
G01*
G37*
%TD.AperFunction*%
%TO.P,C1,1*%
%TO.N,+3V3*%
%TA.AperFunction,SMDPad,CuDef*%
G36*
G01*
X-8525000Y1450000D02*
X-9475000Y1450000D01*
G75*
G02*
X-9725000Y1700000I0J250000D01*
G01*
X-9725000Y2200000D01*
G75*
G02*
X-9475000Y2450000I250000J0D01*
G01*
X-8525000Y2450000D01*
G75*
G02*
X-8275000Y2200000I0J-250000D01*
G01*
X-8275000Y1700000D01*
G75*
G02*
X-8525000Y1450000I-250000J0D01*
G01*
G37*
%TD.AperFunction*%
%TD*%
D13*
%TO.N,GND*%
X10000000Y-10000000D03*
X20000000Y-10000000D03*
X30000000Y-10000000D03*
X40000000Y-10000000D03*
X10000000Y-20000000D03*
X20000000Y-20000000D03*
X30000000Y-20000000D03*
X10000000Y-30000000D03*
X20000000Y-30000000D03*
X10000000Y-40000000D03*
X-10000000Y10000000D03*
X-20000000Y10000000D03*
X-30000000Y10000000D03*
X-40000000Y10000000D03*
X-10000000Y20000000D03*
X-20000000Y20000000D03*
X-30000000Y20000000D03*
X-10000000Y30000000D03*
X-20000000Y30000000D03*
X10000000Y0D03*
X20000000Y0D03*
X30000000Y0D03*
X0Y10000000D03*
X10000000Y10000000D03*
X20000000Y10000000D03*
X30000000Y10000000D03*
X40000000Y10000000D03*
X0Y20000000D03*
X10000000Y20000000D03*
X20000000Y20000000D03*
X30000000Y20000000D03*
X0Y30000000D03*
X10000000Y30000000D03*
X20000000Y30000000D03*
X0Y40000000D03*
X10000000Y40000000D03*
X-10000000Y0D03*
X-20000000Y0D03*
X-30000000Y0D03*
X-40000000Y0D03*
X-10000000Y-10000000D03*
X-20000000Y-10000000D03*
X-30000000Y-10000000D03*
X-40000000Y-10000000D03*
X0Y-20000000D03*
X-10000000Y-20000000D03*
X-20000000Y-20000000D03*
X-30000000Y-20000000D03*
X0Y-30000000D03*
X-10000000Y-30000000D03*
X-20000000Y-30000000D03*
X0Y-40000000D03*
X-10000000Y-40000000D03*
X-10000000Y40000000D03*
%TO.N,+3V3*%
X-9000000Y900000D03*
X-1100000Y-9000000D03*
%TO.N,/RxD*%
X-1900000Y5100000D03*
%TO.N,/TxD*%
X0Y5100000D03*
%TO.N,Net-(C3-Pad1)*%
X0Y-10800000D03*
%TD*%
D14*
%TO.N,+3V3*%
X-8950000Y1900000D02*
X-9000000Y1950000D01*
X-1900000Y-8950000D02*
X-1950000Y-9000000D01*
X-9000000Y1950000D02*
X-9000000Y900000D01*
X-6600000Y1900000D02*
X-8950000Y1900000D01*
X-1900000Y-6600000D02*
X-1900000Y-8950000D01*
X-1100000Y-9000000D02*
X-1950000Y-9000000D01*
%TO.N,/RxD*%
X-1900000Y6600000D02*
X-1900000Y5100000D01*
%TO.N,/TxD*%
X0Y6600000D02*
X0Y5100000D01*
%TO.N,Net-(C3-Pad1)*%
X0Y-8950000D02*
X50000Y-9000000D01*
X0Y-6600000D02*
X0Y-8950000D01*
X50000Y-10750000D02*
X0Y-10800000D01*
X50000Y-9000000D02*
X50000Y-10750000D01*
%TD*%
D15*
%TO.N,GND*%
X2596331Y42095008D02*
X5182814Y41855335D01*
X7749636Y41456890D01*
X10287061Y40901186D01*
X12785464Y40190329D01*
X15235367Y39327016D01*
X17627478Y38314523D01*
X19952721Y37156689D01*
X22202276Y35857908D01*
X24367611Y34423105D01*
X26440512Y32857723D01*
X28413114Y31167701D01*
X30277935Y29359449D01*
X32027902Y27439827D01*
X33656377Y25416116D01*
X35157181Y23295993D01*
X36524621Y21087500D01*
X37753512Y18799015D01*
X38839190Y16439219D01*
X39777538Y14017064D01*
X40564997Y11541737D01*
X41198578Y9022628D01*
X41675879Y6469293D01*
X41995089Y3891418D01*
X42154997Y1298782D01*
X42154997Y-1298782D01*
X41995089Y-3891418D01*
X41675879Y-6469293D01*
X41198578Y-9022628D01*
X40564997Y-11541737D01*
X39777538Y-14017064D01*
X38839190Y-16439219D01*
X37753512Y-18799015D01*
X36524621Y-21087500D01*
X35157181Y-23295993D01*
X33656377Y-25416116D01*
X32027902Y-27439827D01*
X30277935Y-29359449D01*
X28413114Y-31167701D01*
X26440512Y-32857723D01*
X24367611Y-34423105D01*
X22202276Y-35857908D01*
X19952721Y-37156689D01*
X17627478Y-38314523D01*
X15235367Y-39327016D01*
X12785464Y-40190329D01*
X10287061Y-40901186D01*
X7749636Y-41456890D01*
X5182814Y-41855335D01*
X2596331Y-42095008D01*
X0Y-42175000D01*
X-2596331Y-42095008D01*
X-5182814Y-41855335D01*
X-7749636Y-41456890D01*
X-10287061Y-40901186D01*
X-12785464Y-40190329D01*
X-15235367Y-39327016D01*
X-17627478Y-38314523D01*
X-19952721Y-37156689D01*
X-22202276Y-35857908D01*
X-24367611Y-34423105D01*
X-26440512Y-32857723D01*
X-28413114Y-31167701D01*
X-30277935Y-29359449D01*
X-32027902Y-27439827D01*
X-33656377Y-25416116D01*
X-35157181Y-23295993D01*
X-36524621Y-21087500D01*
X-37753512Y-18799015D01*
X-38839190Y-16439219D01*
X-39777538Y-14017064D01*
X-40564997Y-11541737D01*
X-41198578Y-9022628D01*
X-41675879Y-6469293D01*
X-41758879Y-5799000D01*
X-2951451Y-5799000D01*
X-2951451Y-7401000D01*
X-2943756Y-7479124D01*
X-2920968Y-7554246D01*
X-2883963Y-7623479D01*
X-2834162Y-7684162D01*
X-2773479Y-7733963D01*
X-2704246Y-7770968D01*
X-2629124Y-7793756D01*
X-2551000Y-7801451D01*
X-2449999Y-7801451D01*
X-2449999Y-8036355D01*
X-2506370Y-8066485D01*
X-2589935Y-8135065D01*
X-2658515Y-8218630D01*
X-2709474Y-8313969D01*
X-2740855Y-8417417D01*
X-2751451Y-8525000D01*
X-2751451Y-9475000D01*
X-2740855Y-9582583D01*
X-2709474Y-9686031D01*
X-2658515Y-9781370D01*
X-2589935Y-9864935D01*
X-2506370Y-9933515D01*
X-2411031Y-9984474D01*
X-2307583Y-10015855D01*
X-2200000Y-10026451D01*
X-1700000Y-10026451D01*
X-1592417Y-10015855D01*
X-1488969Y-9984474D01*
X-1393630Y-9933515D01*
X-1310065Y-9864935D01*
X-1241485Y-9781370D01*
X-1195201Y-9694777D01*
X-1168944Y-9700000D01*
X-1031056Y-9700000D01*
X-895818Y-9673099D01*
X-768426Y-9620332D01*
X-735980Y-9598653D01*
X-709474Y-9686031D01*
X-658515Y-9781370D01*
X-589935Y-9864935D01*
X-506370Y-9933515D01*
X-499999Y-9936920D01*
X-499999Y-10310049D01*
X-543726Y-10353776D01*
X-620332Y-10468426D01*
X-673099Y-10595818D01*
X-700000Y-10731056D01*
X-700000Y-10868944D01*
X-673099Y-11004182D01*
X-620332Y-11131574D01*
X-543726Y-11246224D01*
X-446224Y-11343726D01*
X-331574Y-11420332D01*
X-204182Y-11473099D01*
X-68944Y-11500000D01*
X68944Y-11500000D01*
X204182Y-11473099D01*
X331574Y-11420332D01*
X446224Y-11343726D01*
X543726Y-11246224D01*
X620332Y-11131574D01*
X673099Y-11004182D01*
X700000Y-10868944D01*
X700000Y-10731056D01*
X673099Y-10595818D01*
X620332Y-10468426D01*
X600000Y-10437997D01*
X600000Y-9936920D01*
X606370Y-9933515D01*
X689935Y-9864935D01*
X758515Y-9781370D01*
X809474Y-9686031D01*
X840855Y-9582583D01*
X851451Y-9475000D01*
X851451Y-8525000D01*
X840855Y-8417417D01*
X809474Y-8313969D01*
X758515Y-8218630D01*
X689935Y-8135065D01*
X606370Y-8066485D01*
X550000Y-8036355D01*
X550000Y-7801451D01*
X651000Y-7801451D01*
X729124Y-7793756D01*
X804246Y-7770968D01*
X873479Y-7733963D01*
X934162Y-7684162D01*
X983963Y-7623479D01*
X1020968Y-7554246D01*
X1043756Y-7479124D01*
X1051451Y-7401000D01*
X1051451Y-5799000D01*
X1043756Y-5720876D01*
X1020968Y-5645754D01*
X983963Y-5576521D01*
X934162Y-5515838D01*
X873479Y-5466037D01*
X804246Y-5429032D01*
X729124Y-5406244D01*
X651000Y-5398549D01*
X-651000Y-5398549D01*
X-729124Y-5406244D01*
X-804246Y-5429032D01*
X-873479Y-5466037D01*
X-934162Y-5515838D01*
X-950000Y-5535137D01*
X-965838Y-5515838D01*
X-1026521Y-5466037D01*
X-1095754Y-5429032D01*
X-1170876Y-5406244D01*
X-1249000Y-5398549D01*
X-2551000Y-5398549D01*
X-2629124Y-5406244D01*
X-2704246Y-5429032D01*
X-2773479Y-5466037D01*
X-2834162Y-5515838D01*
X-2883963Y-5576521D01*
X-2920968Y-5645754D01*
X-2943756Y-5720876D01*
X-2951451Y-5799000D01*
X-41758879Y-5799000D01*
X-41995089Y-3891418D01*
X-42154997Y-1298782D01*
X-42154997Y1298782D01*
X-42099412Y2200000D01*
X-10026451Y2200000D01*
X-10026451Y1700000D01*
X-10015855Y1592417D01*
X-9984474Y1488969D01*
X-9933515Y1393630D01*
X-9864935Y1310065D01*
X-9781370Y1241485D01*
X-9686031Y1190526D01*
X-9642770Y1177403D01*
X-9673099Y1104182D01*
X-9700000Y968944D01*
X-9700000Y831056D01*
X-9673099Y695818D01*
X-9620332Y568426D01*
X-9543726Y453776D01*
X-9446224Y356274D01*
X-9331574Y279668D01*
X-9204182Y226901D01*
X-9068944Y200000D01*
X-8931056Y200000D01*
X-8795818Y226901D01*
X-8668426Y279668D01*
X-8553776Y356274D01*
X-8456274Y453776D01*
X-8379668Y568426D01*
X-8326901Y695818D01*
X-8300000Y831056D01*
X-8300000Y968944D01*
X-8326901Y1104182D01*
X-8357230Y1177403D01*
X-8313969Y1190526D01*
X-8218630Y1241485D01*
X-8135065Y1310065D01*
X-8102291Y1350000D01*
X-7801451Y1350000D01*
X-7801451Y1249000D01*
X-7793756Y1170876D01*
X-7770968Y1095754D01*
X-7733963Y1026521D01*
X-7684162Y965838D01*
X-7664863Y950000D01*
X-7684162Y934162D01*
X-7733963Y873479D01*
X-7770968Y804246D01*
X-7793756Y729124D01*
X-7801451Y651000D01*
X-7801451Y-651000D01*
X-7793756Y-729124D01*
X-7770968Y-804246D01*
X-7733963Y-873479D01*
X-7684162Y-934162D01*
X-7664863Y-950000D01*
X-7684162Y-965838D01*
X-7733963Y-1026521D01*
X-7770968Y-1095754D01*
X-7793756Y-1170876D01*
X-7801451Y-1249000D01*
X-7801451Y-2551000D01*
X-7793756Y-2629124D01*
X-7770968Y-2704246D01*
X-7733963Y-2773479D01*
X-7684162Y-2834162D01*
X-7623479Y-2883963D01*
X-7554246Y-2920968D01*
X-7479124Y-2943756D01*
X-7401000Y-2951451D01*
X-5799000Y-2951451D01*
X-5720876Y-2943756D01*
X-5645754Y-2920968D01*
X-5576521Y-2883963D01*
X-5515838Y-2834162D01*
X-5466037Y-2773479D01*
X-5429032Y-2704246D01*
X-5406244Y-2629124D01*
X-5398549Y-2551000D01*
X-5398549Y-1249000D01*
X-5406244Y-1170876D01*
X-5429032Y-1095754D01*
X-5466037Y-1026521D01*
X-5515838Y-965838D01*
X-5535137Y-950000D01*
X-5515838Y-934162D01*
X-5466037Y-873479D01*
X-5429032Y-804246D01*
X-5406244Y-729124D01*
X-5398549Y-651000D01*
X-5398549Y651000D01*
X-5406244Y729124D01*
X-5429032Y804246D01*
X-5466037Y873479D01*
X-5515838Y934162D01*
X-5535137Y950000D01*
X-5515838Y965838D01*
X-5466037Y1026521D01*
X-5429032Y1095754D01*
X-5406244Y1170876D01*
X-5398549Y1249000D01*
X-5398549Y2551000D01*
X5398549Y2551000D01*
X5398549Y1249000D01*
X5406244Y1170876D01*
X5429032Y1095754D01*
X5466037Y1026521D01*
X5515838Y965838D01*
X5535137Y950000D01*
X5515838Y934162D01*
X5466037Y873479D01*
X5429032Y804246D01*
X5406244Y729124D01*
X5398549Y651000D01*
X5398549Y-651000D01*
X5406244Y-729124D01*
X5429032Y-804246D01*
X5466037Y-873479D01*
X5515838Y-934162D01*
X5535137Y-950000D01*
X5515838Y-965838D01*
X5466037Y-1026521D01*
X5429032Y-1095754D01*
X5406244Y-1170876D01*
X5398549Y-1249000D01*
X5398549Y-2551000D01*
X5406244Y-2629124D01*
X5429032Y-2704246D01*
X5466037Y-2773479D01*
X5515838Y-2834162D01*
X5576521Y-2883963D01*
X5645754Y-2920968D01*
X5720876Y-2943756D01*
X5799000Y-2951451D01*
X7401000Y-2951451D01*
X7479124Y-2943756D01*
X7554246Y-2920968D01*
X7623479Y-2883963D01*
X7684162Y-2834162D01*
X7733963Y-2773479D01*
X7770968Y-2704246D01*
X7793756Y-2629124D01*
X7801451Y-2551000D01*
X7801451Y-1249000D01*
X7793756Y-1170876D01*
X7770968Y-1095754D01*
X7733963Y-1026521D01*
X7684162Y-965838D01*
X7664863Y-950000D01*
X7684162Y-934162D01*
X7733963Y-873479D01*
X7770968Y-804246D01*
X7793756Y-729124D01*
X7801451Y-651000D01*
X7801451Y103416D01*
X40050000Y103416D01*
X40050000Y-103416D01*
X40090350Y-306274D01*
X40169502Y-497362D01*
X40284411Y-669336D01*
X40430664Y-815589D01*
X40602638Y-930498D01*
X40793726Y-1009650D01*
X40996584Y-1050000D01*
X41203416Y-1050000D01*
X41406274Y-1009650D01*
X41597362Y-930498D01*
X41769336Y-815589D01*
X41915589Y-669336D01*
X42030498Y-497362D01*
X42109650Y-306274D01*
X42150000Y-103416D01*
X42150000Y103416D01*
X42109650Y306274D01*
X42030498Y497362D01*
X41915589Y669336D01*
X41769336Y815589D01*
X41597362Y930498D01*
X41406274Y1009650D01*
X41203416Y1050000D01*
X40996584Y1050000D01*
X40793726Y1009650D01*
X40602638Y930498D01*
X40430664Y815589D01*
X40284411Y669336D01*
X40169502Y497362D01*
X40090350Y306274D01*
X40050000Y103416D01*
X7801451Y103416D01*
X7801451Y651000D01*
X7793756Y729124D01*
X7770968Y804246D01*
X7733963Y873479D01*
X7684162Y934162D01*
X7664863Y950000D01*
X7684162Y965838D01*
X7733963Y1026521D01*
X7770968Y1095754D01*
X7793756Y1170876D01*
X7801451Y1249000D01*
X7801451Y2551000D01*
X7793756Y2629124D01*
X7770968Y2704246D01*
X7733963Y2773479D01*
X7684162Y2834162D01*
X7623479Y2883963D01*
X7554246Y2920968D01*
X7479124Y2943756D01*
X7401000Y2951451D01*
X5799000Y2951451D01*
X5720876Y2943756D01*
X5645754Y2920968D01*
X5576521Y2883963D01*
X5515838Y2834162D01*
X5466037Y2773479D01*
X5429032Y2704246D01*
X5406244Y2629124D01*
X5398549Y2551000D01*
X-5398549Y2551000D01*
X-5406244Y2629124D01*
X-5429032Y2704246D01*
X-5466037Y2773479D01*
X-5515838Y2834162D01*
X-5576521Y2883963D01*
X-5645754Y2920968D01*
X-5720876Y2943756D01*
X-5799000Y2951451D01*
X-7401000Y2951451D01*
X-7479124Y2943756D01*
X-7554246Y2920968D01*
X-7623479Y2883963D01*
X-7684162Y2834162D01*
X-7733963Y2773479D01*
X-7770968Y2704246D01*
X-7793756Y2629124D01*
X-7801451Y2551000D01*
X-7801451Y2450000D01*
X-8036355Y2450000D01*
X-8066485Y2506370D01*
X-8135065Y2589935D01*
X-8218630Y2658515D01*
X-8313969Y2709474D01*
X-8417417Y2740855D01*
X-8525000Y2751451D01*
X-9475000Y2751451D01*
X-9582583Y2740855D01*
X-9686031Y2709474D01*
X-9781370Y2658515D01*
X-9864935Y2589935D01*
X-9933515Y2506370D01*
X-9984474Y2411031D01*
X-10015855Y2307583D01*
X-10026451Y2200000D01*
X-42099412Y2200000D01*
X-41995089Y3891418D01*
X-41675879Y6469293D01*
X-41501713Y7401000D01*
X-2951451Y7401000D01*
X-2951451Y5799000D01*
X-2943756Y5720876D01*
X-2920968Y5645754D01*
X-2883963Y5576521D01*
X-2834162Y5515838D01*
X-2773479Y5466037D01*
X-2704246Y5429032D01*
X-2629124Y5406244D01*
X-2551000Y5398549D01*
X-2534011Y5398549D01*
X-2573099Y5304182D01*
X-2600000Y5168944D01*
X-2600000Y5031056D01*
X-2573099Y4895818D01*
X-2520332Y4768426D01*
X-2443726Y4653776D01*
X-2346224Y4556274D01*
X-2231574Y4479668D01*
X-2104182Y4426901D01*
X-1968944Y4400000D01*
X-1831056Y4400000D01*
X-1695818Y4426901D01*
X-1568426Y4479668D01*
X-1453776Y4556274D01*
X-1356274Y4653776D01*
X-1279668Y4768426D01*
X-1226901Y4895818D01*
X-1200000Y5031056D01*
X-1200000Y5168944D01*
X-1226901Y5304182D01*
X-1265989Y5398549D01*
X-1249000Y5398549D01*
X-1170876Y5406244D01*
X-1095754Y5429032D01*
X-1026521Y5466037D01*
X-965838Y5515838D01*
X-950000Y5535137D01*
X-934162Y5515838D01*
X-873479Y5466037D01*
X-804246Y5429032D01*
X-729124Y5406244D01*
X-651000Y5398549D01*
X-634011Y5398549D01*
X-673099Y5304182D01*
X-700000Y5168944D01*
X-700000Y5031056D01*
X-673099Y4895818D01*
X-620332Y4768426D01*
X-543726Y4653776D01*
X-446224Y4556274D01*
X-331574Y4479668D01*
X-204182Y4426901D01*
X-68944Y4400000D01*
X68944Y4400000D01*
X204182Y4426901D01*
X331574Y4479668D01*
X446224Y4556274D01*
X543726Y4653776D01*
X620332Y4768426D01*
X673099Y4895818D01*
X700000Y5031056D01*
X700000Y5168944D01*
X673099Y5304182D01*
X634011Y5398549D01*
X651000Y5398549D01*
X729124Y5406244D01*
X804246Y5429032D01*
X873479Y5466037D01*
X934162Y5515838D01*
X950000Y5535137D01*
X965838Y5515838D01*
X1026521Y5466037D01*
X1095754Y5429032D01*
X1170876Y5406244D01*
X1249000Y5398549D01*
X2551000Y5398549D01*
X2629124Y5406244D01*
X2704246Y5429032D01*
X2773479Y5466037D01*
X2834162Y5515838D01*
X2883963Y5576521D01*
X2920968Y5645754D01*
X2943756Y5720876D01*
X2951451Y5799000D01*
X2951451Y7401000D01*
X2943756Y7479124D01*
X2920968Y7554246D01*
X2883963Y7623479D01*
X2834162Y7684162D01*
X2773479Y7733963D01*
X2704246Y7770968D01*
X2629124Y7793756D01*
X2551000Y7801451D01*
X1249000Y7801451D01*
X1170876Y7793756D01*
X1095754Y7770968D01*
X1026521Y7733963D01*
X965838Y7684162D01*
X950000Y7664863D01*
X934162Y7684162D01*
X873479Y7733963D01*
X804246Y7770968D01*
X729124Y7793756D01*
X651000Y7801451D01*
X-651000Y7801451D01*
X-729124Y7793756D01*
X-804246Y7770968D01*
X-873479Y7733963D01*
X-934162Y7684162D01*
X-950000Y7664863D01*
X-965838Y7684162D01*
X-1026521Y7733963D01*
X-1095754Y7770968D01*
X-1170876Y7793756D01*
X-1249000Y7801451D01*
X-2551000Y7801451D01*
X-2629124Y7793756D01*
X-2704246Y7770968D01*
X-2773479Y7733963D01*
X-2834162Y7684162D01*
X-2883963Y7623479D01*
X-2920968Y7554246D01*
X-2943756Y7479124D01*
X-2951451Y7401000D01*
X-41501713Y7401000D01*
X-41198578Y9022628D01*
X-40564997Y11541737D01*
X-39777538Y14017064D01*
X-38839190Y16439219D01*
X-37753512Y18799015D01*
X-36524621Y21087500D01*
X-35157181Y23295993D01*
X-33656377Y25416116D01*
X-32027902Y27439827D01*
X-30277935Y29359449D01*
X-28413114Y31167701D01*
X-26440512Y32857723D01*
X-24367611Y34423105D01*
X-22202276Y35857908D01*
X-19952721Y37156689D01*
X-17627478Y38314523D01*
X-15235367Y39327016D01*
X-12785464Y40190329D01*
X-10287061Y40901186D01*
X-7749636Y41456890D01*
X-5182814Y41855335D01*
X-2596331Y42095008D01*
X0Y42175000D01*
X2596331Y42095008D01*
%TA.AperFunction,Conductor*%
D16*
G36*
X2596331Y42095008D02*
G01*
X5182814Y41855335D01*
X7749636Y41456890D01*
X10287061Y40901186D01*
X12785464Y40190329D01*
X15235367Y39327016D01*
X17627478Y38314523D01*
X19952721Y37156689D01*
X22202276Y35857908D01*
X24367611Y34423105D01*
X26440512Y32857723D01*
X28413114Y31167701D01*
X30277935Y29359449D01*
X32027902Y27439827D01*
X33656377Y25416116D01*
X35157181Y23295993D01*
X36524621Y21087500D01*
X37753512Y18799015D01*
X38839190Y16439219D01*
X39777538Y14017064D01*
X40564997Y11541737D01*
X41198578Y9022628D01*
X41675879Y6469293D01*
X41995089Y3891418D01*
X42154997Y1298782D01*
X42154997Y-1298782D01*
X41995089Y-3891418D01*
X41675879Y-6469293D01*
X41198578Y-9022628D01*
X40564997Y-11541737D01*
X39777538Y-14017064D01*
X38839190Y-16439219D01*
X37753512Y-18799015D01*
X36524621Y-21087500D01*
X35157181Y-23295993D01*
X33656377Y-25416116D01*
X32027902Y-27439827D01*
X30277935Y-29359449D01*
X28413114Y-31167701D01*
X26440512Y-32857723D01*
X24367611Y-34423105D01*
X22202276Y-35857908D01*
X19952721Y-37156689D01*
X17627478Y-38314523D01*
X15235367Y-39327016D01*
X12785464Y-40190329D01*
X10287061Y-40901186D01*
X7749636Y-41456890D01*
X5182814Y-41855335D01*
X2596331Y-42095008D01*
X0Y-42175000D01*
X-2596331Y-42095008D01*
X-5182814Y-41855335D01*
X-7749636Y-41456890D01*
X-10287061Y-40901186D01*
X-12785464Y-40190329D01*
X-15235367Y-39327016D01*
X-17627478Y-38314523D01*
X-19952721Y-37156689D01*
X-22202276Y-35857908D01*
X-24367611Y-34423105D01*
X-26440512Y-32857723D01*
X-28413114Y-31167701D01*
X-30277935Y-29359449D01*
X-32027902Y-27439827D01*
X-33656377Y-25416116D01*
X-35157181Y-23295993D01*
X-36524621Y-21087500D01*
X-37753512Y-18799015D01*
X-38839190Y-16439219D01*
X-39777538Y-14017064D01*
X-40564997Y-11541737D01*
X-41198578Y-9022628D01*
X-41675879Y-6469293D01*
X-41758879Y-5799000D01*
X-2951451Y-5799000D01*
X-2951451Y-7401000D01*
X-2943756Y-7479124D01*
X-2920968Y-7554246D01*
X-2883963Y-7623479D01*
X-2834162Y-7684162D01*
X-2773479Y-7733963D01*
X-2704246Y-7770968D01*
X-2629124Y-7793756D01*
X-2551000Y-7801451D01*
X-2449999Y-7801451D01*
X-2449999Y-8036355D01*
X-2506370Y-8066485D01*
X-2589935Y-8135065D01*
X-2658515Y-8218630D01*
X-2709474Y-8313969D01*
X-2740855Y-8417417D01*
X-2751451Y-8525000D01*
X-2751451Y-9475000D01*
X-2740855Y-9582583D01*
X-2709474Y-9686031D01*
X-2658515Y-9781370D01*
X-2589935Y-9864935D01*
X-2506370Y-9933515D01*
X-2411031Y-9984474D01*
X-2307583Y-10015855D01*
X-2200000Y-10026451D01*
X-1700000Y-10026451D01*
X-1592417Y-10015855D01*
X-1488969Y-9984474D01*
X-1393630Y-9933515D01*
X-1310065Y-9864935D01*
X-1241485Y-9781370D01*
X-1195201Y-9694777D01*
X-1168944Y-9700000D01*
X-1031056Y-9700000D01*
X-895818Y-9673099D01*
X-768426Y-9620332D01*
X-735980Y-9598653D01*
X-709474Y-9686031D01*
X-658515Y-9781370D01*
X-589935Y-9864935D01*
X-506370Y-9933515D01*
X-499999Y-9936920D01*
X-499999Y-10310049D01*
X-543726Y-10353776D01*
X-620332Y-10468426D01*
X-673099Y-10595818D01*
X-700000Y-10731056D01*
X-700000Y-10868944D01*
X-673099Y-11004182D01*
X-620332Y-11131574D01*
X-543726Y-11246224D01*
X-446224Y-11343726D01*
X-331574Y-11420332D01*
X-204182Y-11473099D01*
X-68944Y-11500000D01*
X68944Y-11500000D01*
X204182Y-11473099D01*
X331574Y-11420332D01*
X446224Y-11343726D01*
X543726Y-11246224D01*
X620332Y-11131574D01*
X673099Y-11004182D01*
X700000Y-10868944D01*
X700000Y-10731056D01*
X673099Y-10595818D01*
X620332Y-10468426D01*
X600000Y-10437997D01*
X600000Y-9936920D01*
X606370Y-9933515D01*
X689935Y-9864935D01*
X758515Y-9781370D01*
X809474Y-9686031D01*
X840855Y-9582583D01*
X851451Y-9475000D01*
X851451Y-8525000D01*
X840855Y-8417417D01*
X809474Y-8313969D01*
X758515Y-8218630D01*
X689935Y-8135065D01*
X606370Y-8066485D01*
X550000Y-8036355D01*
X550000Y-7801451D01*
X651000Y-7801451D01*
X729124Y-7793756D01*
X804246Y-7770968D01*
X873479Y-7733963D01*
X934162Y-7684162D01*
X983963Y-7623479D01*
X1020968Y-7554246D01*
X1043756Y-7479124D01*
X1051451Y-7401000D01*
X1051451Y-5799000D01*
X1043756Y-5720876D01*
X1020968Y-5645754D01*
X983963Y-5576521D01*
X934162Y-5515838D01*
X873479Y-5466037D01*
X804246Y-5429032D01*
X729124Y-5406244D01*
X651000Y-5398549D01*
X-651000Y-5398549D01*
X-729124Y-5406244D01*
X-804246Y-5429032D01*
X-873479Y-5466037D01*
X-934162Y-5515838D01*
X-950000Y-5535137D01*
X-965838Y-5515838D01*
X-1026521Y-5466037D01*
X-1095754Y-5429032D01*
X-1170876Y-5406244D01*
X-1249000Y-5398549D01*
X-2551000Y-5398549D01*
X-2629124Y-5406244D01*
X-2704246Y-5429032D01*
X-2773479Y-5466037D01*
X-2834162Y-5515838D01*
X-2883963Y-5576521D01*
X-2920968Y-5645754D01*
X-2943756Y-5720876D01*
X-2951451Y-5799000D01*
X-41758879Y-5799000D01*
X-41995089Y-3891418D01*
X-42154997Y-1298782D01*
X-42154997Y1298782D01*
X-42099412Y2200000D01*
X-10026451Y2200000D01*
X-10026451Y1700000D01*
X-10015855Y1592417D01*
X-9984474Y1488969D01*
X-9933515Y1393630D01*
X-9864935Y1310065D01*
X-9781370Y1241485D01*
X-9686031Y1190526D01*
X-9642770Y1177403D01*
X-9673099Y1104182D01*
X-9700000Y968944D01*
X-9700000Y831056D01*
X-9673099Y695818D01*
X-9620332Y568426D01*
X-9543726Y453776D01*
X-9446224Y356274D01*
X-9331574Y279668D01*
X-9204182Y226901D01*
X-9068944Y200000D01*
X-8931056Y200000D01*
X-8795818Y226901D01*
X-8668426Y279668D01*
X-8553776Y356274D01*
X-8456274Y453776D01*
X-8379668Y568426D01*
X-8326901Y695818D01*
X-8300000Y831056D01*
X-8300000Y968944D01*
X-8326901Y1104182D01*
X-8357230Y1177403D01*
X-8313969Y1190526D01*
X-8218630Y1241485D01*
X-8135065Y1310065D01*
X-8102291Y1350000D01*
X-7801451Y1350000D01*
X-7801451Y1249000D01*
X-7793756Y1170876D01*
X-7770968Y1095754D01*
X-7733963Y1026521D01*
X-7684162Y965838D01*
X-7664863Y950000D01*
X-7684162Y934162D01*
X-7733963Y873479D01*
X-7770968Y804246D01*
X-7793756Y729124D01*
X-7801451Y651000D01*
X-7801451Y-651000D01*
X-7793756Y-729124D01*
X-7770968Y-804246D01*
X-7733963Y-873479D01*
X-7684162Y-934162D01*
X-7664863Y-950000D01*
X-7684162Y-965838D01*
X-7733963Y-1026521D01*
X-7770968Y-1095754D01*
X-7793756Y-1170876D01*
X-7801451Y-1249000D01*
X-7801451Y-2551000D01*
X-7793756Y-2629124D01*
X-7770968Y-2704246D01*
X-7733963Y-2773479D01*
X-7684162Y-2834162D01*
X-7623479Y-2883963D01*
X-7554246Y-2920968D01*
X-7479124Y-2943756D01*
X-7401000Y-2951451D01*
X-5799000Y-2951451D01*
X-5720876Y-2943756D01*
X-5645754Y-2920968D01*
X-5576521Y-2883963D01*
X-5515838Y-2834162D01*
X-5466037Y-2773479D01*
X-5429032Y-2704246D01*
X-5406244Y-2629124D01*
X-5398549Y-2551000D01*
X-5398549Y-1249000D01*
X-5406244Y-1170876D01*
X-5429032Y-1095754D01*
X-5466037Y-1026521D01*
X-5515838Y-965838D01*
X-5535137Y-950000D01*
X-5515838Y-934162D01*
X-5466037Y-873479D01*
X-5429032Y-804246D01*
X-5406244Y-729124D01*
X-5398549Y-651000D01*
X-5398549Y651000D01*
X-5406244Y729124D01*
X-5429032Y804246D01*
X-5466037Y873479D01*
X-5515838Y934162D01*
X-5535137Y950000D01*
X-5515838Y965838D01*
X-5466037Y1026521D01*
X-5429032Y1095754D01*
X-5406244Y1170876D01*
X-5398549Y1249000D01*
X-5398549Y2551000D01*
X5398549Y2551000D01*
X5398549Y1249000D01*
X5406244Y1170876D01*
X5429032Y1095754D01*
X5466037Y1026521D01*
X5515838Y965838D01*
X5535137Y950000D01*
X5515838Y934162D01*
X5466037Y873479D01*
X5429032Y804246D01*
X5406244Y729124D01*
X5398549Y651000D01*
X5398549Y-651000D01*
X5406244Y-729124D01*
X5429032Y-804246D01*
X5466037Y-873479D01*
X5515838Y-934162D01*
X5535137Y-950000D01*
X5515838Y-965838D01*
X5466037Y-1026521D01*
X5429032Y-1095754D01*
X5406244Y-1170876D01*
X5398549Y-1249000D01*
X5398549Y-2551000D01*
X5406244Y-2629124D01*
X5429032Y-2704246D01*
X5466037Y-2773479D01*
X5515838Y-2834162D01*
X5576521Y-2883963D01*
X5645754Y-2920968D01*
X5720876Y-2943756D01*
X5799000Y-2951451D01*
X7401000Y-2951451D01*
X7479124Y-2943756D01*
X7554246Y-2920968D01*
X7623479Y-2883963D01*
X7684162Y-2834162D01*
X7733963Y-2773479D01*
X7770968Y-2704246D01*
X7793756Y-2629124D01*
X7801451Y-2551000D01*
X7801451Y-1249000D01*
X7793756Y-1170876D01*
X7770968Y-1095754D01*
X7733963Y-1026521D01*
X7684162Y-965838D01*
X7664863Y-950000D01*
X7684162Y-934162D01*
X7733963Y-873479D01*
X7770968Y-804246D01*
X7793756Y-729124D01*
X7801451Y-651000D01*
X7801451Y103416D01*
X40050000Y103416D01*
X40050000Y-103416D01*
X40090350Y-306274D01*
X40169502Y-497362D01*
X40284411Y-669336D01*
X40430664Y-815589D01*
X40602638Y-930498D01*
X40793726Y-1009650D01*
X40996584Y-1050000D01*
X41203416Y-1050000D01*
X41406274Y-1009650D01*
X41597362Y-930498D01*
X41769336Y-815589D01*
X41915589Y-669336D01*
X42030498Y-497362D01*
X42109650Y-306274D01*
X42150000Y-103416D01*
X42150000Y103416D01*
X42109650Y306274D01*
X42030498Y497362D01*
X41915589Y669336D01*
X41769336Y815589D01*
X41597362Y930498D01*
X41406274Y1009650D01*
X41203416Y1050000D01*
X40996584Y1050000D01*
X40793726Y1009650D01*
X40602638Y930498D01*
X40430664Y815589D01*
X40284411Y669336D01*
X40169502Y497362D01*
X40090350Y306274D01*
X40050000Y103416D01*
X7801451Y103416D01*
X7801451Y651000D01*
X7793756Y729124D01*
X7770968Y804246D01*
X7733963Y873479D01*
X7684162Y934162D01*
X7664863Y950000D01*
X7684162Y965838D01*
X7733963Y1026521D01*
X7770968Y1095754D01*
X7793756Y1170876D01*
X7801451Y1249000D01*
X7801451Y2551000D01*
X7793756Y2629124D01*
X7770968Y2704246D01*
X7733963Y2773479D01*
X7684162Y2834162D01*
X7623479Y2883963D01*
X7554246Y2920968D01*
X7479124Y2943756D01*
X7401000Y2951451D01*
X5799000Y2951451D01*
X5720876Y2943756D01*
X5645754Y2920968D01*
X5576521Y2883963D01*
X5515838Y2834162D01*
X5466037Y2773479D01*
X5429032Y2704246D01*
X5406244Y2629124D01*
X5398549Y2551000D01*
X-5398549Y2551000D01*
X-5406244Y2629124D01*
X-5429032Y2704246D01*
X-5466037Y2773479D01*
X-5515838Y2834162D01*
X-5576521Y2883963D01*
X-5645754Y2920968D01*
X-5720876Y2943756D01*
X-5799000Y2951451D01*
X-7401000Y2951451D01*
X-7479124Y2943756D01*
X-7554246Y2920968D01*
X-7623479Y2883963D01*
X-7684162Y2834162D01*
X-7733963Y2773479D01*
X-7770968Y2704246D01*
X-7793756Y2629124D01*
X-7801451Y2551000D01*
X-7801451Y2450000D01*
X-8036355Y2450000D01*
X-8066485Y2506370D01*
X-8135065Y2589935D01*
X-8218630Y2658515D01*
X-8313969Y2709474D01*
X-8417417Y2740855D01*
X-8525000Y2751451D01*
X-9475000Y2751451D01*
X-9582583Y2740855D01*
X-9686031Y2709474D01*
X-9781370Y2658515D01*
X-9864935Y2589935D01*
X-9933515Y2506370D01*
X-9984474Y2411031D01*
X-10015855Y2307583D01*
X-10026451Y2200000D01*
X-42099412Y2200000D01*
X-41995089Y3891418D01*
X-41675879Y6469293D01*
X-41501713Y7401000D01*
X-2951451Y7401000D01*
X-2951451Y5799000D01*
X-2943756Y5720876D01*
X-2920968Y5645754D01*
X-2883963Y5576521D01*
X-2834162Y5515838D01*
X-2773479Y5466037D01*
X-2704246Y5429032D01*
X-2629124Y5406244D01*
X-2551000Y5398549D01*
X-2534011Y5398549D01*
X-2573099Y5304182D01*
X-2600000Y5168944D01*
X-2600000Y5031056D01*
X-2573099Y4895818D01*
X-2520332Y4768426D01*
X-2443726Y4653776D01*
X-2346224Y4556274D01*
X-2231574Y4479668D01*
X-2104182Y4426901D01*
X-1968944Y4400000D01*
X-1831056Y4400000D01*
X-1695818Y4426901D01*
X-1568426Y4479668D01*
X-1453776Y4556274D01*
X-1356274Y4653776D01*
X-1279668Y4768426D01*
X-1226901Y4895818D01*
X-1200000Y5031056D01*
X-1200000Y5168944D01*
X-1226901Y5304182D01*
X-1265989Y5398549D01*
X-1249000Y5398549D01*
X-1170876Y5406244D01*
X-1095754Y5429032D01*
X-1026521Y5466037D01*
X-965838Y5515838D01*
X-950000Y5535137D01*
X-934162Y5515838D01*
X-873479Y5466037D01*
X-804246Y5429032D01*
X-729124Y5406244D01*
X-651000Y5398549D01*
X-634011Y5398549D01*
X-673099Y5304182D01*
X-700000Y5168944D01*
X-700000Y5031056D01*
X-673099Y4895818D01*
X-620332Y4768426D01*
X-543726Y4653776D01*
X-446224Y4556274D01*
X-331574Y4479668D01*
X-204182Y4426901D01*
X-68944Y4400000D01*
X68944Y4400000D01*
X204182Y4426901D01*
X331574Y4479668D01*
X446224Y4556274D01*
X543726Y4653776D01*
X620332Y4768426D01*
X673099Y4895818D01*
X700000Y5031056D01*
X700000Y5168944D01*
X673099Y5304182D01*
X634011Y5398549D01*
X651000Y5398549D01*
X729124Y5406244D01*
X804246Y5429032D01*
X873479Y5466037D01*
X934162Y5515838D01*
X950000Y5535137D01*
X965838Y5515838D01*
X1026521Y5466037D01*
X1095754Y5429032D01*
X1170876Y5406244D01*
X1249000Y5398549D01*
X2551000Y5398549D01*
X2629124Y5406244D01*
X2704246Y5429032D01*
X2773479Y5466037D01*
X2834162Y5515838D01*
X2883963Y5576521D01*
X2920968Y5645754D01*
X2943756Y5720876D01*
X2951451Y5799000D01*
X2951451Y7401000D01*
X2943756Y7479124D01*
X2920968Y7554246D01*
X2883963Y7623479D01*
X2834162Y7684162D01*
X2773479Y7733963D01*
X2704246Y7770968D01*
X2629124Y7793756D01*
X2551000Y7801451D01*
X1249000Y7801451D01*
X1170876Y7793756D01*
X1095754Y7770968D01*
X1026521Y7733963D01*
X965838Y7684162D01*
X950000Y7664863D01*
X934162Y7684162D01*
X873479Y7733963D01*
X804246Y7770968D01*
X729124Y7793756D01*
X651000Y7801451D01*
X-651000Y7801451D01*
X-729124Y7793756D01*
X-804246Y7770968D01*
X-873479Y7733963D01*
X-934162Y7684162D01*
X-950000Y7664863D01*
X-965838Y7684162D01*
X-1026521Y7733963D01*
X-1095754Y7770968D01*
X-1170876Y7793756D01*
X-1249000Y7801451D01*
X-2551000Y7801451D01*
X-2629124Y7793756D01*
X-2704246Y7770968D01*
X-2773479Y7733963D01*
X-2834162Y7684162D01*
X-2883963Y7623479D01*
X-2920968Y7554246D01*
X-2943756Y7479124D01*
X-2951451Y7401000D01*
X-41501713Y7401000D01*
X-41198578Y9022628D01*
X-40564997Y11541737D01*
X-39777538Y14017064D01*
X-38839190Y16439219D01*
X-37753512Y18799015D01*
X-36524621Y21087500D01*
X-35157181Y23295993D01*
X-33656377Y25416116D01*
X-32027902Y27439827D01*
X-30277935Y29359449D01*
X-28413114Y31167701D01*
X-26440512Y32857723D01*
X-24367611Y34423105D01*
X-22202276Y35857908D01*
X-19952721Y37156689D01*
X-17627478Y38314523D01*
X-15235367Y39327016D01*
X-12785464Y40190329D01*
X-10287061Y40901186D01*
X-7749636Y41456890D01*
X-5182814Y41855335D01*
X-2596331Y42095008D01*
X0Y42175000D01*
X2596331Y42095008D01*
G37*
%TD.AperFunction*%
%TD*%
M02*
