%TF.GenerationSoftware,KiCad,Pcbnew,6.0.5-a6ca702e91~116~ubuntu20.04.1*%
%TF.CreationDate,2022-05-11T23:16:09+02:00*%
%TF.ProjectId,uHoubolt_PCB_GNSS,75486f75-626f-46c7-945f-5043425f474e,rev?*%
%TF.SameCoordinates,PX8f0d180PY5f5e100*%
%TF.FileFunction,Copper,L1,Top*%
%TF.FilePolarity,Positive*%
%FSLAX46Y46*%
G04 Gerber Fmt 4.6, Leading zero omitted, Abs format (unit mm)*
G04 Created by KiCad (PCBNEW 6.0.5-a6ca702e91~116~ubuntu20.04.1) date 2022-05-11 23:16:09*
%MOMM*%
%LPD*%
G01*
G04 APERTURE LIST*
G04 Aperture macros list*
%AMRoundRect*
0 Rectangle with rounded corners*
0 $1 Rounding radius*
0 $2 $3 $4 $5 $6 $7 $8 $9 X,Y pos of 4 corners*
0 Add a 4 corners polygon primitive as box body*
4,1,4,$2,$3,$4,$5,$6,$7,$8,$9,$2,$3,0*
0 Add four circle primitives for the rounded corners*
1,1,$1+$1,$2,$3*
1,1,$1+$1,$4,$5*
1,1,$1+$1,$6,$7*
1,1,$1+$1,$8,$9*
0 Add four rect primitives between the rounded corners*
20,1,$1+$1,$2,$3,$4,$5,0*
20,1,$1+$1,$4,$5,$6,$7,0*
20,1,$1+$1,$6,$7,$8,$9,0*
20,1,$1+$1,$8,$9,$2,$3,0*%
%AMFreePoly0*
4,1,22,0.945671,0.830970,1.026777,0.776777,1.080970,0.695671,1.100000,0.600000,1.100000,-0.600000,1.080970,-0.695671,1.026777,-0.776777,0.945671,-0.830970,0.850000,-0.850000,-0.850000,-0.850000,-0.945671,-0.830970,-1.026777,-0.776777,-1.080970,-0.695671,-1.100000,-0.600000,-1.100000,0.200000,-1.080970,0.295671,-1.026777,0.376777,-0.626777,0.776777,-0.545671,0.830970,-0.450000,0.850000,
0.850000,0.850000,0.945671,0.830970,0.945671,0.830970,$1*%
G04 Aperture macros list end*
%TA.AperFunction,SMDPad,CuDef*%
%ADD10RoundRect,0.099000X-0.651000X-0.801000X0.651000X-0.801000X0.651000X0.801000X-0.651000X0.801000X0*%
%TD*%
%TA.AperFunction,SMDPad,CuDef*%
%ADD11RoundRect,0.099000X0.801000X-0.651000X0.801000X0.651000X-0.801000X0.651000X-0.801000X-0.651000X0*%
%TD*%
%TA.AperFunction,ComponentPad*%
%ADD12C,0.800000*%
%TD*%
%TA.AperFunction,ComponentPad*%
%ADD13C,6.400000*%
%TD*%
%TA.AperFunction,ComponentPad*%
%ADD14C,0.500000*%
%TD*%
%TA.AperFunction,SMDPad,CuDef*%
%ADD15R,1.750000X1.750000*%
%TD*%
%TA.AperFunction,ComponentPad*%
%ADD16FreePoly0,90.000000*%
%TD*%
%TA.AperFunction,ComponentPad*%
%ADD17O,1.700000X2.200000*%
%TD*%
%TA.AperFunction,ComponentPad*%
%ADD18C,1.524000*%
%TD*%
%TA.AperFunction,ViaPad*%
%ADD19C,0.500000*%
%TD*%
%TA.AperFunction,ViaPad*%
%ADD20C,0.800000*%
%TD*%
%TA.AperFunction,Conductor*%
%ADD21C,1.000000*%
%TD*%
%TA.AperFunction,Conductor*%
%ADD22C,0.300000*%
%TD*%
G04 APERTURE END LIST*
D10*
%TO.P,U1,1,GND*%
%TO.N,GND*%
X-3800000Y-6600000D03*
%TO.P,U1,2,VCC_IO*%
%TO.N,Net-(C15-Pad2)*%
X-1900000Y-6600000D03*
%TO.P,U1,3,V_BCKP*%
%TO.N,Net-(R9-Pad2)*%
X0Y-6600000D03*
%TO.P,U1,4,GND*%
%TO.N,GND*%
X1900000Y-6600000D03*
%TO.P,U1,5,GND*%
X3800000Y-6600000D03*
D11*
%TO.P,U1,6,GND*%
X6600000Y-3800000D03*
%TO.P,U1,7,Timepulse*%
%TO.N,/GNSS_TIMEPULSE*%
X6600000Y-1900000D03*
%TO.P,U1,8,~{Safeboot}*%
%TO.N,unconnected-(U1-Pad8)*%
X6600000Y0D03*
%TO.P,U1,9,SDA*%
%TO.N,unconnected-(U1-Pad9)*%
X6600000Y1900000D03*
%TO.P,U1,10,GND*%
%TO.N,GND*%
X6600000Y3800000D03*
D10*
%TO.P,U1,11,GND*%
X3800000Y6600000D03*
%TO.P,U1,12,SCL*%
%TO.N,unconnected-(U1-Pad12)*%
X1900000Y6600000D03*
%TO.P,U1,13,TxD*%
%TO.N,/GNSS_UART1_TX*%
X0Y6600000D03*
%TO.P,U1,14,RxD*%
%TO.N,/GNSS_UART1_RX*%
X-1900000Y6600000D03*
%TO.P,U1,15,GND*%
%TO.N,GND*%
X-3800000Y6600000D03*
D11*
%TO.P,U1,16,GND*%
X-6600000Y3800000D03*
%TO.P,U1,17,VCC*%
%TO.N,Net-(C15-Pad2)*%
X-6600000Y1900000D03*
%TO.P,U1,18,~{Reset}*%
%TO.N,Net-(JP1-Pad2)*%
X-6600000Y0D03*
%TO.P,U1,19,ExtInt0*%
%TO.N,/GNSS_INT*%
X-6600000Y-1900000D03*
%TO.P,U1,20,GND*%
%TO.N,GND*%
X-6600000Y-3800000D03*
%TD*%
D12*
%TO.P,H1,1,1*%
%TO.N,GND*%
X23600000Y28000000D03*
X24302944Y29697056D03*
X26000000Y30400000D03*
D13*
X26000000Y28000000D03*
D12*
X28400000Y28000000D03*
X24302944Y26302944D03*
X27697056Y29697056D03*
X27697056Y26302944D03*
X26000000Y25600000D03*
%TD*%
%TO.P,H2,1,1*%
%TO.N,GND*%
X-24302944Y29697056D03*
X-23600000Y28000000D03*
X-26000000Y25600000D03*
X-28400000Y28000000D03*
X-27697056Y29697056D03*
D13*
X-26000000Y28000000D03*
D12*
X-26000000Y30400000D03*
X-27697056Y26302944D03*
X-24302944Y26302944D03*
%TD*%
%TO.P,H3,1,1*%
%TO.N,GND*%
X-27697056Y-26302944D03*
X-26000000Y-25600000D03*
X-27697056Y-29697056D03*
X-24302944Y-29697056D03*
X-28400000Y-28000000D03*
X-24302944Y-26302944D03*
X-26000000Y-30400000D03*
X-23600000Y-28000000D03*
D13*
X-26000000Y-28000000D03*
%TD*%
D12*
%TO.P,H4,1,1*%
%TO.N,GND*%
X27697056Y-26302944D03*
D13*
X26000000Y-28000000D03*
D12*
X27697056Y-29697056D03*
X23600000Y-28000000D03*
X24302944Y-29697056D03*
X26000000Y-25600000D03*
X28400000Y-28000000D03*
X26000000Y-30400000D03*
X24302944Y-26302944D03*
%TD*%
D14*
%TO.P,U7,17,PAD*%
%TO.N,GND*%
X18913000Y32567500D03*
X17663000Y32567500D03*
D15*
X18288000Y31942500D03*
D14*
X17663000Y31317500D03*
X18913000Y31317500D03*
%TD*%
D16*
%TO.P,J1,1,Pin_1*%
%TO.N,+12V*%
X762000Y37846000D03*
D17*
%TO.P,J1,2,Pin_2*%
%TO.N,GND*%
X-1738000Y37846000D03*
%TD*%
D18*
%TO.P,J12,1*%
%TO.N,Net-(J12-Pad1)*%
X8800000Y-21200000D03*
%TO.P,J12,S1*%
%TO.N,Net-(J12-PadS1)*%
X7530000Y-19930000D03*
%TO.P,J12,S2*%
X10070000Y-19930000D03*
%TO.P,J12,S3*%
X10070000Y-22470000D03*
%TO.P,J12,S4*%
X7530000Y-22470000D03*
%TD*%
D19*
%TO.N,GND*%
X-5080000Y-2540000D03*
D20*
X25400000Y19170250D03*
D19*
X-5334000Y3048000D03*
X5588000Y29718000D03*
X-26670000Y8128000D03*
X-3302000Y38862000D03*
X-18542000Y16256000D03*
X1270000Y3810000D03*
X-18034000Y7366000D03*
X-2540000Y36068000D03*
X6858000Y28194000D03*
X7112000Y28702000D03*
X-15240000Y21844000D03*
D20*
X-25146000Y19260283D03*
D19*
X-8382000Y29718000D03*
X-3302000Y38100000D03*
D20*
X0Y-15240000D03*
D19*
X2794000Y26162000D03*
X-16002000Y21082000D03*
D20*
X-5080000Y-5080000D03*
D19*
X10414000Y22606000D03*
X12446000Y22606000D03*
X35052000Y-15875000D03*
X14478000Y22606000D03*
D20*
X-35560000Y15240000D03*
D19*
X1524000Y35052000D03*
X-3683000Y-3683000D03*
X-29464000Y13418283D03*
X-8509000Y15875000D03*
X-6858000Y28194000D03*
X35052000Y-14351000D03*
X-12192000Y17526000D03*
X35052000Y-15113000D03*
D20*
X25400000Y-20320000D03*
X-10160000Y0D03*
D19*
X9652000Y14986000D03*
X-11938000Y12700000D03*
D20*
X-15240000Y35560000D03*
D19*
X-16002000Y21844000D03*
X4572000Y8636000D03*
D20*
X10160000Y-25400000D03*
X-20320000Y-10160000D03*
D19*
X-28702000Y13418283D03*
D20*
X20320000Y-5080000D03*
X20320000Y-25400000D03*
D19*
X-7874000Y15875000D03*
D20*
X30480000Y-20320000D03*
X-25400000Y-20320000D03*
D19*
X8890000Y27940000D03*
X-17272000Y7366000D03*
X-16510000Y7366000D03*
X-21844000Y18542000D03*
X20320000Y14986000D03*
X-7620000Y34290000D03*
X5080000Y2540000D03*
X-12700000Y2032000D03*
X-17780000Y17018000D03*
X5080000Y15240000D03*
D20*
X-35052000Y10160000D03*
D19*
X5080000Y-2540000D03*
X-15085534Y19809934D03*
D20*
X-35560000Y-10160000D03*
D19*
X1270000Y-5080000D03*
X-16002000Y3810000D03*
X-1905000Y29210000D03*
X1524000Y36068000D03*
D20*
X-15240000Y-20320000D03*
D19*
X10160000Y10160000D03*
D20*
X-15240000Y30480000D03*
D19*
X14478000Y27178000D03*
D20*
X-20320000Y-25400000D03*
X35560000Y-10160000D03*
X20320000Y-20320000D03*
D19*
X-28956000Y3048000D03*
D20*
X35560000Y10160000D03*
D19*
X-31242000Y11176000D03*
X12446000Y35052000D03*
D20*
X-5080000Y40640000D03*
D19*
X11938000Y33782000D03*
X-9906000Y12700000D03*
D20*
X15240000Y-10160000D03*
D19*
X5080000Y14224000D03*
X508000Y35052000D03*
X13462000Y22606000D03*
X-1524000Y16332500D03*
X-13843000Y16637000D03*
X0Y2540000D03*
X-4318000Y30988000D03*
X3302000Y15748000D03*
X2032000Y5080000D03*
X-9144000Y15875000D03*
D20*
X-10160000Y-15240000D03*
X20320000Y-10160000D03*
D19*
X-13970000Y8636000D03*
X-32258000Y11176000D03*
D20*
X20320000Y-15240000D03*
D19*
X-29464000Y12402283D03*
D20*
X40640000Y0D03*
D19*
X-3302000Y37338000D03*
X13462000Y27178000D03*
D20*
X10160000Y-5080000D03*
D19*
X17272000Y14986000D03*
X-12192000Y18288000D03*
X-15240000Y22606000D03*
X-2413000Y1524000D03*
D20*
X-5080000Y-15240000D03*
D19*
X19558000Y14986000D03*
X17272000Y15748000D03*
X2794000Y24130000D03*
X-5588000Y26162000D03*
X-7620000Y8382000D03*
X19558000Y16510000D03*
X-5334000Y8636000D03*
X-508000Y35052000D03*
X21082000Y24384000D03*
X-1270000Y5080000D03*
X-25908000Y8128000D03*
D20*
X-5080000Y-25400000D03*
D19*
X18796000Y15748000D03*
X-27686000Y3810000D03*
D20*
X25400000Y-5080000D03*
D19*
X-31242000Y762000D03*
X-6350000Y26162000D03*
X-1524000Y35052000D03*
D20*
X-20320000Y25400000D03*
D19*
X-5080000Y3810000D03*
D20*
X0Y-10160000D03*
D19*
X13970000Y32728500D03*
X12446000Y27178000D03*
D20*
X10160000Y-10160000D03*
D19*
X21844000Y22860000D03*
X-2286000Y15748000D03*
X2540000Y-2540000D03*
X19558000Y15748000D03*
X1524000Y26162000D03*
X-5080000Y1524000D03*
X762000Y15748000D03*
X-5588000Y30988000D03*
X-1016000Y31115000D03*
X18034000Y15748000D03*
X10414000Y14986000D03*
D20*
X-10160000Y35560000D03*
D19*
X4572000Y9398000D03*
X-32004000Y762000D03*
X4318000Y15748000D03*
X3048000Y-4191000D03*
X9652000Y14224000D03*
D20*
X-15240000Y-15240000D03*
X5080000Y-20320000D03*
X-5080000Y-20320000D03*
D19*
X254000Y26162000D03*
X-7874000Y4572000D03*
X-22606000Y7874000D03*
D20*
X15240000Y-5080000D03*
D19*
X-29718000Y3048000D03*
X-508000Y-1778000D03*
D20*
X35560000Y20320000D03*
D19*
X1524000Y25146000D03*
D20*
X25400000Y15240000D03*
X15240000Y5080000D03*
D19*
X4318000Y14224000D03*
D20*
X0Y-25400000D03*
X-5080000Y-10160000D03*
D19*
X-33274000Y10414000D03*
X4826000Y33274000D03*
X21082000Y23622000D03*
D20*
X-30480000Y-10160000D03*
D19*
X5080000Y3810000D03*
D20*
X-5080000Y5080000D03*
X25400000Y0D03*
D19*
X2794000Y25146000D03*
X5588000Y33274000D03*
X-22349502Y762000D03*
X11430000Y22606000D03*
X-6350000Y-6350000D03*
D20*
X30480000Y-5080000D03*
D19*
X20320000Y15748000D03*
D20*
X30480000Y-10160000D03*
X-20320000Y-20320000D03*
X-20320000Y30480000D03*
X-40640000Y5080000D03*
D19*
X-1016000Y29210000D03*
D20*
X10160000Y35560000D03*
X-15240000Y-25400000D03*
D19*
X21844000Y24384000D03*
D20*
X5080000Y-25400000D03*
D19*
X-31242000Y10414000D03*
X21844000Y23622000D03*
X-17272000Y3810000D03*
X-2540000Y35052000D03*
X6858000Y21082000D03*
X-5588000Y25400000D03*
D20*
X5080000Y-5080000D03*
X15240000Y0D03*
D19*
X10287000Y20066000D03*
X1397000Y1651000D03*
D20*
X-5080000Y35560000D03*
X-10160000Y-10160000D03*
X0Y0D03*
D19*
X9398000Y28956000D03*
X-28194000Y3048000D03*
D20*
X-30226000Y19260283D03*
X-10160000Y-5080000D03*
X30480000Y0D03*
D19*
X-18542000Y1270000D03*
X3048000Y4572000D03*
X21082000Y22860000D03*
X-8636000Y7112000D03*
X-22606000Y18542000D03*
X-13462000Y11176000D03*
X1016000Y11430000D03*
D20*
X30480000Y-15240000D03*
X-35052000Y5080000D03*
X-10160000Y-20320000D03*
X-20320000Y35560000D03*
X5080000Y40640000D03*
D19*
X0Y15748000D03*
D20*
X5080000Y-10160000D03*
D19*
X-7620000Y6350000D03*
D20*
X-20320000Y-15240000D03*
D19*
X6350000Y-6350000D03*
X35687000Y-16129000D03*
X-21082000Y18542000D03*
D20*
X-35560000Y20320000D03*
D19*
X35052000Y-12954000D03*
X-12192000Y5080000D03*
D20*
X5080000Y-15240000D03*
X0Y40640000D03*
D19*
X-8382000Y34290000D03*
X-25654000Y18542000D03*
X16002000Y32728500D03*
X-14478000Y19812000D03*
X-26416000Y19304000D03*
X-25908000Y8890000D03*
X254000Y11430000D03*
X2540000Y2540000D03*
D20*
X25400000Y-15240000D03*
D19*
X9144000Y13462000D03*
X-5588000Y32004000D03*
X20320000Y16510000D03*
D20*
X25400000Y10160000D03*
D19*
X19558000Y17272000D03*
D20*
X25400000Y5080000D03*
D19*
X-2540000Y-2540000D03*
X-8382000Y30480000D03*
X3810000Y3810000D03*
D20*
X-15240000Y-10160000D03*
X35560000Y15240000D03*
X-20320000Y20320000D03*
D19*
X-3302000Y36576000D03*
X-3810000Y5080000D03*
X10160000Y5080000D03*
D20*
X20320000Y0D03*
X10160000Y0D03*
D19*
X3810000Y9398000D03*
X-33274000Y11176000D03*
X-5588000Y29972000D03*
X-2540000Y3810000D03*
X-23400000Y3600000D03*
D20*
X-10160000Y-25400000D03*
D19*
X-10414000Y8636000D03*
X-26416000Y18542000D03*
X-13970000Y1016000D03*
D20*
X15240000Y-25400000D03*
D19*
X4064000Y33274000D03*
X-2540000Y-5080000D03*
X-6350000Y7620000D03*
X-17780000Y16256000D03*
D20*
X0Y-20320000D03*
D19*
X3810000Y26162000D03*
X35052000Y-13589000D03*
D20*
X30480000Y15240000D03*
X-25400000Y-15240000D03*
D19*
X18796000Y14986000D03*
D20*
X25400000Y-10160000D03*
X40640000Y5080000D03*
X20320000Y10160000D03*
D19*
X21844000Y22098000D03*
X6350000Y6350000D03*
D20*
X20320000Y5080000D03*
D19*
X-32258000Y10414000D03*
X4445000Y-3810000D03*
X18034000Y14986000D03*
D20*
X40640000Y-5080000D03*
D19*
X-6350000Y25400000D03*
X21082000Y22098000D03*
D20*
X-25400000Y-10160000D03*
D19*
%TO.N,+3V3*%
X-18898431Y4064000D03*
X7620000Y22949000D03*
X8128000Y32258000D03*
X-12000000Y-3400000D03*
X5256790Y26846790D03*
X22987000Y21463000D03*
X8890000Y14478000D03*
X-17526000Y10795000D03*
X-10909555Y23342097D03*
X-734336Y11457664D03*
X-11430000Y14986000D03*
X-9906000Y27178000D03*
X-39243000Y-7112000D03*
%TO.N,+5V*%
X4064000Y31242000D03*
X17018000Y23368000D03*
X37592000Y-11176000D03*
X-14986000Y10160000D03*
X15748000Y15748000D03*
X-15106500Y4038498D03*
X6350000Y10414000D03*
X17780000Y20320000D03*
X10668000Y13970000D03*
%TO.N,Net-(C15-Pad2)*%
X-8128000Y1900000D03*
X-1900000Y-8150000D03*
%TO.N,+12V*%
X11938000Y32512000D03*
X20567446Y31644002D03*
X32258000Y21710250D03*
%TO.N,/NRST*%
X-23000000Y-4800000D03*
X-11938000Y28956000D03*
X-37973000Y-3556000D03*
%TO.N,/SWCLK*%
X-36703000Y-3160497D03*
X-14400000Y-3400000D03*
X-6604000Y18034000D03*
%TO.N,/SWDIO*%
X-36703000Y-3810000D03*
X-19600000Y0D03*
X-6604000Y17272000D03*
X-19800000Y-3810000D03*
%TO.N,/UART_TX*%
X-9144000Y21844000D03*
X-28500000Y-500000D03*
%TO.N,/UART_RX*%
X-31496000Y-1778000D03*
X-9144000Y22606000D03*
%TO.N,/CAN1_L*%
X-23114000Y5080000D03*
X-26980204Y6015885D03*
X-27503316Y4984773D03*
X-24137556Y6103556D03*
%TO.N,/CAN2_L*%
X-24638000Y16510000D03*
X-23622000Y14732000D03*
X-27843000Y15450283D03*
X-27268944Y16532339D03*
%TO.N,/LED1*%
X-5207000Y19812000D03*
X-6604000Y13970000D03*
X-6604000Y21082000D03*
X-5588000Y11938000D03*
%TO.N,/LED2*%
X-6604000Y20320000D03*
X-5246980Y19050000D03*
%TO.N,/Speaker*%
X-10160000Y16002000D03*
X-3810000Y16764000D03*
%TO.N,Net-(R9-Pad2)*%
X0Y-8128000D03*
%TO.N,/GNSS_INT*%
X-8150000Y-1900000D03*
%TO.N,Net-(JP1-Pad2)*%
X-8200000Y0D03*
%TO.N,/GNSS_UART1_RX*%
X-2032000Y8128000D03*
%TO.N,/GNSS_UART1_TX*%
X0Y8128000D03*
%TO.N,/LoRa_DIO1*%
X17780000Y10922000D03*
X2032000Y19304000D03*
%TO.N,/LoRa_DIO3*%
X3048000Y19304000D03*
X19304000Y10922000D03*
%TO.N,/BARO_SPI1_SCK*%
X4179542Y28829000D03*
X7308046Y29486562D03*
%TO.N,/BARO_SPI1_MOSI*%
X6811867Y25931157D03*
X5842000Y28164500D03*
%TO.N,/QSPI1_CLK*%
X9144000Y19812000D03*
X7099555Y19786097D03*
%TO.N,/QSPI1_BK1_NCS*%
X12446000Y19304000D03*
X6604000Y19331500D03*
%TO.N,/QSPI1_BK1_IO1*%
X10668000Y18288000D03*
X7366000Y18331500D03*
%TO.N,/QSPI1_BK1_IO2*%
X8890000Y17780000D03*
X6806000Y17832000D03*
%TO.N,/LoRa_SPI2_MISO*%
X1555500Y12700000D03*
X2555500Y12700000D03*
%TO.N,/GNSS_NRST*%
X-3302000Y9652000D03*
X508000Y9652000D03*
%TO.N,/CAN1_RX*%
X-14345556Y4573056D03*
X-13081000Y5842000D03*
%TO.N,/IMU_SPI3_SCK*%
X-9906000Y18796000D03*
X-6604000Y18796000D03*
%TO.N,/IMU_INT*%
X-9906000Y19445503D03*
X-11311500Y18034000D03*
%TO.N,/CAN2_RX*%
X-14478000Y13462000D03*
X-12954000Y14478000D03*
%TO.N,/LoRa_NRST*%
X16002000Y11938000D03*
X3810000Y16256000D03*
%TO.N,/GNSS_TIMEPULSE*%
X7900000Y-1900000D03*
X762000Y8644500D03*
%TD*%
D21*
%TO.N,Net-(C15-Pad2)*%
X-1900000Y-8150000D02*
X-1900000Y-6600000D01*
X-6600000Y1900000D02*
X-8128000Y1900000D01*
%TO.N,Net-(R9-Pad2)*%
X0Y-6600000D02*
X0Y-8128000D01*
%TO.N,/GNSS_INT*%
X-8150000Y-1900000D02*
X-6600000Y-1900000D01*
%TO.N,Net-(JP1-Pad2)*%
X-6600000Y0D02*
X-8200000Y0D01*
%TO.N,/GNSS_UART1_RX*%
X-1900000Y8128000D02*
X-1900000Y6600000D01*
D22*
X-2032000Y8128000D02*
X-1900000Y8128000D01*
%TO.N,/GNSS_UART1_TX*%
X0Y6600000D02*
X0Y6858000D01*
D21*
X0Y6858000D02*
X0Y8128000D01*
%TO.N,/GNSS_TIMEPULSE*%
X7900000Y-1900000D02*
X6600000Y-1900000D01*
%TD*%
%TA.AperFunction,Conductor*%
%TO.N,GND*%
G36*
X-12918Y42273487D02*
G01*
X-11267Y42273485D01*
X-538Y42271005D01*
X-421Y42271031D01*
X-303Y42271004D01*
X10319Y42273408D01*
X11202Y42273404D01*
X32890Y42275660D01*
X1148715Y42258642D01*
X1286636Y42256538D01*
X1289653Y42256446D01*
X2573529Y42197671D01*
X2576543Y42197487D01*
X3612747Y42118329D01*
X3858010Y42099593D01*
X3861010Y42099318D01*
X5138970Y41962385D01*
X5141955Y41962019D01*
X5778511Y41874105D01*
X6415061Y41786193D01*
X6418045Y41785735D01*
X7685265Y41571159D01*
X7688234Y41570609D01*
X8948282Y41317500D01*
X8951170Y41316875D01*
X9775584Y41124947D01*
X10202984Y41025446D01*
X10205914Y41024716D01*
X11448166Y40695275D01*
X11451072Y40694457D01*
X12193177Y40473225D01*
X12682761Y40327272D01*
X12685616Y40326373D01*
X13268189Y40133170D01*
X13905504Y39921812D01*
X13908355Y39920818D01*
X15115329Y39479252D01*
X15118148Y39478172D01*
X16311132Y38999993D01*
X16313890Y38998838D01*
X17491743Y38484502D01*
X17494441Y38483275D01*
X18016273Y38236195D01*
X18656073Y37933257D01*
X18658782Y37931923D01*
X19803038Y37346773D01*
X19805705Y37345358D01*
X20931627Y36725565D01*
X20934249Y36724069D01*
X22040753Y36070231D01*
X22043309Y36068668D01*
X23129369Y35381387D01*
X23131849Y35379764D01*
X24196420Y34659705D01*
X24198895Y34657976D01*
X25241039Y33905772D01*
X25243459Y33903968D01*
X25569548Y33653131D01*
X26262165Y33120350D01*
X26264480Y33118513D01*
X27152741Y32391068D01*
X27258860Y32304161D01*
X27261166Y32302212D01*
X28230169Y31457990D01*
X28232415Y31455973D01*
X29175274Y30582550D01*
X29177458Y30580464D01*
X30093226Y29678716D01*
X30095344Y29676566D01*
X30983207Y28747296D01*
X30985259Y28745081D01*
X31133659Y28579961D01*
X31844362Y27789181D01*
X31846310Y27786947D01*
X32656831Y26827821D01*
X32675887Y26805271D01*
X32677794Y26802943D01*
X33472381Y25802310D01*
X33477027Y25796459D01*
X33478865Y25794071D01*
X33713373Y25479514D01*
X34247059Y24763652D01*
X34248822Y24761209D01*
X34980371Y23714809D01*
X34985208Y23707890D01*
X34986900Y23705390D01*
X35690839Y22630082D01*
X35692454Y22627531D01*
X36363280Y21531256D01*
X36364815Y21528659D01*
X36543797Y21215068D01*
X37001884Y20412466D01*
X37003341Y20409821D01*
X37053067Y20316175D01*
X37598439Y19289109D01*
X37606095Y19274690D01*
X37607452Y19272038D01*
X38175348Y18118984D01*
X38176606Y18116326D01*
X38707600Y16949738D01*
X38709044Y16946566D01*
X38710248Y16943811D01*
X38893550Y16506175D01*
X39206767Y15758365D01*
X39207891Y15755563D01*
X39383258Y15298212D01*
X39660488Y14575204D01*
X39668041Y14555505D01*
X39669073Y14552683D01*
X40049560Y13462000D01*
X40092399Y13339199D01*
X40093345Y13336348D01*
X40187440Y13037628D01*
X40479488Y12110471D01*
X40480351Y12107577D01*
X40828916Y10870556D01*
X40829691Y10867638D01*
X41140387Y9620517D01*
X41141072Y9617577D01*
X41184387Y9417946D01*
X41408561Y8384765D01*
X41413592Y8361576D01*
X41414185Y8358627D01*
X41579962Y7463698D01*
X41648277Y7094909D01*
X41648781Y7091940D01*
X41840519Y5845790D01*
X41844236Y5821632D01*
X41844648Y5818649D01*
X41997472Y4573977D01*
X42001274Y4543009D01*
X42001595Y4540019D01*
X42046547Y4051032D01*
X42119248Y3260205D01*
X42119479Y3257195D01*
X42198056Y1974341D01*
X42198194Y1971325D01*
X42237615Y686743D01*
X42237662Y683724D01*
X42237742Y243496D01*
X42237882Y-527828D01*
X42237895Y-601495D01*
X42237850Y-604496D01*
X42227297Y-952484D01*
X42198890Y-1889177D01*
X42198752Y-1892193D01*
X42180272Y-2195700D01*
X42120640Y-3175045D01*
X42120417Y-3177987D01*
X42044619Y-4005788D01*
X42003218Y-4457929D01*
X42002896Y-4460931D01*
X41991196Y-4556504D01*
X41846837Y-5735769D01*
X41846737Y-5736583D01*
X41846329Y-5739548D01*
X41657070Y-6972549D01*
X41651329Y-7009950D01*
X41650828Y-7012908D01*
X41432209Y-8195482D01*
X41417191Y-8276718D01*
X41416603Y-8279648D01*
X41293365Y-8848627D01*
X41144532Y-9535770D01*
X41143848Y-9538711D01*
X40833609Y-10785922D01*
X40832836Y-10788840D01*
X40654698Y-11421909D01*
X40598065Y-11623175D01*
X40484707Y-12026027D01*
X40483856Y-12028886D01*
X40098155Y-13254905D01*
X40097205Y-13257770D01*
X39674312Y-14471421D01*
X39673275Y-14474257D01*
X39499388Y-14928241D01*
X39213564Y-15674469D01*
X39212468Y-15677206D01*
X39044645Y-16078292D01*
X38716357Y-16862879D01*
X38715149Y-16865646D01*
X38183137Y-18035590D01*
X38181845Y-18038319D01*
X37614421Y-19191467D01*
X37613047Y-19194156D01*
X37585506Y-19246068D01*
X37026623Y-20299500D01*
X37010710Y-20329494D01*
X37009269Y-20332114D01*
X36372561Y-21448610D01*
X36371035Y-21451192D01*
X35780438Y-22417140D01*
X35700619Y-22547688D01*
X35699012Y-22550229D01*
X35461589Y-22913192D01*
X34995454Y-23625801D01*
X34993763Y-23628302D01*
X34257751Y-24681897D01*
X34255985Y-24684345D01*
X33488194Y-25715001D01*
X33486361Y-25717386D01*
X32687440Y-26724225D01*
X32685567Y-26726513D01*
X32251691Y-27240314D01*
X31856358Y-27708472D01*
X31854375Y-27710749D01*
X30995599Y-28666978D01*
X30993592Y-28669146D01*
X30385317Y-29306250D01*
X30106042Y-29598761D01*
X30103924Y-29600912D01*
X29188481Y-30502991D01*
X29186298Y-30505077D01*
X28243791Y-31378808D01*
X28241561Y-31380814D01*
X27740351Y-31817800D01*
X27272811Y-32225431D01*
X27270506Y-32227380D01*
X26304339Y-33019210D01*
X26301654Y-33021095D01*
X26294698Y-33023348D01*
X26286633Y-33031042D01*
X26284426Y-33032357D01*
X26284169Y-33032561D01*
X26280912Y-33034665D01*
X26272361Y-33038746D01*
X26269953Y-33041743D01*
X26268213Y-33042867D01*
X26077623Y-33141452D01*
X26066429Y-33146389D01*
X25999701Y-33171013D01*
X25840444Y-33229781D01*
X25828706Y-33233304D01*
X25594145Y-33288141D01*
X25582070Y-33290186D01*
X25509143Y-33297931D01*
X25342545Y-33315625D01*
X25330304Y-33316163D01*
X25203731Y-33313881D01*
X25089455Y-33311820D01*
X25077251Y-33310841D01*
X24918092Y-33288106D01*
X24838792Y-33276778D01*
X24826793Y-33274298D01*
X24594371Y-33211039D01*
X24582769Y-33207095D01*
X24359933Y-33115604D01*
X24348908Y-33110258D01*
X24139094Y-32991948D01*
X24128813Y-32985280D01*
X24037811Y-32917908D01*
X23935215Y-32841952D01*
X23925845Y-32834073D01*
X23770483Y-32686072D01*
X23764276Y-32678166D01*
X23764159Y-32678274D01*
X23756595Y-32670089D01*
X23751038Y-32660422D01*
X23741838Y-32654121D01*
X23740184Y-32652331D01*
X23725483Y-32639375D01*
X21827410Y-30504043D01*
X20580351Y-29101103D01*
X20569140Y-29085738D01*
X20566565Y-29081386D01*
X20564275Y-29076274D01*
X20563842Y-29075701D01*
X20559554Y-29072107D01*
X20554685Y-29066587D01*
X20296268Y-28750553D01*
X20295007Y-28749221D01*
X20188816Y-28637108D01*
X20006731Y-28444868D01*
X20005385Y-28443639D01*
X19697039Y-28162271D01*
X19697035Y-28162268D01*
X19695716Y-28161064D01*
X19364872Y-27900647D01*
X19015952Y-27664998D01*
X18650809Y-27455367D01*
X18271377Y-27272866D01*
X18269693Y-27272202D01*
X18269688Y-27272200D01*
X17881340Y-27119120D01*
X17881333Y-27119118D01*
X17879670Y-27118462D01*
X17877969Y-27117931D01*
X17877958Y-27117927D01*
X17646689Y-27045718D01*
X17477765Y-26992974D01*
X17475919Y-26992542D01*
X17341258Y-26961041D01*
X17067792Y-26897068D01*
X16651928Y-26831252D01*
X16245639Y-26796995D01*
X16238416Y-26796101D01*
X16233155Y-26794613D01*
X16232438Y-26794578D01*
X16213476Y-26797961D01*
X16196089Y-26799500D01*
X-16195566Y-26799500D01*
X-16213297Y-26797899D01*
X-16226205Y-26795549D01*
X-16226206Y-26795549D01*
X-16231721Y-26794545D01*
X-16232438Y-26794578D01*
X-16237687Y-26796042D01*
X-16244583Y-26796884D01*
X-16460483Y-26815089D01*
X-16651930Y-26831231D01*
X-16940439Y-26876891D01*
X-17066021Y-26896766D01*
X-17066023Y-26896766D01*
X-17067796Y-26897047D01*
X-17477770Y-26992953D01*
X-17678723Y-27055697D01*
X-17877965Y-27117907D01*
X-17877976Y-27117911D01*
X-17879677Y-27118442D01*
X-17881340Y-27119098D01*
X-17881347Y-27119100D01*
X-18269696Y-27272180D01*
X-18269701Y-27272182D01*
X-18271385Y-27272846D01*
X-18650818Y-27455348D01*
X-18814624Y-27549390D01*
X-19014405Y-27664085D01*
X-19014416Y-27664092D01*
X-19015963Y-27664980D01*
X-19364884Y-27900630D01*
X-19695730Y-28161048D01*
X-19697049Y-28162252D01*
X-19697053Y-28162255D01*
X-19972518Y-28413620D01*
X-20006746Y-28444853D01*
X-20296284Y-28750539D01*
X-20554362Y-29066159D01*
X-20559223Y-29071648D01*
X-20563407Y-29075130D01*
X-20563842Y-29075701D01*
X-20566152Y-29080809D01*
X-20569023Y-29085622D01*
X-20569923Y-29085085D01*
X-20580129Y-29100852D01*
X-23359264Y-32227380D01*
X-23725127Y-32638976D01*
X-23739175Y-32651312D01*
X-23741329Y-32653627D01*
X-23750550Y-32659895D01*
X-23756140Y-32669542D01*
X-23763734Y-32677702D01*
X-23763782Y-32677657D01*
X-23770048Y-32685608D01*
X-23925860Y-32834037D01*
X-23935238Y-32841923D01*
X-24128838Y-32985253D01*
X-24139118Y-32991920D01*
X-24212831Y-33033486D01*
X-24348924Y-33110226D01*
X-24359949Y-33115573D01*
X-24582783Y-33207062D01*
X-24594384Y-33211005D01*
X-24663240Y-33229746D01*
X-24826802Y-33274263D01*
X-24838796Y-33276742D01*
X-25077254Y-33310805D01*
X-25089458Y-33311784D01*
X-25203233Y-33313836D01*
X-25330302Y-33316128D01*
X-25342543Y-33315590D01*
X-25582059Y-33290151D01*
X-25594140Y-33288106D01*
X-25828698Y-33233269D01*
X-25840434Y-33229746D01*
X-25912581Y-33203123D01*
X-26066414Y-33146356D01*
X-26077608Y-33141419D01*
X-26268417Y-33042720D01*
X-26270910Y-33040935D01*
X-26273271Y-33038030D01*
X-26280710Y-33034531D01*
X-26282229Y-33033486D01*
X-26285875Y-33031540D01*
X-26286040Y-33031441D01*
X-26294082Y-33023716D01*
X-26302093Y-33021091D01*
X-26305829Y-33018485D01*
X-27209611Y-32292156D01*
X-27211864Y-32290290D01*
X-28121098Y-31514259D01*
X-28123295Y-31512326D01*
X-28270677Y-31378808D01*
X-28566216Y-31111072D01*
X-29009137Y-30709817D01*
X-29011277Y-30707821D01*
X-29225966Y-30501453D01*
X-29873098Y-29879403D01*
X-29875161Y-29877360D01*
X-30712074Y-29023885D01*
X-30714076Y-29021783D01*
X-31039971Y-28669170D01*
X-31508478Y-28162255D01*
X-31525417Y-28143927D01*
X-31527371Y-28141749D01*
X-31804310Y-27823746D01*
X-32312422Y-27240292D01*
X-32314273Y-27238101D01*
X-33072352Y-26313820D01*
X-33074132Y-26311584D01*
X-33804585Y-25365278D01*
X-33806332Y-25362943D01*
X-34300613Y-24681897D01*
X-34508431Y-24395554D01*
X-34510109Y-24393170D01*
X-34914400Y-23800000D01*
X6200000Y-23800000D01*
X11400000Y-23800000D01*
X11400000Y-18700000D01*
X6200000Y-18700000D01*
X6200000Y-23800000D01*
X-34914400Y-23800000D01*
X-35183342Y-23405411D01*
X-35184954Y-23402969D01*
X-35806551Y-22430403D01*
X-35818973Y-22401901D01*
X-35861935Y-22235961D01*
X-35864692Y-22220074D01*
X-35882416Y-22024284D01*
X-35882557Y-22008159D01*
X-35868261Y-21812086D01*
X-35865782Y-21796152D01*
X-35819847Y-21605007D01*
X-35814815Y-21589688D01*
X-35738459Y-21408535D01*
X-35731007Y-21394235D01*
X-35626252Y-21227876D01*
X-35616577Y-21214976D01*
X-35486210Y-21067833D01*
X-35474572Y-21056677D01*
X-35322038Y-20932642D01*
X-35308739Y-20923522D01*
X-35138104Y-20825902D01*
X-35123505Y-20819063D01*
X-35057723Y-20794557D01*
X-34939280Y-20750436D01*
X-34923761Y-20746056D01*
X-34730838Y-20708246D01*
X-34714815Y-20706444D01*
X-34542531Y-20701192D01*
X-34532747Y-20702403D01*
X-34532712Y-20701732D01*
X-34521577Y-20702321D01*
X-34510855Y-20705370D01*
X-34499872Y-20703468D01*
X-34499870Y-20703468D01*
X-34491119Y-20701952D01*
X-34474225Y-20700500D01*
X-29034281Y-20700500D01*
X-29011926Y-20703057D01*
X-29000718Y-20705655D01*
X-29000000Y-20705656D01*
X-28994993Y-20704514D01*
X-28993604Y-20704386D01*
X-28757375Y-20687491D01*
X-28519690Y-20635786D01*
X-28291782Y-20550781D01*
X-28288685Y-20549090D01*
X-28081390Y-20435898D01*
X-28081386Y-20435896D01*
X-28078292Y-20434206D01*
X-27883565Y-20288435D01*
X-27711565Y-20116435D01*
X-27565794Y-19921708D01*
X-27449219Y-19708218D01*
X-27364214Y-19480310D01*
X-27312509Y-19242625D01*
X-27295728Y-19008003D01*
X-27295522Y-19005797D01*
X-27294345Y-19000718D01*
X-27294344Y-19000000D01*
X-27295588Y-18994545D01*
X-27297020Y-18988266D01*
X-27299500Y-18966248D01*
X-27299500Y-17034281D01*
X-27296943Y-17011926D01*
X-27295612Y-17006183D01*
X-27294345Y-17000718D01*
X-27294344Y-17000000D01*
X-27295486Y-16994993D01*
X-27295614Y-16993599D01*
X-27296370Y-16983028D01*
X-27312509Y-16757375D01*
X-27364214Y-16519690D01*
X-27449219Y-16291782D01*
X-27565794Y-16078292D01*
X-27711565Y-15883565D01*
X-27883565Y-15711565D01*
X-28078292Y-15565794D01*
X-28081386Y-15564104D01*
X-28081390Y-15564102D01*
X-28288685Y-15450910D01*
X-28288686Y-15450909D01*
X-28291782Y-15449219D01*
X-28519690Y-15364214D01*
X-28757375Y-15312509D01*
X-28920762Y-15300823D01*
X-28991997Y-15295728D01*
X-28994203Y-15295522D01*
X-28999282Y-15294345D01*
X-29000000Y-15294344D01*
X-29005452Y-15295588D01*
X-29005455Y-15295588D01*
X-29011734Y-15297020D01*
X-29033752Y-15299500D01*
X-38465983Y-15299500D01*
X-38488169Y-15296982D01*
X-38488187Y-15296978D01*
X-38499641Y-15294344D01*
X-38510516Y-15296805D01*
X-38521662Y-15296785D01*
X-38521661Y-15296307D01*
X-38531611Y-15297027D01*
X-38694350Y-15284297D01*
X-38709600Y-15281896D01*
X-38767049Y-15268191D01*
X-38891683Y-15238456D01*
X-38906377Y-15233713D01*
X-39079500Y-15162484D01*
X-39093279Y-15155513D01*
X-39253218Y-15058231D01*
X-39265744Y-15049202D01*
X-39408603Y-14928241D01*
X-39419573Y-14917375D01*
X-39541891Y-14775664D01*
X-39551035Y-14763228D01*
X-39649835Y-14604212D01*
X-39656932Y-14590508D01*
X-39720273Y-14440615D01*
X-39722671Y-14431134D01*
X-39723238Y-14431322D01*
X-39725172Y-14425485D01*
X-39726123Y-14421277D01*
X-39726897Y-14419151D01*
X-39727809Y-14409648D01*
X-39729378Y-14407055D01*
X-39729755Y-14404048D01*
X-39734933Y-14396025D01*
X-39734934Y-14396021D01*
X-39735278Y-14395489D01*
X-39745557Y-14374455D01*
X-40138366Y-13249887D01*
X-40139276Y-13247157D01*
X-40508752Y-12081633D01*
X-40509581Y-12078878D01*
X-40768760Y-11170440D01*
X37136901Y-11170440D01*
X37137816Y-11177437D01*
X37137816Y-11177438D01*
X37139082Y-11187120D01*
X37153633Y-11298394D01*
X37156471Y-11304845D01*
X37156472Y-11304847D01*
X37163458Y-11320724D01*
X37205605Y-11416510D01*
X37247122Y-11465901D01*
X37284100Y-11509892D01*
X37284103Y-11509894D01*
X37288639Y-11515291D01*
X37396060Y-11586796D01*
X37402788Y-11588898D01*
X37402790Y-11588899D01*
X37457647Y-11606037D01*
X37519233Y-11625278D01*
X37583744Y-11626461D01*
X37641202Y-11627514D01*
X37641204Y-11627514D01*
X37648255Y-11627643D01*
X37655058Y-11625788D01*
X37655060Y-11625788D01*
X37696828Y-11614400D01*
X37772755Y-11593700D01*
X37882724Y-11526179D01*
X37969322Y-11430507D01*
X38025588Y-11314375D01*
X38046997Y-11187120D01*
X38047133Y-11176000D01*
X38028839Y-11048259D01*
X37975428Y-10930788D01*
X37891193Y-10833028D01*
X37885276Y-10829193D01*
X37885274Y-10829191D01*
X37788824Y-10766677D01*
X37782906Y-10762841D01*
X37776150Y-10760821D01*
X37776149Y-10760820D01*
X37733335Y-10748016D01*
X37659273Y-10725866D01*
X37582644Y-10725398D01*
X37537282Y-10725121D01*
X37530231Y-10725078D01*
X37523454Y-10727015D01*
X37523453Y-10727015D01*
X37412935Y-10758601D01*
X37412933Y-10758602D01*
X37406155Y-10760539D01*
X37297019Y-10829399D01*
X37211596Y-10926122D01*
X37156754Y-11042932D01*
X37136901Y-11170440D01*
X-40768760Y-11170440D01*
X-40845016Y-10903159D01*
X-40845765Y-10900381D01*
X-41146895Y-9715396D01*
X-41147563Y-9712597D01*
X-41186408Y-9538711D01*
X-41348579Y-8812781D01*
X-41414123Y-8519385D01*
X-41414710Y-8516569D01*
X-41477852Y-8189528D01*
X-41646501Y-7316026D01*
X-41646997Y-7313236D01*
X-41657248Y-7250375D01*
X-41680721Y-7106440D01*
X-39698099Y-7106440D01*
X-39697184Y-7113437D01*
X-39697184Y-7113438D01*
X-39695918Y-7123120D01*
X-39681367Y-7234394D01*
X-39678529Y-7240845D01*
X-39678528Y-7240847D01*
X-39632236Y-7346054D01*
X-39629395Y-7352510D01*
X-39601463Y-7385739D01*
X-39550900Y-7445892D01*
X-39550897Y-7445894D01*
X-39546361Y-7451291D01*
X-39438940Y-7522796D01*
X-39432212Y-7524898D01*
X-39432210Y-7524899D01*
X-39377354Y-7542037D01*
X-39315767Y-7561278D01*
X-39251256Y-7562461D01*
X-39193798Y-7563514D01*
X-39193796Y-7563514D01*
X-39186745Y-7563643D01*
X-39179942Y-7561788D01*
X-39179940Y-7561788D01*
X-39138172Y-7550400D01*
X-39062245Y-7529700D01*
X-38952276Y-7462179D01*
X-38945958Y-7455199D01*
X-38870410Y-7371735D01*
X-38870410Y-7371734D01*
X-38865678Y-7366507D01*
X-38809412Y-7250375D01*
X-38788003Y-7123120D01*
X-38787867Y-7112000D01*
X-38806161Y-6984259D01*
X-38859572Y-6866788D01*
X-38943807Y-6769028D01*
X-38949724Y-6765193D01*
X-38949726Y-6765191D01*
X-39046176Y-6702677D01*
X-39052094Y-6698841D01*
X-39058850Y-6696821D01*
X-39058851Y-6696820D01*
X-39101665Y-6684016D01*
X-39175727Y-6661866D01*
X-39252356Y-6661398D01*
X-39297718Y-6661121D01*
X-39304769Y-6661078D01*
X-39311546Y-6663015D01*
X-39311547Y-6663015D01*
X-39422065Y-6694601D01*
X-39422067Y-6694602D01*
X-39428845Y-6696539D01*
X-39537981Y-6765399D01*
X-39623404Y-6862122D01*
X-39678246Y-6978932D01*
X-39698099Y-7106440D01*
X-41680721Y-7106440D01*
X-41843789Y-6106536D01*
X-41844210Y-6103693D01*
X-41890784Y-5754501D01*
X-2850500Y-5754501D01*
X-2850499Y-7445498D01*
X-2850152Y-7448415D01*
X-2850152Y-7448416D01*
X-2849994Y-7449740D01*
X-2847393Y-7471611D01*
X-2802101Y-7573577D01*
X-2723139Y-7652402D01*
X-2714779Y-7656098D01*
X-2659470Y-7680550D01*
X-2613893Y-7721372D01*
X-2600500Y-7771096D01*
X-2600500Y-8192516D01*
X-2597726Y-8215443D01*
X-2587938Y-8296320D01*
X-2585276Y-8318320D01*
X-2525345Y-8476923D01*
X-2521965Y-8481840D01*
X-2521964Y-8481843D01*
X-2447812Y-8589733D01*
X-2429312Y-8616651D01*
X-2302721Y-8729440D01*
X-2152881Y-8808776D01*
X-2075902Y-8828112D01*
X-1994231Y-8848627D01*
X-1994228Y-8848627D01*
X-1988441Y-8850081D01*
X-1902841Y-8850529D01*
X-1824861Y-8850938D01*
X-1824859Y-8850938D01*
X-1818895Y-8850969D01*
X-1813099Y-8849577D01*
X-1813095Y-8849577D01*
X-1705703Y-8823793D01*
X-1654032Y-8811388D01*
X-1578701Y-8772507D01*
X-1508675Y-8736364D01*
X-1508673Y-8736362D01*
X-1503369Y-8733625D01*
X-1375604Y-8622169D01*
X-1360453Y-8600612D01*
X-1281544Y-8488335D01*
X-1281544Y-8488334D01*
X-1278113Y-8483453D01*
X-1216524Y-8325487D01*
X-1211904Y-8290398D01*
X-1199923Y-8199387D01*
X-1199500Y-8196174D01*
X-1199500Y-7771123D01*
X-1180593Y-7712932D01*
X-1140689Y-7680647D01*
X-1076423Y-7652101D01*
X-1020094Y-7595674D01*
X-965602Y-7567849D01*
X-905162Y-7577368D01*
X-880087Y-7595553D01*
X-823139Y-7652402D01*
X-814779Y-7656098D01*
X-759470Y-7680550D01*
X-713893Y-7721372D01*
X-700500Y-7771096D01*
X-700500Y-8170516D01*
X-698199Y-8189528D01*
X-687468Y-8278203D01*
X-685276Y-8296320D01*
X-625345Y-8454923D01*
X-621965Y-8459840D01*
X-621964Y-8459843D01*
X-582977Y-8516569D01*
X-529312Y-8594651D01*
X-402721Y-8707440D01*
X-397451Y-8710230D01*
X-397450Y-8710231D01*
X-368664Y-8725472D01*
X-252881Y-8786776D01*
X-176416Y-8805983D01*
X-94231Y-8826627D01*
X-94228Y-8826627D01*
X-88441Y-8828081D01*
X-2841Y-8828529D01*
X75139Y-8828938D01*
X75141Y-8828938D01*
X81105Y-8828969D01*
X86901Y-8827577D01*
X86905Y-8827577D01*
X194297Y-8801793D01*
X245968Y-8789388D01*
X356708Y-8732231D01*
X391325Y-8714364D01*
X391327Y-8714362D01*
X396631Y-8711625D01*
X524396Y-8600169D01*
X621887Y-8461453D01*
X672730Y-8331048D01*
X681308Y-8309048D01*
X681308Y-8309047D01*
X683476Y-8303487D01*
X686611Y-8279678D01*
X700077Y-8177387D01*
X700500Y-8174174D01*
X700500Y-7771123D01*
X719407Y-7712932D01*
X759311Y-7680647D01*
X823577Y-7652101D01*
X902402Y-7573139D01*
X947516Y-7471093D01*
X950500Y-7445499D01*
X950499Y-5754502D01*
X950152Y-5751584D01*
X948271Y-5735769D01*
X948271Y-5735768D01*
X947393Y-5728389D01*
X902101Y-5626423D01*
X823139Y-5547598D01*
X721093Y-5502484D01*
X695499Y-5499500D01*
X8628Y-5499500D01*
X-695498Y-5499501D01*
X-698415Y-5499848D01*
X-698416Y-5499848D01*
X-714231Y-5501729D01*
X-714232Y-5501729D01*
X-721611Y-5502607D01*
X-728402Y-5505623D01*
X-728404Y-5505624D01*
X-786007Y-5531211D01*
X-823577Y-5547899D01*
X-830035Y-5554369D01*
X-830036Y-5554369D01*
X-879906Y-5604326D01*
X-934398Y-5632151D01*
X-994838Y-5622632D01*
X-1019913Y-5604447D01*
X-1070392Y-5554056D01*
X-1070391Y-5554056D01*
X-1076861Y-5547598D01*
X-1178907Y-5502484D01*
X-1204501Y-5499500D01*
X-1891372Y-5499500D01*
X-2595498Y-5499501D01*
X-2598415Y-5499848D01*
X-2598416Y-5499848D01*
X-2614231Y-5501729D01*
X-2614232Y-5501729D01*
X-2621611Y-5502607D01*
X-2628402Y-5505623D01*
X-2628404Y-5505624D01*
X-2686007Y-5531211D01*
X-2723577Y-5547899D01*
X-2802402Y-5626861D01*
X-2847516Y-5728907D01*
X-2850500Y-5754501D01*
X-41890784Y-5754501D01*
X-42005851Y-4891780D01*
X-42006190Y-4888923D01*
X-42016007Y-4794440D01*
X-23455099Y-4794440D01*
X-23454184Y-4801437D01*
X-23454184Y-4801438D01*
X-23452918Y-4811120D01*
X-23438367Y-4922394D01*
X-23435529Y-4928845D01*
X-23435528Y-4928847D01*
X-23428542Y-4944724D01*
X-23386395Y-5040510D01*
X-23344878Y-5089900D01*
X-23307900Y-5133892D01*
X-23307897Y-5133894D01*
X-23303361Y-5139291D01*
X-23195940Y-5210796D01*
X-23189212Y-5212898D01*
X-23189210Y-5212899D01*
X-23134353Y-5230037D01*
X-23072767Y-5249278D01*
X-23008256Y-5250461D01*
X-22950798Y-5251514D01*
X-22950796Y-5251514D01*
X-22943745Y-5251643D01*
X-22936942Y-5249788D01*
X-22936940Y-5249788D01*
X-22895172Y-5238400D01*
X-22819245Y-5217700D01*
X-22709276Y-5150179D01*
X-22622678Y-5054507D01*
X-22566412Y-4938375D01*
X-22545003Y-4811120D01*
X-22544867Y-4800000D01*
X-22563161Y-4672259D01*
X-22616572Y-4554788D01*
X-22700807Y-4457028D01*
X-22706724Y-4453193D01*
X-22706726Y-4453191D01*
X-22803176Y-4390677D01*
X-22809094Y-4386841D01*
X-22815850Y-4384821D01*
X-22815851Y-4384820D01*
X-22858665Y-4372016D01*
X-22932727Y-4349866D01*
X-23009356Y-4349398D01*
X-23054718Y-4349121D01*
X-23061769Y-4349078D01*
X-23068546Y-4351015D01*
X-23068547Y-4351015D01*
X-23179065Y-4382601D01*
X-23179067Y-4382602D01*
X-23185845Y-4384539D01*
X-23294981Y-4453399D01*
X-23380404Y-4550122D01*
X-23435246Y-4666932D01*
X-23455099Y-4794440D01*
X-42016007Y-4794440D01*
X-42132544Y-3672828D01*
X-42132800Y-3669962D01*
X-42141717Y-3550440D01*
X-38428099Y-3550440D01*
X-38427184Y-3557437D01*
X-38427184Y-3557438D01*
X-38426223Y-3564788D01*
X-38411367Y-3678394D01*
X-38408529Y-3684845D01*
X-38408528Y-3684847D01*
X-38382083Y-3744948D01*
X-38359395Y-3796510D01*
X-38338708Y-3821120D01*
X-38280900Y-3889892D01*
X-38280897Y-3889894D01*
X-38276361Y-3895291D01*
X-38168940Y-3966796D01*
X-38162212Y-3968898D01*
X-38162210Y-3968899D01*
X-38107354Y-3986037D01*
X-38045767Y-4005278D01*
X-37981256Y-4006460D01*
X-37923798Y-4007514D01*
X-37923796Y-4007514D01*
X-37916745Y-4007643D01*
X-37909942Y-4005788D01*
X-37909940Y-4005788D01*
X-37868172Y-3994400D01*
X-37792245Y-3973700D01*
X-37682276Y-3906179D01*
X-37631233Y-3849788D01*
X-37600410Y-3815735D01*
X-37600410Y-3815734D01*
X-37595678Y-3810507D01*
X-37592739Y-3804440D01*
X-37158099Y-3804440D01*
X-37157184Y-3811437D01*
X-37157184Y-3811438D01*
X-37156365Y-3817700D01*
X-37141367Y-3932394D01*
X-37138529Y-3938845D01*
X-37138528Y-3938847D01*
X-37109241Y-4005407D01*
X-37089395Y-4050510D01*
X-37047878Y-4099901D01*
X-37010900Y-4143892D01*
X-37010897Y-4143894D01*
X-37006361Y-4149291D01*
X-36898940Y-4220796D01*
X-36892212Y-4222898D01*
X-36892210Y-4222899D01*
X-36837353Y-4240037D01*
X-36775767Y-4259278D01*
X-36711256Y-4260460D01*
X-36653798Y-4261514D01*
X-36653796Y-4261514D01*
X-36646745Y-4261643D01*
X-36639942Y-4259788D01*
X-36639940Y-4259788D01*
X-36598172Y-4248400D01*
X-36522245Y-4227700D01*
X-36412276Y-4160179D01*
X-36325678Y-4064507D01*
X-36278337Y-3966796D01*
X-36272488Y-3954724D01*
X-36272488Y-3954723D01*
X-36269412Y-3948375D01*
X-36248003Y-3821120D01*
X-36247867Y-3810000D01*
X-36248663Y-3804440D01*
X-20255099Y-3804440D01*
X-20254184Y-3811437D01*
X-20254184Y-3811438D01*
X-20253365Y-3817700D01*
X-20238367Y-3932394D01*
X-20235529Y-3938845D01*
X-20235528Y-3938847D01*
X-20206241Y-4005407D01*
X-20186395Y-4050510D01*
X-20144878Y-4099901D01*
X-20107900Y-4143892D01*
X-20107897Y-4143894D01*
X-20103361Y-4149291D01*
X-19995940Y-4220796D01*
X-19989212Y-4222898D01*
X-19989210Y-4222899D01*
X-19934353Y-4240037D01*
X-19872767Y-4259278D01*
X-19808256Y-4260460D01*
X-19750798Y-4261514D01*
X-19750796Y-4261514D01*
X-19743745Y-4261643D01*
X-19736942Y-4259788D01*
X-19736940Y-4259788D01*
X-19695172Y-4248400D01*
X-19619245Y-4227700D01*
X-19509276Y-4160179D01*
X-19422678Y-4064507D01*
X-19375337Y-3966796D01*
X-19369488Y-3954724D01*
X-19369488Y-3954723D01*
X-19366412Y-3948375D01*
X-19345003Y-3821120D01*
X-19344867Y-3810000D01*
X-19363161Y-3682259D01*
X-19416572Y-3564788D01*
X-19484455Y-3486005D01*
X-19496202Y-3472372D01*
X-19496203Y-3472371D01*
X-19500807Y-3467028D01*
X-19506724Y-3463193D01*
X-19506726Y-3463191D01*
X-19578688Y-3416549D01*
X-19609094Y-3396841D01*
X-19615850Y-3394821D01*
X-19615851Y-3394820D01*
X-19617122Y-3394440D01*
X-14855099Y-3394440D01*
X-14854184Y-3401437D01*
X-14854184Y-3401438D01*
X-14853240Y-3408658D01*
X-14838367Y-3522394D01*
X-14835529Y-3528845D01*
X-14835528Y-3528847D01*
X-14817028Y-3570891D01*
X-14786395Y-3640510D01*
X-14755779Y-3676932D01*
X-14707900Y-3733892D01*
X-14707897Y-3733894D01*
X-14703361Y-3739291D01*
X-14627100Y-3790054D01*
X-14602829Y-3806210D01*
X-14595940Y-3810796D01*
X-14589212Y-3812898D01*
X-14589210Y-3812899D01*
X-14550825Y-3824891D01*
X-14472767Y-3849278D01*
X-14408256Y-3850460D01*
X-14350798Y-3851514D01*
X-14350796Y-3851514D01*
X-14343745Y-3851643D01*
X-14336942Y-3849788D01*
X-14336940Y-3849788D01*
X-14295172Y-3838400D01*
X-14219245Y-3817700D01*
X-14109276Y-3750179D01*
X-14094534Y-3733892D01*
X-14027410Y-3659735D01*
X-14027410Y-3659734D01*
X-14022678Y-3654507D01*
X-13980339Y-3567120D01*
X-13969488Y-3544724D01*
X-13969488Y-3544723D01*
X-13966412Y-3538375D01*
X-13946711Y-3421272D01*
X-13945637Y-3414891D01*
X-13945637Y-3414886D01*
X-13945003Y-3411120D01*
X-13944867Y-3400000D01*
X-13945663Y-3394440D01*
X-12455099Y-3394440D01*
X-12454184Y-3401437D01*
X-12454184Y-3401438D01*
X-12453240Y-3408658D01*
X-12438367Y-3522394D01*
X-12435529Y-3528845D01*
X-12435528Y-3528847D01*
X-12417028Y-3570891D01*
X-12386395Y-3640510D01*
X-12355779Y-3676932D01*
X-12307900Y-3733892D01*
X-12307897Y-3733894D01*
X-12303361Y-3739291D01*
X-12227100Y-3790054D01*
X-12202829Y-3806210D01*
X-12195940Y-3810796D01*
X-12189212Y-3812898D01*
X-12189210Y-3812899D01*
X-12150825Y-3824891D01*
X-12072767Y-3849278D01*
X-12008256Y-3850460D01*
X-11950798Y-3851514D01*
X-11950796Y-3851514D01*
X-11943745Y-3851643D01*
X-11936942Y-3849788D01*
X-11936940Y-3849788D01*
X-11895172Y-3838400D01*
X-11819245Y-3817700D01*
X-11709276Y-3750179D01*
X-11694534Y-3733892D01*
X-11627410Y-3659735D01*
X-11627410Y-3659734D01*
X-11622678Y-3654507D01*
X-11580339Y-3567120D01*
X-11569488Y-3544724D01*
X-11569488Y-3544723D01*
X-11566412Y-3538375D01*
X-11546711Y-3421272D01*
X-11545637Y-3414891D01*
X-11545637Y-3414886D01*
X-11545003Y-3411120D01*
X-11544867Y-3400000D01*
X-11563161Y-3272259D01*
X-11593453Y-3205636D01*
X-11613651Y-3161212D01*
X-11613652Y-3161211D01*
X-11616572Y-3154788D01*
X-11700807Y-3057028D01*
X-11706724Y-3053193D01*
X-11706726Y-3053191D01*
X-11803176Y-2990677D01*
X-11809094Y-2986841D01*
X-11815850Y-2984821D01*
X-11815851Y-2984820D01*
X-11858665Y-2972016D01*
X-11932727Y-2949866D01*
X-12009356Y-2949398D01*
X-12054718Y-2949121D01*
X-12061769Y-2949078D01*
X-12068546Y-2951015D01*
X-12068547Y-2951015D01*
X-12179065Y-2982601D01*
X-12179067Y-2982602D01*
X-12185845Y-2984539D01*
X-12294981Y-3053399D01*
X-12380404Y-3150122D01*
X-12435246Y-3266932D01*
X-12455099Y-3394440D01*
X-13945663Y-3394440D01*
X-13963161Y-3272259D01*
X-13993453Y-3205636D01*
X-14013651Y-3161212D01*
X-14013652Y-3161211D01*
X-14016572Y-3154788D01*
X-14100807Y-3057028D01*
X-14106724Y-3053193D01*
X-14106726Y-3053191D01*
X-14203176Y-2990677D01*
X-14209094Y-2986841D01*
X-14215850Y-2984821D01*
X-14215851Y-2984820D01*
X-14258665Y-2972016D01*
X-14332727Y-2949866D01*
X-14409356Y-2949398D01*
X-14454718Y-2949121D01*
X-14461769Y-2949078D01*
X-14468546Y-2951015D01*
X-14468547Y-2951015D01*
X-14579065Y-2982601D01*
X-14579067Y-2982602D01*
X-14585845Y-2984539D01*
X-14694981Y-3053399D01*
X-14780404Y-3150122D01*
X-14835246Y-3266932D01*
X-14855099Y-3394440D01*
X-19617122Y-3394440D01*
X-19658665Y-3382016D01*
X-19732727Y-3359866D01*
X-19809356Y-3359398D01*
X-19854718Y-3359121D01*
X-19861769Y-3359078D01*
X-19868546Y-3361015D01*
X-19868547Y-3361015D01*
X-19979065Y-3392601D01*
X-19979067Y-3392602D01*
X-19985845Y-3394539D01*
X-20094981Y-3463399D01*
X-20180404Y-3560122D01*
X-20235246Y-3676932D01*
X-20255099Y-3804440D01*
X-36248663Y-3804440D01*
X-36266161Y-3682259D01*
X-36319572Y-3564788D01*
X-36331595Y-3550834D01*
X-36355258Y-3494410D01*
X-36341236Y-3434854D01*
X-36331112Y-3421272D01*
X-36330411Y-3420233D01*
X-36325678Y-3415004D01*
X-36321512Y-3406407D01*
X-36272488Y-3305221D01*
X-36272488Y-3305220D01*
X-36269412Y-3298872D01*
X-36249080Y-3178021D01*
X-36248637Y-3175388D01*
X-36248637Y-3175383D01*
X-36248003Y-3171617D01*
X-36247867Y-3160497D01*
X-36266161Y-3032756D01*
X-36288965Y-2982601D01*
X-36316651Y-2921709D01*
X-36316652Y-2921708D01*
X-36319572Y-2915285D01*
X-36403807Y-2817525D01*
X-36409724Y-2813690D01*
X-36409726Y-2813688D01*
X-36506176Y-2751174D01*
X-36512094Y-2747338D01*
X-36518850Y-2745318D01*
X-36518851Y-2745317D01*
X-36571378Y-2729608D01*
X-36635727Y-2710363D01*
X-36712356Y-2709895D01*
X-36757718Y-2709618D01*
X-36764769Y-2709575D01*
X-36771546Y-2711512D01*
X-36771547Y-2711512D01*
X-36882065Y-2743098D01*
X-36882067Y-2743099D01*
X-36888845Y-2745036D01*
X-36997981Y-2813896D01*
X-37083404Y-2910619D01*
X-37138246Y-3027429D01*
X-37158099Y-3154937D01*
X-37157184Y-3161934D01*
X-37157184Y-3161935D01*
X-37155918Y-3171617D01*
X-37141367Y-3282891D01*
X-37138529Y-3289342D01*
X-37138528Y-3289344D01*
X-37092235Y-3394554D01*
X-37092233Y-3394557D01*
X-37089395Y-3401007D01*
X-37084860Y-3406401D01*
X-37084857Y-3406407D01*
X-37072837Y-3420706D01*
X-37049866Y-3477416D01*
X-37064616Y-3536797D01*
X-37074415Y-3549943D01*
X-37083404Y-3560122D01*
X-37138246Y-3676932D01*
X-37158099Y-3804440D01*
X-37592739Y-3804440D01*
X-37539412Y-3694375D01*
X-37518003Y-3567120D01*
X-37517867Y-3556000D01*
X-37536161Y-3428259D01*
X-37566735Y-3361015D01*
X-37586651Y-3317212D01*
X-37586652Y-3317211D01*
X-37589572Y-3310788D01*
X-37673807Y-3213028D01*
X-37679724Y-3209193D01*
X-37679726Y-3209191D01*
X-37776176Y-3146677D01*
X-37782094Y-3142841D01*
X-37788850Y-3140821D01*
X-37788851Y-3140820D01*
X-37831665Y-3128016D01*
X-37905727Y-3105866D01*
X-37982356Y-3105398D01*
X-38027718Y-3105121D01*
X-38034769Y-3105078D01*
X-38041546Y-3107015D01*
X-38041547Y-3107015D01*
X-38152065Y-3138601D01*
X-38152067Y-3138602D01*
X-38158845Y-3140539D01*
X-38164809Y-3144302D01*
X-38168573Y-3146677D01*
X-38267981Y-3209399D01*
X-38353404Y-3306122D01*
X-38408246Y-3422932D01*
X-38428099Y-3550440D01*
X-42141717Y-3550440D01*
X-42211586Y-2613893D01*
X-42223763Y-2450672D01*
X-42223934Y-2447811D01*
X-42228254Y-2352711D01*
X-42254191Y-1781825D01*
X-42254617Y-1772440D01*
X-31951099Y-1772440D01*
X-31950184Y-1779437D01*
X-31950184Y-1779438D01*
X-31948918Y-1789120D01*
X-31934367Y-1900394D01*
X-31931529Y-1906845D01*
X-31931528Y-1906847D01*
X-31895626Y-1988441D01*
X-31882395Y-2018510D01*
X-31840878Y-2067901D01*
X-31803900Y-2111892D01*
X-31803897Y-2111894D01*
X-31799361Y-2117291D01*
X-31691940Y-2188796D01*
X-31685212Y-2190898D01*
X-31685210Y-2190899D01*
X-31630354Y-2208037D01*
X-31568767Y-2227278D01*
X-31504256Y-2228460D01*
X-31446798Y-2229514D01*
X-31446796Y-2229514D01*
X-31439745Y-2229643D01*
X-31432942Y-2227788D01*
X-31432940Y-2227788D01*
X-31391172Y-2216400D01*
X-31315245Y-2195700D01*
X-31205276Y-2128179D01*
X-31118678Y-2032507D01*
X-31062412Y-1916375D01*
X-31041003Y-1789120D01*
X-31040867Y-1778000D01*
X-31059161Y-1650259D01*
X-31112572Y-1532788D01*
X-31196807Y-1435028D01*
X-31202724Y-1431193D01*
X-31202726Y-1431191D01*
X-31281550Y-1380101D01*
X-31305094Y-1364841D01*
X-31311850Y-1362821D01*
X-31311851Y-1362820D01*
X-31354665Y-1350016D01*
X-31428727Y-1327866D01*
X-31505356Y-1327398D01*
X-31550718Y-1327121D01*
X-31557769Y-1327078D01*
X-31564546Y-1329015D01*
X-31564547Y-1329015D01*
X-31675065Y-1360601D01*
X-31675067Y-1360602D01*
X-31681845Y-1362539D01*
X-31790981Y-1431399D01*
X-31876404Y-1528122D01*
X-31931246Y-1644932D01*
X-31951099Y-1772440D01*
X-42254617Y-1772440D01*
X-42279423Y-1226443D01*
X-42279512Y-1223567D01*
X-42291424Y-494440D01*
X-28955099Y-494440D01*
X-28954184Y-501437D01*
X-28954184Y-501438D01*
X-28952918Y-511120D01*
X-28938367Y-622394D01*
X-28935529Y-628845D01*
X-28935528Y-628847D01*
X-28894939Y-721093D01*
X-28886395Y-740510D01*
X-28844878Y-789900D01*
X-28807900Y-833892D01*
X-28807897Y-833894D01*
X-28803361Y-839291D01*
X-28695940Y-910796D01*
X-28689212Y-912898D01*
X-28689210Y-912899D01*
X-28634354Y-930037D01*
X-28572767Y-949278D01*
X-28508256Y-950461D01*
X-28450798Y-951514D01*
X-28450796Y-951514D01*
X-28443745Y-951643D01*
X-28436942Y-949788D01*
X-28436940Y-949788D01*
X-28380492Y-934398D01*
X-28319245Y-917700D01*
X-28209276Y-850179D01*
X-28185197Y-823577D01*
X-28127410Y-759735D01*
X-28127410Y-759734D01*
X-28122678Y-754507D01*
X-28066412Y-638375D01*
X-28047814Y-527828D01*
X-28045637Y-514891D01*
X-28045637Y-514886D01*
X-28045003Y-511120D01*
X-28044867Y-500000D01*
X-28063161Y-372259D01*
X-28116572Y-254788D01*
X-28200807Y-157028D01*
X-28206724Y-153193D01*
X-28206726Y-153191D01*
X-28303176Y-90677D01*
X-28309094Y-86841D01*
X-28315850Y-84821D01*
X-28315851Y-84820D01*
X-28358665Y-72016D01*
X-28432727Y-49866D01*
X-28509356Y-49398D01*
X-28554718Y-49121D01*
X-28561769Y-49078D01*
X-28568546Y-51015D01*
X-28568547Y-51015D01*
X-28679065Y-82601D01*
X-28679067Y-82602D01*
X-28685845Y-84539D01*
X-28794981Y-153399D01*
X-28880404Y-250122D01*
X-28935246Y-366932D01*
X-28955099Y-494440D01*
X-42291424Y-494440D01*
X-42292125Y-451514D01*
X-42298959Y-33236D01*
X-42296786Y-12538D01*
X-42296788Y-10894D01*
X-42294344Y-237D01*
X-42294372Y-112D01*
X-42294344Y12D01*
X-42295610Y5560D01*
X-20055099Y5560D01*
X-20054184Y-1437D01*
X-20054184Y-1438D01*
X-20052918Y-11120D01*
X-20038367Y-122394D01*
X-20035529Y-128845D01*
X-20035528Y-128847D01*
X-19989236Y-234054D01*
X-19986395Y-240510D01*
X-19968993Y-261212D01*
X-19907900Y-333892D01*
X-19907897Y-333894D01*
X-19903361Y-339291D01*
X-19795940Y-410796D01*
X-19789212Y-412898D01*
X-19789210Y-412899D01*
X-19734354Y-430037D01*
X-19672767Y-449278D01*
X-19608256Y-450460D01*
X-19550798Y-451514D01*
X-19550796Y-451514D01*
X-19543745Y-451643D01*
X-19536942Y-449788D01*
X-19536940Y-449788D01*
X-19495172Y-438400D01*
X-19419245Y-417700D01*
X-19309276Y-350179D01*
X-19222678Y-254507D01*
X-19166412Y-138375D01*
X-19156777Y-81105D01*
X-8900969Y-81105D01*
X-8899577Y-86901D01*
X-8899577Y-86905D01*
X-8882741Y-157028D01*
X-8861388Y-245968D01*
X-8855950Y-256504D01*
X-8795356Y-373902D01*
X-8783625Y-396631D01*
X-8672169Y-524396D01*
X-8667287Y-527827D01*
X-8667286Y-527828D01*
X-8542679Y-615403D01*
X-8533453Y-621887D01*
X-8375487Y-683476D01*
X-8369572Y-684255D01*
X-8369571Y-684255D01*
X-8262543Y-698345D01*
X-8246174Y-700500D01*
X-7771123Y-700500D01*
X-7712932Y-719407D01*
X-7680647Y-759311D01*
X-7652101Y-823577D01*
X-7645631Y-830035D01*
X-7645631Y-830036D01*
X-7595674Y-879906D01*
X-7567849Y-934398D01*
X-7577368Y-994838D01*
X-7595553Y-1019913D01*
X-7618987Y-1043388D01*
X-7652402Y-1076861D01*
X-7656098Y-1085221D01*
X-7680550Y-1140530D01*
X-7721372Y-1186107D01*
X-7771096Y-1199500D01*
X-8192516Y-1199500D01*
X-8196011Y-1199923D01*
X-8312398Y-1214007D01*
X-8312401Y-1214008D01*
X-8318320Y-1214724D01*
X-8476923Y-1274655D01*
X-8481840Y-1278035D01*
X-8481843Y-1278036D01*
X-8554345Y-1327866D01*
X-8616651Y-1370688D01*
X-8729440Y-1497279D01*
X-8732230Y-1502549D01*
X-8732231Y-1502550D01*
X-8748135Y-1532588D01*
X-8808776Y-1647119D01*
X-8810230Y-1652909D01*
X-8841651Y-1778000D01*
X-8850081Y-1811559D01*
X-8850969Y-1981105D01*
X-8849577Y-1986901D01*
X-8849577Y-1986905D01*
X-8840152Y-2026162D01*
X-8811388Y-2145968D01*
X-8733625Y-2296631D01*
X-8622169Y-2424396D01*
X-8617287Y-2427827D01*
X-8617286Y-2427828D01*
X-8552231Y-2473549D01*
X-8483453Y-2521887D01*
X-8325487Y-2583476D01*
X-8319572Y-2584255D01*
X-8319571Y-2584255D01*
X-8212543Y-2598345D01*
X-8196174Y-2600500D01*
X-7771123Y-2600500D01*
X-7712932Y-2619407D01*
X-7680647Y-2659311D01*
X-7652101Y-2723577D01*
X-7573139Y-2802402D01*
X-7471093Y-2847516D01*
X-7445499Y-2850500D01*
X-6610489Y-2850500D01*
X-5754502Y-2850499D01*
X-5751585Y-2850152D01*
X-5751584Y-2850152D01*
X-5735769Y-2848271D01*
X-5735768Y-2848271D01*
X-5728389Y-2847393D01*
X-5721598Y-2844377D01*
X-5721596Y-2844376D01*
X-5652509Y-2813688D01*
X-5626423Y-2802101D01*
X-5547598Y-2723139D01*
X-5502484Y-2621093D01*
X-5499500Y-2595499D01*
X-5499501Y-1204502D01*
X-5499501Y-1204501D01*
X5499500Y-1204501D01*
X5499501Y-2595498D01*
X5502607Y-2621611D01*
X5547899Y-2723577D01*
X5626861Y-2802402D01*
X5728907Y-2847516D01*
X5754501Y-2850500D01*
X6589511Y-2850500D01*
X7445498Y-2850499D01*
X7448415Y-2850152D01*
X7448416Y-2850152D01*
X7464231Y-2848271D01*
X7464232Y-2848271D01*
X7471611Y-2847393D01*
X7478402Y-2844377D01*
X7478404Y-2844376D01*
X7547491Y-2813688D01*
X7573577Y-2802101D01*
X7652402Y-2723139D01*
X7680550Y-2659470D01*
X7721372Y-2613893D01*
X7771096Y-2600500D01*
X7942516Y-2600500D01*
X7983842Y-2595499D01*
X8062398Y-2585993D01*
X8062401Y-2585992D01*
X8068320Y-2585276D01*
X8226923Y-2525345D01*
X8231840Y-2521965D01*
X8231843Y-2521964D01*
X8361733Y-2432692D01*
X8366651Y-2429312D01*
X8479440Y-2302721D01*
X8482665Y-2296631D01*
X8519115Y-2227788D01*
X8558776Y-2152881D01*
X8600081Y-1988441D01*
X8600969Y-1818895D01*
X8593821Y-1789120D01*
X8562781Y-1659835D01*
X8561388Y-1654032D01*
X8499695Y-1534504D01*
X8486364Y-1508675D01*
X8486362Y-1508673D01*
X8483625Y-1503369D01*
X8372169Y-1375604D01*
X8353580Y-1362539D01*
X8238335Y-1281544D01*
X8238334Y-1281544D01*
X8233453Y-1278113D01*
X8097224Y-1224999D01*
X8081048Y-1218692D01*
X8081047Y-1218692D01*
X8075487Y-1216524D01*
X8069572Y-1215745D01*
X8069571Y-1215745D01*
X7949387Y-1199923D01*
X7946174Y-1199500D01*
X7771123Y-1199500D01*
X7712932Y-1180593D01*
X7680647Y-1140689D01*
X7652101Y-1076423D01*
X7595674Y-1020094D01*
X7567849Y-965602D01*
X7577368Y-905162D01*
X7595553Y-880087D01*
X7636278Y-839291D01*
X7652402Y-823139D01*
X7697516Y-721093D01*
X7700500Y-695499D01*
X7700499Y695498D01*
X7697393Y721611D01*
X7652101Y823577D01*
X7595674Y879906D01*
X7567849Y934398D01*
X7577368Y994838D01*
X7595553Y1019913D01*
X7645944Y1070392D01*
X7652402Y1076861D01*
X7697516Y1178907D01*
X7700500Y1204501D01*
X7700499Y2595498D01*
X7697393Y2621611D01*
X7652101Y2723577D01*
X7573139Y2802402D01*
X7471093Y2847516D01*
X7445499Y2850500D01*
X6610489Y2850500D01*
X5754502Y2850499D01*
X5751585Y2850152D01*
X5751584Y2850152D01*
X5735769Y2848271D01*
X5735768Y2848271D01*
X5728389Y2847393D01*
X5721598Y2844377D01*
X5721596Y2844376D01*
X5663993Y2818789D01*
X5626423Y2802101D01*
X5619965Y2795631D01*
X5619964Y2795631D01*
X5586883Y2762492D01*
X5547598Y2723139D01*
X5502484Y2621093D01*
X5499500Y2595499D01*
X5499501Y1204502D01*
X5502607Y1178389D01*
X5547899Y1076423D01*
X5554369Y1069965D01*
X5554369Y1069964D01*
X5604326Y1020094D01*
X5632151Y965602D01*
X5622632Y905162D01*
X5604447Y880087D01*
X5581013Y856612D01*
X5547598Y823139D01*
X5502484Y721093D01*
X5499500Y695499D01*
X5499501Y-695498D01*
X5502607Y-721611D01*
X5505623Y-728402D01*
X5505624Y-728404D01*
X5517219Y-754507D01*
X5547899Y-823577D01*
X5554369Y-830035D01*
X5554369Y-830036D01*
X5604326Y-879906D01*
X5632151Y-934398D01*
X5622632Y-994838D01*
X5604447Y-1019913D01*
X5581013Y-1043388D01*
X5547598Y-1076861D01*
X5502484Y-1178907D01*
X5499500Y-1204501D01*
X-5499501Y-1204501D01*
X-5502607Y-1178389D01*
X-5547899Y-1076423D01*
X-5604326Y-1020094D01*
X-5632151Y-965602D01*
X-5622632Y-905162D01*
X-5604447Y-880087D01*
X-5563722Y-839291D01*
X-5547598Y-823139D01*
X-5502484Y-721093D01*
X-5499500Y-695499D01*
X-5499501Y695498D01*
X-5502607Y721611D01*
X-5547899Y823577D01*
X-5604326Y879906D01*
X-5632151Y934398D01*
X-5622632Y994838D01*
X-5604447Y1019913D01*
X-5554056Y1070392D01*
X-5547598Y1076861D01*
X-5502484Y1178907D01*
X-5499500Y1204501D01*
X-5499501Y2595498D01*
X-5502607Y2621611D01*
X-5547899Y2723577D01*
X-5626861Y2802402D01*
X-5728907Y2847516D01*
X-5754501Y2850500D01*
X-6589511Y2850500D01*
X-7445498Y2850499D01*
X-7448415Y2850152D01*
X-7448416Y2850152D01*
X-7464231Y2848271D01*
X-7464232Y2848271D01*
X-7471611Y2847393D01*
X-7478402Y2844377D01*
X-7478404Y2844376D01*
X-7536007Y2818789D01*
X-7573577Y2802101D01*
X-7580035Y2795631D01*
X-7580036Y2795631D01*
X-7613117Y2762492D01*
X-7652402Y2723139D01*
X-7656098Y2714779D01*
X-7680550Y2659470D01*
X-7721372Y2613893D01*
X-7771096Y2600500D01*
X-8170516Y2600500D01*
X-8187737Y2598416D01*
X-8290398Y2585993D01*
X-8290401Y2585992D01*
X-8296320Y2585276D01*
X-8454923Y2525345D01*
X-8459840Y2521965D01*
X-8459843Y2521964D01*
X-8572231Y2444721D01*
X-8594651Y2429312D01*
X-8707440Y2302721D01*
X-8786776Y2152881D01*
X-8828081Y1988441D01*
X-8828969Y1818895D01*
X-8789388Y1654032D01*
X-8711625Y1503369D01*
X-8600169Y1375604D01*
X-8461453Y1278113D01*
X-8303487Y1216524D01*
X-8297572Y1215745D01*
X-8297571Y1215745D01*
X-8190543Y1201655D01*
X-8174174Y1199500D01*
X-7771123Y1199500D01*
X-7712932Y1180593D01*
X-7680647Y1140689D01*
X-7652101Y1076423D01*
X-7645631Y1069965D01*
X-7645631Y1069964D01*
X-7595674Y1020094D01*
X-7567849Y965602D01*
X-7577368Y905162D01*
X-7595553Y880087D01*
X-7618987Y856612D01*
X-7652402Y823139D01*
X-7656098Y814779D01*
X-7680550Y759470D01*
X-7721372Y713893D01*
X-7771096Y700500D01*
X-8242516Y700500D01*
X-8259737Y698416D01*
X-8362398Y685993D01*
X-8362401Y685992D01*
X-8368320Y685276D01*
X-8526923Y625345D01*
X-8531840Y621965D01*
X-8531843Y621964D01*
X-8644231Y544721D01*
X-8666651Y529312D01*
X-8779440Y402721D01*
X-8858776Y252881D01*
X-8860230Y247091D01*
X-8890209Y127741D01*
X-8900081Y88441D01*
X-8900112Y82474D01*
X-8900811Y-51015D01*
X-8900969Y-81105D01*
X-19156777Y-81105D01*
X-19151715Y-51015D01*
X-19145637Y-14891D01*
X-19145637Y-14886D01*
X-19145003Y-11120D01*
X-19144867Y0D01*
X-19163161Y127741D01*
X-19216572Y245212D01*
X-19300807Y342972D01*
X-19306724Y346807D01*
X-19306726Y346809D01*
X-19403176Y409323D01*
X-19409094Y413159D01*
X-19415850Y415179D01*
X-19415851Y415180D01*
X-19458665Y427984D01*
X-19532727Y450134D01*
X-19609356Y450602D01*
X-19654718Y450879D01*
X-19661769Y450922D01*
X-19668546Y448985D01*
X-19668547Y448985D01*
X-19779065Y417399D01*
X-19779067Y417398D01*
X-19785845Y415461D01*
X-19894981Y346601D01*
X-19980404Y249878D01*
X-20035246Y133068D01*
X-20055099Y5560D01*
X-42295610Y5560D01*
X-42296766Y10626D01*
X-42296763Y11711D01*
X-42299020Y33140D01*
X-42287443Y830036D01*
X-42280961Y1276184D01*
X-42280873Y1279153D01*
X-42276350Y1380101D01*
X-42241495Y2158155D01*
X-42223827Y2552534D01*
X-42223648Y2555522D01*
X-42144088Y3614212D01*
X-42128125Y3826636D01*
X-42127855Y3829613D01*
X-42118383Y3919276D01*
X-42102507Y4069560D01*
X-19353530Y4069560D01*
X-19352615Y4062563D01*
X-19352615Y4062562D01*
X-19351349Y4052880D01*
X-19336798Y3941606D01*
X-19333960Y3935155D01*
X-19333959Y3935153D01*
X-19287667Y3829946D01*
X-19284826Y3823490D01*
X-19263389Y3797988D01*
X-19206331Y3730108D01*
X-19206328Y3730106D01*
X-19201792Y3724709D01*
X-19094371Y3653204D01*
X-19087643Y3651102D01*
X-19087641Y3651101D01*
X-19032785Y3633963D01*
X-18971198Y3614722D01*
X-18906687Y3613540D01*
X-18849229Y3612486D01*
X-18849227Y3612486D01*
X-18842176Y3612357D01*
X-18835373Y3614212D01*
X-18835371Y3614212D01*
X-18771558Y3631610D01*
X-18717676Y3646300D01*
X-18607707Y3713821D01*
X-18521109Y3809493D01*
X-18464843Y3925625D01*
X-18447724Y4027378D01*
X-18444918Y4044058D01*
X-15561599Y4044058D01*
X-15560684Y4037061D01*
X-15560684Y4037060D01*
X-15559418Y4027378D01*
X-15544867Y3916104D01*
X-15542029Y3909653D01*
X-15542028Y3909651D01*
X-15495736Y3804444D01*
X-15492895Y3797988D01*
X-15451378Y3748598D01*
X-15414400Y3704606D01*
X-15414397Y3704604D01*
X-15409861Y3699207D01*
X-15302440Y3627702D01*
X-15295712Y3625600D01*
X-15295710Y3625599D01*
X-15253737Y3612486D01*
X-15179267Y3589220D01*
X-15114756Y3588037D01*
X-15057298Y3586984D01*
X-15057296Y3586984D01*
X-15050245Y3586855D01*
X-15043442Y3588710D01*
X-15043440Y3588710D01*
X-15001672Y3600098D01*
X-14925745Y3620798D01*
X-14815776Y3688319D01*
X-14801034Y3704606D01*
X-14733910Y3778763D01*
X-14733910Y3778764D01*
X-14729178Y3783991D01*
X-14672912Y3900123D01*
X-14651503Y4027378D01*
X-14651367Y4038498D01*
X-14652824Y4048669D01*
X-14642359Y4108949D01*
X-14598459Y4151569D01*
X-14537892Y4160245D01*
X-14525302Y4157200D01*
X-14425056Y4125881D01*
X-14425052Y4125880D01*
X-14418323Y4123778D01*
X-14353812Y4122595D01*
X-14296354Y4121542D01*
X-14296352Y4121542D01*
X-14289301Y4121413D01*
X-14282498Y4123268D01*
X-14282496Y4123268D01*
X-14240728Y4134656D01*
X-14164801Y4155356D01*
X-14054832Y4222877D01*
X-13968234Y4318549D01*
X-13911968Y4434681D01*
X-13895405Y4533130D01*
X-13891193Y4558165D01*
X-13891193Y4558170D01*
X-13890559Y4561936D01*
X-13890423Y4573056D01*
X-13908717Y4700797D01*
X-13962128Y4818268D01*
X-14046363Y4916028D01*
X-14052280Y4919863D01*
X-14052282Y4919865D01*
X-14148732Y4982379D01*
X-14154650Y4986215D01*
X-14161406Y4988235D01*
X-14161407Y4988236D01*
X-14204221Y5001040D01*
X-14278283Y5023190D01*
X-14354912Y5023658D01*
X-14400274Y5023935D01*
X-14407325Y5023978D01*
X-14414102Y5022041D01*
X-14414103Y5022041D01*
X-14524621Y4990455D01*
X-14524623Y4990454D01*
X-14531401Y4988517D01*
X-14640537Y4919657D01*
X-14725960Y4822934D01*
X-14780802Y4706124D01*
X-14800655Y4578616D01*
X-14799740Y4571619D01*
X-14799740Y4571618D01*
X-14798504Y4562167D01*
X-14809706Y4502016D01*
X-14854125Y4459937D01*
X-14914794Y4452003D01*
X-14925034Y4454481D01*
X-15032465Y4486610D01*
X-15032467Y4486610D01*
X-15039227Y4488632D01*
X-15115856Y4489100D01*
X-15161218Y4489377D01*
X-15168269Y4489420D01*
X-15175046Y4487483D01*
X-15175047Y4487483D01*
X-15285565Y4455897D01*
X-15285567Y4455896D01*
X-15292345Y4453959D01*
X-15401481Y4385099D01*
X-15486904Y4288376D01*
X-15541746Y4171566D01*
X-15561599Y4044058D01*
X-18444918Y4044058D01*
X-18444068Y4049109D01*
X-18444068Y4049114D01*
X-18443434Y4052880D01*
X-18443298Y4064000D01*
X-18461592Y4191741D01*
X-18515003Y4309212D01*
X-18580391Y4385099D01*
X-18594633Y4401628D01*
X-18594634Y4401629D01*
X-18599238Y4406972D01*
X-18605155Y4410807D01*
X-18605157Y4410809D01*
X-18701607Y4473323D01*
X-18707525Y4477159D01*
X-18714281Y4479179D01*
X-18714282Y4479180D01*
X-18757096Y4491984D01*
X-18831158Y4514134D01*
X-18907787Y4514602D01*
X-18953149Y4514879D01*
X-18960200Y4514922D01*
X-18966977Y4512985D01*
X-18966978Y4512985D01*
X-19077496Y4481399D01*
X-19077498Y4481398D01*
X-19084276Y4479461D01*
X-19193412Y4410601D01*
X-19278835Y4313878D01*
X-19333677Y4197068D01*
X-19353530Y4069560D01*
X-42102507Y4069560D01*
X-42005236Y4990333D01*
X-27958415Y4990333D01*
X-27957500Y4983336D01*
X-27957500Y4983335D01*
X-27956234Y4973653D01*
X-27941683Y4862379D01*
X-27938845Y4855928D01*
X-27938844Y4855926D01*
X-27892552Y4750719D01*
X-27889711Y4744263D01*
X-27863017Y4712507D01*
X-27811216Y4650881D01*
X-27811213Y4650879D01*
X-27806677Y4645482D01*
X-27699256Y4573977D01*
X-27692528Y4571875D01*
X-27692526Y4571874D01*
X-27648645Y4558165D01*
X-27576083Y4535495D01*
X-27511572Y4534312D01*
X-27454114Y4533259D01*
X-27454112Y4533259D01*
X-27447061Y4533130D01*
X-27440258Y4534985D01*
X-27440256Y4534985D01*
X-27398488Y4546373D01*
X-27322561Y4567073D01*
X-27212592Y4634594D01*
X-27183168Y4667101D01*
X-27130726Y4725038D01*
X-27130726Y4725039D01*
X-27125994Y4730266D01*
X-27069728Y4846398D01*
X-27052104Y4951153D01*
X-27048953Y4969882D01*
X-27048953Y4969887D01*
X-27048319Y4973653D01*
X-27048183Y4984773D01*
X-27062617Y5085560D01*
X-23569099Y5085560D01*
X-23568184Y5078563D01*
X-23568184Y5078562D01*
X-23566918Y5068880D01*
X-23552367Y4957606D01*
X-23549529Y4951155D01*
X-23549528Y4951153D01*
X-23507627Y4855926D01*
X-23500395Y4839490D01*
X-23477156Y4811844D01*
X-23421900Y4746108D01*
X-23421897Y4746106D01*
X-23417361Y4740709D01*
X-23309940Y4669204D01*
X-23303212Y4667102D01*
X-23303210Y4667101D01*
X-23251292Y4650881D01*
X-23186767Y4630722D01*
X-23122256Y4629540D01*
X-23064798Y4628486D01*
X-23064796Y4628486D01*
X-23057745Y4628357D01*
X-23050942Y4630212D01*
X-23050940Y4630212D01*
X-22994932Y4645482D01*
X-22933245Y4662300D01*
X-22823276Y4729821D01*
X-22736678Y4825493D01*
X-22692814Y4916028D01*
X-22683488Y4935276D01*
X-22683488Y4935277D01*
X-22680412Y4941625D01*
X-22666690Y5023190D01*
X-22659637Y5065109D01*
X-22659637Y5065114D01*
X-22659003Y5068880D01*
X-22658867Y5080000D01*
X-22677161Y5207741D01*
X-22730572Y5325212D01*
X-22795215Y5400234D01*
X-22810202Y5417628D01*
X-22810203Y5417629D01*
X-22814807Y5422972D01*
X-22820724Y5426807D01*
X-22820726Y5426809D01*
X-22917176Y5489323D01*
X-22923094Y5493159D01*
X-22929850Y5495179D01*
X-22929851Y5495180D01*
X-22973079Y5508108D01*
X-23046727Y5530134D01*
X-23123356Y5530602D01*
X-23168718Y5530879D01*
X-23175769Y5530922D01*
X-23182546Y5528985D01*
X-23182547Y5528985D01*
X-23293065Y5497399D01*
X-23293067Y5497398D01*
X-23299845Y5495461D01*
X-23408981Y5426601D01*
X-23494404Y5329878D01*
X-23549246Y5213068D01*
X-23569099Y5085560D01*
X-27062617Y5085560D01*
X-27066477Y5112514D01*
X-27119888Y5229985D01*
X-27204123Y5327745D01*
X-27210040Y5331580D01*
X-27210042Y5331582D01*
X-27306492Y5394096D01*
X-27312410Y5397932D01*
X-27319166Y5399952D01*
X-27319167Y5399953D01*
X-27361981Y5412757D01*
X-27436043Y5434907D01*
X-27512672Y5435375D01*
X-27558034Y5435652D01*
X-27565085Y5435695D01*
X-27571862Y5433758D01*
X-27571863Y5433758D01*
X-27682381Y5402172D01*
X-27682383Y5402171D01*
X-27689161Y5400234D01*
X-27798297Y5331374D01*
X-27883720Y5234651D01*
X-27938562Y5117841D01*
X-27958415Y4990333D01*
X-42005236Y4990333D01*
X-41993946Y5097206D01*
X-41993588Y5100170D01*
X-41977327Y5219451D01*
X-41867994Y6021445D01*
X-27435303Y6021445D01*
X-27434388Y6014448D01*
X-27434388Y6014447D01*
X-27433122Y6004765D01*
X-27418571Y5893491D01*
X-27415733Y5887040D01*
X-27415732Y5887038D01*
X-27386303Y5820156D01*
X-27366599Y5775375D01*
X-27345004Y5749685D01*
X-27288104Y5681993D01*
X-27288101Y5681991D01*
X-27283565Y5676594D01*
X-27176144Y5605089D01*
X-27169416Y5602987D01*
X-27169414Y5602986D01*
X-27140132Y5593838D01*
X-27052971Y5566607D01*
X-26988460Y5565424D01*
X-26931002Y5564371D01*
X-26931000Y5564371D01*
X-26923949Y5564242D01*
X-26917146Y5566097D01*
X-26917144Y5566097D01*
X-26875376Y5577485D01*
X-26799449Y5598185D01*
X-26689480Y5665706D01*
X-26664992Y5692760D01*
X-26607614Y5756150D01*
X-26607614Y5756151D01*
X-26602882Y5761378D01*
X-26546616Y5877510D01*
X-26530696Y5972138D01*
X-26525841Y6000994D01*
X-26525841Y6000999D01*
X-26525207Y6004765D01*
X-26525071Y6015885D01*
X-26538423Y6109116D01*
X-24592655Y6109116D01*
X-24591740Y6102119D01*
X-24591740Y6102118D01*
X-24590490Y6092558D01*
X-24575923Y5981162D01*
X-24573085Y5974711D01*
X-24573084Y5974709D01*
X-24527522Y5871161D01*
X-24523951Y5863046D01*
X-24493743Y5827109D01*
X-24445456Y5769664D01*
X-24445453Y5769662D01*
X-24440917Y5764265D01*
X-24333496Y5692760D01*
X-24326768Y5690658D01*
X-24326766Y5690657D01*
X-24281752Y5676594D01*
X-24210323Y5654278D01*
X-24145812Y5653095D01*
X-24088354Y5652042D01*
X-24088352Y5652042D01*
X-24081301Y5651913D01*
X-24074498Y5653768D01*
X-24074496Y5653768D01*
X-24032728Y5665156D01*
X-23956801Y5685856D01*
X-23846832Y5753377D01*
X-23786387Y5820156D01*
X-23764966Y5843821D01*
X-23764966Y5843822D01*
X-23761582Y5847560D01*
X-13536099Y5847560D01*
X-13535184Y5840563D01*
X-13535184Y5840562D01*
X-13532318Y5818642D01*
X-13519367Y5719606D01*
X-13516529Y5713155D01*
X-13516528Y5713153D01*
X-13478366Y5626423D01*
X-13467395Y5601490D01*
X-13438073Y5566607D01*
X-13388900Y5508108D01*
X-13388897Y5508106D01*
X-13384361Y5502709D01*
X-13276940Y5431204D01*
X-13270212Y5429102D01*
X-13270210Y5429101D01*
X-13245291Y5421316D01*
X-13153767Y5392722D01*
X-13089256Y5391539D01*
X-13031798Y5390486D01*
X-13031796Y5390486D01*
X-13024745Y5390357D01*
X-13017942Y5392212D01*
X-13017940Y5392212D01*
X-12976172Y5403600D01*
X-12900245Y5424300D01*
X-12790276Y5491821D01*
X-12783010Y5499848D01*
X-12708410Y5582265D01*
X-12708410Y5582266D01*
X-12703678Y5587493D01*
X-12662402Y5672686D01*
X-12650488Y5697276D01*
X-12650488Y5697277D01*
X-12647412Y5703625D01*
X-12627807Y5820156D01*
X-12626637Y5827109D01*
X-12626637Y5827114D01*
X-12626003Y5830880D01*
X-12625867Y5842000D01*
X-12644161Y5969741D01*
X-12697572Y6087212D01*
X-12781807Y6184972D01*
X-12787724Y6188807D01*
X-12787726Y6188809D01*
X-12863187Y6237719D01*
X-12890094Y6255159D01*
X-12896850Y6257179D01*
X-12896851Y6257180D01*
X-12943219Y6271047D01*
X-13013727Y6292134D01*
X-13090356Y6292602D01*
X-13135718Y6292879D01*
X-13142769Y6292922D01*
X-13149546Y6290985D01*
X-13149547Y6290985D01*
X-13260065Y6259399D01*
X-13260067Y6259398D01*
X-13266845Y6257461D01*
X-13272809Y6253698D01*
X-13308312Y6231297D01*
X-13375981Y6188601D01*
X-13461404Y6091878D01*
X-13516246Y5975068D01*
X-13536099Y5847560D01*
X-23761582Y5847560D01*
X-23760234Y5849049D01*
X-23703968Y5965181D01*
X-23692960Y6030615D01*
X-23683193Y6088665D01*
X-23683193Y6088670D01*
X-23682559Y6092436D01*
X-23682423Y6103556D01*
X-23700717Y6231297D01*
X-23728378Y6292134D01*
X-23751207Y6342344D01*
X-23751208Y6342345D01*
X-23754128Y6348768D01*
X-23807161Y6410316D01*
X-23833758Y6441184D01*
X-23833759Y6441185D01*
X-23838363Y6446528D01*
X-23844280Y6450363D01*
X-23844282Y6450365D01*
X-23940732Y6512879D01*
X-23946650Y6516715D01*
X-23953406Y6518735D01*
X-23953407Y6518736D01*
X-23996221Y6531540D01*
X-24070283Y6553690D01*
X-24146912Y6554158D01*
X-24192274Y6554435D01*
X-24199325Y6554478D01*
X-24206102Y6552541D01*
X-24206103Y6552541D01*
X-24316621Y6520955D01*
X-24316623Y6520954D01*
X-24323401Y6519017D01*
X-24432537Y6450157D01*
X-24517960Y6353434D01*
X-24572802Y6236624D01*
X-24592655Y6109116D01*
X-26538423Y6109116D01*
X-26543365Y6143626D01*
X-26596776Y6261097D01*
X-26649809Y6322645D01*
X-26676406Y6353513D01*
X-26676407Y6353514D01*
X-26681011Y6358857D01*
X-26686928Y6362692D01*
X-26686930Y6362694D01*
X-26783380Y6425208D01*
X-26789298Y6429044D01*
X-26796054Y6431064D01*
X-26796055Y6431065D01*
X-26847759Y6446528D01*
X-26912931Y6466019D01*
X-26989560Y6466487D01*
X-27034922Y6466764D01*
X-27041973Y6466807D01*
X-27048750Y6464870D01*
X-27048751Y6464870D01*
X-27159269Y6433284D01*
X-27159271Y6433283D01*
X-27166049Y6431346D01*
X-27275185Y6362486D01*
X-27360608Y6265763D01*
X-27415450Y6148953D01*
X-27435303Y6021445D01*
X-41867994Y6021445D01*
X-41821402Y6363215D01*
X-41820954Y6366160D01*
X-41810680Y6427583D01*
X-41640416Y7445499D01*
X-2850500Y7445499D01*
X-2850499Y5754502D01*
X-2850152Y5751585D01*
X-2850152Y5751584D01*
X-2849994Y5750260D01*
X-2847393Y5728389D01*
X-2844377Y5721598D01*
X-2844376Y5721596D01*
X-2824386Y5676594D01*
X-2802101Y5626423D01*
X-2723139Y5547598D01*
X-2621093Y5502484D01*
X-2595499Y5499500D01*
X-1908628Y5499500D01*
X-1204502Y5499501D01*
X-1201585Y5499848D01*
X-1201584Y5499848D01*
X-1185769Y5501729D01*
X-1185768Y5501729D01*
X-1178389Y5502607D01*
X-1171598Y5505623D01*
X-1171596Y5505624D01*
X-1113993Y5531211D01*
X-1076423Y5547899D01*
X-1059979Y5564371D01*
X-1020094Y5604326D01*
X-965602Y5632151D01*
X-905162Y5622632D01*
X-880087Y5604447D01*
X-877125Y5601490D01*
X-823139Y5547598D01*
X-721093Y5502484D01*
X-695499Y5499500D01*
X-8628Y5499500D01*
X695498Y5499501D01*
X698415Y5499848D01*
X698416Y5499848D01*
X714231Y5501729D01*
X714232Y5501729D01*
X721611Y5502607D01*
X728402Y5505623D01*
X728404Y5505624D01*
X786007Y5531211D01*
X823577Y5547899D01*
X840021Y5564371D01*
X879906Y5604326D01*
X934398Y5632151D01*
X994838Y5622632D01*
X1019913Y5604447D01*
X1022875Y5601490D01*
X1076861Y5547598D01*
X1178907Y5502484D01*
X1204501Y5499500D01*
X1891372Y5499500D01*
X2595498Y5499501D01*
X2598415Y5499848D01*
X2598416Y5499848D01*
X2614231Y5501729D01*
X2614232Y5501729D01*
X2621611Y5502607D01*
X2628402Y5505623D01*
X2628404Y5505624D01*
X2686007Y5531211D01*
X2723577Y5547899D01*
X2740021Y5564371D01*
X2795944Y5620392D01*
X2802402Y5626861D01*
X2847516Y5728907D01*
X2850500Y5754501D01*
X2850499Y7445498D01*
X2850152Y7448416D01*
X2848271Y7464231D01*
X2848271Y7464232D01*
X2847393Y7471611D01*
X2802101Y7573577D01*
X2723139Y7652402D01*
X2621093Y7697516D01*
X2595499Y7700500D01*
X1908628Y7700500D01*
X1204502Y7700499D01*
X1201585Y7700152D01*
X1201584Y7700152D01*
X1185769Y7698271D01*
X1185768Y7698271D01*
X1178389Y7697393D01*
X1171598Y7694377D01*
X1171596Y7694376D01*
X1140470Y7680550D01*
X1076423Y7652101D01*
X1069965Y7645631D01*
X1069964Y7645631D01*
X1020094Y7595674D01*
X965602Y7567849D01*
X905162Y7577368D01*
X880087Y7595553D01*
X856612Y7618987D01*
X823139Y7652402D01*
X814779Y7656098D01*
X759470Y7680550D01*
X713893Y7721372D01*
X700500Y7771096D01*
X700500Y8094185D01*
X719407Y8152376D01*
X768907Y8188340D01*
X801314Y8193168D01*
X818255Y8192857D01*
X825058Y8194712D01*
X825060Y8194712D01*
X866828Y8206100D01*
X942755Y8226800D01*
X1052724Y8294321D01*
X1139322Y8389993D01*
X1195588Y8506125D01*
X1209654Y8589733D01*
X1216363Y8629609D01*
X1216363Y8629614D01*
X1216997Y8633380D01*
X1217133Y8644500D01*
X1198839Y8772241D01*
X1145428Y8889712D01*
X1092395Y8951260D01*
X1065798Y8982128D01*
X1065797Y8982129D01*
X1061193Y8987472D01*
X1055276Y8991307D01*
X1055274Y8991309D01*
X958824Y9053823D01*
X952906Y9057659D01*
X946150Y9059679D01*
X946149Y9059680D01*
X903335Y9072484D01*
X829273Y9094634D01*
X819100Y9094696D01*
X811298Y9094744D01*
X753224Y9114007D01*
X717564Y9163726D01*
X717938Y9224910D01*
X754205Y9274189D01*
X760090Y9278100D01*
X798724Y9301821D01*
X885322Y9397493D01*
X941588Y9513625D01*
X962997Y9640880D01*
X963133Y9652000D01*
X944839Y9779741D01*
X891428Y9897212D01*
X807193Y9994972D01*
X801276Y9998807D01*
X801274Y9998809D01*
X704824Y10061323D01*
X698906Y10065159D01*
X692150Y10067179D01*
X692149Y10067180D01*
X648921Y10080108D01*
X575273Y10102134D01*
X498644Y10102602D01*
X453282Y10102879D01*
X446231Y10102922D01*
X439454Y10100985D01*
X439453Y10100985D01*
X328935Y10069399D01*
X328933Y10069398D01*
X322155Y10067461D01*
X213019Y9998601D01*
X127596Y9901878D01*
X72754Y9785068D01*
X52901Y9657560D01*
X53816Y9650563D01*
X53816Y9650562D01*
X55082Y9640880D01*
X69633Y9529606D01*
X72471Y9523155D01*
X72472Y9523153D01*
X79458Y9507276D01*
X121605Y9411490D01*
X163122Y9362099D01*
X200100Y9318108D01*
X200103Y9318106D01*
X204639Y9312709D01*
X312060Y9241204D01*
X318788Y9239102D01*
X318790Y9239101D01*
X364214Y9224910D01*
X435233Y9202722D01*
X451830Y9202418D01*
X461077Y9202248D01*
X518911Y9182277D01*
X553961Y9132126D01*
X552839Y9070951D01*
X512089Y9019538D01*
X467019Y8991101D01*
X381596Y8894378D01*
X378601Y8887998D01*
X378596Y8887991D01*
X357479Y8843013D01*
X315634Y8798374D01*
X255542Y8786857D01*
X243752Y8789069D01*
X172691Y8806919D01*
X94231Y8826627D01*
X94228Y8826627D01*
X88441Y8828081D01*
X2841Y8828529D01*
X-75139Y8828938D01*
X-75141Y8828938D01*
X-81105Y8828969D01*
X-86901Y8827577D01*
X-86905Y8827577D01*
X-194297Y8801793D01*
X-245968Y8789388D01*
X-292721Y8765257D01*
X-391325Y8714364D01*
X-391327Y8714362D01*
X-396631Y8711625D01*
X-524396Y8600169D01*
X-621887Y8461453D01*
X-683476Y8303487D01*
X-700500Y8174174D01*
X-700500Y7771123D01*
X-719407Y7712932D01*
X-759311Y7680647D01*
X-823577Y7652101D01*
X-830035Y7645631D01*
X-830036Y7645631D01*
X-879906Y7595674D01*
X-934398Y7567849D01*
X-994838Y7577368D01*
X-1019913Y7595553D01*
X-1043388Y7618987D01*
X-1076861Y7652402D01*
X-1085221Y7656098D01*
X-1140530Y7680550D01*
X-1186107Y7721372D01*
X-1199500Y7771096D01*
X-1199500Y8170516D01*
X-1206311Y8226800D01*
X-1214007Y8290398D01*
X-1214008Y8290401D01*
X-1214724Y8296320D01*
X-1274655Y8454923D01*
X-1370688Y8594651D01*
X-1497279Y8707440D01*
X-1647119Y8786776D01*
X-1729339Y8807429D01*
X-1805769Y8826627D01*
X-1805772Y8826627D01*
X-1811559Y8828081D01*
X-1897159Y8828529D01*
X-1975139Y8828938D01*
X-1975141Y8828938D01*
X-1981105Y8828969D01*
X-1986901Y8827577D01*
X-1986905Y8827577D01*
X-2094297Y8801793D01*
X-2145968Y8789388D01*
X-2192721Y8765257D01*
X-2291325Y8714364D01*
X-2291327Y8714362D01*
X-2296631Y8711625D01*
X-2424396Y8600169D01*
X-2521887Y8461453D01*
X-2583476Y8303487D01*
X-2600500Y8174174D01*
X-2600500Y7771123D01*
X-2619407Y7712932D01*
X-2659311Y7680647D01*
X-2723577Y7652101D01*
X-2802402Y7573139D01*
X-2847516Y7471093D01*
X-2850500Y7445499D01*
X-41640416Y7445499D01*
X-41610666Y7623358D01*
X-41610133Y7626274D01*
X-41605005Y7652101D01*
X-41417890Y8594651D01*
X-41361928Y8876543D01*
X-41361301Y8879471D01*
X-41182221Y9657560D01*
X-3757099Y9657560D01*
X-3756184Y9650563D01*
X-3756184Y9650562D01*
X-3754918Y9640880D01*
X-3740367Y9529606D01*
X-3737529Y9523155D01*
X-3737528Y9523153D01*
X-3730542Y9507276D01*
X-3688395Y9411490D01*
X-3646878Y9362099D01*
X-3609900Y9318108D01*
X-3609897Y9318106D01*
X-3605361Y9312709D01*
X-3497940Y9241204D01*
X-3491212Y9239102D01*
X-3491210Y9239101D01*
X-3445786Y9224910D01*
X-3374767Y9202722D01*
X-3310256Y9201540D01*
X-3252798Y9200486D01*
X-3252796Y9200486D01*
X-3245745Y9200357D01*
X-3238942Y9202212D01*
X-3238940Y9202212D01*
X-3197172Y9213600D01*
X-3121245Y9234300D01*
X-3011276Y9301821D01*
X-2924678Y9397493D01*
X-2868412Y9513625D01*
X-2847003Y9640880D01*
X-2846867Y9652000D01*
X-2865161Y9779741D01*
X-2918572Y9897212D01*
X-3002807Y9994972D01*
X-3008724Y9998807D01*
X-3008726Y9998809D01*
X-3105176Y10061323D01*
X-3111094Y10065159D01*
X-3117850Y10067179D01*
X-3117851Y10067180D01*
X-3161079Y10080108D01*
X-3234727Y10102134D01*
X-3311356Y10102602D01*
X-3356718Y10102879D01*
X-3363769Y10102922D01*
X-3370546Y10100985D01*
X-3370547Y10100985D01*
X-3481065Y10069399D01*
X-3481067Y10069398D01*
X-3487845Y10067461D01*
X-3596981Y9998601D01*
X-3682404Y9901878D01*
X-3737246Y9785068D01*
X-3757099Y9657560D01*
X-41182221Y9657560D01*
X-41075399Y10121696D01*
X-41074683Y10124603D01*
X-41063943Y10165560D01*
X-15441099Y10165560D01*
X-15440184Y10158563D01*
X-15440184Y10158562D01*
X-15438918Y10148880D01*
X-15424367Y10037606D01*
X-15421529Y10031155D01*
X-15421528Y10031153D01*
X-15392241Y9964593D01*
X-15372395Y9919490D01*
X-15353668Y9897212D01*
X-15293900Y9826108D01*
X-15293897Y9826106D01*
X-15289361Y9820709D01*
X-15181940Y9749204D01*
X-15175212Y9747102D01*
X-15175210Y9747101D01*
X-15120353Y9729963D01*
X-15058767Y9710722D01*
X-14994256Y9709540D01*
X-14936798Y9708486D01*
X-14936796Y9708486D01*
X-14929745Y9708357D01*
X-14922942Y9710212D01*
X-14922940Y9710212D01*
X-14881172Y9721600D01*
X-14805245Y9742300D01*
X-14695276Y9809821D01*
X-14617727Y9895496D01*
X-14613410Y9900265D01*
X-14613410Y9900266D01*
X-14608678Y9905493D01*
X-14561337Y10003204D01*
X-14555488Y10015276D01*
X-14555488Y10015277D01*
X-14552412Y10021625D01*
X-14541404Y10087059D01*
X-14531637Y10145109D01*
X-14531637Y10145114D01*
X-14531003Y10148880D01*
X-14530867Y10160000D01*
X-14549161Y10287741D01*
X-14602572Y10405212D01*
X-14614935Y10419560D01*
X5894901Y10419560D01*
X5895816Y10412563D01*
X5895816Y10412562D01*
X5896777Y10405212D01*
X5911633Y10291606D01*
X5914471Y10285155D01*
X5914472Y10285153D01*
X5960764Y10179946D01*
X5963605Y10173490D01*
X5981080Y10152701D01*
X6042100Y10080108D01*
X6042103Y10080106D01*
X6046639Y10074709D01*
X6154060Y10003204D01*
X6160788Y10001102D01*
X6160790Y10001101D01*
X6185709Y9993316D01*
X6277233Y9964722D01*
X6341744Y9963539D01*
X6399202Y9962486D01*
X6399204Y9962486D01*
X6406255Y9962357D01*
X6413058Y9964212D01*
X6413060Y9964212D01*
X6454828Y9975600D01*
X6530755Y9996300D01*
X6640724Y10063821D01*
X6676078Y10102879D01*
X6722590Y10154265D01*
X6722590Y10154266D01*
X6727322Y10159493D01*
X6783588Y10275625D01*
X6800382Y10375446D01*
X6804363Y10399109D01*
X6804363Y10399114D01*
X6804997Y10402880D01*
X6805133Y10414000D01*
X6786839Y10541741D01*
X6756265Y10608985D01*
X6736349Y10652788D01*
X6736348Y10652789D01*
X6733428Y10659212D01*
X6649193Y10756972D01*
X6643276Y10760807D01*
X6643274Y10760809D01*
X6546824Y10823323D01*
X6540906Y10827159D01*
X6534150Y10829179D01*
X6534149Y10829180D01*
X6491335Y10841984D01*
X6417273Y10864134D01*
X6340644Y10864602D01*
X6295282Y10864879D01*
X6288231Y10864922D01*
X6281454Y10862985D01*
X6281453Y10862985D01*
X6170935Y10831399D01*
X6170933Y10831398D01*
X6164155Y10829461D01*
X6055019Y10760601D01*
X5969596Y10663878D01*
X5914754Y10547068D01*
X5894901Y10419560D01*
X-14614935Y10419560D01*
X-14686807Y10502972D01*
X-14692724Y10506807D01*
X-14692726Y10506809D01*
X-14766291Y10554490D01*
X-14795094Y10573159D01*
X-14801850Y10575179D01*
X-14801851Y10575180D01*
X-14845079Y10588108D01*
X-14918727Y10610134D01*
X-14995356Y10610602D01*
X-15040718Y10610879D01*
X-15047769Y10610922D01*
X-15054546Y10608985D01*
X-15054547Y10608985D01*
X-15165065Y10577399D01*
X-15165067Y10577398D01*
X-15171845Y10575461D01*
X-15280981Y10506601D01*
X-15366404Y10409878D01*
X-15421246Y10293068D01*
X-15441099Y10165560D01*
X-41063943Y10165560D01*
X-40897427Y10800560D01*
X-17981099Y10800560D01*
X-17980184Y10793563D01*
X-17980184Y10793562D01*
X-17978425Y10780109D01*
X-17964367Y10672606D01*
X-17961529Y10666155D01*
X-17961528Y10666153D01*
X-17915236Y10560946D01*
X-17912395Y10554490D01*
X-17879294Y10515112D01*
X-17833900Y10461108D01*
X-17833897Y10461106D01*
X-17829361Y10455709D01*
X-17721940Y10384204D01*
X-17715212Y10382102D01*
X-17715210Y10382101D01*
X-17660354Y10364963D01*
X-17598767Y10345722D01*
X-17534256Y10344540D01*
X-17476798Y10343486D01*
X-17476796Y10343486D01*
X-17469745Y10343357D01*
X-17462942Y10345212D01*
X-17462940Y10345212D01*
X-17421172Y10356600D01*
X-17345245Y10377300D01*
X-17235276Y10444821D01*
X-17181438Y10504300D01*
X-17153410Y10535265D01*
X-17153410Y10535266D01*
X-17148678Y10540493D01*
X-17092412Y10656625D01*
X-17076429Y10751628D01*
X-17071637Y10780109D01*
X-17071637Y10780114D01*
X-17071003Y10783880D01*
X-17070867Y10795000D01*
X-17089161Y10922741D01*
X-17091352Y10927560D01*
X17324901Y10927560D01*
X17325816Y10920563D01*
X17325816Y10920562D01*
X17327082Y10910880D01*
X17341633Y10799606D01*
X17344471Y10793155D01*
X17344472Y10793153D01*
X17390764Y10687946D01*
X17393605Y10681490D01*
X17417732Y10652788D01*
X17472100Y10588108D01*
X17472103Y10588106D01*
X17476639Y10582709D01*
X17584060Y10511204D01*
X17590788Y10509102D01*
X17590790Y10509101D01*
X17615709Y10501316D01*
X17707233Y10472722D01*
X17771744Y10471540D01*
X17829202Y10470486D01*
X17829204Y10470486D01*
X17836255Y10470357D01*
X17843058Y10472212D01*
X17843060Y10472212D01*
X17884828Y10483600D01*
X17960755Y10504300D01*
X18070724Y10571821D01*
X18106078Y10610879D01*
X18152590Y10662265D01*
X18152590Y10662266D01*
X18157322Y10667493D01*
X18213588Y10783625D01*
X18224596Y10849059D01*
X18234363Y10907109D01*
X18234363Y10907114D01*
X18234997Y10910880D01*
X18235133Y10922000D01*
X18234337Y10927560D01*
X18848901Y10927560D01*
X18849816Y10920563D01*
X18849816Y10920562D01*
X18851082Y10910880D01*
X18865633Y10799606D01*
X18868471Y10793155D01*
X18868472Y10793153D01*
X18914764Y10687946D01*
X18917605Y10681490D01*
X18941732Y10652788D01*
X18996100Y10588108D01*
X18996103Y10588106D01*
X19000639Y10582709D01*
X19108060Y10511204D01*
X19114788Y10509102D01*
X19114790Y10509101D01*
X19139709Y10501316D01*
X19231233Y10472722D01*
X19295744Y10471540D01*
X19353202Y10470486D01*
X19353204Y10470486D01*
X19360255Y10470357D01*
X19367058Y10472212D01*
X19367060Y10472212D01*
X19408828Y10483600D01*
X19484755Y10504300D01*
X19594724Y10571821D01*
X19630078Y10610879D01*
X19676590Y10662265D01*
X19676590Y10662266D01*
X19681322Y10667493D01*
X19737588Y10783625D01*
X19748596Y10849059D01*
X19758363Y10907109D01*
X19758363Y10907114D01*
X19758997Y10910880D01*
X19759133Y10922000D01*
X19740839Y11049741D01*
X19707179Y11123772D01*
X19690349Y11160788D01*
X19690348Y11160789D01*
X19687428Y11167212D01*
X19622029Y11243112D01*
X19607798Y11259628D01*
X19607797Y11259629D01*
X19603193Y11264972D01*
X19597276Y11268807D01*
X19597274Y11268809D01*
X19508657Y11326246D01*
X19494906Y11335159D01*
X19488150Y11337179D01*
X19488149Y11337180D01*
X19419977Y11357568D01*
X19371273Y11372134D01*
X19294644Y11372602D01*
X19249282Y11372879D01*
X19242231Y11372922D01*
X19235454Y11370985D01*
X19235453Y11370985D01*
X19124935Y11339399D01*
X19124933Y11339398D01*
X19118155Y11337461D01*
X19009019Y11268601D01*
X18923596Y11171878D01*
X18868754Y11055068D01*
X18848901Y10927560D01*
X18234337Y10927560D01*
X18216839Y11049741D01*
X18183179Y11123772D01*
X18166349Y11160788D01*
X18166348Y11160789D01*
X18163428Y11167212D01*
X18098029Y11243112D01*
X18083798Y11259628D01*
X18083797Y11259629D01*
X18079193Y11264972D01*
X18073276Y11268807D01*
X18073274Y11268809D01*
X17984657Y11326246D01*
X17970906Y11335159D01*
X17964150Y11337179D01*
X17964149Y11337180D01*
X17895977Y11357568D01*
X17847273Y11372134D01*
X17770644Y11372602D01*
X17725282Y11372879D01*
X17718231Y11372922D01*
X17711454Y11370985D01*
X17711453Y11370985D01*
X17600935Y11339399D01*
X17600933Y11339398D01*
X17594155Y11337461D01*
X17485019Y11268601D01*
X17399596Y11171878D01*
X17344754Y11055068D01*
X17324901Y10927560D01*
X-17091352Y10927560D01*
X-17128043Y11008257D01*
X-17139651Y11033788D01*
X-17139652Y11033789D01*
X-17142572Y11040212D01*
X-17206552Y11114465D01*
X-17222202Y11132628D01*
X-17222203Y11132629D01*
X-17226807Y11137972D01*
X-17232724Y11141807D01*
X-17232726Y11141809D01*
X-17329176Y11204323D01*
X-17335094Y11208159D01*
X-17341850Y11210179D01*
X-17341851Y11210180D01*
X-17386757Y11223610D01*
X-17458727Y11245134D01*
X-17535356Y11245602D01*
X-17580718Y11245879D01*
X-17587769Y11245922D01*
X-17594546Y11243985D01*
X-17594547Y11243985D01*
X-17705065Y11212399D01*
X-17705067Y11212398D01*
X-17711845Y11210461D01*
X-17820981Y11141601D01*
X-17906404Y11044878D01*
X-17961246Y10928068D01*
X-17981099Y10800560D01*
X-40897427Y10800560D01*
X-40751363Y11357568D01*
X-40750560Y11360452D01*
X-40720261Y11463224D01*
X-1189435Y11463224D01*
X-1188520Y11456227D01*
X-1188520Y11456226D01*
X-1187254Y11446544D01*
X-1172703Y11335270D01*
X-1169865Y11328819D01*
X-1169864Y11328817D01*
X-1132537Y11243985D01*
X-1120731Y11217154D01*
X-1087114Y11177162D01*
X-1042236Y11123772D01*
X-1042233Y11123770D01*
X-1037697Y11118373D01*
X-930276Y11046868D01*
X-923548Y11044766D01*
X-923546Y11044765D01*
X-888410Y11033788D01*
X-807103Y11008386D01*
X-742592Y11007203D01*
X-685134Y11006150D01*
X-685132Y11006150D01*
X-678081Y11006021D01*
X-671278Y11007876D01*
X-671276Y11007876D01*
X-629508Y11019264D01*
X-553581Y11039964D01*
X-443612Y11107485D01*
X-417515Y11136316D01*
X-361746Y11197929D01*
X-361746Y11197930D01*
X-357014Y11203157D01*
X-300748Y11319289D01*
X-279339Y11446544D01*
X-279203Y11457664D01*
X-297497Y11585405D01*
X-350908Y11702876D01*
X-435143Y11800636D01*
X-441060Y11804471D01*
X-441062Y11804473D01*
X-537512Y11866987D01*
X-543430Y11870823D01*
X-550186Y11872843D01*
X-550187Y11872844D01*
X-593001Y11885648D01*
X-667063Y11907798D01*
X-743692Y11908266D01*
X-789054Y11908543D01*
X-796105Y11908586D01*
X-802882Y11906649D01*
X-802883Y11906649D01*
X-913401Y11875063D01*
X-913403Y11875062D01*
X-920181Y11873125D01*
X-1029317Y11804265D01*
X-1114740Y11707542D01*
X-1169582Y11590732D01*
X-1189435Y11463224D01*
X-40720261Y11463224D01*
X-40578649Y11943560D01*
X-6043099Y11943560D01*
X-6042184Y11936563D01*
X-6042184Y11936562D01*
X-6040918Y11926880D01*
X-6026367Y11815606D01*
X-6023529Y11809155D01*
X-6023528Y11809153D01*
X-6017429Y11795292D01*
X-5974395Y11697490D01*
X-5932878Y11648100D01*
X-5895900Y11604108D01*
X-5895897Y11604106D01*
X-5891361Y11598709D01*
X-5783940Y11527204D01*
X-5777212Y11525102D01*
X-5777210Y11525101D01*
X-5722353Y11507963D01*
X-5660767Y11488722D01*
X-5596256Y11487540D01*
X-5538798Y11486486D01*
X-5538796Y11486486D01*
X-5531745Y11486357D01*
X-5524942Y11488212D01*
X-5524940Y11488212D01*
X-5483172Y11499600D01*
X-5407245Y11520300D01*
X-5297276Y11587821D01*
X-5210678Y11683493D01*
X-5154412Y11799625D01*
X-5142047Y11873125D01*
X-5133637Y11923109D01*
X-5133637Y11923114D01*
X-5133003Y11926880D01*
X-5132867Y11938000D01*
X-5133663Y11943560D01*
X15546901Y11943560D01*
X15547816Y11936563D01*
X15547816Y11936562D01*
X15549082Y11926880D01*
X15563633Y11815606D01*
X15566471Y11809155D01*
X15566472Y11809153D01*
X15572571Y11795292D01*
X15615605Y11697490D01*
X15657122Y11648100D01*
X15694100Y11604108D01*
X15694103Y11604106D01*
X15698639Y11598709D01*
X15806060Y11527204D01*
X15812788Y11525102D01*
X15812790Y11525101D01*
X15867647Y11507963D01*
X15929233Y11488722D01*
X15993744Y11487540D01*
X16051202Y11486486D01*
X16051204Y11486486D01*
X16058255Y11486357D01*
X16065058Y11488212D01*
X16065060Y11488212D01*
X16106828Y11499600D01*
X16182755Y11520300D01*
X16292724Y11587821D01*
X16379322Y11683493D01*
X16435588Y11799625D01*
X16447953Y11873125D01*
X16456363Y11923109D01*
X16456363Y11923114D01*
X16456997Y11926880D01*
X16457133Y11938000D01*
X16438839Y12065741D01*
X16385428Y12183212D01*
X16301193Y12280972D01*
X16295276Y12284807D01*
X16295274Y12284809D01*
X16198824Y12347323D01*
X16192906Y12351159D01*
X16186150Y12353179D01*
X16186149Y12353180D01*
X16142921Y12366108D01*
X16069273Y12388134D01*
X15992644Y12388602D01*
X15947282Y12388879D01*
X15940231Y12388922D01*
X15933454Y12386985D01*
X15933453Y12386985D01*
X15822935Y12355399D01*
X15822933Y12355398D01*
X15816155Y12353461D01*
X15707019Y12284601D01*
X15621596Y12187878D01*
X15566754Y12071068D01*
X15546901Y11943560D01*
X-5133663Y11943560D01*
X-5151161Y12065741D01*
X-5204572Y12183212D01*
X-5288807Y12280972D01*
X-5294724Y12284807D01*
X-5294726Y12284809D01*
X-5391176Y12347323D01*
X-5397094Y12351159D01*
X-5403850Y12353179D01*
X-5403851Y12353180D01*
X-5447079Y12366108D01*
X-5520727Y12388134D01*
X-5597356Y12388602D01*
X-5642718Y12388879D01*
X-5649769Y12388922D01*
X-5656546Y12386985D01*
X-5656547Y12386985D01*
X-5767065Y12355399D01*
X-5767067Y12355398D01*
X-5773845Y12353461D01*
X-5882981Y12284601D01*
X-5968404Y12187878D01*
X-6023246Y12071068D01*
X-6043099Y11943560D01*
X-40578649Y11943560D01*
X-40390099Y12583104D01*
X-40389209Y12585962D01*
X-40349982Y12705560D01*
X1100401Y12705560D01*
X1101316Y12698563D01*
X1101316Y12698562D01*
X1102582Y12688880D01*
X1117133Y12577606D01*
X1119971Y12571155D01*
X1119972Y12571153D01*
X1146167Y12511621D01*
X1169105Y12459490D01*
X1210622Y12410099D01*
X1247600Y12366108D01*
X1247603Y12366106D01*
X1252139Y12360709D01*
X1359560Y12289204D01*
X1366288Y12287102D01*
X1366290Y12287101D01*
X1391209Y12279316D01*
X1482733Y12250722D01*
X1547244Y12249540D01*
X1604702Y12248486D01*
X1604704Y12248486D01*
X1611755Y12248357D01*
X1618558Y12250212D01*
X1618560Y12250212D01*
X1660328Y12261600D01*
X1736255Y12282300D01*
X1846224Y12349821D01*
X1881578Y12388879D01*
X1928090Y12440265D01*
X1928090Y12440266D01*
X1932822Y12445493D01*
X1966457Y12514915D01*
X2008845Y12559039D01*
X2069073Y12569821D01*
X2124136Y12543143D01*
X2146167Y12511621D01*
X2169105Y12459490D01*
X2210622Y12410099D01*
X2247600Y12366108D01*
X2247603Y12366106D01*
X2252139Y12360709D01*
X2359560Y12289204D01*
X2366288Y12287102D01*
X2366290Y12287101D01*
X2391209Y12279316D01*
X2482733Y12250722D01*
X2547244Y12249540D01*
X2604702Y12248486D01*
X2604704Y12248486D01*
X2611755Y12248357D01*
X2618558Y12250212D01*
X2618560Y12250212D01*
X2660328Y12261600D01*
X2736255Y12282300D01*
X2846224Y12349821D01*
X2881578Y12388879D01*
X2928090Y12440265D01*
X2928090Y12440266D01*
X2932822Y12445493D01*
X2967218Y12516485D01*
X2986012Y12555276D01*
X2986012Y12555277D01*
X2989088Y12561625D01*
X3010497Y12688880D01*
X3010633Y12700000D01*
X2992339Y12827741D01*
X2938928Y12945212D01*
X2854693Y13042972D01*
X2848776Y13046807D01*
X2848774Y13046809D01*
X2752324Y13109323D01*
X2746406Y13113159D01*
X2739650Y13115179D01*
X2739649Y13115180D01*
X2696421Y13128108D01*
X2622773Y13150134D01*
X2546144Y13150602D01*
X2500782Y13150879D01*
X2493731Y13150922D01*
X2486954Y13148985D01*
X2486953Y13148985D01*
X2376435Y13117399D01*
X2376433Y13117398D01*
X2369655Y13115461D01*
X2260519Y13046601D01*
X2175096Y12949878D01*
X2172101Y12943498D01*
X2172098Y12943494D01*
X2145097Y12885982D01*
X2103252Y12841343D01*
X2043160Y12829825D01*
X1987775Y12855828D01*
X1965360Y12887078D01*
X1938928Y12945212D01*
X1854693Y13042972D01*
X1848776Y13046807D01*
X1848774Y13046809D01*
X1752324Y13109323D01*
X1746406Y13113159D01*
X1739650Y13115179D01*
X1739649Y13115180D01*
X1696421Y13128108D01*
X1622773Y13150134D01*
X1546144Y13150602D01*
X1500782Y13150879D01*
X1493731Y13150922D01*
X1486954Y13148985D01*
X1486953Y13148985D01*
X1376435Y13117399D01*
X1376433Y13117398D01*
X1369655Y13115461D01*
X1260519Y13046601D01*
X1175096Y12949878D01*
X1120254Y12833068D01*
X1100401Y12705560D01*
X-40349982Y12705560D01*
X-40100051Y13467560D01*
X-14933099Y13467560D01*
X-14932184Y13460563D01*
X-14932184Y13460562D01*
X-14930918Y13450880D01*
X-14916367Y13339606D01*
X-14913529Y13333155D01*
X-14913528Y13333153D01*
X-14906542Y13317276D01*
X-14864395Y13221490D01*
X-14822878Y13172100D01*
X-14785900Y13128108D01*
X-14785897Y13128106D01*
X-14781361Y13122709D01*
X-14673940Y13051204D01*
X-14667212Y13049102D01*
X-14667210Y13049101D01*
X-14642291Y13041316D01*
X-14550767Y13012722D01*
X-14486256Y13011540D01*
X-14428798Y13010486D01*
X-14428796Y13010486D01*
X-14421745Y13010357D01*
X-14414942Y13012212D01*
X-14414940Y13012212D01*
X-14373172Y13023600D01*
X-14297245Y13044300D01*
X-14187276Y13111821D01*
X-14151922Y13150879D01*
X-14105410Y13202265D01*
X-14105410Y13202266D01*
X-14100678Y13207493D01*
X-14044412Y13323625D01*
X-14023003Y13450880D01*
X-14022867Y13462000D01*
X-14041161Y13589741D01*
X-14094572Y13707212D01*
X-14147605Y13768760D01*
X-14174202Y13799628D01*
X-14174203Y13799629D01*
X-14178807Y13804972D01*
X-14184724Y13808807D01*
X-14184726Y13808809D01*
X-14281176Y13871323D01*
X-14287094Y13875159D01*
X-14293850Y13877179D01*
X-14293851Y13877180D01*
X-14336665Y13889984D01*
X-14410727Y13912134D01*
X-14487356Y13912602D01*
X-14532718Y13912879D01*
X-14539769Y13912922D01*
X-14546546Y13910985D01*
X-14546547Y13910985D01*
X-14657065Y13879399D01*
X-14657067Y13879398D01*
X-14663845Y13877461D01*
X-14772981Y13808601D01*
X-14858404Y13711878D01*
X-14913246Y13595068D01*
X-14933099Y13467560D01*
X-40100051Y13467560D01*
X-39991949Y13797146D01*
X-39990973Y13799976D01*
X-39927441Y13975560D01*
X-7059099Y13975560D01*
X-7058184Y13968563D01*
X-7058184Y13968562D01*
X-7056918Y13958880D01*
X-7042367Y13847606D01*
X-7039529Y13841155D01*
X-7039528Y13841153D01*
X-6993236Y13735946D01*
X-6990395Y13729490D01*
X-6971668Y13707212D01*
X-6911900Y13636108D01*
X-6911897Y13636106D01*
X-6907361Y13630709D01*
X-6799940Y13559204D01*
X-6793212Y13557102D01*
X-6793210Y13557101D01*
X-6738354Y13539963D01*
X-6676767Y13520722D01*
X-6612256Y13519540D01*
X-6554798Y13518486D01*
X-6554796Y13518486D01*
X-6547745Y13518357D01*
X-6540942Y13520212D01*
X-6540940Y13520212D01*
X-6499172Y13531600D01*
X-6423245Y13552300D01*
X-6313276Y13619821D01*
X-6235727Y13705496D01*
X-6231410Y13710265D01*
X-6231410Y13710266D01*
X-6226678Y13715493D01*
X-6170412Y13831625D01*
X-6159404Y13897059D01*
X-6149637Y13955109D01*
X-6149637Y13955114D01*
X-6149003Y13958880D01*
X-6148867Y13970000D01*
X-6149663Y13975560D01*
X10212901Y13975560D01*
X10213816Y13968563D01*
X10213816Y13968562D01*
X10215082Y13958880D01*
X10229633Y13847606D01*
X10232471Y13841155D01*
X10232472Y13841153D01*
X10278764Y13735946D01*
X10281605Y13729490D01*
X10300332Y13707212D01*
X10360100Y13636108D01*
X10360103Y13636106D01*
X10364639Y13630709D01*
X10472060Y13559204D01*
X10478788Y13557102D01*
X10478790Y13557101D01*
X10533646Y13539963D01*
X10595233Y13520722D01*
X10659744Y13519540D01*
X10717202Y13518486D01*
X10717204Y13518486D01*
X10724255Y13518357D01*
X10731058Y13520212D01*
X10731060Y13520212D01*
X10772828Y13531600D01*
X10848755Y13552300D01*
X10958724Y13619821D01*
X11036273Y13705496D01*
X11040590Y13710265D01*
X11040590Y13710266D01*
X11045322Y13715493D01*
X11101588Y13831625D01*
X11112596Y13897059D01*
X11122363Y13955109D01*
X11122363Y13955114D01*
X11122997Y13958880D01*
X11123133Y13970000D01*
X11104839Y14097741D01*
X11051428Y14215212D01*
X10967193Y14312972D01*
X10961276Y14316807D01*
X10961274Y14316809D01*
X10864824Y14379323D01*
X10858906Y14383159D01*
X10852150Y14385179D01*
X10852149Y14385180D01*
X10808921Y14398108D01*
X10735273Y14420134D01*
X10658644Y14420602D01*
X10613282Y14420879D01*
X10606231Y14420922D01*
X10599454Y14418985D01*
X10599453Y14418985D01*
X10488935Y14387399D01*
X10488933Y14387398D01*
X10482155Y14385461D01*
X10373019Y14316601D01*
X10287596Y14219878D01*
X10232754Y14103068D01*
X10212901Y13975560D01*
X-6149663Y13975560D01*
X-6167161Y14097741D01*
X-6220572Y14215212D01*
X-6304807Y14312972D01*
X-6310724Y14316807D01*
X-6310726Y14316809D01*
X-6407176Y14379323D01*
X-6413094Y14383159D01*
X-6419850Y14385179D01*
X-6419851Y14385180D01*
X-6463079Y14398108D01*
X-6536727Y14420134D01*
X-6613356Y14420602D01*
X-6658718Y14420879D01*
X-6665769Y14420922D01*
X-6672546Y14418985D01*
X-6672547Y14418985D01*
X-6783065Y14387399D01*
X-6783067Y14387398D01*
X-6789845Y14385461D01*
X-6898981Y14316601D01*
X-6984404Y14219878D01*
X-7039246Y14103068D01*
X-7059099Y13975560D01*
X-39927441Y13975560D01*
X-39651723Y14737560D01*
X-24077099Y14737560D01*
X-24076184Y14730563D01*
X-24076184Y14730562D01*
X-24075223Y14723212D01*
X-24060367Y14609606D01*
X-24057529Y14603155D01*
X-24057528Y14603153D01*
X-24028241Y14536593D01*
X-24008395Y14491490D01*
X-23990920Y14470701D01*
X-23929900Y14398108D01*
X-23929897Y14398106D01*
X-23925361Y14392709D01*
X-23817940Y14321204D01*
X-23811212Y14319102D01*
X-23811210Y14319101D01*
X-23786291Y14311316D01*
X-23694767Y14282722D01*
X-23630256Y14281540D01*
X-23572798Y14280486D01*
X-23572796Y14280486D01*
X-23565745Y14280357D01*
X-23558942Y14282212D01*
X-23558940Y14282212D01*
X-23517172Y14293600D01*
X-23441245Y14314300D01*
X-23331276Y14381821D01*
X-23295922Y14420879D01*
X-23249410Y14472265D01*
X-23249410Y14472266D01*
X-23244678Y14477493D01*
X-23241739Y14483560D01*
X-13409099Y14483560D01*
X-13408184Y14476563D01*
X-13408184Y14476562D01*
X-13406918Y14466880D01*
X-13392367Y14355606D01*
X-13389529Y14349155D01*
X-13389528Y14349153D01*
X-13360241Y14282593D01*
X-13340395Y14237490D01*
X-13321668Y14215212D01*
X-13261900Y14144108D01*
X-13261897Y14144106D01*
X-13257361Y14138709D01*
X-13149940Y14067204D01*
X-13143212Y14065102D01*
X-13143210Y14065101D01*
X-13088353Y14047963D01*
X-13026767Y14028722D01*
X-12962256Y14027540D01*
X-12904798Y14026486D01*
X-12904796Y14026486D01*
X-12897745Y14026357D01*
X-12890942Y14028212D01*
X-12890940Y14028212D01*
X-12849172Y14039600D01*
X-12773245Y14060300D01*
X-12663276Y14127821D01*
X-12585727Y14213496D01*
X-12581410Y14218265D01*
X-12581410Y14218266D01*
X-12576678Y14223493D01*
X-12529337Y14321204D01*
X-12523488Y14333276D01*
X-12523488Y14333277D01*
X-12520412Y14339625D01*
X-12509404Y14405059D01*
X-12499637Y14463109D01*
X-12499637Y14463114D01*
X-12499003Y14466880D01*
X-12498867Y14478000D01*
X-12499663Y14483560D01*
X8434901Y14483560D01*
X8435816Y14476563D01*
X8435816Y14476562D01*
X8437082Y14466880D01*
X8451633Y14355606D01*
X8454471Y14349155D01*
X8454472Y14349153D01*
X8483759Y14282593D01*
X8503605Y14237490D01*
X8522332Y14215212D01*
X8582100Y14144108D01*
X8582103Y14144106D01*
X8586639Y14138709D01*
X8694060Y14067204D01*
X8700788Y14065102D01*
X8700790Y14065101D01*
X8755647Y14047963D01*
X8817233Y14028722D01*
X8881744Y14027540D01*
X8939202Y14026486D01*
X8939204Y14026486D01*
X8946255Y14026357D01*
X8953058Y14028212D01*
X8953060Y14028212D01*
X8994828Y14039600D01*
X9070755Y14060300D01*
X9180724Y14127821D01*
X9258273Y14213496D01*
X9262590Y14218265D01*
X9262590Y14218266D01*
X9267322Y14223493D01*
X9314663Y14321204D01*
X9320512Y14333276D01*
X9320512Y14333277D01*
X9323588Y14339625D01*
X9334596Y14405059D01*
X9344363Y14463109D01*
X9344363Y14463114D01*
X9344997Y14466880D01*
X9345133Y14478000D01*
X9326839Y14605741D01*
X9273428Y14723212D01*
X9189193Y14820972D01*
X9183276Y14824807D01*
X9183274Y14824809D01*
X9086824Y14887323D01*
X9080906Y14891159D01*
X9074150Y14893179D01*
X9074149Y14893180D01*
X9031335Y14905984D01*
X8957273Y14928134D01*
X8880644Y14928602D01*
X8835282Y14928879D01*
X8828231Y14928922D01*
X8821454Y14926985D01*
X8821453Y14926985D01*
X8710935Y14895399D01*
X8710933Y14895398D01*
X8704155Y14893461D01*
X8595019Y14824601D01*
X8509596Y14727878D01*
X8454754Y14611068D01*
X8434901Y14483560D01*
X-12499663Y14483560D01*
X-12517161Y14605741D01*
X-12570572Y14723212D01*
X-12654807Y14820972D01*
X-12660724Y14824807D01*
X-12660726Y14824809D01*
X-12757176Y14887323D01*
X-12763094Y14891159D01*
X-12769850Y14893179D01*
X-12769851Y14893180D01*
X-12812665Y14905984D01*
X-12886727Y14928134D01*
X-12963356Y14928602D01*
X-13008718Y14928879D01*
X-13015769Y14928922D01*
X-13022546Y14926985D01*
X-13022547Y14926985D01*
X-13133065Y14895399D01*
X-13133067Y14895398D01*
X-13139845Y14893461D01*
X-13248981Y14824601D01*
X-13334404Y14727878D01*
X-13389246Y14611068D01*
X-13409099Y14483560D01*
X-23241739Y14483560D01*
X-23197337Y14575204D01*
X-23191488Y14587276D01*
X-23191488Y14587277D01*
X-23188412Y14593625D01*
X-23167003Y14720880D01*
X-23166867Y14732000D01*
X-23185161Y14859741D01*
X-23215735Y14926985D01*
X-23235651Y14970788D01*
X-23235652Y14970789D01*
X-23238572Y14977212D01*
X-23250935Y14991560D01*
X-11885099Y14991560D01*
X-11884184Y14984563D01*
X-11884184Y14984562D01*
X-11883223Y14977212D01*
X-11868367Y14863606D01*
X-11865529Y14857155D01*
X-11865528Y14857153D01*
X-11819236Y14751946D01*
X-11816395Y14745490D01*
X-11798920Y14724701D01*
X-11737900Y14652108D01*
X-11737897Y14652106D01*
X-11733361Y14646709D01*
X-11625940Y14575204D01*
X-11619212Y14573102D01*
X-11619210Y14573101D01*
X-11564354Y14555963D01*
X-11502767Y14536722D01*
X-11438256Y14535540D01*
X-11380798Y14534486D01*
X-11380796Y14534486D01*
X-11373745Y14534357D01*
X-11366942Y14536212D01*
X-11366940Y14536212D01*
X-11325172Y14547600D01*
X-11249245Y14568300D01*
X-11139276Y14635821D01*
X-11061727Y14721496D01*
X-11057410Y14726265D01*
X-11057410Y14726266D01*
X-11052678Y14731493D01*
X-10996412Y14847625D01*
X-10985404Y14913059D01*
X-10975637Y14971109D01*
X-10975637Y14971114D01*
X-10975003Y14974880D01*
X-10974867Y14986000D01*
X-10993161Y15113741D01*
X-11023735Y15180985D01*
X-11043651Y15224788D01*
X-11043652Y15224789D01*
X-11046572Y15231212D01*
X-11122098Y15318865D01*
X-11126202Y15323628D01*
X-11126203Y15323629D01*
X-11130807Y15328972D01*
X-11136724Y15332807D01*
X-11136726Y15332809D01*
X-11233176Y15395323D01*
X-11239094Y15399159D01*
X-11245850Y15401179D01*
X-11245851Y15401180D01*
X-11289079Y15414108D01*
X-11362727Y15436134D01*
X-11439356Y15436602D01*
X-11484718Y15436879D01*
X-11491769Y15436922D01*
X-11498546Y15434985D01*
X-11498547Y15434985D01*
X-11609065Y15403399D01*
X-11609067Y15403398D01*
X-11615845Y15401461D01*
X-11724981Y15332601D01*
X-11810404Y15235878D01*
X-11865246Y15119068D01*
X-11885099Y14991560D01*
X-23250935Y14991560D01*
X-23322807Y15074972D01*
X-23328724Y15078807D01*
X-23328726Y15078809D01*
X-23425176Y15141323D01*
X-23431094Y15145159D01*
X-23437850Y15147179D01*
X-23437851Y15147180D01*
X-23480665Y15159984D01*
X-23554727Y15182134D01*
X-23631356Y15182602D01*
X-23676718Y15182879D01*
X-23683769Y15182922D01*
X-23690546Y15180985D01*
X-23690547Y15180985D01*
X-23801065Y15149399D01*
X-23801067Y15149398D01*
X-23807845Y15147461D01*
X-23916981Y15078601D01*
X-24002404Y14981878D01*
X-24057246Y14865068D01*
X-24077099Y14737560D01*
X-39651723Y14737560D01*
X-39557276Y14998583D01*
X-39556215Y15001383D01*
X-39376056Y15455843D01*
X-28298099Y15455843D01*
X-28297184Y15448846D01*
X-28297184Y15448845D01*
X-28291969Y15408966D01*
X-28281367Y15327889D01*
X-28278529Y15321438D01*
X-28278528Y15321436D01*
X-28236002Y15224788D01*
X-28229395Y15209773D01*
X-28206824Y15182922D01*
X-28150900Y15116391D01*
X-28150897Y15116389D01*
X-28146361Y15110992D01*
X-28038940Y15039487D01*
X-28032212Y15037385D01*
X-28032210Y15037384D01*
X-27977354Y15020246D01*
X-27915767Y15001005D01*
X-27851256Y14999823D01*
X-27793798Y14998769D01*
X-27793796Y14998769D01*
X-27786745Y14998640D01*
X-27779942Y15000495D01*
X-27779940Y15000495D01*
X-27738172Y15011883D01*
X-27662245Y15032583D01*
X-27552276Y15100104D01*
X-27542421Y15110992D01*
X-27470410Y15190548D01*
X-27470410Y15190549D01*
X-27465678Y15195776D01*
X-27431282Y15266768D01*
X-27412488Y15305559D01*
X-27412488Y15305560D01*
X-27409412Y15311908D01*
X-27395579Y15394129D01*
X-27388637Y15435392D01*
X-27388637Y15435397D01*
X-27388003Y15439163D01*
X-27387867Y15450283D01*
X-27406161Y15578024D01*
X-27438036Y15648129D01*
X-27456651Y15689071D01*
X-27456652Y15689072D01*
X-27459572Y15695495D01*
X-27543807Y15793255D01*
X-27549724Y15797090D01*
X-27549726Y15797092D01*
X-27646176Y15859606D01*
X-27652094Y15863442D01*
X-27658850Y15865462D01*
X-27658851Y15865463D01*
X-27714691Y15882163D01*
X-27775727Y15900417D01*
X-27852356Y15900885D01*
X-27897718Y15901162D01*
X-27904769Y15901205D01*
X-27911546Y15899268D01*
X-27911547Y15899268D01*
X-28022065Y15867682D01*
X-28022067Y15867681D01*
X-28028845Y15865744D01*
X-28137981Y15796884D01*
X-28223404Y15700161D01*
X-28278246Y15583351D01*
X-28298099Y15455843D01*
X-39376056Y15455843D01*
X-39222538Y15843101D01*
X-39157342Y16007560D01*
X-10615099Y16007560D01*
X-10614184Y16000563D01*
X-10614184Y16000562D01*
X-10613223Y15993212D01*
X-10598367Y15879606D01*
X-10595529Y15873155D01*
X-10595528Y15873153D01*
X-10549236Y15767946D01*
X-10546395Y15761490D01*
X-10528920Y15740701D01*
X-10467900Y15668108D01*
X-10467897Y15668106D01*
X-10463361Y15662709D01*
X-10355940Y15591204D01*
X-10349212Y15589102D01*
X-10349210Y15589101D01*
X-10313754Y15578024D01*
X-10232767Y15552722D01*
X-10168256Y15551539D01*
X-10110798Y15550486D01*
X-10110796Y15550486D01*
X-10103745Y15550357D01*
X-10096942Y15552212D01*
X-10096940Y15552212D01*
X-10027882Y15571040D01*
X-9979245Y15584300D01*
X-9869276Y15651821D01*
X-9835559Y15689071D01*
X-9787410Y15742265D01*
X-9787410Y15742266D01*
X-9782678Y15747493D01*
X-9779739Y15753560D01*
X15292901Y15753560D01*
X15293816Y15746563D01*
X15293816Y15746562D01*
X15295082Y15736880D01*
X15309633Y15625606D01*
X15312471Y15619155D01*
X15312472Y15619153D01*
X15341759Y15552593D01*
X15361605Y15507490D01*
X15399157Y15462817D01*
X15440100Y15414108D01*
X15440103Y15414106D01*
X15444639Y15408709D01*
X15552060Y15337204D01*
X15558788Y15335102D01*
X15558790Y15335101D01*
X15581875Y15327889D01*
X15675233Y15298722D01*
X15739744Y15297540D01*
X15797202Y15296486D01*
X15797204Y15296486D01*
X15804255Y15296357D01*
X15811058Y15298212D01*
X15811060Y15298212D01*
X15886812Y15318865D01*
X15928755Y15330300D01*
X16038724Y15397821D01*
X16074078Y15436879D01*
X16120590Y15488265D01*
X16120590Y15488266D01*
X16125322Y15493493D01*
X16172663Y15591204D01*
X16178512Y15603276D01*
X16178512Y15603277D01*
X16181588Y15609625D01*
X16196934Y15700841D01*
X16202363Y15733109D01*
X16202363Y15733114D01*
X16202997Y15736880D01*
X16203133Y15748000D01*
X16184839Y15875741D01*
X16131428Y15993212D01*
X16071446Y16062825D01*
X16051798Y16085628D01*
X16051797Y16085629D01*
X16047193Y16090972D01*
X16041276Y16094807D01*
X16041274Y16094809D01*
X15944824Y16157323D01*
X15938906Y16161159D01*
X15932150Y16163179D01*
X15932149Y16163180D01*
X15850027Y16187740D01*
X15815273Y16198134D01*
X15738644Y16198602D01*
X15693282Y16198879D01*
X15686231Y16198922D01*
X15679454Y16196985D01*
X15679453Y16196985D01*
X15568935Y16165399D01*
X15568933Y16165398D01*
X15562155Y16163461D01*
X15453019Y16094601D01*
X15367596Y15997878D01*
X15312754Y15881068D01*
X15292901Y15753560D01*
X-9779739Y15753560D01*
X-9735337Y15845204D01*
X-9729488Y15857276D01*
X-9729488Y15857277D01*
X-9726412Y15863625D01*
X-9705003Y15990880D01*
X-9704867Y16002000D01*
X-9723161Y16129741D01*
X-9753735Y16196985D01*
X-9773651Y16240788D01*
X-9773652Y16240789D01*
X-9776572Y16247212D01*
X-9788935Y16261560D01*
X3354901Y16261560D01*
X3355816Y16254563D01*
X3355816Y16254562D01*
X3356777Y16247212D01*
X3371633Y16133606D01*
X3374471Y16127155D01*
X3374472Y16127153D01*
X3403759Y16060593D01*
X3423605Y16015490D01*
X3441080Y15994701D01*
X3502100Y15922108D01*
X3502103Y15922106D01*
X3506639Y15916709D01*
X3614060Y15845204D01*
X3620788Y15843102D01*
X3620790Y15843101D01*
X3675646Y15825963D01*
X3737233Y15806722D01*
X3801744Y15805539D01*
X3859202Y15804486D01*
X3859204Y15804486D01*
X3866255Y15804357D01*
X3873058Y15806212D01*
X3873060Y15806212D01*
X3914828Y15817600D01*
X3990755Y15838300D01*
X4100724Y15905821D01*
X4178273Y15991496D01*
X4182590Y15996265D01*
X4182590Y15996266D01*
X4187322Y16001493D01*
X4234663Y16099204D01*
X4240512Y16111276D01*
X4240512Y16111277D01*
X4243588Y16117625D01*
X4255614Y16189109D01*
X4264363Y16241109D01*
X4264363Y16241114D01*
X4264997Y16244880D01*
X4265133Y16256000D01*
X4246839Y16383741D01*
X4216265Y16450985D01*
X4196349Y16494788D01*
X4196348Y16494789D01*
X4193428Y16501212D01*
X4109193Y16598972D01*
X4103276Y16602807D01*
X4103274Y16602809D01*
X4031312Y16649451D01*
X4000906Y16669159D01*
X3994150Y16671179D01*
X3994149Y16671180D01*
X3951335Y16683984D01*
X3877273Y16706134D01*
X3800644Y16706602D01*
X3755282Y16706879D01*
X3748231Y16706922D01*
X3741454Y16704985D01*
X3741453Y16704985D01*
X3630935Y16673399D01*
X3630933Y16673398D01*
X3624155Y16671461D01*
X3515019Y16602601D01*
X3429596Y16505878D01*
X3374754Y16389068D01*
X3354901Y16261560D01*
X-9788935Y16261560D01*
X-9860807Y16344972D01*
X-9866724Y16348807D01*
X-9866726Y16348809D01*
X-9963176Y16411323D01*
X-9969094Y16415159D01*
X-9975850Y16417179D01*
X-9975851Y16417180D01*
X-10019079Y16430108D01*
X-10092727Y16452134D01*
X-10169356Y16452602D01*
X-10214718Y16452879D01*
X-10221769Y16452922D01*
X-10228546Y16450985D01*
X-10228547Y16450985D01*
X-10339065Y16419399D01*
X-10339067Y16419398D01*
X-10345845Y16417461D01*
X-10454981Y16348601D01*
X-10540404Y16251878D01*
X-10595246Y16135068D01*
X-10615099Y16007560D01*
X-39157342Y16007560D01*
X-39086464Y16186354D01*
X-39085324Y16189109D01*
X-38934698Y16537899D01*
X-27724043Y16537899D01*
X-27723128Y16530902D01*
X-27723128Y16530901D01*
X-27720207Y16508562D01*
X-27707311Y16409945D01*
X-27704473Y16403494D01*
X-27704472Y16403492D01*
X-27658180Y16298285D01*
X-27655339Y16291829D01*
X-27616392Y16245496D01*
X-27576844Y16198447D01*
X-27576841Y16198445D01*
X-27572305Y16193048D01*
X-27486847Y16136163D01*
X-27474731Y16128098D01*
X-27464884Y16121543D01*
X-27458156Y16119441D01*
X-27458154Y16119440D01*
X-27405890Y16103112D01*
X-27341711Y16083061D01*
X-27277200Y16081879D01*
X-27219742Y16080825D01*
X-27219740Y16080825D01*
X-27212689Y16080696D01*
X-27205886Y16082551D01*
X-27205884Y16082551D01*
X-27152517Y16097101D01*
X-27088189Y16114639D01*
X-26978220Y16182160D01*
X-26963048Y16198922D01*
X-26896354Y16272604D01*
X-26896354Y16272605D01*
X-26891622Y16277832D01*
X-26835356Y16393964D01*
X-26824348Y16459398D01*
X-26814899Y16515560D01*
X-25093099Y16515560D01*
X-25092184Y16508563D01*
X-25092184Y16508562D01*
X-25091223Y16501212D01*
X-25076367Y16387606D01*
X-25073529Y16381155D01*
X-25073528Y16381153D01*
X-25028066Y16277832D01*
X-25024395Y16269490D01*
X-25006920Y16248701D01*
X-24945900Y16176108D01*
X-24945897Y16176106D01*
X-24941361Y16170709D01*
X-24833940Y16099204D01*
X-24827212Y16097102D01*
X-24827210Y16097101D01*
X-24802291Y16089316D01*
X-24710767Y16060722D01*
X-24646256Y16059539D01*
X-24588798Y16058486D01*
X-24588796Y16058486D01*
X-24581745Y16058357D01*
X-24574942Y16060212D01*
X-24574940Y16060212D01*
X-24533172Y16071600D01*
X-24457245Y16092300D01*
X-24347276Y16159821D01*
X-24332534Y16176108D01*
X-24265410Y16250265D01*
X-24265410Y16250266D01*
X-24260678Y16255493D01*
X-24213337Y16353204D01*
X-24207488Y16365276D01*
X-24207488Y16365277D01*
X-24204412Y16371625D01*
X-24193404Y16437059D01*
X-24183637Y16495109D01*
X-24183637Y16495114D01*
X-24183003Y16498880D01*
X-24182867Y16510000D01*
X-24201161Y16637741D01*
X-24231735Y16704985D01*
X-24251651Y16748788D01*
X-24251652Y16748789D01*
X-24254572Y16755212D01*
X-24266935Y16769560D01*
X-4265099Y16769560D01*
X-4264184Y16762563D01*
X-4264184Y16762562D01*
X-4263223Y16755212D01*
X-4248367Y16641606D01*
X-4245529Y16635155D01*
X-4245528Y16635153D01*
X-4200289Y16532339D01*
X-4196395Y16523490D01*
X-4178920Y16502701D01*
X-4117900Y16430108D01*
X-4117897Y16430106D01*
X-4113361Y16424709D01*
X-4005940Y16353204D01*
X-3999212Y16351102D01*
X-3999210Y16351101D01*
X-3974291Y16343316D01*
X-3882767Y16314722D01*
X-3818256Y16313539D01*
X-3760798Y16312486D01*
X-3760796Y16312486D01*
X-3753745Y16312357D01*
X-3746942Y16314212D01*
X-3746940Y16314212D01*
X-3705172Y16325600D01*
X-3629245Y16346300D01*
X-3519276Y16413821D01*
X-3483922Y16452879D01*
X-3437410Y16504265D01*
X-3437410Y16504266D01*
X-3432678Y16509493D01*
X-3376412Y16625625D01*
X-3365404Y16691059D01*
X-3355637Y16749109D01*
X-3355637Y16749114D01*
X-3355003Y16752880D01*
X-3354867Y16764000D01*
X-3373161Y16891741D01*
X-3403735Y16958985D01*
X-3423651Y17002788D01*
X-3423652Y17002789D01*
X-3426572Y17009212D01*
X-3510807Y17106972D01*
X-3516724Y17110807D01*
X-3516726Y17110809D01*
X-3613176Y17173323D01*
X-3619094Y17177159D01*
X-3625850Y17179179D01*
X-3625851Y17179180D01*
X-3668665Y17191984D01*
X-3742727Y17214134D01*
X-3819356Y17214602D01*
X-3864718Y17214879D01*
X-3871769Y17214922D01*
X-3878546Y17212985D01*
X-3878547Y17212985D01*
X-3989065Y17181399D01*
X-3989067Y17181398D01*
X-3995845Y17179461D01*
X-4104981Y17110601D01*
X-4190404Y17013878D01*
X-4245246Y16897068D01*
X-4265099Y16769560D01*
X-24266935Y16769560D01*
X-24338807Y16852972D01*
X-24344724Y16856807D01*
X-24344726Y16856809D01*
X-24441176Y16919323D01*
X-24447094Y16923159D01*
X-24453850Y16925179D01*
X-24453851Y16925180D01*
X-24516904Y16944037D01*
X-24570727Y16960134D01*
X-24647356Y16960602D01*
X-24692718Y16960879D01*
X-24699769Y16960922D01*
X-24706546Y16958985D01*
X-24706547Y16958985D01*
X-24817065Y16927399D01*
X-24817067Y16927398D01*
X-24823845Y16925461D01*
X-24932981Y16856601D01*
X-25018404Y16759878D01*
X-25073246Y16643068D01*
X-25093099Y16515560D01*
X-26814899Y16515560D01*
X-26814581Y16517448D01*
X-26814581Y16517453D01*
X-26813947Y16521219D01*
X-26813811Y16532339D01*
X-26832105Y16660080D01*
X-26876036Y16756701D01*
X-26882595Y16771127D01*
X-26882596Y16771128D01*
X-26885516Y16777551D01*
X-26950049Y16852446D01*
X-26965146Y16869967D01*
X-26965147Y16869968D01*
X-26969751Y16875311D01*
X-26975668Y16879146D01*
X-26975670Y16879148D01*
X-27058307Y16932709D01*
X-27078038Y16945498D01*
X-27084794Y16947518D01*
X-27084795Y16947519D01*
X-27129611Y16960922D01*
X-27201671Y16982473D01*
X-27278300Y16982941D01*
X-27323662Y16983218D01*
X-27330713Y16983261D01*
X-27337490Y16981324D01*
X-27337491Y16981324D01*
X-27448009Y16949738D01*
X-27448011Y16949737D01*
X-27454789Y16947800D01*
X-27563925Y16878940D01*
X-27649348Y16782217D01*
X-27704190Y16665407D01*
X-27724043Y16537899D01*
X-38934698Y16537899D01*
X-38615273Y17277560D01*
X-7059099Y17277560D01*
X-7058184Y17270563D01*
X-7058184Y17270562D01*
X-7056918Y17260880D01*
X-7042367Y17149606D01*
X-7039529Y17143155D01*
X-7039528Y17143153D01*
X-6993236Y17037946D01*
X-6990395Y17031490D01*
X-6971668Y17009212D01*
X-6911900Y16938108D01*
X-6911897Y16938106D01*
X-6907361Y16932709D01*
X-6799940Y16861204D01*
X-6793212Y16859102D01*
X-6793210Y16859101D01*
X-6768291Y16851316D01*
X-6676767Y16822722D01*
X-6612256Y16821539D01*
X-6554798Y16820486D01*
X-6554796Y16820486D01*
X-6547745Y16820357D01*
X-6540942Y16822212D01*
X-6540940Y16822212D01*
X-6499172Y16833600D01*
X-6423245Y16854300D01*
X-6313276Y16921821D01*
X-6295317Y16941662D01*
X-6231410Y17012265D01*
X-6231410Y17012266D01*
X-6226678Y17017493D01*
X-6170412Y17133625D01*
X-6159404Y17199059D01*
X-6149637Y17257109D01*
X-6149637Y17257114D01*
X-6149003Y17260880D01*
X-6148867Y17272000D01*
X-6167161Y17399741D01*
X-6220572Y17517212D01*
X-6229202Y17527228D01*
X-6282256Y17588801D01*
X-6305917Y17645227D01*
X-6291893Y17704783D01*
X-6280655Y17719860D01*
X-6231410Y17774265D01*
X-6231410Y17774266D01*
X-6226678Y17779493D01*
X-6198544Y17837560D01*
X6350901Y17837560D01*
X6367633Y17709606D01*
X6370471Y17703155D01*
X6370472Y17703153D01*
X6416764Y17597946D01*
X6419605Y17591490D01*
X6457889Y17545946D01*
X6498100Y17498108D01*
X6498103Y17498106D01*
X6502639Y17492709D01*
X6610060Y17421204D01*
X6616788Y17419102D01*
X6616790Y17419101D01*
X6641277Y17411451D01*
X6733233Y17382722D01*
X6797744Y17381539D01*
X6855202Y17380486D01*
X6855204Y17380486D01*
X6862255Y17380357D01*
X6869058Y17382212D01*
X6869060Y17382212D01*
X6927327Y17398098D01*
X6986755Y17414300D01*
X7096724Y17481821D01*
X7137765Y17527162D01*
X7178590Y17572265D01*
X7178590Y17572266D01*
X7183322Y17577493D01*
X7239588Y17693625D01*
X7255055Y17785560D01*
X8434901Y17785560D01*
X8435816Y17778563D01*
X8435816Y17778562D01*
X8437082Y17768880D01*
X8451633Y17657606D01*
X8454471Y17651155D01*
X8454472Y17651153D01*
X8500764Y17545946D01*
X8503605Y17539490D01*
X8545122Y17490100D01*
X8582100Y17446108D01*
X8582103Y17446106D01*
X8586639Y17440709D01*
X8694060Y17369204D01*
X8700788Y17367102D01*
X8700790Y17367101D01*
X8725693Y17359321D01*
X8817233Y17330722D01*
X8881744Y17329539D01*
X8939202Y17328486D01*
X8939204Y17328486D01*
X8946255Y17328357D01*
X8953058Y17330212D01*
X8953060Y17330212D01*
X8994828Y17341600D01*
X9070755Y17362300D01*
X9180724Y17429821D01*
X9234110Y17488801D01*
X9262590Y17520265D01*
X9262590Y17520266D01*
X9267322Y17525493D01*
X9314663Y17623204D01*
X9320512Y17635276D01*
X9320512Y17635277D01*
X9323588Y17641625D01*
X9344997Y17768880D01*
X9345133Y17780000D01*
X9326839Y17907741D01*
X9273428Y18025212D01*
X9220049Y18087162D01*
X9193798Y18117628D01*
X9193797Y18117629D01*
X9189193Y18122972D01*
X9183276Y18126807D01*
X9183274Y18126809D01*
X9111312Y18173451D01*
X9080906Y18193159D01*
X9074150Y18195179D01*
X9074149Y18195180D01*
X9031335Y18207984D01*
X8957273Y18230134D01*
X8880644Y18230602D01*
X8835282Y18230879D01*
X8828231Y18230922D01*
X8821454Y18228985D01*
X8821453Y18228985D01*
X8710935Y18197399D01*
X8710933Y18197398D01*
X8704155Y18195461D01*
X8595019Y18126601D01*
X8509596Y18029878D01*
X8454754Y17913068D01*
X8434901Y17785560D01*
X7255055Y17785560D01*
X7257232Y17798501D01*
X7285531Y17852748D01*
X7340312Y17880001D01*
X7356674Y17881059D01*
X7415202Y17879986D01*
X7415204Y17879986D01*
X7422255Y17879857D01*
X7429058Y17881712D01*
X7429060Y17881712D01*
X7478066Y17895073D01*
X7546755Y17913800D01*
X7656724Y17981321D01*
X7661459Y17986552D01*
X7738590Y18071765D01*
X7738590Y18071766D01*
X7743322Y18076993D01*
X7799588Y18193125D01*
X7814563Y18282134D01*
X7816485Y18293560D01*
X10212901Y18293560D01*
X10213816Y18286563D01*
X10213816Y18286562D01*
X10214777Y18279212D01*
X10229633Y18165606D01*
X10232471Y18159155D01*
X10232472Y18159153D01*
X10278764Y18053946D01*
X10281605Y18047490D01*
X10299080Y18026701D01*
X10360100Y17954108D01*
X10360103Y17954106D01*
X10364639Y17948709D01*
X10445216Y17895073D01*
X10464522Y17882222D01*
X10472060Y17877204D01*
X10478788Y17875102D01*
X10478790Y17875101D01*
X10533647Y17857963D01*
X10595233Y17838722D01*
X10658626Y17837560D01*
X10717202Y17836486D01*
X10717204Y17836486D01*
X10724255Y17836357D01*
X10731058Y17838212D01*
X10731060Y17838212D01*
X10772828Y17849600D01*
X10848755Y17870300D01*
X10958724Y17937821D01*
X10983387Y17965068D01*
X11040590Y18028265D01*
X11040590Y18028266D01*
X11045322Y18033493D01*
X11079718Y18104485D01*
X11098512Y18143276D01*
X11098512Y18143277D01*
X11101588Y18149625D01*
X11112596Y18215059D01*
X11122363Y18273109D01*
X11122363Y18273114D01*
X11122997Y18276880D01*
X11123133Y18288000D01*
X11104839Y18415741D01*
X11074265Y18482985D01*
X11054349Y18526788D01*
X11054348Y18526789D01*
X11051428Y18533212D01*
X10967193Y18630972D01*
X10961276Y18634807D01*
X10961274Y18634809D01*
X10864824Y18697323D01*
X10858906Y18701159D01*
X10852150Y18703179D01*
X10852149Y18703180D01*
X10808921Y18716108D01*
X10735273Y18738134D01*
X10658644Y18738602D01*
X10613282Y18738879D01*
X10606231Y18738922D01*
X10599454Y18736985D01*
X10599453Y18736985D01*
X10488935Y18705399D01*
X10488933Y18705398D01*
X10482155Y18703461D01*
X10373019Y18634601D01*
X10287596Y18537878D01*
X10232754Y18421068D01*
X10212901Y18293560D01*
X7816485Y18293560D01*
X7820363Y18316609D01*
X7820363Y18316614D01*
X7820997Y18320380D01*
X7821133Y18331500D01*
X7802839Y18459241D01*
X7784464Y18499654D01*
X7752349Y18570288D01*
X7752348Y18570289D01*
X7749428Y18576712D01*
X7673715Y18664582D01*
X7669798Y18669128D01*
X7669797Y18669129D01*
X7665193Y18674472D01*
X7659276Y18678307D01*
X7659274Y18678309D01*
X7588813Y18723978D01*
X7556906Y18744659D01*
X7550150Y18746679D01*
X7550149Y18746680D01*
X7507335Y18759484D01*
X7433273Y18781634D01*
X7356644Y18782102D01*
X7311282Y18782379D01*
X7304231Y18782422D01*
X7297454Y18780485D01*
X7297453Y18780485D01*
X7186935Y18748899D01*
X7186933Y18748898D01*
X7180155Y18746961D01*
X7071019Y18678101D01*
X6985596Y18581378D01*
X6930754Y18464568D01*
X6927835Y18445821D01*
X6915445Y18366245D01*
X6887811Y18311656D01*
X6833367Y18283736D01*
X6817020Y18282478D01*
X6751283Y18282879D01*
X6744231Y18282922D01*
X6737454Y18280985D01*
X6737453Y18280985D01*
X6626935Y18249399D01*
X6626933Y18249398D01*
X6620155Y18247461D01*
X6511019Y18178601D01*
X6425596Y18081878D01*
X6370754Y17965068D01*
X6350901Y17837560D01*
X-6198544Y17837560D01*
X-6177469Y17881059D01*
X-6173488Y17889276D01*
X-6173488Y17889277D01*
X-6170412Y17895625D01*
X-6149003Y18022880D01*
X-6148867Y18034000D01*
X-6167161Y18161741D01*
X-6197735Y18228985D01*
X-6217651Y18272788D01*
X-6217652Y18272789D01*
X-6220572Y18279212D01*
X-6256044Y18320380D01*
X-6282256Y18350801D01*
X-6305917Y18407227D01*
X-6291893Y18466783D01*
X-6280655Y18481860D01*
X-6231410Y18536265D01*
X-6231410Y18536266D01*
X-6226678Y18541493D01*
X-6179337Y18639204D01*
X-6173488Y18651276D01*
X-6173488Y18651277D01*
X-6170412Y18657625D01*
X-6159404Y18723059D01*
X-6149637Y18781109D01*
X-6149637Y18781114D01*
X-6149003Y18784880D01*
X-6148867Y18796000D01*
X-6167161Y18923741D01*
X-6193341Y18981321D01*
X-6217651Y19034788D01*
X-6217652Y19034789D01*
X-6220572Y19041212D01*
X-6232935Y19055560D01*
X-5702079Y19055560D01*
X-5701164Y19048563D01*
X-5701164Y19048562D01*
X-5700203Y19041212D01*
X-5685347Y18927606D01*
X-5682509Y18921155D01*
X-5682508Y18921153D01*
X-5653221Y18854593D01*
X-5633375Y18809490D01*
X-5608260Y18779612D01*
X-5554880Y18716108D01*
X-5554877Y18716106D01*
X-5550341Y18710709D01*
X-5442920Y18639204D01*
X-5436192Y18637102D01*
X-5436190Y18637101D01*
X-5411271Y18629316D01*
X-5319747Y18600722D01*
X-5255236Y18599539D01*
X-5197778Y18598486D01*
X-5197776Y18598486D01*
X-5190725Y18598357D01*
X-5183922Y18600212D01*
X-5183920Y18600212D01*
X-5142152Y18611600D01*
X-5066225Y18632300D01*
X-4956256Y18699821D01*
X-4920902Y18738879D01*
X-4874390Y18790265D01*
X-4874390Y18790266D01*
X-4869658Y18795493D01*
X-4822317Y18893204D01*
X-4816468Y18905276D01*
X-4816468Y18905277D01*
X-4813392Y18911625D01*
X-4801667Y18981321D01*
X-4792617Y19035109D01*
X-4792617Y19035114D01*
X-4791983Y19038880D01*
X-4791847Y19050000D01*
X-4810141Y19177741D01*
X-4840715Y19244985D01*
X-4860631Y19288788D01*
X-4860632Y19288789D01*
X-4863552Y19295212D01*
X-4875915Y19309560D01*
X1576901Y19309560D01*
X1577816Y19302563D01*
X1577816Y19302562D01*
X1578777Y19295212D01*
X1593633Y19181606D01*
X1596471Y19175155D01*
X1596472Y19175153D01*
X1641964Y19071765D01*
X1645605Y19063490D01*
X1663080Y19042701D01*
X1724100Y18970108D01*
X1724103Y18970106D01*
X1728639Y18964709D01*
X1836060Y18893204D01*
X1842788Y18891102D01*
X1842790Y18891101D01*
X1878368Y18879986D01*
X1959233Y18854722D01*
X2023744Y18853540D01*
X2081202Y18852486D01*
X2081204Y18852486D01*
X2088255Y18852357D01*
X2095058Y18854212D01*
X2095060Y18854212D01*
X2136828Y18865600D01*
X2212755Y18886300D01*
X2322724Y18953821D01*
X2400273Y19039496D01*
X2404590Y19044265D01*
X2404590Y19044266D01*
X2409322Y19049493D01*
X2449746Y19132927D01*
X2451342Y19136221D01*
X2493730Y19180345D01*
X2553958Y19191127D01*
X2609021Y19164449D01*
X2631052Y19132927D01*
X2655664Y19076993D01*
X2661605Y19063490D01*
X2679080Y19042701D01*
X2740100Y18970108D01*
X2740103Y18970106D01*
X2744639Y18964709D01*
X2852060Y18893204D01*
X2858788Y18891102D01*
X2858790Y18891101D01*
X2894368Y18879986D01*
X2975233Y18854722D01*
X3039744Y18853540D01*
X3097202Y18852486D01*
X3097204Y18852486D01*
X3104255Y18852357D01*
X3111058Y18854212D01*
X3111060Y18854212D01*
X3152828Y18865600D01*
X3228755Y18886300D01*
X3338724Y18953821D01*
X3416273Y19039496D01*
X3420590Y19044265D01*
X3420590Y19044266D01*
X3425322Y19049493D01*
X3481588Y19165625D01*
X3492596Y19231059D01*
X3502363Y19289109D01*
X3502363Y19289114D01*
X3502997Y19292880D01*
X3503133Y19304000D01*
X3498398Y19337060D01*
X6148901Y19337060D01*
X6149816Y19330063D01*
X6149816Y19330062D01*
X6152815Y19307128D01*
X6165633Y19209106D01*
X6168471Y19202655D01*
X6168472Y19202653D01*
X6208541Y19111590D01*
X6217605Y19090990D01*
X6254954Y19046558D01*
X6296100Y18997608D01*
X6296103Y18997606D01*
X6300639Y18992209D01*
X6408060Y18920704D01*
X6414788Y18918602D01*
X6414790Y18918601D01*
X6457442Y18905276D01*
X6531233Y18882222D01*
X6595744Y18881040D01*
X6653202Y18879986D01*
X6653204Y18879986D01*
X6660255Y18879857D01*
X6667058Y18881712D01*
X6667060Y18881712D01*
X6709211Y18893204D01*
X6784755Y18913800D01*
X6894724Y18981321D01*
X6943120Y19034788D01*
X6976590Y19071765D01*
X6976590Y19071766D01*
X6981322Y19076993D01*
X7021188Y19159276D01*
X7034512Y19186776D01*
X7034512Y19186777D01*
X7037588Y19193125D01*
X7038758Y19200078D01*
X7038759Y19200082D01*
X7047503Y19252059D01*
X7075803Y19306306D01*
X7082344Y19309560D01*
X11990901Y19309560D01*
X11991816Y19302563D01*
X11991816Y19302562D01*
X11992777Y19295212D01*
X12007633Y19181606D01*
X12010471Y19175155D01*
X12010472Y19175153D01*
X12055964Y19071765D01*
X12059605Y19063490D01*
X12077080Y19042701D01*
X12138100Y18970108D01*
X12138103Y18970106D01*
X12142639Y18964709D01*
X12250060Y18893204D01*
X12256788Y18891102D01*
X12256790Y18891101D01*
X12292368Y18879986D01*
X12373233Y18854722D01*
X12437744Y18853540D01*
X12495202Y18852486D01*
X12495204Y18852486D01*
X12502255Y18852357D01*
X12509058Y18854212D01*
X12509060Y18854212D01*
X12550828Y18865600D01*
X12626755Y18886300D01*
X12736724Y18953821D01*
X12814273Y19039496D01*
X12818590Y19044265D01*
X12818590Y19044266D01*
X12823322Y19049493D01*
X12879588Y19165625D01*
X12890596Y19231059D01*
X12900363Y19289109D01*
X12900363Y19289114D01*
X12900997Y19292880D01*
X12901133Y19304000D01*
X12882839Y19431741D01*
X12837440Y19531590D01*
X12832349Y19542788D01*
X12832348Y19542789D01*
X12829428Y19549212D01*
X12776395Y19610760D01*
X12749798Y19641628D01*
X12749797Y19641629D01*
X12745193Y19646972D01*
X12739276Y19650807D01*
X12739274Y19650809D01*
X12668630Y19696597D01*
X12636906Y19717159D01*
X12630150Y19719179D01*
X12630149Y19719180D01*
X12587335Y19731984D01*
X12513273Y19754134D01*
X12436644Y19754602D01*
X12391282Y19754879D01*
X12384231Y19754922D01*
X12377454Y19752985D01*
X12377453Y19752985D01*
X12266935Y19721399D01*
X12266933Y19721398D01*
X12260155Y19719461D01*
X12151019Y19650601D01*
X12065596Y19553878D01*
X12010754Y19437068D01*
X11990901Y19309560D01*
X7082344Y19309560D01*
X7130583Y19333559D01*
X7146944Y19334617D01*
X7155810Y19334454D01*
X7162613Y19336309D01*
X7162615Y19336309D01*
X7204383Y19347697D01*
X7280310Y19368397D01*
X7390279Y19435918D01*
X7398955Y19445503D01*
X7472145Y19526362D01*
X7472145Y19526363D01*
X7476877Y19531590D01*
X7533143Y19647722D01*
X7550165Y19748899D01*
X7553918Y19771206D01*
X7553918Y19771211D01*
X7554552Y19774977D01*
X7554688Y19786097D01*
X7550182Y19817560D01*
X8688901Y19817560D01*
X8689816Y19810563D01*
X8689816Y19810562D01*
X8691082Y19800880D01*
X8705633Y19689606D01*
X8708471Y19683155D01*
X8708472Y19683153D01*
X8753254Y19581378D01*
X8757605Y19571490D01*
X8795539Y19526362D01*
X8836100Y19478108D01*
X8836103Y19478106D01*
X8840639Y19472709D01*
X8948060Y19401204D01*
X8954788Y19399102D01*
X8954790Y19399101D01*
X8989974Y19388109D01*
X9071233Y19362722D01*
X9135744Y19361539D01*
X9193202Y19360486D01*
X9193204Y19360486D01*
X9200255Y19360357D01*
X9207058Y19362212D01*
X9207060Y19362212D01*
X9248828Y19373600D01*
X9324755Y19394300D01*
X9434724Y19461821D01*
X9512273Y19547496D01*
X9516590Y19552265D01*
X9516590Y19552266D01*
X9521322Y19557493D01*
X9577588Y19673625D01*
X9590252Y19748899D01*
X9598363Y19797109D01*
X9598363Y19797114D01*
X9598997Y19800880D01*
X9599133Y19812000D01*
X9580839Y19939741D01*
X9539986Y20029593D01*
X9530349Y20050788D01*
X9530348Y20050789D01*
X9527428Y20057212D01*
X9465512Y20129069D01*
X9447798Y20149628D01*
X9447797Y20149629D01*
X9443193Y20154972D01*
X9437276Y20158807D01*
X9437274Y20158809D01*
X9340824Y20221323D01*
X9334906Y20225159D01*
X9328150Y20227179D01*
X9328149Y20227180D01*
X9285335Y20239984D01*
X9211273Y20262134D01*
X9134644Y20262602D01*
X9089282Y20262879D01*
X9082231Y20262922D01*
X9075454Y20260985D01*
X9075453Y20260985D01*
X8964935Y20229399D01*
X8964933Y20229398D01*
X8958155Y20227461D01*
X8849019Y20158601D01*
X8763596Y20061878D01*
X8708754Y19945068D01*
X8688901Y19817560D01*
X7550182Y19817560D01*
X7536394Y19913838D01*
X7482983Y20031309D01*
X7398748Y20129069D01*
X7392831Y20132904D01*
X7392829Y20132906D01*
X7306929Y20188582D01*
X7290461Y20199256D01*
X7283705Y20201276D01*
X7283704Y20201277D01*
X7240890Y20214081D01*
X7166828Y20236231D01*
X7090199Y20236699D01*
X7044837Y20236976D01*
X7037786Y20237019D01*
X7031009Y20235082D01*
X7031008Y20235082D01*
X6920490Y20203496D01*
X6920488Y20203495D01*
X6913710Y20201558D01*
X6804574Y20132698D01*
X6719151Y20035975D01*
X6664309Y19919165D01*
X6660646Y19895637D01*
X6656046Y19866095D01*
X6628412Y19811506D01*
X6573968Y19783586D01*
X6557621Y19782328D01*
X6553921Y19782351D01*
X6549283Y19782379D01*
X6542231Y19782422D01*
X6535455Y19780485D01*
X6535452Y19780485D01*
X6424935Y19748899D01*
X6424933Y19748898D01*
X6418155Y19746961D01*
X6309019Y19678101D01*
X6223596Y19581378D01*
X6168754Y19464568D01*
X6148901Y19337060D01*
X3498398Y19337060D01*
X3484839Y19431741D01*
X3439440Y19531590D01*
X3434349Y19542788D01*
X3434348Y19542789D01*
X3431428Y19549212D01*
X3378395Y19610760D01*
X3351798Y19641628D01*
X3351797Y19641629D01*
X3347193Y19646972D01*
X3341276Y19650807D01*
X3341274Y19650809D01*
X3270630Y19696597D01*
X3238906Y19717159D01*
X3232150Y19719179D01*
X3232149Y19719180D01*
X3189335Y19731984D01*
X3115273Y19754134D01*
X3038644Y19754602D01*
X2993282Y19754879D01*
X2986231Y19754922D01*
X2979454Y19752985D01*
X2979453Y19752985D01*
X2868935Y19721399D01*
X2868933Y19721398D01*
X2862155Y19719461D01*
X2753019Y19650601D01*
X2667596Y19553878D01*
X2650444Y19517346D01*
X2629468Y19472668D01*
X2587622Y19428029D01*
X2527531Y19416512D01*
X2472146Y19442515D01*
X2449731Y19473766D01*
X2418349Y19542788D01*
X2418348Y19542789D01*
X2415428Y19549212D01*
X2362395Y19610760D01*
X2335798Y19641628D01*
X2335797Y19641629D01*
X2331193Y19646972D01*
X2325276Y19650807D01*
X2325274Y19650809D01*
X2254630Y19696597D01*
X2222906Y19717159D01*
X2216150Y19719179D01*
X2216149Y19719180D01*
X2173335Y19731984D01*
X2099273Y19754134D01*
X2022644Y19754602D01*
X1977282Y19754879D01*
X1970231Y19754922D01*
X1963454Y19752985D01*
X1963453Y19752985D01*
X1852935Y19721399D01*
X1852933Y19721398D01*
X1846155Y19719461D01*
X1737019Y19650601D01*
X1651596Y19553878D01*
X1596754Y19437068D01*
X1576901Y19309560D01*
X-4875915Y19309560D01*
X-4905740Y19344174D01*
X-4929400Y19400597D01*
X-4915376Y19460153D01*
X-4904138Y19475231D01*
X-4834410Y19552265D01*
X-4834410Y19552266D01*
X-4829678Y19557493D01*
X-4773412Y19673625D01*
X-4760748Y19748899D01*
X-4752637Y19797109D01*
X-4752637Y19797114D01*
X-4752003Y19800880D01*
X-4751867Y19812000D01*
X-4770161Y19939741D01*
X-4811014Y20029593D01*
X-4820651Y20050788D01*
X-4820652Y20050789D01*
X-4823572Y20057212D01*
X-4885488Y20129069D01*
X-4903202Y20149628D01*
X-4903203Y20149629D01*
X-4907807Y20154972D01*
X-4913724Y20158807D01*
X-4913726Y20158809D01*
X-5010176Y20221323D01*
X-5016094Y20225159D01*
X-5022850Y20227179D01*
X-5022851Y20227180D01*
X-5065665Y20239984D01*
X-5139727Y20262134D01*
X-5216356Y20262602D01*
X-5261718Y20262879D01*
X-5268769Y20262922D01*
X-5275546Y20260985D01*
X-5275547Y20260985D01*
X-5386065Y20229399D01*
X-5386067Y20229398D01*
X-5392845Y20227461D01*
X-5501981Y20158601D01*
X-5587404Y20061878D01*
X-5642246Y19945068D01*
X-5662099Y19817560D01*
X-5661184Y19810563D01*
X-5661184Y19810562D01*
X-5659918Y19800880D01*
X-5645367Y19689606D01*
X-5642529Y19683155D01*
X-5642528Y19683153D01*
X-5597746Y19581378D01*
X-5593395Y19571490D01*
X-5588858Y19566093D01*
X-5588857Y19566091D01*
X-5566419Y19539398D01*
X-5559855Y19531590D01*
X-5547882Y19517346D01*
X-5524912Y19460636D01*
X-5539662Y19401255D01*
X-5549461Y19388109D01*
X-5627384Y19299878D01*
X-5682226Y19183068D01*
X-5702079Y19055560D01*
X-6232935Y19055560D01*
X-6288455Y19119995D01*
X-6300202Y19133628D01*
X-6300203Y19133629D01*
X-6304807Y19138972D01*
X-6310724Y19142807D01*
X-6310726Y19142809D01*
X-6382688Y19189451D01*
X-6413094Y19209159D01*
X-6419850Y19211179D01*
X-6419851Y19211180D01*
X-6462665Y19223984D01*
X-6536727Y19246134D01*
X-6613356Y19246602D01*
X-6658718Y19246879D01*
X-6665769Y19246922D01*
X-6672546Y19244985D01*
X-6672547Y19244985D01*
X-6783065Y19213399D01*
X-6783067Y19213398D01*
X-6789845Y19211461D01*
X-6898981Y19142601D01*
X-6984404Y19045878D01*
X-7039246Y18929068D01*
X-7059099Y18801560D01*
X-7058184Y18794563D01*
X-7058184Y18794562D01*
X-7056918Y18784880D01*
X-7042367Y18673606D01*
X-7039529Y18667155D01*
X-7039528Y18667153D01*
X-6993236Y18561946D01*
X-6990395Y18555490D01*
X-6957595Y18516470D01*
X-6925386Y18478152D01*
X-6902416Y18421442D01*
X-6917167Y18362061D01*
X-6926964Y18348916D01*
X-6984404Y18283878D01*
X-7039246Y18167068D01*
X-7059099Y18039560D01*
X-7058184Y18032563D01*
X-7058184Y18032562D01*
X-7057223Y18025212D01*
X-7042367Y17911606D01*
X-7039529Y17905155D01*
X-7039528Y17905153D01*
X-7010241Y17838593D01*
X-6990395Y17793490D01*
X-6972920Y17772701D01*
X-6925386Y17716152D01*
X-6902416Y17659442D01*
X-6917167Y17600061D01*
X-6926964Y17586916D01*
X-6984404Y17521878D01*
X-7039246Y17405068D01*
X-7059099Y17277560D01*
X-38615273Y17277560D01*
X-38579950Y17359355D01*
X-38578752Y17362017D01*
X-38261513Y18039560D01*
X-11766599Y18039560D01*
X-11765684Y18032563D01*
X-11765684Y18032562D01*
X-11764723Y18025212D01*
X-11749867Y17911606D01*
X-11747029Y17905155D01*
X-11747028Y17905153D01*
X-11717741Y17838593D01*
X-11697895Y17793490D01*
X-11680420Y17772701D01*
X-11619400Y17700108D01*
X-11619397Y17700106D01*
X-11614861Y17694709D01*
X-11507440Y17623204D01*
X-11500712Y17621102D01*
X-11500710Y17621101D01*
X-11445854Y17603963D01*
X-11384267Y17584722D01*
X-11319756Y17583539D01*
X-11262298Y17582486D01*
X-11262296Y17582486D01*
X-11255245Y17582357D01*
X-11248442Y17584212D01*
X-11248440Y17584212D01*
X-11198066Y17597946D01*
X-11130745Y17616300D01*
X-11020776Y17683821D01*
X-11005605Y17700582D01*
X-10938910Y17774265D01*
X-10938910Y17774266D01*
X-10934178Y17779493D01*
X-10884969Y17881059D01*
X-10880988Y17889276D01*
X-10880988Y17889277D01*
X-10877912Y17895625D01*
X-10856503Y18022880D01*
X-10856367Y18034000D01*
X-10874661Y18161741D01*
X-10905235Y18228985D01*
X-10925151Y18272788D01*
X-10925152Y18272789D01*
X-10928072Y18279212D01*
X-11012307Y18376972D01*
X-11018224Y18380807D01*
X-11018226Y18380809D01*
X-11114676Y18443323D01*
X-11120594Y18447159D01*
X-11127350Y18449179D01*
X-11127351Y18449180D01*
X-11186211Y18466783D01*
X-11244227Y18484134D01*
X-11320856Y18484602D01*
X-11366218Y18484879D01*
X-11373269Y18484922D01*
X-11380046Y18482985D01*
X-11380047Y18482985D01*
X-11490565Y18451399D01*
X-11490567Y18451398D01*
X-11497345Y18449461D01*
X-11606481Y18380601D01*
X-11691904Y18283878D01*
X-11746746Y18167068D01*
X-11766599Y18039560D01*
X-38261513Y18039560D01*
X-38038212Y18516476D01*
X-38036904Y18519162D01*
X-38033048Y18526788D01*
X-37894115Y18801560D01*
X-10361099Y18801560D01*
X-10360184Y18794563D01*
X-10360184Y18794562D01*
X-10358918Y18784880D01*
X-10344367Y18673606D01*
X-10341529Y18667155D01*
X-10341528Y18667153D01*
X-10295236Y18561946D01*
X-10292395Y18555490D01*
X-10259595Y18516470D01*
X-10213900Y18462108D01*
X-10213897Y18462106D01*
X-10209361Y18456709D01*
X-10101940Y18385204D01*
X-10095212Y18383102D01*
X-10095210Y18383101D01*
X-10070291Y18375316D01*
X-9978767Y18346722D01*
X-9914256Y18345539D01*
X-9856798Y18344486D01*
X-9856796Y18344486D01*
X-9849745Y18344357D01*
X-9842942Y18346212D01*
X-9842940Y18346212D01*
X-9801172Y18357600D01*
X-9725245Y18378300D01*
X-9615276Y18445821D01*
X-9579922Y18484879D01*
X-9533410Y18536265D01*
X-9533410Y18536266D01*
X-9528678Y18541493D01*
X-9481337Y18639204D01*
X-9475488Y18651276D01*
X-9475488Y18651277D01*
X-9472412Y18657625D01*
X-9461404Y18723059D01*
X-9451637Y18781109D01*
X-9451637Y18781114D01*
X-9451003Y18784880D01*
X-9450867Y18796000D01*
X-9469161Y18923741D01*
X-9495341Y18981321D01*
X-9519651Y19034788D01*
X-9519652Y19034789D01*
X-9522572Y19041212D01*
X-9534595Y19055166D01*
X-9558258Y19111590D01*
X-9544236Y19171146D01*
X-9534112Y19184728D01*
X-9533411Y19185767D01*
X-9528678Y19190996D01*
X-9524512Y19199593D01*
X-9475488Y19300779D01*
X-9475488Y19300780D01*
X-9472412Y19307128D01*
X-9455927Y19405112D01*
X-9451637Y19430612D01*
X-9451637Y19430617D01*
X-9451003Y19434383D01*
X-9450867Y19445503D01*
X-9469161Y19573244D01*
X-9514434Y19672816D01*
X-9519651Y19684291D01*
X-9519652Y19684292D01*
X-9522572Y19690715D01*
X-9606807Y19788475D01*
X-9612724Y19792310D01*
X-9612726Y19792312D01*
X-9709176Y19854826D01*
X-9715094Y19858662D01*
X-9721850Y19860682D01*
X-9721851Y19860683D01*
X-9764665Y19873487D01*
X-9838727Y19895637D01*
X-9915356Y19896105D01*
X-9960718Y19896382D01*
X-9967769Y19896425D01*
X-9974546Y19894488D01*
X-9974547Y19894488D01*
X-10085065Y19862902D01*
X-10085067Y19862901D01*
X-10091845Y19860964D01*
X-10200981Y19792104D01*
X-10286404Y19695381D01*
X-10341246Y19578571D01*
X-10361099Y19451063D01*
X-10360184Y19444066D01*
X-10360184Y19444065D01*
X-10358087Y19428029D01*
X-10344367Y19323109D01*
X-10341529Y19316658D01*
X-10341528Y19316656D01*
X-10295235Y19211446D01*
X-10295233Y19211443D01*
X-10292395Y19204993D01*
X-10287860Y19199599D01*
X-10287857Y19199593D01*
X-10275837Y19185294D01*
X-10252866Y19128584D01*
X-10267616Y19069203D01*
X-10277415Y19056057D01*
X-10286404Y19045878D01*
X-10341246Y18929068D01*
X-10361099Y18801560D01*
X-37894115Y18801560D01*
X-37461733Y19656694D01*
X-37460354Y19659321D01*
X-37456024Y19667276D01*
X-37097782Y20325560D01*
X-7059099Y20325560D01*
X-7058184Y20318563D01*
X-7058184Y20318562D01*
X-7056918Y20308880D01*
X-7042367Y20197606D01*
X-7039529Y20191155D01*
X-7039528Y20191153D01*
X-7013807Y20132698D01*
X-6990395Y20079490D01*
X-6954388Y20036655D01*
X-6911900Y19986108D01*
X-6911897Y19986106D01*
X-6907361Y19980709D01*
X-6799940Y19909204D01*
X-6793212Y19907102D01*
X-6793210Y19907101D01*
X-6756515Y19895637D01*
X-6676767Y19870722D01*
X-6612256Y19869539D01*
X-6554798Y19868486D01*
X-6554796Y19868486D01*
X-6547745Y19868357D01*
X-6540942Y19870212D01*
X-6540940Y19870212D01*
X-6499172Y19881600D01*
X-6423245Y19902300D01*
X-6313276Y19969821D01*
X-6298534Y19986108D01*
X-6231410Y20060265D01*
X-6231410Y20060266D01*
X-6226678Y20065493D01*
X-6170412Y20181625D01*
X-6159404Y20247059D01*
X-6149637Y20305109D01*
X-6149637Y20305114D01*
X-6149003Y20308880D01*
X-6148867Y20320000D01*
X-6149663Y20325560D01*
X17324901Y20325560D01*
X17325816Y20318563D01*
X17325816Y20318562D01*
X17327082Y20308880D01*
X17341633Y20197606D01*
X17344471Y20191155D01*
X17344472Y20191153D01*
X17370193Y20132698D01*
X17393605Y20079490D01*
X17429612Y20036655D01*
X17472100Y19986108D01*
X17472103Y19986106D01*
X17476639Y19980709D01*
X17584060Y19909204D01*
X17590788Y19907102D01*
X17590790Y19907101D01*
X17627485Y19895637D01*
X17707233Y19870722D01*
X17771744Y19869539D01*
X17829202Y19868486D01*
X17829204Y19868486D01*
X17836255Y19868357D01*
X17843058Y19870212D01*
X17843060Y19870212D01*
X17884828Y19881600D01*
X17960755Y19902300D01*
X18070724Y19969821D01*
X18085466Y19986108D01*
X18152590Y20060265D01*
X18152590Y20060266D01*
X18157322Y20065493D01*
X18213588Y20181625D01*
X18224596Y20247059D01*
X18234363Y20305109D01*
X18234363Y20305114D01*
X18234997Y20308880D01*
X18235133Y20320000D01*
X18216839Y20447741D01*
X18163428Y20565212D01*
X18079193Y20662972D01*
X18073276Y20666807D01*
X18073274Y20666809D01*
X17976824Y20729323D01*
X17970906Y20733159D01*
X17964150Y20735179D01*
X17964149Y20735180D01*
X17905289Y20752783D01*
X17847273Y20770134D01*
X17770644Y20770602D01*
X17725282Y20770879D01*
X17718231Y20770922D01*
X17711454Y20768985D01*
X17711453Y20768985D01*
X17600935Y20737399D01*
X17600933Y20737398D01*
X17594155Y20735461D01*
X17485019Y20666601D01*
X17399596Y20569878D01*
X17344754Y20453068D01*
X17324901Y20325560D01*
X-6149663Y20325560D01*
X-6167161Y20447741D01*
X-6220572Y20565212D01*
X-6229145Y20575162D01*
X-6282256Y20636801D01*
X-6305917Y20693227D01*
X-6291893Y20752783D01*
X-6280655Y20767860D01*
X-6231410Y20822265D01*
X-6231410Y20822266D01*
X-6226678Y20827493D01*
X-6170412Y20943625D01*
X-6153618Y21043446D01*
X-6149637Y21067109D01*
X-6149637Y21067114D01*
X-6149003Y21070880D01*
X-6148867Y21082000D01*
X-6167161Y21209741D01*
X-6189438Y21258736D01*
X-6217651Y21320788D01*
X-6217652Y21320789D01*
X-6220572Y21327212D01*
X-6304807Y21424972D01*
X-6310724Y21428807D01*
X-6310726Y21428809D01*
X-6372056Y21468560D01*
X22531901Y21468560D01*
X22532816Y21461563D01*
X22532816Y21461562D01*
X22534082Y21451880D01*
X22548633Y21340606D01*
X22551471Y21334155D01*
X22551472Y21334153D01*
X22583729Y21260843D01*
X22600605Y21222490D01*
X22642122Y21173100D01*
X22679100Y21129108D01*
X22679103Y21129106D01*
X22683639Y21123709D01*
X22791060Y21052204D01*
X22797788Y21050102D01*
X22797790Y21050101D01*
X22852646Y21032963D01*
X22914233Y21013722D01*
X22978744Y21012539D01*
X23036202Y21011486D01*
X23036204Y21011486D01*
X23043255Y21011357D01*
X23050058Y21013212D01*
X23050060Y21013212D01*
X23091828Y21024600D01*
X23167755Y21045300D01*
X23277724Y21112821D01*
X23364322Y21208493D01*
X23420588Y21324625D01*
X23436571Y21419628D01*
X23441363Y21448109D01*
X23441363Y21448114D01*
X23441997Y21451880D01*
X23442045Y21455743D01*
X23442086Y21459175D01*
X23442133Y21463000D01*
X23423839Y21590741D01*
X23376272Y21695359D01*
X23373349Y21701788D01*
X23373348Y21701789D01*
X23370428Y21708212D01*
X23363881Y21715810D01*
X31802901Y21715810D01*
X31803816Y21708813D01*
X31803816Y21708812D01*
X31804735Y21701788D01*
X31819633Y21587856D01*
X31822471Y21581405D01*
X31822472Y21581403D01*
X31868764Y21476196D01*
X31871605Y21469740D01*
X31905019Y21429989D01*
X31950100Y21376358D01*
X31950103Y21376356D01*
X31954639Y21370959D01*
X32062060Y21299454D01*
X32068788Y21297352D01*
X32068790Y21297351D01*
X32123647Y21280213D01*
X32185233Y21260972D01*
X32249744Y21259790D01*
X32307202Y21258736D01*
X32307204Y21258736D01*
X32314255Y21258607D01*
X32321058Y21260462D01*
X32321060Y21260462D01*
X32362828Y21271850D01*
X32438755Y21292550D01*
X32548724Y21360071D01*
X32605971Y21423316D01*
X32630590Y21450515D01*
X32630590Y21450516D01*
X32635322Y21455743D01*
X32691588Y21571875D01*
X32712997Y21699130D01*
X32713133Y21710250D01*
X32694839Y21837991D01*
X32661196Y21911985D01*
X32644349Y21949038D01*
X32644348Y21949039D01*
X32641428Y21955462D01*
X32557193Y22053222D01*
X32551276Y22057057D01*
X32551274Y22057059D01*
X32454824Y22119573D01*
X32448906Y22123409D01*
X32442150Y22125429D01*
X32442149Y22125430D01*
X32399335Y22138234D01*
X32325273Y22160384D01*
X32248644Y22160852D01*
X32203282Y22161129D01*
X32196231Y22161172D01*
X32189454Y22159235D01*
X32189453Y22159235D01*
X32078935Y22127649D01*
X32078933Y22127648D01*
X32072155Y22125711D01*
X31963019Y22056851D01*
X31877596Y21960128D01*
X31822754Y21843318D01*
X31802901Y21715810D01*
X23363881Y21715810D01*
X23286193Y21805972D01*
X23280276Y21809807D01*
X23280274Y21809809D01*
X23183824Y21872323D01*
X23177906Y21876159D01*
X23171150Y21878179D01*
X23171149Y21878180D01*
X23128335Y21890984D01*
X23054273Y21913134D01*
X22977644Y21913602D01*
X22932282Y21913879D01*
X22925231Y21913922D01*
X22918454Y21911985D01*
X22918453Y21911985D01*
X22807935Y21880399D01*
X22807933Y21880398D01*
X22801155Y21878461D01*
X22692019Y21809601D01*
X22606596Y21712878D01*
X22551754Y21596068D01*
X22531901Y21468560D01*
X-6372056Y21468560D01*
X-6407176Y21491323D01*
X-6413094Y21495159D01*
X-6419850Y21497179D01*
X-6419851Y21497180D01*
X-6463079Y21510108D01*
X-6536727Y21532134D01*
X-6613356Y21532602D01*
X-6658718Y21532879D01*
X-6665769Y21532922D01*
X-6672546Y21530985D01*
X-6672547Y21530985D01*
X-6783065Y21499399D01*
X-6783067Y21499398D01*
X-6789845Y21497461D01*
X-6898981Y21428601D01*
X-6984404Y21331878D01*
X-7039246Y21215068D01*
X-7059099Y21087560D01*
X-7058184Y21080563D01*
X-7058184Y21080562D01*
X-7056918Y21070880D01*
X-7042367Y20959606D01*
X-7039529Y20953155D01*
X-7039528Y20953153D01*
X-7032542Y20937276D01*
X-6990395Y20841490D01*
X-6943973Y20786264D01*
X-6925386Y20764152D01*
X-6902416Y20707442D01*
X-6917167Y20648061D01*
X-6926964Y20634916D01*
X-6984404Y20569878D01*
X-7039246Y20453068D01*
X-7059099Y20325560D01*
X-37097782Y20325560D01*
X-36851051Y20778939D01*
X-36849584Y20781541D01*
X-36225784Y21849560D01*
X-9599099Y21849560D01*
X-9598184Y21842563D01*
X-9598184Y21842562D01*
X-9597371Y21836348D01*
X-9582367Y21721606D01*
X-9579529Y21715155D01*
X-9579528Y21715153D01*
X-9570818Y21695359D01*
X-9530395Y21603490D01*
X-9503820Y21571875D01*
X-9451900Y21510108D01*
X-9451897Y21510106D01*
X-9447361Y21504709D01*
X-9339940Y21433204D01*
X-9333212Y21431102D01*
X-9333210Y21431101D01*
X-9308291Y21423316D01*
X-9216767Y21394722D01*
X-9152256Y21393539D01*
X-9094798Y21392486D01*
X-9094796Y21392486D01*
X-9087745Y21392357D01*
X-9080942Y21394212D01*
X-9080940Y21394212D01*
X-9039172Y21405600D01*
X-8963245Y21426300D01*
X-8853276Y21493821D01*
X-8819637Y21530985D01*
X-8771410Y21584265D01*
X-8771410Y21584266D01*
X-8766678Y21589493D01*
X-8710412Y21705625D01*
X-8694429Y21800628D01*
X-8689637Y21829109D01*
X-8689637Y21829114D01*
X-8689003Y21832880D01*
X-8688867Y21844000D01*
X-8707161Y21971741D01*
X-8725536Y22012154D01*
X-8757651Y22082788D01*
X-8757652Y22082789D01*
X-8760572Y22089212D01*
X-8769145Y22099162D01*
X-8822256Y22160801D01*
X-8845917Y22217227D01*
X-8831893Y22276783D01*
X-8820655Y22291860D01*
X-8771410Y22346265D01*
X-8771410Y22346266D01*
X-8766678Y22351493D01*
X-8710412Y22467625D01*
X-8698538Y22538204D01*
X-8689637Y22591109D01*
X-8689637Y22591114D01*
X-8689003Y22594880D01*
X-8688867Y22606000D01*
X-8707161Y22733741D01*
X-8760572Y22851212D01*
X-8823632Y22924397D01*
X-8840202Y22943628D01*
X-8840203Y22943629D01*
X-8844807Y22948972D01*
X-8850724Y22952807D01*
X-8850726Y22952809D01*
X-8853428Y22954560D01*
X7164901Y22954560D01*
X7165816Y22947563D01*
X7165816Y22947562D01*
X7167082Y22937880D01*
X7181633Y22826606D01*
X7184471Y22820155D01*
X7184472Y22820153D01*
X7220150Y22739068D01*
X7233605Y22708490D01*
X7275122Y22659099D01*
X7312100Y22615108D01*
X7312103Y22615106D01*
X7316639Y22609709D01*
X7424060Y22538204D01*
X7430788Y22536102D01*
X7430790Y22536101D01*
X7485647Y22518963D01*
X7547233Y22499722D01*
X7611744Y22498540D01*
X7669202Y22497486D01*
X7669204Y22497486D01*
X7676255Y22497357D01*
X7683058Y22499212D01*
X7683060Y22499212D01*
X7724828Y22510600D01*
X7800755Y22531300D01*
X7910724Y22598821D01*
X7915459Y22604052D01*
X7992590Y22689265D01*
X7992590Y22689266D01*
X7997322Y22694493D01*
X8053588Y22810625D01*
X8071688Y22918212D01*
X8074363Y22934109D01*
X8074363Y22934114D01*
X8074997Y22937880D01*
X8075133Y22949000D01*
X8056839Y23076741D01*
X8003428Y23194212D01*
X7919193Y23291972D01*
X7913276Y23295807D01*
X7913274Y23295809D01*
X7833280Y23347657D01*
X7810906Y23362159D01*
X7804150Y23364179D01*
X7804149Y23364180D01*
X7772784Y23373560D01*
X16562901Y23373560D01*
X16563816Y23366563D01*
X16563816Y23366562D01*
X16564583Y23360698D01*
X16579633Y23245606D01*
X16582471Y23239155D01*
X16582472Y23239153D01*
X16605073Y23187788D01*
X16631605Y23127490D01*
X16668866Y23083163D01*
X16710100Y23034108D01*
X16710103Y23034106D01*
X16714639Y23028709D01*
X16822060Y22957204D01*
X16828788Y22955102D01*
X16828790Y22955101D01*
X16853709Y22947316D01*
X16945233Y22918722D01*
X17009744Y22917540D01*
X17067202Y22916486D01*
X17067204Y22916486D01*
X17074255Y22916357D01*
X17081058Y22918212D01*
X17081060Y22918212D01*
X17129068Y22931301D01*
X17198755Y22950300D01*
X17308724Y23017821D01*
X17344078Y23056879D01*
X17390590Y23108265D01*
X17390590Y23108266D01*
X17395322Y23113493D01*
X17451588Y23229625D01*
X17469282Y23334798D01*
X17472363Y23353109D01*
X17472363Y23353114D01*
X17472997Y23356880D01*
X17473133Y23368000D01*
X17454839Y23495741D01*
X17413986Y23585593D01*
X17404349Y23606788D01*
X17404348Y23606789D01*
X17401428Y23613212D01*
X17339512Y23685069D01*
X17321798Y23705628D01*
X17321797Y23705629D01*
X17317193Y23710972D01*
X17311276Y23714807D01*
X17311274Y23714809D01*
X17214824Y23777323D01*
X17208906Y23781159D01*
X17202150Y23783179D01*
X17202149Y23783180D01*
X17159335Y23795984D01*
X17085273Y23818134D01*
X17008644Y23818602D01*
X16963282Y23818879D01*
X16956231Y23818922D01*
X16949454Y23816985D01*
X16949453Y23816985D01*
X16838935Y23785399D01*
X16838933Y23785398D01*
X16832155Y23783461D01*
X16723019Y23714601D01*
X16637596Y23617878D01*
X16582754Y23501068D01*
X16562901Y23373560D01*
X7772784Y23373560D01*
X7761335Y23376984D01*
X7687273Y23399134D01*
X7610644Y23399602D01*
X7565282Y23399879D01*
X7558231Y23399922D01*
X7551454Y23397985D01*
X7551453Y23397985D01*
X7440935Y23366399D01*
X7440933Y23366398D01*
X7434155Y23364461D01*
X7325019Y23295601D01*
X7239596Y23198878D01*
X7184754Y23082068D01*
X7164901Y22954560D01*
X-8853428Y22954560D01*
X-8947176Y23015323D01*
X-8953094Y23019159D01*
X-8959850Y23021179D01*
X-8959851Y23021180D01*
X-9003079Y23034108D01*
X-9076727Y23056134D01*
X-9153356Y23056602D01*
X-9198718Y23056879D01*
X-9205769Y23056922D01*
X-9212546Y23054985D01*
X-9212547Y23054985D01*
X-9323065Y23023399D01*
X-9323067Y23023398D01*
X-9329845Y23021461D01*
X-9438981Y22952601D01*
X-9524404Y22855878D01*
X-9579246Y22739068D01*
X-9599099Y22611560D01*
X-9598184Y22604563D01*
X-9598184Y22604562D01*
X-9596950Y22595129D01*
X-9582367Y22483606D01*
X-9579529Y22477155D01*
X-9579528Y22477153D01*
X-9572542Y22461276D01*
X-9530395Y22365490D01*
X-9483973Y22310264D01*
X-9465386Y22288152D01*
X-9442416Y22231442D01*
X-9457167Y22172061D01*
X-9466964Y22158916D01*
X-9524404Y22093878D01*
X-9579246Y21977068D01*
X-9599099Y21849560D01*
X-36225784Y21849560D01*
X-36206701Y21882233D01*
X-36205152Y21884795D01*
X-35529287Y22965540D01*
X-35527661Y22968054D01*
X-35273987Y23347657D01*
X-11364654Y23347657D01*
X-11363739Y23340660D01*
X-11363739Y23340659D01*
X-11362473Y23330977D01*
X-11347922Y23219703D01*
X-11345084Y23213252D01*
X-11345083Y23213250D01*
X-11298791Y23108043D01*
X-11295950Y23101587D01*
X-11269194Y23069757D01*
X-11217455Y23008205D01*
X-11217452Y23008203D01*
X-11212916Y23002806D01*
X-11105495Y22931301D01*
X-11098767Y22929199D01*
X-11098765Y22929198D01*
X-11043908Y22912060D01*
X-10982322Y22892819D01*
X-10917811Y22891637D01*
X-10860353Y22890583D01*
X-10860351Y22890583D01*
X-10853300Y22890454D01*
X-10846497Y22892309D01*
X-10846495Y22892309D01*
X-10804727Y22903697D01*
X-10728800Y22924397D01*
X-10618831Y22991918D01*
X-10604089Y23008205D01*
X-10536965Y23082362D01*
X-10536965Y23082363D01*
X-10532233Y23087590D01*
X-10475967Y23203722D01*
X-10461120Y23291972D01*
X-10455192Y23327206D01*
X-10455192Y23327211D01*
X-10454558Y23330977D01*
X-10454422Y23342097D01*
X-10472716Y23469838D01*
X-10526127Y23587309D01*
X-10610362Y23685069D01*
X-10616279Y23688904D01*
X-10616281Y23688906D01*
X-10712731Y23751420D01*
X-10718649Y23755256D01*
X-10725405Y23757276D01*
X-10725406Y23757277D01*
X-10768220Y23770081D01*
X-10842282Y23792231D01*
X-10918911Y23792699D01*
X-10964273Y23792976D01*
X-10971324Y23793019D01*
X-10978101Y23791082D01*
X-10978102Y23791082D01*
X-11088620Y23759496D01*
X-11088622Y23759495D01*
X-11095400Y23757558D01*
X-11204536Y23688698D01*
X-11289959Y23591975D01*
X-11344801Y23475165D01*
X-11364654Y23347657D01*
X-35273987Y23347657D01*
X-35026257Y23718364D01*
X-34819427Y24027867D01*
X-34817737Y24030315D01*
X-34587865Y24352749D01*
X-34077791Y25068216D01*
X-34076017Y25070627D01*
X-33418174Y25936717D01*
X6356768Y25936717D01*
X6357683Y25929720D01*
X6357683Y25929719D01*
X6358949Y25920037D01*
X6373500Y25808763D01*
X6376338Y25802312D01*
X6376339Y25802310D01*
X6383325Y25786433D01*
X6425472Y25690647D01*
X6466989Y25641256D01*
X6503967Y25597265D01*
X6503970Y25597263D01*
X6508506Y25591866D01*
X6615927Y25520361D01*
X6622655Y25518259D01*
X6622657Y25518258D01*
X6677513Y25501120D01*
X6739100Y25481879D01*
X6803611Y25480697D01*
X6861069Y25479643D01*
X6861071Y25479643D01*
X6868122Y25479514D01*
X6874925Y25481369D01*
X6874927Y25481369D01*
X6916695Y25492757D01*
X6992622Y25513457D01*
X7102591Y25580978D01*
X7189189Y25676650D01*
X7245455Y25792782D01*
X7266864Y25920037D01*
X7267000Y25931157D01*
X7248706Y26058898D01*
X7195295Y26176369D01*
X7111060Y26274129D01*
X7105143Y26277964D01*
X7105141Y26277966D01*
X7008691Y26340480D01*
X7002773Y26344316D01*
X6996017Y26346336D01*
X6996016Y26346337D01*
X6953202Y26359141D01*
X6879140Y26381291D01*
X6802511Y26381759D01*
X6757149Y26382036D01*
X6750098Y26382079D01*
X6743321Y26380142D01*
X6743320Y26380142D01*
X6632802Y26348556D01*
X6632800Y26348555D01*
X6626022Y26346618D01*
X6516886Y26277758D01*
X6431463Y26181035D01*
X6376621Y26064225D01*
X6356768Y25936717D01*
X-33418174Y25936717D01*
X-33305003Y26085713D01*
X-33303156Y26088069D01*
X-32501839Y27079332D01*
X-32499922Y27081632D01*
X-32412299Y27183560D01*
X-10361099Y27183560D01*
X-10360184Y27176563D01*
X-10360184Y27176562D01*
X-10358918Y27166880D01*
X-10344367Y27055606D01*
X-10341529Y27049155D01*
X-10341528Y27049153D01*
X-10295236Y26943946D01*
X-10292395Y26937490D01*
X-10250878Y26888100D01*
X-10213900Y26844108D01*
X-10213897Y26844106D01*
X-10209361Y26838709D01*
X-10101940Y26767204D01*
X-10095212Y26765102D01*
X-10095210Y26765101D01*
X-10040354Y26747963D01*
X-9978767Y26728722D01*
X-9914256Y26727540D01*
X-9856798Y26726486D01*
X-9856796Y26726486D01*
X-9849745Y26726357D01*
X-9842942Y26728212D01*
X-9842940Y26728212D01*
X-9801172Y26739600D01*
X-9725245Y26760300D01*
X-9615276Y26827821D01*
X-9598106Y26846790D01*
X-9593073Y26852350D01*
X4801691Y26852350D01*
X4802606Y26845353D01*
X4802606Y26845352D01*
X4805381Y26824129D01*
X4818423Y26724396D01*
X4821261Y26717945D01*
X4821262Y26717943D01*
X4828248Y26702066D01*
X4870395Y26606280D01*
X4911912Y26556889D01*
X4948890Y26512898D01*
X4948893Y26512896D01*
X4953429Y26507499D01*
X5060850Y26435994D01*
X5067578Y26433892D01*
X5067580Y26433891D01*
X5117648Y26418249D01*
X5184023Y26397512D01*
X5248534Y26396330D01*
X5305992Y26395276D01*
X5305994Y26395276D01*
X5313045Y26395147D01*
X5319848Y26397002D01*
X5319850Y26397002D01*
X5361618Y26408390D01*
X5437545Y26429090D01*
X5547514Y26496611D01*
X5634112Y26592283D01*
X5690378Y26708415D01*
X5706673Y26805271D01*
X5711153Y26831899D01*
X5711153Y26831904D01*
X5711787Y26835670D01*
X5711923Y26846790D01*
X5693629Y26974531D01*
X5666919Y27033276D01*
X5643139Y27085578D01*
X5643138Y27085579D01*
X5640218Y27092002D01*
X5555983Y27189762D01*
X5550066Y27193597D01*
X5550064Y27193599D01*
X5453614Y27256113D01*
X5447696Y27259949D01*
X5440940Y27261969D01*
X5440939Y27261970D01*
X5398125Y27274774D01*
X5324063Y27296924D01*
X5247434Y27297392D01*
X5202072Y27297669D01*
X5195021Y27297712D01*
X5188244Y27295775D01*
X5188243Y27295775D01*
X5077725Y27264189D01*
X5077723Y27264188D01*
X5070945Y27262251D01*
X4961809Y27193391D01*
X4876386Y27096668D01*
X4821544Y26979858D01*
X4801691Y26852350D01*
X-9593073Y26852350D01*
X-9533410Y26918265D01*
X-9533410Y26918266D01*
X-9528678Y26923493D01*
X-9472412Y27039625D01*
X-9451003Y27166880D01*
X-9450867Y27178000D01*
X-9469161Y27305741D01*
X-9522572Y27423212D01*
X-9606807Y27520972D01*
X-9612724Y27524807D01*
X-9612726Y27524809D01*
X-9709176Y27587323D01*
X-9715094Y27591159D01*
X-9721850Y27593179D01*
X-9721851Y27593180D01*
X-9764665Y27605984D01*
X-9838727Y27628134D01*
X-9915356Y27628602D01*
X-9960718Y27628879D01*
X-9967769Y27628922D01*
X-9974546Y27626985D01*
X-9974547Y27626985D01*
X-10085065Y27595399D01*
X-10085067Y27595398D01*
X-10091845Y27593461D01*
X-10200981Y27524601D01*
X-10286404Y27427878D01*
X-10341246Y27311068D01*
X-10361099Y27183560D01*
X-32412299Y27183560D01*
X-31668976Y28048239D01*
X-31666991Y28050479D01*
X-31557734Y28170060D01*
X5386901Y28170060D01*
X5387816Y28163063D01*
X5387816Y28163062D01*
X5389082Y28153380D01*
X5403633Y28042106D01*
X5406471Y28035655D01*
X5406472Y28035653D01*
X5413458Y28019776D01*
X5455605Y27923990D01*
X5497122Y27874600D01*
X5534100Y27830608D01*
X5534103Y27830606D01*
X5538639Y27825209D01*
X5646060Y27753704D01*
X5652788Y27751602D01*
X5652790Y27751601D01*
X5707647Y27734463D01*
X5769233Y27715222D01*
X5833744Y27714040D01*
X5891202Y27712986D01*
X5891204Y27712986D01*
X5898255Y27712857D01*
X5905058Y27714712D01*
X5905060Y27714712D01*
X5946828Y27726100D01*
X6022755Y27746800D01*
X6132724Y27814321D01*
X6219322Y27909993D01*
X6275588Y28026125D01*
X6296997Y28153380D01*
X6297133Y28164500D01*
X6278839Y28292241D01*
X6239064Y28379722D01*
X6228349Y28403288D01*
X6228348Y28403289D01*
X6225428Y28409712D01*
X6156499Y28489709D01*
X6145798Y28502128D01*
X6145797Y28502129D01*
X6141193Y28507472D01*
X6135276Y28511307D01*
X6135274Y28511309D01*
X6064813Y28556978D01*
X6032906Y28577659D01*
X6026150Y28579679D01*
X6026149Y28579680D01*
X5983335Y28592484D01*
X5909273Y28614634D01*
X5832644Y28615102D01*
X5787282Y28615379D01*
X5780231Y28615422D01*
X5773454Y28613485D01*
X5773453Y28613485D01*
X5662935Y28581899D01*
X5662933Y28581898D01*
X5656155Y28579961D01*
X5547019Y28511101D01*
X5461596Y28414378D01*
X5406754Y28297568D01*
X5386901Y28170060D01*
X-31557734Y28170060D01*
X-30834571Y28961560D01*
X-12393099Y28961560D01*
X-12392184Y28954563D01*
X-12392184Y28954562D01*
X-12390918Y28944880D01*
X-12376367Y28833606D01*
X-12373529Y28827155D01*
X-12373528Y28827153D01*
X-12327236Y28721946D01*
X-12324395Y28715490D01*
X-12298157Y28684276D01*
X-12245900Y28622108D01*
X-12245897Y28622106D01*
X-12241361Y28616709D01*
X-12133940Y28545204D01*
X-12127212Y28543102D01*
X-12127210Y28543101D01*
X-12072354Y28525963D01*
X-12010767Y28506722D01*
X-11946256Y28505540D01*
X-11888798Y28504486D01*
X-11888796Y28504486D01*
X-11881745Y28504357D01*
X-11874942Y28506212D01*
X-11874940Y28506212D01*
X-11833172Y28517600D01*
X-11757245Y28538300D01*
X-11647276Y28605821D01*
X-11639260Y28614677D01*
X-11565410Y28696265D01*
X-11565410Y28696266D01*
X-11560678Y28701493D01*
X-11504412Y28817625D01*
X-11501563Y28834560D01*
X3724443Y28834560D01*
X3725358Y28827563D01*
X3725358Y28827562D01*
X3727117Y28814109D01*
X3741175Y28706606D01*
X3744013Y28700155D01*
X3744014Y28700153D01*
X3790306Y28594946D01*
X3793147Y28588490D01*
X3826248Y28549112D01*
X3871642Y28495108D01*
X3871645Y28495106D01*
X3876181Y28489709D01*
X3983602Y28418204D01*
X3990330Y28416102D01*
X3990332Y28416101D01*
X4031345Y28403288D01*
X4106775Y28379722D01*
X4171286Y28378539D01*
X4228744Y28377486D01*
X4228746Y28377486D01*
X4235797Y28377357D01*
X4242600Y28379212D01*
X4242602Y28379212D01*
X4284370Y28390600D01*
X4360297Y28411300D01*
X4470266Y28478821D01*
X4485008Y28495108D01*
X4552132Y28569265D01*
X4552132Y28569266D01*
X4556864Y28574493D01*
X4613130Y28690625D01*
X4634539Y28817880D01*
X4634675Y28829000D01*
X4616381Y28956741D01*
X4578804Y29039387D01*
X4565891Y29067788D01*
X4565890Y29067789D01*
X4562970Y29074212D01*
X4478735Y29171972D01*
X4472818Y29175807D01*
X4472816Y29175809D01*
X4376366Y29238323D01*
X4370448Y29242159D01*
X4363692Y29244179D01*
X4363691Y29244180D01*
X4320877Y29256984D01*
X4246815Y29279134D01*
X4170186Y29279602D01*
X4124824Y29279879D01*
X4117773Y29279922D01*
X4110996Y29277985D01*
X4110995Y29277985D01*
X4000477Y29246399D01*
X4000475Y29246398D01*
X3993697Y29244461D01*
X3884561Y29175601D01*
X3799138Y29078878D01*
X3744296Y28962068D01*
X3724443Y28834560D01*
X-11501563Y28834560D01*
X-11483003Y28944880D01*
X-11482867Y28956000D01*
X-11501161Y29083741D01*
X-11532501Y29152670D01*
X-11551651Y29194788D01*
X-11551652Y29194789D01*
X-11554572Y29201212D01*
X-11619971Y29277112D01*
X-11634202Y29293628D01*
X-11634203Y29293629D01*
X-11638807Y29298972D01*
X-11644724Y29302807D01*
X-11644726Y29302809D01*
X-11741176Y29365323D01*
X-11747094Y29369159D01*
X-11753850Y29371179D01*
X-11753851Y29371180D01*
X-11796665Y29383984D01*
X-11870727Y29406134D01*
X-11947356Y29406602D01*
X-11992718Y29406879D01*
X-11999769Y29406922D01*
X-12006546Y29404985D01*
X-12006547Y29404985D01*
X-12117065Y29373399D01*
X-12117067Y29373398D01*
X-12123845Y29371461D01*
X-12232981Y29302601D01*
X-12318404Y29205878D01*
X-12373246Y29089068D01*
X-12393099Y28961560D01*
X-30834571Y28961560D01*
X-30807200Y28991518D01*
X-30805147Y28993698D01*
X-30321306Y29492122D01*
X6852947Y29492122D01*
X6853862Y29485125D01*
X6853862Y29485124D01*
X6855128Y29475442D01*
X6869679Y29364168D01*
X6872517Y29357717D01*
X6872518Y29357715D01*
X6918810Y29252508D01*
X6921651Y29246052D01*
X6950979Y29211162D01*
X7000146Y29152670D01*
X7000149Y29152668D01*
X7004685Y29147271D01*
X7112106Y29075766D01*
X7118834Y29073664D01*
X7118836Y29073663D01*
X7173692Y29056525D01*
X7235279Y29037284D01*
X7299790Y29036101D01*
X7357248Y29035048D01*
X7357250Y29035048D01*
X7364301Y29034919D01*
X7371104Y29036774D01*
X7371106Y29036774D01*
X7412874Y29048162D01*
X7488801Y29068862D01*
X7598770Y29136383D01*
X7613512Y29152670D01*
X7680636Y29226827D01*
X7680636Y29226828D01*
X7685368Y29232055D01*
X7741634Y29348187D01*
X7763043Y29475442D01*
X7763179Y29486562D01*
X7744885Y29614303D01*
X7716576Y29676566D01*
X7694395Y29725350D01*
X7694394Y29725351D01*
X7691474Y29731774D01*
X7607239Y29829534D01*
X7601322Y29833369D01*
X7601320Y29833371D01*
X7504870Y29895885D01*
X7498952Y29899721D01*
X7492196Y29901741D01*
X7492195Y29901742D01*
X7449381Y29914546D01*
X7375319Y29936696D01*
X7298690Y29937164D01*
X7253328Y29937441D01*
X7246277Y29937484D01*
X7239500Y29935547D01*
X7239499Y29935547D01*
X7128981Y29903961D01*
X7128979Y29903960D01*
X7122201Y29902023D01*
X7013065Y29833163D01*
X6927642Y29736440D01*
X6872800Y29619630D01*
X6852947Y29492122D01*
X-30321306Y29492122D01*
X-29917298Y29908307D01*
X-29915181Y29910423D01*
X-29000066Y30797785D01*
X-28997885Y30799836D01*
X-28507310Y31247560D01*
X3608901Y31247560D01*
X3609816Y31240563D01*
X3609816Y31240562D01*
X3610778Y31233206D01*
X3625633Y31119606D01*
X3628471Y31113155D01*
X3628472Y31113153D01*
X3635458Y31097276D01*
X3677605Y31001490D01*
X3719122Y30952099D01*
X3756100Y30908108D01*
X3756103Y30908106D01*
X3760639Y30902709D01*
X3868060Y30831204D01*
X3874788Y30829102D01*
X3874790Y30829101D01*
X3929646Y30811963D01*
X3991233Y30792722D01*
X4055744Y30791539D01*
X4113202Y30790486D01*
X4113204Y30790486D01*
X4120255Y30790357D01*
X4127058Y30792212D01*
X4127060Y30792212D01*
X4168828Y30803600D01*
X4244755Y30824300D01*
X4354724Y30891821D01*
X4441322Y30987493D01*
X4497588Y31103625D01*
X4508596Y31169059D01*
X4518363Y31227109D01*
X4518363Y31227114D01*
X4518997Y31230880D01*
X4519133Y31242000D01*
X4500839Y31369741D01*
X4461632Y31455973D01*
X4450349Y31480788D01*
X4450348Y31480789D01*
X4447428Y31487212D01*
X4363193Y31584972D01*
X4357276Y31588807D01*
X4357274Y31588809D01*
X4263541Y31649562D01*
X20112347Y31649562D01*
X20113262Y31642565D01*
X20113262Y31642564D01*
X20114528Y31632882D01*
X20129079Y31521608D01*
X20131917Y31515157D01*
X20131918Y31515155D01*
X20157959Y31455973D01*
X20181051Y31403492D01*
X20204944Y31375068D01*
X20259546Y31310110D01*
X20259549Y31310108D01*
X20264085Y31304711D01*
X20371506Y31233206D01*
X20378234Y31231104D01*
X20378236Y31231103D01*
X20433092Y31213965D01*
X20494679Y31194724D01*
X20559190Y31193542D01*
X20616648Y31192488D01*
X20616650Y31192488D01*
X20623701Y31192359D01*
X20630504Y31194214D01*
X20630506Y31194214D01*
X20672274Y31205602D01*
X20748201Y31226302D01*
X20858170Y31293823D01*
X20920566Y31362757D01*
X20940036Y31384267D01*
X20940036Y31384268D01*
X20944768Y31389495D01*
X20979164Y31460487D01*
X20997958Y31499278D01*
X20997958Y31499279D01*
X21001034Y31505627D01*
X21015028Y31588809D01*
X21021809Y31629111D01*
X21021809Y31629116D01*
X21022443Y31632882D01*
X21022579Y31644002D01*
X21004285Y31771743D01*
X20950874Y31889214D01*
X20866639Y31986974D01*
X20860722Y31990809D01*
X20860720Y31990811D01*
X20764270Y32053325D01*
X20758352Y32057161D01*
X20751596Y32059181D01*
X20751595Y32059182D01*
X20708781Y32071986D01*
X20634719Y32094136D01*
X20558090Y32094604D01*
X20512728Y32094881D01*
X20505677Y32094924D01*
X20498900Y32092987D01*
X20498899Y32092987D01*
X20388381Y32061401D01*
X20388379Y32061400D01*
X20381601Y32059463D01*
X20272465Y31990603D01*
X20187042Y31893880D01*
X20132200Y31777070D01*
X20112347Y31649562D01*
X4263541Y31649562D01*
X4260824Y31651323D01*
X4254906Y31655159D01*
X4248150Y31657179D01*
X4248149Y31657180D01*
X4205335Y31669984D01*
X4131273Y31692134D01*
X4054644Y31692602D01*
X4009282Y31692879D01*
X4002231Y31692922D01*
X3995454Y31690985D01*
X3995453Y31690985D01*
X3884935Y31659399D01*
X3884933Y31659398D01*
X3878155Y31657461D01*
X3769019Y31588601D01*
X3683596Y31491878D01*
X3628754Y31375068D01*
X3608901Y31247560D01*
X-28507310Y31247560D01*
X-28056408Y31659077D01*
X-28054167Y31661062D01*
X-27352523Y32263560D01*
X7672901Y32263560D01*
X7673816Y32256563D01*
X7673816Y32256562D01*
X7675082Y32246880D01*
X7689633Y32135606D01*
X7692471Y32129155D01*
X7692472Y32129153D01*
X7723260Y32059182D01*
X7741605Y32017490D01*
X7783122Y31968100D01*
X7820100Y31924108D01*
X7820103Y31924106D01*
X7824639Y31918709D01*
X7932060Y31847204D01*
X7938788Y31845102D01*
X7938790Y31845101D01*
X7993647Y31827963D01*
X8055233Y31808722D01*
X8119744Y31807539D01*
X8177202Y31806486D01*
X8177204Y31806486D01*
X8184255Y31806357D01*
X8191058Y31808212D01*
X8191060Y31808212D01*
X8232828Y31819600D01*
X8308755Y31840300D01*
X8418724Y31907821D01*
X8505322Y32003493D01*
X8552663Y32101204D01*
X8558512Y32113276D01*
X8558512Y32113277D01*
X8561588Y32119625D01*
X8582997Y32246880D01*
X8583133Y32258000D01*
X8564839Y32385741D01*
X8511428Y32503212D01*
X8499065Y32517560D01*
X11482901Y32517560D01*
X11483816Y32510563D01*
X11483816Y32510562D01*
X11484777Y32503212D01*
X11499633Y32389606D01*
X11502471Y32383155D01*
X11502472Y32383153D01*
X11538087Y32302212D01*
X11551605Y32271490D01*
X11569080Y32250701D01*
X11630100Y32178108D01*
X11630103Y32178106D01*
X11634639Y32172709D01*
X11742060Y32101204D01*
X11748788Y32099102D01*
X11748790Y32099101D01*
X11803647Y32081963D01*
X11865233Y32062722D01*
X11929744Y32061539D01*
X11987202Y32060486D01*
X11987204Y32060486D01*
X11994255Y32060357D01*
X12001058Y32062212D01*
X12001060Y32062212D01*
X12042828Y32073600D01*
X12118755Y32094300D01*
X12228724Y32161821D01*
X12315322Y32257493D01*
X12371588Y32373625D01*
X12382596Y32439059D01*
X12392363Y32497109D01*
X12392363Y32497114D01*
X12392997Y32500880D01*
X12393133Y32512000D01*
X12374839Y32639741D01*
X12344265Y32706985D01*
X12324349Y32750788D01*
X12324348Y32750789D01*
X12321428Y32757212D01*
X12237193Y32854972D01*
X12231276Y32858807D01*
X12231274Y32858809D01*
X12134824Y32921323D01*
X12128906Y32925159D01*
X12122150Y32927179D01*
X12122149Y32927180D01*
X12079335Y32939984D01*
X12005273Y32962134D01*
X11928644Y32962602D01*
X11883282Y32962879D01*
X11876231Y32962922D01*
X11869454Y32960985D01*
X11869453Y32960985D01*
X11758935Y32929399D01*
X11758933Y32929398D01*
X11752155Y32927461D01*
X11643019Y32858601D01*
X11557596Y32761878D01*
X11502754Y32645068D01*
X11482901Y32517560D01*
X8499065Y32517560D01*
X8427193Y32600972D01*
X8421276Y32604807D01*
X8421274Y32604809D01*
X8324824Y32667323D01*
X8318906Y32671159D01*
X8312150Y32673179D01*
X8312149Y32673180D01*
X8269335Y32685984D01*
X8195273Y32708134D01*
X8118644Y32708602D01*
X8073282Y32708879D01*
X8066231Y32708922D01*
X8059454Y32706985D01*
X8059453Y32706985D01*
X7948935Y32675399D01*
X7948933Y32675398D01*
X7942155Y32673461D01*
X7833019Y32604601D01*
X7747596Y32507878D01*
X7692754Y32391068D01*
X7672901Y32263560D01*
X-27352523Y32263560D01*
X-27087084Y32491491D01*
X-27084783Y32493407D01*
X-26953621Y32599316D01*
X-26093060Y33294194D01*
X-26090703Y33296039D01*
X-25075198Y34066490D01*
X-25072805Y34068249D01*
X-24034446Y34807659D01*
X-24032075Y34809294D01*
X-22971817Y35516980D01*
X-22969302Y35518604D01*
X-21888186Y36193874D01*
X-21885623Y36195421D01*
X-21515452Y36411354D01*
X-1388500Y36411354D01*
X-1349144Y36226197D01*
X-1347035Y36221461D01*
X-1347035Y36221460D01*
X-1279001Y36068656D01*
X-1272151Y36053270D01*
X-1160888Y35900129D01*
X-1157038Y35896663D01*
X-1157035Y35896659D01*
X-1029644Y35781956D01*
X-1020216Y35773467D01*
X-1015726Y35770875D01*
X-1015725Y35770874D01*
X-860774Y35681413D01*
X-860772Y35681412D01*
X-856284Y35678821D01*
X-851355Y35677220D01*
X-851354Y35677219D01*
X-681188Y35621928D01*
X-681183Y35621927D01*
X-676256Y35620326D01*
X-535192Y35605500D01*
X-440808Y35605500D01*
X-299744Y35620326D01*
X-294817Y35621927D01*
X-294812Y35621928D01*
X-124646Y35677219D01*
X-124645Y35677220D01*
X-119716Y35678821D01*
X-115228Y35681412D01*
X-115226Y35681413D01*
X39725Y35770874D01*
X39726Y35770875D01*
X44216Y35773467D01*
X53644Y35781956D01*
X181035Y35896659D01*
X181038Y35896663D01*
X184888Y35900129D01*
X296151Y36053270D01*
X303002Y36068656D01*
X371035Y36221460D01*
X371035Y36221461D01*
X373144Y36226197D01*
X412500Y36411354D01*
X412500Y36442648D01*
X431407Y36500839D01*
X480907Y36536803D01*
X519945Y36541034D01*
X522118Y36540602D01*
X601882Y36540602D01*
X605127Y36541247D01*
X611731Y36541572D01*
X1312269Y36541572D01*
X1318873Y36541247D01*
X1322118Y36540602D01*
X1401882Y36540602D01*
X1426506Y36545500D01*
X1499427Y36560005D01*
X1573119Y36590529D01*
X1577161Y36593230D01*
X1577167Y36593233D01*
X1651770Y36643082D01*
X1655814Y36645784D01*
X1712216Y36702186D01*
X1727837Y36725565D01*
X1764767Y36780833D01*
X1764770Y36780839D01*
X1767471Y36784881D01*
X1797995Y36858573D01*
X1817398Y36956118D01*
X1817398Y37035882D01*
X1816753Y37039127D01*
X1816428Y37045731D01*
X1816428Y38646269D01*
X1816753Y38652873D01*
X1817398Y38656118D01*
X1817398Y38735882D01*
X1797995Y38833427D01*
X1767471Y38907119D01*
X1764770Y38911161D01*
X1764767Y38911167D01*
X1714918Y38985770D01*
X1712216Y38989814D01*
X1655814Y39046216D01*
X1618863Y39070906D01*
X1577167Y39098767D01*
X1577161Y39098770D01*
X1573119Y39101471D01*
X1499427Y39131995D01*
X1426506Y39146500D01*
X1401882Y39151398D01*
X1322118Y39151398D01*
X1318873Y39150753D01*
X1312269Y39150428D01*
X211731Y39150428D01*
X205127Y39150753D01*
X201882Y39151398D01*
X122118Y39151398D01*
X24573Y39131995D01*
X-49119Y39101471D01*
X-53161Y39098770D01*
X-53167Y39098767D01*
X-94863Y39070906D01*
X-131814Y39046216D01*
X-188216Y38989814D01*
X-190918Y38985770D01*
X-240767Y38911167D01*
X-240770Y38911161D01*
X-243471Y38907119D01*
X-273995Y38833427D01*
X-288500Y38760506D01*
X-293398Y38735882D01*
X-293398Y38656118D01*
X-292753Y38652873D01*
X-292428Y38646269D01*
X-292428Y37500856D01*
X-311335Y37442665D01*
X-360835Y37406701D01*
X-401775Y37402398D01*
X-426204Y37404965D01*
X-440808Y37406500D01*
X-535192Y37406500D01*
X-676256Y37391674D01*
X-681183Y37390073D01*
X-681188Y37390072D01*
X-851354Y37334781D01*
X-856284Y37333179D01*
X-860772Y37330588D01*
X-860774Y37330587D01*
X-1015725Y37241126D01*
X-1020216Y37238533D01*
X-1024072Y37235061D01*
X-1157035Y37115341D01*
X-1157038Y37115337D01*
X-1160888Y37111871D01*
X-1272151Y36958730D01*
X-1349144Y36785803D01*
X-1388500Y36600646D01*
X-1388500Y36411354D01*
X-21515452Y36411354D01*
X-20784601Y36837683D01*
X-20781993Y36839152D01*
X-19662045Y37447834D01*
X-19659393Y37449224D01*
X-18521557Y38023765D01*
X-18518865Y38025074D01*
X-17364139Y38564963D01*
X-17361452Y38566170D01*
X-16561366Y38911167D01*
X-16190913Y39070906D01*
X-16188146Y39072049D01*
X-15623068Y39295699D01*
X-15002939Y39541137D01*
X-15000194Y39542177D01*
X-13949190Y39921812D01*
X-13801282Y39975238D01*
X-13798451Y39976212D01*
X-12727428Y40326848D01*
X-12587074Y40372798D01*
X-12584220Y40373685D01*
X-11492518Y40694886D01*
X-11361332Y40733483D01*
X-11358481Y40734275D01*
X-10125293Y41056928D01*
X-10122440Y41057628D01*
X-8993220Y41316868D01*
X-8880062Y41342846D01*
X-8877134Y41343472D01*
X-8483711Y41421350D01*
X-7626663Y41591001D01*
X-7623775Y41591527D01*
X-6995388Y41696279D01*
X-6366466Y41801120D01*
X-6363506Y41801568D01*
X-5100410Y41973053D01*
X-5097437Y41973411D01*
X-3829749Y42106625D01*
X-3826773Y42106893D01*
X-2555595Y42201717D01*
X-2552625Y42201893D01*
X-1279203Y42258237D01*
X-1276218Y42258324D01*
X-1123657Y42260456D01*
X-33538Y42275692D01*
X-12918Y42273487D01*
G37*
%TD.AperFunction*%
%TD*%
M02*
