%TF.GenerationSoftware,KiCad,Pcbnew,5.1.7-a382d34a8~88~ubuntu20.04.1*%
%TF.CreationDate,2021-06-08T03:13:43+02:00*%
%TF.ProjectId,uHoubolt_PCB_GNSS,75486f75-626f-46c7-945f-5043425f474e,rev?*%
%TF.SameCoordinates,PX8f0d180PY5f5e100*%
%TF.FileFunction,Plated,1,2,PTH,Drill*%
%TF.FilePolarity,Positive*%
%FSLAX46Y46*%
G04 Gerber Fmt 4.6, Leading zero omitted, Abs format (unit mm)*
G04 Created by KiCad (PCBNEW 5.1.7-a382d34a8~88~ubuntu20.04.1) date 2021-06-08 03:13:43*
%MOMM*%
%LPD*%
G01*
G04 APERTURE LIST*
%TA.AperFunction,ViaDrill*%
%ADD10C,0.400000*%
%TD*%
%TA.AperFunction,ComponentDrill*%
%ADD11C,0.500000*%
%TD*%
%TA.AperFunction,ComponentDrill*%
%ADD12C,0.700000*%
%TD*%
%TA.AperFunction,ComponentDrill*%
%ADD13C,3.200000*%
%TD*%
G04 APERTURE END LIST*
D10*
X-40000000Y10000000D03*
X-40000000Y0D03*
X-40000000Y-10000000D03*
X-30000000Y20000000D03*
X-30000000Y10000000D03*
X-30000000Y0D03*
X-30000000Y-10000000D03*
X-30000000Y-20000000D03*
X-20000000Y30000000D03*
X-20000000Y20000000D03*
X-20000000Y10000000D03*
X-20000000Y0D03*
X-20000000Y-10000000D03*
X-20000000Y-20000000D03*
X-20000000Y-30000000D03*
X-10000000Y40000000D03*
X-10000000Y30000000D03*
X-10000000Y20000000D03*
X-10000000Y10000000D03*
X-10000000Y0D03*
X-10000000Y-10000000D03*
X-10000000Y-20000000D03*
X-10000000Y-30000000D03*
X-10000000Y-40000000D03*
X-9000000Y900000D03*
X-1900000Y5100000D03*
X-1100000Y-9000000D03*
X0Y40000000D03*
X0Y30000000D03*
X0Y20000000D03*
X0Y10000000D03*
X0Y5100000D03*
X0Y-10800000D03*
X0Y-20000000D03*
X0Y-30000000D03*
X0Y-40000000D03*
X10000000Y40000000D03*
X10000000Y30000000D03*
X10000000Y20000000D03*
X10000000Y10000000D03*
X10000000Y0D03*
X10000000Y-10000000D03*
X10000000Y-20000000D03*
X10000000Y-30000000D03*
X10000000Y-40000000D03*
X20000000Y30000000D03*
X20000000Y20000000D03*
X20000000Y10000000D03*
X20000000Y0D03*
X20000000Y-10000000D03*
X20000000Y-20000000D03*
X20000000Y-30000000D03*
X30000000Y20000000D03*
X30000000Y10000000D03*
X30000000Y0D03*
X30000000Y-10000000D03*
X30000000Y-20000000D03*
X40000000Y10000000D03*
X40000000Y-10000000D03*
D11*
%TO.C,H2*%
X-29300000Y26900000D03*
X-28597056Y28597056D03*
X-28597056Y25202944D03*
X-26900000Y29300000D03*
X-26900000Y24500000D03*
X-25202944Y28597056D03*
X-25202944Y25202944D03*
X-24500000Y26900000D03*
%TO.C,H1*%
X24500000Y26900000D03*
X25202944Y28597056D03*
X25202944Y25202944D03*
X26900000Y29300000D03*
X26900000Y24500000D03*
X28597056Y28597056D03*
X28597056Y25202944D03*
X29300000Y26900000D03*
%TO.C,H3*%
X-29300000Y-26900000D03*
X-28597056Y-25202944D03*
X-28597056Y-28597056D03*
X-26900000Y-24500000D03*
X-26900000Y-29300000D03*
X-25202944Y-25202944D03*
X-25202944Y-28597056D03*
X-24500000Y-26900000D03*
%TO.C,H4*%
X24500000Y-26900000D03*
X25202944Y-25202944D03*
X25202944Y-28597056D03*
X26900000Y-24500000D03*
X26900000Y-29300000D03*
X28597056Y-25202944D03*
X28597056Y-28597056D03*
X29300000Y-26900000D03*
D12*
%TO.C,J3*%
X41100000Y0D03*
D13*
%TO.C,H2*%
X-26900000Y26900000D03*
%TO.C,H1*%
X26900000Y26900000D03*
%TO.C,H3*%
X-26900000Y-26900000D03*
%TO.C,H4*%
X26900000Y-26900000D03*
M02*
