%TF.GenerationSoftware,KiCad,Pcbnew,5.1.7-a382d34a8~88~ubuntu20.04.1*%
%TF.CreationDate,2021-06-08T03:13:41+02:00*%
%TF.ProjectId,uHoubolt_PCB_GNSS,75486f75-626f-46c7-945f-5043425f474e,rev?*%
%TF.SameCoordinates,PX8f0d180PY5f5e100*%
%TF.FileFunction,Copper,L2,Bot*%
%TF.FilePolarity,Positive*%
%FSLAX46Y46*%
G04 Gerber Fmt 4.6, Leading zero omitted, Abs format (unit mm)*
G04 Created by KiCad (PCBNEW 5.1.7-a382d34a8~88~ubuntu20.04.1) date 2021-06-08 03:13:41*
%MOMM*%
%LPD*%
G01*
G04 APERTURE LIST*
%TA.AperFunction,SMDPad,CuDef*%
%ADD10R,4.000000X4.000000*%
%TD*%
%TA.AperFunction,ComponentPad*%
%ADD11C,1.500000*%
%TD*%
%TA.AperFunction,ComponentPad*%
%ADD12C,0.800000*%
%TD*%
%TA.AperFunction,ComponentPad*%
%ADD13C,6.400000*%
%TD*%
%TA.AperFunction,SMDPad,CuDef*%
%ADD14R,1.100000X1.100000*%
%TD*%
%TA.AperFunction,ViaPad*%
%ADD15C,0.800000*%
%TD*%
%TA.AperFunction,Conductor*%
%ADD16C,0.500000*%
%TD*%
%TA.AperFunction,Conductor*%
%ADD17C,0.200000*%
%TD*%
%TA.AperFunction,Conductor*%
%ADD18C,0.100000*%
%TD*%
G04 APERTURE END LIST*
D10*
%TO.P,J2,1*%
%TO.N,GND*%
X35900000Y0D03*
%TD*%
D11*
%TO.P,J3,1*%
%TO.N,Net-(J3-Pad1)*%
X41100000Y0D03*
%TD*%
D12*
%TO.P,H4,1*%
%TO.N,GND*%
X28597056Y-25202944D03*
X26900000Y-24500000D03*
X25202944Y-25202944D03*
X24500000Y-26900000D03*
X25202944Y-28597056D03*
X26900000Y-29300000D03*
X28597056Y-28597056D03*
X29300000Y-26900000D03*
D13*
X26900000Y-26900000D03*
%TD*%
D12*
%TO.P,H3,1*%
%TO.N,GND*%
X-25202944Y-25202944D03*
X-26900000Y-24500000D03*
X-28597056Y-25202944D03*
X-29300000Y-26900000D03*
X-28597056Y-28597056D03*
X-26900000Y-29300000D03*
X-25202944Y-28597056D03*
X-24500000Y-26900000D03*
D13*
X-26900000Y-26900000D03*
%TD*%
D12*
%TO.P,H2,1*%
%TO.N,GND*%
X-25202944Y28597056D03*
X-26900000Y29300000D03*
X-28597056Y28597056D03*
X-29300000Y26900000D03*
X-28597056Y25202944D03*
X-26900000Y24500000D03*
X-25202944Y25202944D03*
X-24500000Y26900000D03*
D13*
X-26900000Y26900000D03*
%TD*%
D12*
%TO.P,H1,1*%
%TO.N,GND*%
X28597056Y28597056D03*
X26900000Y29300000D03*
X25202944Y28597056D03*
X24500000Y26900000D03*
X25202944Y25202944D03*
X26900000Y24500000D03*
X28597056Y25202944D03*
X29300000Y26900000D03*
D13*
X26900000Y26900000D03*
%TD*%
%TO.P,C4,2*%
%TO.N,GND*%
%TA.AperFunction,SMDPad,CuDef*%
G36*
G01*
X2000000Y-11800000D02*
X2000000Y-9800000D01*
G75*
G02*
X2250000Y-9550000I250000J0D01*
G01*
X6150000Y-9550000D01*
G75*
G02*
X6400000Y-9800000I0J-250000D01*
G01*
X6400000Y-11800000D01*
G75*
G02*
X6150000Y-12050000I-250000J0D01*
G01*
X2250000Y-12050000D01*
G75*
G02*
X2000000Y-11800000I0J250000D01*
G01*
G37*
%TD.AperFunction*%
%TO.P,C4,1*%
%TO.N,Net-(C3-Pad1)*%
%TA.AperFunction,SMDPad,CuDef*%
G36*
G01*
X-6400000Y-11800000D02*
X-6400000Y-9800000D01*
G75*
G02*
X-6150000Y-9550000I250000J0D01*
G01*
X-2250000Y-9550000D01*
G75*
G02*
X-2000000Y-9800000I0J-250000D01*
G01*
X-2000000Y-11800000D01*
G75*
G02*
X-2250000Y-12050000I-250000J0D01*
G01*
X-6150000Y-12050000D01*
G75*
G02*
X-6400000Y-11800000I0J250000D01*
G01*
G37*
%TD.AperFunction*%
%TD*%
%TO.P,R1,2*%
%TO.N,Net-(C3-Pad1)*%
%TA.AperFunction,SMDPad,CuDef*%
G36*
G01*
X-6875000Y-8125000D02*
X-6325000Y-8125000D01*
G75*
G02*
X-6125000Y-8325000I0J-200000D01*
G01*
X-6125000Y-8725000D01*
G75*
G02*
X-6325000Y-8925000I-200000J0D01*
G01*
X-6875000Y-8925000D01*
G75*
G02*
X-7075000Y-8725000I0J200000D01*
G01*
X-7075000Y-8325000D01*
G75*
G02*
X-6875000Y-8125000I200000J0D01*
G01*
G37*
%TD.AperFunction*%
%TO.P,R1,1*%
%TO.N,Net-(D1-Pad1)*%
%TA.AperFunction,SMDPad,CuDef*%
G36*
G01*
X-6875000Y-6475000D02*
X-6325000Y-6475000D01*
G75*
G02*
X-6125000Y-6675000I0J-200000D01*
G01*
X-6125000Y-7075000D01*
G75*
G02*
X-6325000Y-7275000I-200000J0D01*
G01*
X-6875000Y-7275000D01*
G75*
G02*
X-7075000Y-7075000I0J200000D01*
G01*
X-7075000Y-6675000D01*
G75*
G02*
X-6875000Y-6475000I200000J0D01*
G01*
G37*
%TD.AperFunction*%
%TD*%
D14*
%TO.P,D1,2*%
%TO.N,+3V3*%
X-6600000Y-2500000D03*
%TO.P,D1,1*%
%TO.N,Net-(D1-Pad1)*%
X-6600000Y-5300000D03*
%TD*%
%TO.P,J1,MP*%
%TO.N,GND*%
%TA.AperFunction,SMDPad,CuDef*%
G36*
G01*
X-3225000Y2550000D02*
X-3225000Y250000D01*
G75*
G02*
X-3475000Y0I-250000J0D01*
G01*
X-3975000Y0D01*
G75*
G02*
X-4225000Y250000I0J250000D01*
G01*
X-4225000Y2550000D01*
G75*
G02*
X-3975000Y2800000I250000J0D01*
G01*
X-3475000Y2800000D01*
G75*
G02*
X-3225000Y2550000I0J-250000D01*
G01*
G37*
%TD.AperFunction*%
%TA.AperFunction,SMDPad,CuDef*%
G36*
G01*
X4225000Y2550000D02*
X4225000Y250000D01*
G75*
G02*
X3975000Y0I-250000J0D01*
G01*
X3475000Y0D01*
G75*
G02*
X3225000Y250000I0J250000D01*
G01*
X3225000Y2550000D01*
G75*
G02*
X3475000Y2800000I250000J0D01*
G01*
X3975000Y2800000D01*
G75*
G02*
X4225000Y2550000I0J-250000D01*
G01*
G37*
%TD.AperFunction*%
%TO.P,J1,4*%
%TA.AperFunction,SMDPad,CuDef*%
G36*
G01*
X-1575000Y-1250000D02*
X-1575000Y-2650000D01*
G75*
G02*
X-1725000Y-2800000I-150000J0D01*
G01*
X-2025000Y-2800000D01*
G75*
G02*
X-2175000Y-2650000I0J150000D01*
G01*
X-2175000Y-1250000D01*
G75*
G02*
X-2025000Y-1100000I150000J0D01*
G01*
X-1725000Y-1100000D01*
G75*
G02*
X-1575000Y-1250000I0J-150000D01*
G01*
G37*
%TD.AperFunction*%
%TO.P,J1,3*%
%TO.N,/RxD*%
%TA.AperFunction,SMDPad,CuDef*%
G36*
G01*
X-325000Y-1250000D02*
X-325000Y-2650000D01*
G75*
G02*
X-475000Y-2800000I-150000J0D01*
G01*
X-775000Y-2800000D01*
G75*
G02*
X-925000Y-2650000I0J150000D01*
G01*
X-925000Y-1250000D01*
G75*
G02*
X-775000Y-1100000I150000J0D01*
G01*
X-475000Y-1100000D01*
G75*
G02*
X-325000Y-1250000I0J-150000D01*
G01*
G37*
%TD.AperFunction*%
%TO.P,J1,2*%
%TO.N,/TxD*%
%TA.AperFunction,SMDPad,CuDef*%
G36*
G01*
X925000Y-1250000D02*
X925000Y-2650000D01*
G75*
G02*
X775000Y-2800000I-150000J0D01*
G01*
X475000Y-2800000D01*
G75*
G02*
X325000Y-2650000I0J150000D01*
G01*
X325000Y-1250000D01*
G75*
G02*
X475000Y-1100000I150000J0D01*
G01*
X775000Y-1100000D01*
G75*
G02*
X925000Y-1250000I0J-150000D01*
G01*
G37*
%TD.AperFunction*%
%TO.P,J1,1*%
%TO.N,+3V3*%
%TA.AperFunction,SMDPad,CuDef*%
G36*
G01*
X2175000Y-1250000D02*
X2175000Y-2650000D01*
G75*
G02*
X2025000Y-2800000I-150000J0D01*
G01*
X1725000Y-2800000D01*
G75*
G02*
X1575000Y-2650000I0J150000D01*
G01*
X1575000Y-1250000D01*
G75*
G02*
X1725000Y-1100000I150000J0D01*
G01*
X2025000Y-1100000D01*
G75*
G02*
X2175000Y-1250000I0J-150000D01*
G01*
G37*
%TD.AperFunction*%
%TD*%
D15*
%TO.N,GND*%
X10000000Y-10000000D03*
X20000000Y-10000000D03*
X30000000Y-10000000D03*
X40000000Y-10000000D03*
X10000000Y-20000000D03*
X20000000Y-20000000D03*
X30000000Y-20000000D03*
X10000000Y-30000000D03*
X20000000Y-30000000D03*
X10000000Y-40000000D03*
X-10000000Y10000000D03*
X-20000000Y10000000D03*
X-30000000Y10000000D03*
X-40000000Y10000000D03*
X-10000000Y20000000D03*
X-20000000Y20000000D03*
X-30000000Y20000000D03*
X-10000000Y30000000D03*
X-20000000Y30000000D03*
X10000000Y0D03*
X20000000Y0D03*
X30000000Y0D03*
X0Y10000000D03*
X10000000Y10000000D03*
X20000000Y10000000D03*
X30000000Y10000000D03*
X40000000Y10000000D03*
X0Y20000000D03*
X10000000Y20000000D03*
X20000000Y20000000D03*
X30000000Y20000000D03*
X0Y30000000D03*
X10000000Y30000000D03*
X20000000Y30000000D03*
X0Y40000000D03*
X10000000Y40000000D03*
X-10000000Y0D03*
X-20000000Y0D03*
X-30000000Y0D03*
X-40000000Y0D03*
X-10000000Y-10000000D03*
X-20000000Y-10000000D03*
X-30000000Y-10000000D03*
X-40000000Y-10000000D03*
X0Y-20000000D03*
X-10000000Y-20000000D03*
X-20000000Y-20000000D03*
X-30000000Y-20000000D03*
X0Y-30000000D03*
X-10000000Y-30000000D03*
X-20000000Y-30000000D03*
X0Y-40000000D03*
X-10000000Y-40000000D03*
X-10000000Y40000000D03*
%TO.N,+3V3*%
X-9000000Y900000D03*
X-1100000Y-9000000D03*
%TO.N,/RxD*%
X-1900000Y5100000D03*
%TO.N,/TxD*%
X0Y5100000D03*
%TO.N,Net-(C3-Pad1)*%
X0Y-10800000D03*
%TD*%
D16*
%TO.N,+3V3*%
X-9000000Y900000D02*
X-9000000Y-2400000D01*
X-9000000Y-2400000D02*
X-7775000Y-3625000D01*
X1875000Y-1950000D02*
X1875000Y-3625000D01*
X-6600000Y-3500000D02*
X-6725000Y-3625000D01*
X-6600000Y-2500000D02*
X-6600000Y-3500000D01*
X-6725000Y-3625000D02*
X1875000Y-3625000D01*
X-7775000Y-3625000D02*
X-6725000Y-3625000D01*
X1875000Y-7425000D02*
X1875000Y-3625000D01*
X300000Y-9000000D02*
X1875000Y-7425000D01*
X300000Y-9000000D02*
X-1100000Y-9000000D01*
%TO.N,/RxD*%
X-625000Y3825000D02*
X-1900000Y5100000D01*
X-625000Y-1950000D02*
X-625000Y3825000D01*
%TO.N,/TxD*%
X625000Y4475000D02*
X625000Y-1950000D01*
X0Y5100000D02*
X625000Y4475000D01*
%TO.N,Net-(C3-Pad1)*%
X0Y-10800000D02*
X-4200000Y-10800000D01*
X-6600000Y-8525000D02*
X-6600000Y-9400000D01*
X-5200000Y-10800000D02*
X-4200000Y-10800000D01*
X-6600000Y-9400000D02*
X-5200000Y-10800000D01*
%TO.N,Net-(D1-Pad1)*%
X-6600000Y-6875000D02*
X-6600000Y-5300000D01*
%TD*%
D17*
%TO.N,GND*%
X2596331Y42095008D02*
X5182814Y41855335D01*
X7749636Y41456890D01*
X10287061Y40901186D01*
X12785464Y40190329D01*
X15235367Y39327016D01*
X17627478Y38314523D01*
X19952721Y37156689D01*
X22202276Y35857908D01*
X24367611Y34423105D01*
X26440512Y32857723D01*
X28413114Y31167701D01*
X30277935Y29359449D01*
X32027902Y27439827D01*
X33656377Y25416116D01*
X35157181Y23295993D01*
X36524621Y21087500D01*
X37753512Y18799015D01*
X38839190Y16439219D01*
X39777538Y14017064D01*
X40564997Y11541737D01*
X41198578Y9022628D01*
X41675879Y6469293D01*
X41995089Y3891418D01*
X42154997Y1298782D01*
X42154997Y-1298782D01*
X41995089Y-3891418D01*
X41675879Y-6469293D01*
X41198578Y-9022628D01*
X40564997Y-11541737D01*
X39777538Y-14017064D01*
X38839190Y-16439219D01*
X37753512Y-18799015D01*
X36524621Y-21087500D01*
X35157181Y-23295993D01*
X33656377Y-25416116D01*
X32027902Y-27439827D01*
X30277935Y-29359449D01*
X28413114Y-31167701D01*
X26440512Y-32857723D01*
X24367611Y-34423105D01*
X22202276Y-35857908D01*
X19952721Y-37156689D01*
X17627478Y-38314523D01*
X15235367Y-39327016D01*
X12785464Y-40190329D01*
X10287061Y-40901186D01*
X7749636Y-41456890D01*
X5182814Y-41855335D01*
X2596331Y-42095008D01*
X0Y-42175000D01*
X-2596331Y-42095008D01*
X-5182814Y-41855335D01*
X-7749636Y-41456890D01*
X-10287061Y-40901186D01*
X-12785464Y-40190329D01*
X-15235367Y-39327016D01*
X-17627478Y-38314523D01*
X-19952721Y-37156689D01*
X-22202276Y-35857908D01*
X-24367611Y-34423105D01*
X-26440512Y-32857723D01*
X-28413114Y-31167701D01*
X-30277935Y-29359449D01*
X-32027902Y-27439827D01*
X-33656377Y-25416116D01*
X-35157181Y-23295993D01*
X-36524621Y-21087500D01*
X-37753512Y-18799015D01*
X-38839190Y-16439219D01*
X-39777538Y-14017064D01*
X-40564997Y-11541737D01*
X-41198578Y-9022628D01*
X-41328987Y-8325000D01*
X-7376451Y-8325000D01*
X-7376451Y-8725000D01*
X-7366816Y-8822828D01*
X-7338280Y-8916897D01*
X-7291941Y-9003591D01*
X-7229579Y-9079579D01*
X-7153591Y-9141941D01*
X-7150000Y-9143860D01*
X-7150000Y-9372992D01*
X-7152660Y-9400000D01*
X-7150000Y-9427008D01*
X-7150000Y-9427018D01*
X-7142041Y-9507819D01*
X-7129245Y-9550000D01*
X-7110591Y-9611494D01*
X-7059521Y-9707042D01*
X-7008013Y-9769804D01*
X-7008007Y-9769810D01*
X-6990789Y-9790790D01*
X-6969809Y-9808008D01*
X-6701451Y-10076366D01*
X-6701451Y-11800000D01*
X-6690855Y-11907583D01*
X-6659474Y-12011031D01*
X-6608515Y-12106370D01*
X-6539935Y-12189935D01*
X-6456370Y-12258515D01*
X-6361031Y-12309474D01*
X-6257583Y-12340855D01*
X-6150000Y-12351451D01*
X-2250000Y-12351451D01*
X-2142417Y-12340855D01*
X-2038969Y-12309474D01*
X-1943630Y-12258515D01*
X-1860065Y-12189935D01*
X-1791485Y-12106370D01*
X-1740526Y-12011031D01*
X-1709145Y-11907583D01*
X-1698549Y-11800000D01*
X-1698549Y-11350000D01*
X-436834Y-11350000D01*
X-331574Y-11420332D01*
X-204182Y-11473099D01*
X-68944Y-11500000D01*
X68944Y-11500000D01*
X204182Y-11473099D01*
X331574Y-11420332D01*
X446224Y-11343726D01*
X543726Y-11246224D01*
X620332Y-11131574D01*
X673099Y-11004182D01*
X700000Y-10868944D01*
X700000Y-10731056D01*
X673099Y-10595818D01*
X620332Y-10468426D01*
X543726Y-10353776D01*
X446224Y-10256274D01*
X331574Y-10179668D01*
X204182Y-10126901D01*
X68944Y-10100000D01*
X-68944Y-10100000D01*
X-204182Y-10126901D01*
X-331574Y-10179668D01*
X-436834Y-10250000D01*
X-1698549Y-10250000D01*
X-1698549Y-9800000D01*
X-1709145Y-9692417D01*
X-1740526Y-9588969D01*
X-1791485Y-9493630D01*
X-1860065Y-9410065D01*
X-1943630Y-9341485D01*
X-2038969Y-9290526D01*
X-2142417Y-9259145D01*
X-2250000Y-9248549D01*
X-5973634Y-9248549D01*
X-6050000Y-9172183D01*
X-6050000Y-9143860D01*
X-6046409Y-9141941D01*
X-5970421Y-9079579D01*
X-5908059Y-9003591D01*
X-5861720Y-8916897D01*
X-5833184Y-8822828D01*
X-5823549Y-8725000D01*
X-5823549Y-8325000D01*
X-5833184Y-8227172D01*
X-5861720Y-8133103D01*
X-5908059Y-8046409D01*
X-5970421Y-7970421D01*
X-6046409Y-7908059D01*
X-6133103Y-7861720D01*
X-6227172Y-7833184D01*
X-6325000Y-7823549D01*
X-6875000Y-7823549D01*
X-6972828Y-7833184D01*
X-7066897Y-7861720D01*
X-7153591Y-7908059D01*
X-7229579Y-7970421D01*
X-7291941Y-8046409D01*
X-7338280Y-8133103D01*
X-7366816Y-8227172D01*
X-7376451Y-8325000D01*
X-41328987Y-8325000D01*
X-41675879Y-6469293D01*
X-41888773Y-4750000D01*
X-7451451Y-4750000D01*
X-7451451Y-5850000D01*
X-7445659Y-5908810D01*
X-7428504Y-5965360D01*
X-7400647Y-6017477D01*
X-7363158Y-6063158D01*
X-7317477Y-6100647D01*
X-7265360Y-6128504D01*
X-7208810Y-6145659D01*
X-7150000Y-6151451D01*
X-7150000Y-6256139D01*
X-7153591Y-6258059D01*
X-7229579Y-6320421D01*
X-7291941Y-6396409D01*
X-7338280Y-6483103D01*
X-7366816Y-6577172D01*
X-7376451Y-6675000D01*
X-7376451Y-7075000D01*
X-7366816Y-7172828D01*
X-7338280Y-7266897D01*
X-7291941Y-7353591D01*
X-7229579Y-7429579D01*
X-7153591Y-7491941D01*
X-7066897Y-7538280D01*
X-6972828Y-7566816D01*
X-6875000Y-7576451D01*
X-6325000Y-7576451D01*
X-6227172Y-7566816D01*
X-6133103Y-7538280D01*
X-6046409Y-7491941D01*
X-5970421Y-7429579D01*
X-5908059Y-7353591D01*
X-5861720Y-7266897D01*
X-5833184Y-7172828D01*
X-5823549Y-7075000D01*
X-5823549Y-6675000D01*
X-5833184Y-6577172D01*
X-5861720Y-6483103D01*
X-5908059Y-6396409D01*
X-5970421Y-6320421D01*
X-6046409Y-6258059D01*
X-6050000Y-6256140D01*
X-6050000Y-6151451D01*
X-5991190Y-6145659D01*
X-5934640Y-6128504D01*
X-5882523Y-6100647D01*
X-5836842Y-6063158D01*
X-5799353Y-6017477D01*
X-5771496Y-5965360D01*
X-5754341Y-5908810D01*
X-5748549Y-5850000D01*
X-5748549Y-4750000D01*
X-5754341Y-4691190D01*
X-5771496Y-4634640D01*
X-5799353Y-4582523D01*
X-5836842Y-4536842D01*
X-5882523Y-4499353D01*
X-5934640Y-4471496D01*
X-5991190Y-4454341D01*
X-6050000Y-4448549D01*
X-7150000Y-4448549D01*
X-7208810Y-4454341D01*
X-7265360Y-4471496D01*
X-7317477Y-4499353D01*
X-7363158Y-4536842D01*
X-7400647Y-4582523D01*
X-7428504Y-4634640D01*
X-7445659Y-4691190D01*
X-7451451Y-4750000D01*
X-41888773Y-4750000D01*
X-41995089Y-3891418D01*
X-42154997Y-1298782D01*
X-42154997Y968944D01*
X-9700000Y968944D01*
X-9700000Y831056D01*
X-9673099Y695818D01*
X-9620332Y568426D01*
X-9550000Y463166D01*
X-9549999Y-2372982D01*
X-9552660Y-2400000D01*
X-9542041Y-2507818D01*
X-9510591Y-2611494D01*
X-9459521Y-2707042D01*
X-9408013Y-2769804D01*
X-9408007Y-2769810D01*
X-9390789Y-2790790D01*
X-9369809Y-2808008D01*
X-8183013Y-3994804D01*
X-8165790Y-4015790D01*
X-8082042Y-4084521D01*
X-7986494Y-4135592D01*
X-7882819Y-4167042D01*
X-7802018Y-4175000D01*
X-7802011Y-4175000D01*
X-7775000Y-4177660D01*
X-7747989Y-4175000D01*
X-6752008Y-4175000D01*
X-6725000Y-4177660D01*
X-6697992Y-4175000D01*
X1325001Y-4175000D01*
X1325000Y-7197182D01*
X72183Y-8450000D01*
X-663166Y-8450000D01*
X-768426Y-8379668D01*
X-895818Y-8326901D01*
X-1031056Y-8300000D01*
X-1168944Y-8300000D01*
X-1304182Y-8326901D01*
X-1431574Y-8379668D01*
X-1546224Y-8456274D01*
X-1643726Y-8553776D01*
X-1720332Y-8668426D01*
X-1773099Y-8795818D01*
X-1800000Y-8931056D01*
X-1800000Y-9068944D01*
X-1773099Y-9204182D01*
X-1720332Y-9331574D01*
X-1643726Y-9446224D01*
X-1546224Y-9543726D01*
X-1431574Y-9620332D01*
X-1304182Y-9673099D01*
X-1168944Y-9700000D01*
X-1031056Y-9700000D01*
X-895818Y-9673099D01*
X-768426Y-9620332D01*
X-663166Y-9550000D01*
X272992Y-9550000D01*
X300000Y-9552660D01*
X327008Y-9550000D01*
X327018Y-9550000D01*
X407819Y-9542042D01*
X511494Y-9510592D01*
X607042Y-9459521D01*
X690790Y-9390790D01*
X708013Y-9369804D01*
X2244810Y-7833008D01*
X2265790Y-7815790D01*
X2283008Y-7794810D01*
X2283013Y-7794805D01*
X2334520Y-7732043D01*
X2385591Y-7636495D01*
X2385592Y-7636494D01*
X2417042Y-7532819D01*
X2425000Y-7452018D01*
X2425000Y-7452009D01*
X2427660Y-7425001D01*
X2425000Y-7397993D01*
X2425000Y-3652018D01*
X2427661Y-3625000D01*
X2425000Y-3597982D01*
X2425000Y-2854729D01*
X2442086Y-2822763D01*
X2467776Y-2738074D01*
X2476451Y-2650000D01*
X2476451Y-1250000D01*
X2467776Y-1161926D01*
X2442086Y-1077237D01*
X2400368Y-999187D01*
X2344224Y-930776D01*
X2275813Y-874632D01*
X2197763Y-832914D01*
X2113074Y-807224D01*
X2025000Y-798549D01*
X1725000Y-798549D01*
X1636926Y-807224D01*
X1552237Y-832914D01*
X1474187Y-874632D01*
X1405776Y-930776D01*
X1349632Y-999187D01*
X1307914Y-1077237D01*
X1282224Y-1161926D01*
X1273549Y-1250000D01*
X1273549Y-2650000D01*
X1282224Y-2738074D01*
X1307914Y-2822763D01*
X1325001Y-2854730D01*
X1325001Y-3075000D01*
X921674Y-3075000D01*
X947763Y-3067086D01*
X1025813Y-3025368D01*
X1094224Y-2969224D01*
X1150368Y-2900813D01*
X1192086Y-2822763D01*
X1217776Y-2738074D01*
X1226451Y-2650000D01*
X1226451Y-1250000D01*
X1217776Y-1161926D01*
X1192086Y-1077237D01*
X1175000Y-1045271D01*
X1175000Y103416D01*
X40050000Y103416D01*
X40050000Y-103416D01*
X40090350Y-306274D01*
X40169502Y-497362D01*
X40284411Y-669336D01*
X40430664Y-815589D01*
X40602638Y-930498D01*
X40793726Y-1009650D01*
X40996584Y-1050000D01*
X41203416Y-1050000D01*
X41406274Y-1009650D01*
X41597362Y-930498D01*
X41769336Y-815589D01*
X41915589Y-669336D01*
X42030498Y-497362D01*
X42109650Y-306274D01*
X42150000Y-103416D01*
X42150000Y103416D01*
X42109650Y306274D01*
X42030498Y497362D01*
X41915589Y669336D01*
X41769336Y815589D01*
X41597362Y930498D01*
X41406274Y1009650D01*
X41203416Y1050000D01*
X40996584Y1050000D01*
X40793726Y1009650D01*
X40602638Y930498D01*
X40430664Y815589D01*
X40284411Y669336D01*
X40169502Y497362D01*
X40090350Y306274D01*
X40050000Y103416D01*
X1175000Y103416D01*
X1175000Y4447993D01*
X1177660Y4475001D01*
X1175000Y4502009D01*
X1175000Y4502018D01*
X1167042Y4582819D01*
X1135592Y4686494D01*
X1084521Y4782042D01*
X1075562Y4792958D01*
X1033013Y4844805D01*
X1033008Y4844810D01*
X1015790Y4865790D01*
X994809Y4883008D01*
X697797Y5180021D01*
X673099Y5304182D01*
X620332Y5431574D01*
X543726Y5546224D01*
X446224Y5643726D01*
X331574Y5720332D01*
X204182Y5773099D01*
X68944Y5800000D01*
X-68944Y5800000D01*
X-204182Y5773099D01*
X-331574Y5720332D01*
X-446224Y5643726D01*
X-543726Y5546224D01*
X-620332Y5431574D01*
X-673099Y5304182D01*
X-700000Y5168944D01*
X-700000Y5031056D01*
X-673099Y4895818D01*
X-620332Y4768426D01*
X-543726Y4653776D01*
X-446224Y4556274D01*
X-331574Y4479668D01*
X-204182Y4426901D01*
X-80021Y4402203D01*
X75000Y4247182D01*
X75001Y-1045269D01*
X57914Y-1077237D01*
X32224Y-1161926D01*
X23549Y-1250000D01*
X23549Y-2650000D01*
X32224Y-2738074D01*
X57914Y-2822763D01*
X99632Y-2900813D01*
X155776Y-2969224D01*
X224187Y-3025368D01*
X302237Y-3067086D01*
X328326Y-3075000D01*
X-328326Y-3075000D01*
X-302237Y-3067086D01*
X-224187Y-3025368D01*
X-155776Y-2969224D01*
X-99632Y-2900813D01*
X-57914Y-2822763D01*
X-32224Y-2738074D01*
X-23549Y-2650000D01*
X-23549Y-1250000D01*
X-32224Y-1161926D01*
X-57914Y-1077237D01*
X-75000Y-1045271D01*
X-75000Y3797993D01*
X-72340Y3825001D01*
X-75000Y3852009D01*
X-75000Y3852018D01*
X-82958Y3932819D01*
X-114408Y4036494D01*
X-165479Y4132042D01*
X-174393Y4142903D01*
X-216987Y4194805D01*
X-216992Y4194810D01*
X-234210Y4215790D01*
X-255190Y4233008D01*
X-1202203Y5180021D01*
X-1226901Y5304182D01*
X-1279668Y5431574D01*
X-1356274Y5546224D01*
X-1453776Y5643726D01*
X-1568426Y5720332D01*
X-1695818Y5773099D01*
X-1831056Y5800000D01*
X-1968944Y5800000D01*
X-2104182Y5773099D01*
X-2231574Y5720332D01*
X-2346224Y5643726D01*
X-2443726Y5546224D01*
X-2520332Y5431574D01*
X-2573099Y5304182D01*
X-2600000Y5168944D01*
X-2600000Y5031056D01*
X-2573099Y4895818D01*
X-2520332Y4768426D01*
X-2443726Y4653776D01*
X-2346224Y4556274D01*
X-2231574Y4479668D01*
X-2104182Y4426901D01*
X-1980021Y4402203D01*
X-1174999Y3597181D01*
X-1175000Y-1045271D01*
X-1192086Y-1077237D01*
X-1217776Y-1161926D01*
X-1226451Y-1250000D01*
X-1226451Y-2650000D01*
X-1217776Y-2738074D01*
X-1192086Y-2822763D01*
X-1150368Y-2900813D01*
X-1094224Y-2969224D01*
X-1025813Y-3025368D01*
X-947763Y-3067086D01*
X-921674Y-3075000D01*
X-5751011Y-3075000D01*
X-5748549Y-3050000D01*
X-5748549Y-1950000D01*
X-5754341Y-1891190D01*
X-5771496Y-1834640D01*
X-5799353Y-1782523D01*
X-5836842Y-1736842D01*
X-5882523Y-1699353D01*
X-5934640Y-1671496D01*
X-5991190Y-1654341D01*
X-6050000Y-1648549D01*
X-7150000Y-1648549D01*
X-7208810Y-1654341D01*
X-7265360Y-1671496D01*
X-7317477Y-1699353D01*
X-7363158Y-1736842D01*
X-7400647Y-1782523D01*
X-7428504Y-1834640D01*
X-7445659Y-1891190D01*
X-7451451Y-1950000D01*
X-7451451Y-3050000D01*
X-7448989Y-3075000D01*
X-7547183Y-3075000D01*
X-8450000Y-2172183D01*
X-8450000Y463166D01*
X-8379668Y568426D01*
X-8326901Y695818D01*
X-8300000Y831056D01*
X-8300000Y968944D01*
X-8326901Y1104182D01*
X-8379668Y1231574D01*
X-8456274Y1346224D01*
X-8553776Y1443726D01*
X-8668426Y1520332D01*
X-8795818Y1573099D01*
X-8931056Y1600000D01*
X-9068944Y1600000D01*
X-9204182Y1573099D01*
X-9331574Y1520332D01*
X-9446224Y1443726D01*
X-9543726Y1346224D01*
X-9620332Y1231574D01*
X-9673099Y1104182D01*
X-9700000Y968944D01*
X-42154997Y968944D01*
X-42154997Y1298782D01*
X-41995089Y3891418D01*
X-41675879Y6469293D01*
X-41198578Y9022628D01*
X-40564997Y11541737D01*
X-39777538Y14017064D01*
X-38839190Y16439219D01*
X-37753512Y18799015D01*
X-36524621Y21087500D01*
X-35157181Y23295993D01*
X-33656377Y25416116D01*
X-32027902Y27439827D01*
X-30277935Y29359449D01*
X-28413114Y31167701D01*
X-26440512Y32857723D01*
X-24367611Y34423105D01*
X-22202276Y35857908D01*
X-19952721Y37156689D01*
X-17627478Y38314523D01*
X-15235367Y39327016D01*
X-12785464Y40190329D01*
X-10287061Y40901186D01*
X-7749636Y41456890D01*
X-5182814Y41855335D01*
X-2596331Y42095008D01*
X0Y42175000D01*
X2596331Y42095008D01*
%TA.AperFunction,Conductor*%
D18*
G36*
X2596331Y42095008D02*
G01*
X5182814Y41855335D01*
X7749636Y41456890D01*
X10287061Y40901186D01*
X12785464Y40190329D01*
X15235367Y39327016D01*
X17627478Y38314523D01*
X19952721Y37156689D01*
X22202276Y35857908D01*
X24367611Y34423105D01*
X26440512Y32857723D01*
X28413114Y31167701D01*
X30277935Y29359449D01*
X32027902Y27439827D01*
X33656377Y25416116D01*
X35157181Y23295993D01*
X36524621Y21087500D01*
X37753512Y18799015D01*
X38839190Y16439219D01*
X39777538Y14017064D01*
X40564997Y11541737D01*
X41198578Y9022628D01*
X41675879Y6469293D01*
X41995089Y3891418D01*
X42154997Y1298782D01*
X42154997Y-1298782D01*
X41995089Y-3891418D01*
X41675879Y-6469293D01*
X41198578Y-9022628D01*
X40564997Y-11541737D01*
X39777538Y-14017064D01*
X38839190Y-16439219D01*
X37753512Y-18799015D01*
X36524621Y-21087500D01*
X35157181Y-23295993D01*
X33656377Y-25416116D01*
X32027902Y-27439827D01*
X30277935Y-29359449D01*
X28413114Y-31167701D01*
X26440512Y-32857723D01*
X24367611Y-34423105D01*
X22202276Y-35857908D01*
X19952721Y-37156689D01*
X17627478Y-38314523D01*
X15235367Y-39327016D01*
X12785464Y-40190329D01*
X10287061Y-40901186D01*
X7749636Y-41456890D01*
X5182814Y-41855335D01*
X2596331Y-42095008D01*
X0Y-42175000D01*
X-2596331Y-42095008D01*
X-5182814Y-41855335D01*
X-7749636Y-41456890D01*
X-10287061Y-40901186D01*
X-12785464Y-40190329D01*
X-15235367Y-39327016D01*
X-17627478Y-38314523D01*
X-19952721Y-37156689D01*
X-22202276Y-35857908D01*
X-24367611Y-34423105D01*
X-26440512Y-32857723D01*
X-28413114Y-31167701D01*
X-30277935Y-29359449D01*
X-32027902Y-27439827D01*
X-33656377Y-25416116D01*
X-35157181Y-23295993D01*
X-36524621Y-21087500D01*
X-37753512Y-18799015D01*
X-38839190Y-16439219D01*
X-39777538Y-14017064D01*
X-40564997Y-11541737D01*
X-41198578Y-9022628D01*
X-41328987Y-8325000D01*
X-7376451Y-8325000D01*
X-7376451Y-8725000D01*
X-7366816Y-8822828D01*
X-7338280Y-8916897D01*
X-7291941Y-9003591D01*
X-7229579Y-9079579D01*
X-7153591Y-9141941D01*
X-7150000Y-9143860D01*
X-7150000Y-9372992D01*
X-7152660Y-9400000D01*
X-7150000Y-9427008D01*
X-7150000Y-9427018D01*
X-7142041Y-9507819D01*
X-7129245Y-9550000D01*
X-7110591Y-9611494D01*
X-7059521Y-9707042D01*
X-7008013Y-9769804D01*
X-7008007Y-9769810D01*
X-6990789Y-9790790D01*
X-6969809Y-9808008D01*
X-6701451Y-10076366D01*
X-6701451Y-11800000D01*
X-6690855Y-11907583D01*
X-6659474Y-12011031D01*
X-6608515Y-12106370D01*
X-6539935Y-12189935D01*
X-6456370Y-12258515D01*
X-6361031Y-12309474D01*
X-6257583Y-12340855D01*
X-6150000Y-12351451D01*
X-2250000Y-12351451D01*
X-2142417Y-12340855D01*
X-2038969Y-12309474D01*
X-1943630Y-12258515D01*
X-1860065Y-12189935D01*
X-1791485Y-12106370D01*
X-1740526Y-12011031D01*
X-1709145Y-11907583D01*
X-1698549Y-11800000D01*
X-1698549Y-11350000D01*
X-436834Y-11350000D01*
X-331574Y-11420332D01*
X-204182Y-11473099D01*
X-68944Y-11500000D01*
X68944Y-11500000D01*
X204182Y-11473099D01*
X331574Y-11420332D01*
X446224Y-11343726D01*
X543726Y-11246224D01*
X620332Y-11131574D01*
X673099Y-11004182D01*
X700000Y-10868944D01*
X700000Y-10731056D01*
X673099Y-10595818D01*
X620332Y-10468426D01*
X543726Y-10353776D01*
X446224Y-10256274D01*
X331574Y-10179668D01*
X204182Y-10126901D01*
X68944Y-10100000D01*
X-68944Y-10100000D01*
X-204182Y-10126901D01*
X-331574Y-10179668D01*
X-436834Y-10250000D01*
X-1698549Y-10250000D01*
X-1698549Y-9800000D01*
X-1709145Y-9692417D01*
X-1740526Y-9588969D01*
X-1791485Y-9493630D01*
X-1860065Y-9410065D01*
X-1943630Y-9341485D01*
X-2038969Y-9290526D01*
X-2142417Y-9259145D01*
X-2250000Y-9248549D01*
X-5973634Y-9248549D01*
X-6050000Y-9172183D01*
X-6050000Y-9143860D01*
X-6046409Y-9141941D01*
X-5970421Y-9079579D01*
X-5908059Y-9003591D01*
X-5861720Y-8916897D01*
X-5833184Y-8822828D01*
X-5823549Y-8725000D01*
X-5823549Y-8325000D01*
X-5833184Y-8227172D01*
X-5861720Y-8133103D01*
X-5908059Y-8046409D01*
X-5970421Y-7970421D01*
X-6046409Y-7908059D01*
X-6133103Y-7861720D01*
X-6227172Y-7833184D01*
X-6325000Y-7823549D01*
X-6875000Y-7823549D01*
X-6972828Y-7833184D01*
X-7066897Y-7861720D01*
X-7153591Y-7908059D01*
X-7229579Y-7970421D01*
X-7291941Y-8046409D01*
X-7338280Y-8133103D01*
X-7366816Y-8227172D01*
X-7376451Y-8325000D01*
X-41328987Y-8325000D01*
X-41675879Y-6469293D01*
X-41888773Y-4750000D01*
X-7451451Y-4750000D01*
X-7451451Y-5850000D01*
X-7445659Y-5908810D01*
X-7428504Y-5965360D01*
X-7400647Y-6017477D01*
X-7363158Y-6063158D01*
X-7317477Y-6100647D01*
X-7265360Y-6128504D01*
X-7208810Y-6145659D01*
X-7150000Y-6151451D01*
X-7150000Y-6256139D01*
X-7153591Y-6258059D01*
X-7229579Y-6320421D01*
X-7291941Y-6396409D01*
X-7338280Y-6483103D01*
X-7366816Y-6577172D01*
X-7376451Y-6675000D01*
X-7376451Y-7075000D01*
X-7366816Y-7172828D01*
X-7338280Y-7266897D01*
X-7291941Y-7353591D01*
X-7229579Y-7429579D01*
X-7153591Y-7491941D01*
X-7066897Y-7538280D01*
X-6972828Y-7566816D01*
X-6875000Y-7576451D01*
X-6325000Y-7576451D01*
X-6227172Y-7566816D01*
X-6133103Y-7538280D01*
X-6046409Y-7491941D01*
X-5970421Y-7429579D01*
X-5908059Y-7353591D01*
X-5861720Y-7266897D01*
X-5833184Y-7172828D01*
X-5823549Y-7075000D01*
X-5823549Y-6675000D01*
X-5833184Y-6577172D01*
X-5861720Y-6483103D01*
X-5908059Y-6396409D01*
X-5970421Y-6320421D01*
X-6046409Y-6258059D01*
X-6050000Y-6256140D01*
X-6050000Y-6151451D01*
X-5991190Y-6145659D01*
X-5934640Y-6128504D01*
X-5882523Y-6100647D01*
X-5836842Y-6063158D01*
X-5799353Y-6017477D01*
X-5771496Y-5965360D01*
X-5754341Y-5908810D01*
X-5748549Y-5850000D01*
X-5748549Y-4750000D01*
X-5754341Y-4691190D01*
X-5771496Y-4634640D01*
X-5799353Y-4582523D01*
X-5836842Y-4536842D01*
X-5882523Y-4499353D01*
X-5934640Y-4471496D01*
X-5991190Y-4454341D01*
X-6050000Y-4448549D01*
X-7150000Y-4448549D01*
X-7208810Y-4454341D01*
X-7265360Y-4471496D01*
X-7317477Y-4499353D01*
X-7363158Y-4536842D01*
X-7400647Y-4582523D01*
X-7428504Y-4634640D01*
X-7445659Y-4691190D01*
X-7451451Y-4750000D01*
X-41888773Y-4750000D01*
X-41995089Y-3891418D01*
X-42154997Y-1298782D01*
X-42154997Y968944D01*
X-9700000Y968944D01*
X-9700000Y831056D01*
X-9673099Y695818D01*
X-9620332Y568426D01*
X-9550000Y463166D01*
X-9549999Y-2372982D01*
X-9552660Y-2400000D01*
X-9542041Y-2507818D01*
X-9510591Y-2611494D01*
X-9459521Y-2707042D01*
X-9408013Y-2769804D01*
X-9408007Y-2769810D01*
X-9390789Y-2790790D01*
X-9369809Y-2808008D01*
X-8183013Y-3994804D01*
X-8165790Y-4015790D01*
X-8082042Y-4084521D01*
X-7986494Y-4135592D01*
X-7882819Y-4167042D01*
X-7802018Y-4175000D01*
X-7802011Y-4175000D01*
X-7775000Y-4177660D01*
X-7747989Y-4175000D01*
X-6752008Y-4175000D01*
X-6725000Y-4177660D01*
X-6697992Y-4175000D01*
X1325001Y-4175000D01*
X1325000Y-7197182D01*
X72183Y-8450000D01*
X-663166Y-8450000D01*
X-768426Y-8379668D01*
X-895818Y-8326901D01*
X-1031056Y-8300000D01*
X-1168944Y-8300000D01*
X-1304182Y-8326901D01*
X-1431574Y-8379668D01*
X-1546224Y-8456274D01*
X-1643726Y-8553776D01*
X-1720332Y-8668426D01*
X-1773099Y-8795818D01*
X-1800000Y-8931056D01*
X-1800000Y-9068944D01*
X-1773099Y-9204182D01*
X-1720332Y-9331574D01*
X-1643726Y-9446224D01*
X-1546224Y-9543726D01*
X-1431574Y-9620332D01*
X-1304182Y-9673099D01*
X-1168944Y-9700000D01*
X-1031056Y-9700000D01*
X-895818Y-9673099D01*
X-768426Y-9620332D01*
X-663166Y-9550000D01*
X272992Y-9550000D01*
X300000Y-9552660D01*
X327008Y-9550000D01*
X327018Y-9550000D01*
X407819Y-9542042D01*
X511494Y-9510592D01*
X607042Y-9459521D01*
X690790Y-9390790D01*
X708013Y-9369804D01*
X2244810Y-7833008D01*
X2265790Y-7815790D01*
X2283008Y-7794810D01*
X2283013Y-7794805D01*
X2334520Y-7732043D01*
X2385591Y-7636495D01*
X2385592Y-7636494D01*
X2417042Y-7532819D01*
X2425000Y-7452018D01*
X2425000Y-7452009D01*
X2427660Y-7425001D01*
X2425000Y-7397993D01*
X2425000Y-3652018D01*
X2427661Y-3625000D01*
X2425000Y-3597982D01*
X2425000Y-2854729D01*
X2442086Y-2822763D01*
X2467776Y-2738074D01*
X2476451Y-2650000D01*
X2476451Y-1250000D01*
X2467776Y-1161926D01*
X2442086Y-1077237D01*
X2400368Y-999187D01*
X2344224Y-930776D01*
X2275813Y-874632D01*
X2197763Y-832914D01*
X2113074Y-807224D01*
X2025000Y-798549D01*
X1725000Y-798549D01*
X1636926Y-807224D01*
X1552237Y-832914D01*
X1474187Y-874632D01*
X1405776Y-930776D01*
X1349632Y-999187D01*
X1307914Y-1077237D01*
X1282224Y-1161926D01*
X1273549Y-1250000D01*
X1273549Y-2650000D01*
X1282224Y-2738074D01*
X1307914Y-2822763D01*
X1325001Y-2854730D01*
X1325001Y-3075000D01*
X921674Y-3075000D01*
X947763Y-3067086D01*
X1025813Y-3025368D01*
X1094224Y-2969224D01*
X1150368Y-2900813D01*
X1192086Y-2822763D01*
X1217776Y-2738074D01*
X1226451Y-2650000D01*
X1226451Y-1250000D01*
X1217776Y-1161926D01*
X1192086Y-1077237D01*
X1175000Y-1045271D01*
X1175000Y103416D01*
X40050000Y103416D01*
X40050000Y-103416D01*
X40090350Y-306274D01*
X40169502Y-497362D01*
X40284411Y-669336D01*
X40430664Y-815589D01*
X40602638Y-930498D01*
X40793726Y-1009650D01*
X40996584Y-1050000D01*
X41203416Y-1050000D01*
X41406274Y-1009650D01*
X41597362Y-930498D01*
X41769336Y-815589D01*
X41915589Y-669336D01*
X42030498Y-497362D01*
X42109650Y-306274D01*
X42150000Y-103416D01*
X42150000Y103416D01*
X42109650Y306274D01*
X42030498Y497362D01*
X41915589Y669336D01*
X41769336Y815589D01*
X41597362Y930498D01*
X41406274Y1009650D01*
X41203416Y1050000D01*
X40996584Y1050000D01*
X40793726Y1009650D01*
X40602638Y930498D01*
X40430664Y815589D01*
X40284411Y669336D01*
X40169502Y497362D01*
X40090350Y306274D01*
X40050000Y103416D01*
X1175000Y103416D01*
X1175000Y4447993D01*
X1177660Y4475001D01*
X1175000Y4502009D01*
X1175000Y4502018D01*
X1167042Y4582819D01*
X1135592Y4686494D01*
X1084521Y4782042D01*
X1075562Y4792958D01*
X1033013Y4844805D01*
X1033008Y4844810D01*
X1015790Y4865790D01*
X994809Y4883008D01*
X697797Y5180021D01*
X673099Y5304182D01*
X620332Y5431574D01*
X543726Y5546224D01*
X446224Y5643726D01*
X331574Y5720332D01*
X204182Y5773099D01*
X68944Y5800000D01*
X-68944Y5800000D01*
X-204182Y5773099D01*
X-331574Y5720332D01*
X-446224Y5643726D01*
X-543726Y5546224D01*
X-620332Y5431574D01*
X-673099Y5304182D01*
X-700000Y5168944D01*
X-700000Y5031056D01*
X-673099Y4895818D01*
X-620332Y4768426D01*
X-543726Y4653776D01*
X-446224Y4556274D01*
X-331574Y4479668D01*
X-204182Y4426901D01*
X-80021Y4402203D01*
X75000Y4247182D01*
X75001Y-1045269D01*
X57914Y-1077237D01*
X32224Y-1161926D01*
X23549Y-1250000D01*
X23549Y-2650000D01*
X32224Y-2738074D01*
X57914Y-2822763D01*
X99632Y-2900813D01*
X155776Y-2969224D01*
X224187Y-3025368D01*
X302237Y-3067086D01*
X328326Y-3075000D01*
X-328326Y-3075000D01*
X-302237Y-3067086D01*
X-224187Y-3025368D01*
X-155776Y-2969224D01*
X-99632Y-2900813D01*
X-57914Y-2822763D01*
X-32224Y-2738074D01*
X-23549Y-2650000D01*
X-23549Y-1250000D01*
X-32224Y-1161926D01*
X-57914Y-1077237D01*
X-75000Y-1045271D01*
X-75000Y3797993D01*
X-72340Y3825001D01*
X-75000Y3852009D01*
X-75000Y3852018D01*
X-82958Y3932819D01*
X-114408Y4036494D01*
X-165479Y4132042D01*
X-174393Y4142903D01*
X-216987Y4194805D01*
X-216992Y4194810D01*
X-234210Y4215790D01*
X-255190Y4233008D01*
X-1202203Y5180021D01*
X-1226901Y5304182D01*
X-1279668Y5431574D01*
X-1356274Y5546224D01*
X-1453776Y5643726D01*
X-1568426Y5720332D01*
X-1695818Y5773099D01*
X-1831056Y5800000D01*
X-1968944Y5800000D01*
X-2104182Y5773099D01*
X-2231574Y5720332D01*
X-2346224Y5643726D01*
X-2443726Y5546224D01*
X-2520332Y5431574D01*
X-2573099Y5304182D01*
X-2600000Y5168944D01*
X-2600000Y5031056D01*
X-2573099Y4895818D01*
X-2520332Y4768426D01*
X-2443726Y4653776D01*
X-2346224Y4556274D01*
X-2231574Y4479668D01*
X-2104182Y4426901D01*
X-1980021Y4402203D01*
X-1174999Y3597181D01*
X-1175000Y-1045271D01*
X-1192086Y-1077237D01*
X-1217776Y-1161926D01*
X-1226451Y-1250000D01*
X-1226451Y-2650000D01*
X-1217776Y-2738074D01*
X-1192086Y-2822763D01*
X-1150368Y-2900813D01*
X-1094224Y-2969224D01*
X-1025813Y-3025368D01*
X-947763Y-3067086D01*
X-921674Y-3075000D01*
X-5751011Y-3075000D01*
X-5748549Y-3050000D01*
X-5748549Y-1950000D01*
X-5754341Y-1891190D01*
X-5771496Y-1834640D01*
X-5799353Y-1782523D01*
X-5836842Y-1736842D01*
X-5882523Y-1699353D01*
X-5934640Y-1671496D01*
X-5991190Y-1654341D01*
X-6050000Y-1648549D01*
X-7150000Y-1648549D01*
X-7208810Y-1654341D01*
X-7265360Y-1671496D01*
X-7317477Y-1699353D01*
X-7363158Y-1736842D01*
X-7400647Y-1782523D01*
X-7428504Y-1834640D01*
X-7445659Y-1891190D01*
X-7451451Y-1950000D01*
X-7451451Y-3050000D01*
X-7448989Y-3075000D01*
X-7547183Y-3075000D01*
X-8450000Y-2172183D01*
X-8450000Y463166D01*
X-8379668Y568426D01*
X-8326901Y695818D01*
X-8300000Y831056D01*
X-8300000Y968944D01*
X-8326901Y1104182D01*
X-8379668Y1231574D01*
X-8456274Y1346224D01*
X-8553776Y1443726D01*
X-8668426Y1520332D01*
X-8795818Y1573099D01*
X-8931056Y1600000D01*
X-9068944Y1600000D01*
X-9204182Y1573099D01*
X-9331574Y1520332D01*
X-9446224Y1443726D01*
X-9543726Y1346224D01*
X-9620332Y1231574D01*
X-9673099Y1104182D01*
X-9700000Y968944D01*
X-42154997Y968944D01*
X-42154997Y1298782D01*
X-41995089Y3891418D01*
X-41675879Y6469293D01*
X-41198578Y9022628D01*
X-40564997Y11541737D01*
X-39777538Y14017064D01*
X-38839190Y16439219D01*
X-37753512Y18799015D01*
X-36524621Y21087500D01*
X-35157181Y23295993D01*
X-33656377Y25416116D01*
X-32027902Y27439827D01*
X-30277935Y29359449D01*
X-28413114Y31167701D01*
X-26440512Y32857723D01*
X-24367611Y34423105D01*
X-22202276Y35857908D01*
X-19952721Y37156689D01*
X-17627478Y38314523D01*
X-15235367Y39327016D01*
X-12785464Y40190329D01*
X-10287061Y40901186D01*
X-7749636Y41456890D01*
X-5182814Y41855335D01*
X-2596331Y42095008D01*
X0Y42175000D01*
X2596331Y42095008D01*
G37*
%TD.AperFunction*%
%TD*%
M02*
