%TF.GenerationSoftware,KiCad,Pcbnew,6.0.5-a6ca702e91~116~ubuntu20.04.1*%
%TF.CreationDate,2022-05-11T23:16:09+02:00*%
%TF.ProjectId,uHoubolt_PCB_GNSS,75486f75-626f-46c7-945f-5043425f474e,rev?*%
%TF.SameCoordinates,PX8f0d180PY5f5e100*%
%TF.FileFunction,Paste,Top*%
%TF.FilePolarity,Positive*%
%FSLAX46Y46*%
G04 Gerber Fmt 4.6, Leading zero omitted, Abs format (unit mm)*
G04 Created by KiCad (PCBNEW 6.0.5-a6ca702e91~116~ubuntu20.04.1) date 2022-05-11 23:16:09*
%MOMM*%
%LPD*%
G01*
G04 APERTURE LIST*
G04 Aperture macros list*
%AMRoundRect*
0 Rectangle with rounded corners*
0 $1 Rounding radius*
0 $2 $3 $4 $5 $6 $7 $8 $9 X,Y pos of 4 corners*
0 Add a 4 corners polygon primitive as box body*
4,1,4,$2,$3,$4,$5,$6,$7,$8,$9,$2,$3,0*
0 Add four circle primitives for the rounded corners*
1,1,$1+$1,$2,$3*
1,1,$1+$1,$4,$5*
1,1,$1+$1,$6,$7*
1,1,$1+$1,$8,$9*
0 Add four rect primitives between the rounded corners*
20,1,$1+$1,$2,$3,$4,$5,0*
20,1,$1+$1,$4,$5,$6,$7,0*
20,1,$1+$1,$6,$7,$8,$9,0*
20,1,$1+$1,$8,$9,$2,$3,0*%
G04 Aperture macros list end*
%ADD10RoundRect,0.038280X0.321720X-0.251720X0.321720X0.251720X-0.321720X0.251720X-0.321720X-0.251720X0*%
%ADD11RoundRect,0.038280X-0.251720X-0.321720X0.251720X-0.321720X0.251720X0.321720X-0.251720X0.321720X0*%
G04 APERTURE END LIST*
D10*
%TO.C,U1*%
X7100000Y1475000D03*
X6100000Y-3375000D03*
D11*
X-1475000Y-7100000D03*
D10*
X-7100000Y4225000D03*
D11*
X-2325000Y7100000D03*
X-3375000Y-7100000D03*
X-4225000Y-7100000D03*
D10*
X-6100000Y4225000D03*
D11*
X-1475000Y6100000D03*
X425000Y-7100000D03*
X-2325000Y-7100000D03*
D10*
X-6100000Y-4225000D03*
D11*
X3375000Y7100000D03*
D10*
X7100000Y-3375000D03*
X-6100000Y2325000D03*
D11*
X2325000Y6100000D03*
D10*
X7100000Y-425000D03*
D11*
X2325000Y-6100000D03*
X-2325000Y-6100000D03*
D10*
X-7100000Y-4225000D03*
X-7100000Y3375000D03*
D11*
X-3375000Y7100000D03*
D10*
X-7100000Y-2325000D03*
X-7100000Y-425000D03*
D11*
X425000Y7100000D03*
D10*
X-6100000Y-425000D03*
D11*
X1475000Y-6100000D03*
D10*
X7100000Y-4225000D03*
D11*
X-3375000Y6100000D03*
D10*
X6100000Y1475000D03*
D11*
X2325000Y-7100000D03*
X-4225000Y-6100000D03*
D10*
X6100000Y4225000D03*
X7100000Y2325000D03*
X-6100000Y1475000D03*
D11*
X-425000Y6100000D03*
X425000Y6100000D03*
D10*
X-7100000Y-1475000D03*
D11*
X4225000Y6100000D03*
D10*
X7100000Y-2325000D03*
X-6100000Y-2325000D03*
X-7100000Y1475000D03*
D11*
X1475000Y7100000D03*
D10*
X6100000Y425000D03*
X-6100000Y-3375000D03*
D11*
X-1475000Y-6100000D03*
D10*
X7100000Y3375000D03*
X6100000Y3375000D03*
D11*
X-425000Y-7100000D03*
X3375000Y-6100000D03*
D10*
X6100000Y-1475000D03*
D11*
X1475000Y-7100000D03*
X-4225000Y7100000D03*
D10*
X-7100000Y2325000D03*
X6100000Y-4225000D03*
D11*
X-425000Y-6100000D03*
X3375000Y6100000D03*
X4225000Y7100000D03*
X3375000Y-7100000D03*
X-425000Y7100000D03*
X-3375000Y-6100000D03*
D10*
X7100000Y425000D03*
D11*
X4225000Y-7100000D03*
D10*
X-6100000Y3375000D03*
X-7100000Y-3375000D03*
D11*
X1475000Y6100000D03*
D10*
X-7100000Y425000D03*
D11*
X-1475000Y7100000D03*
X-2325000Y6100000D03*
D10*
X-6100000Y425000D03*
X-6100000Y-1475000D03*
X7100000Y-1475000D03*
D11*
X425000Y-6100000D03*
D10*
X6100000Y-2325000D03*
D11*
X2325000Y7100000D03*
X-4225000Y6100000D03*
D10*
X6100000Y2325000D03*
X7100000Y4225000D03*
D11*
X4225000Y-6100000D03*
D10*
X6100000Y-425000D03*
%TD*%
M02*
