%TF.GenerationSoftware,KiCad,Pcbnew,6.0.5-a6ca702e91~116~ubuntu20.04.1*%
%TF.CreationDate,2022-05-11T23:16:14+02:00*%
%TF.ProjectId,uHoubolt_PCB_GNSS,75486f75-626f-46c7-945f-5043425f474e,rev?*%
%TF.SameCoordinates,PX8f0d180PY5f5e100*%
%TF.FileFunction,Plated,1,4,PTH,Drill*%
%TF.FilePolarity,Positive*%
%FSLAX46Y46*%
G04 Gerber Fmt 4.6, Leading zero omitted, Abs format (unit mm)*
G04 Created by KiCad (PCBNEW 6.0.5-a6ca702e91~116~ubuntu20.04.1) date 2022-05-11 23:16:14*
%MOMM*%
%LPD*%
G01*
G04 APERTURE LIST*
%TA.AperFunction,ComponentDrill*%
%ADD10C,0.200000*%
%TD*%
%TA.AperFunction,ViaDrill*%
%ADD11C,0.300000*%
%TD*%
%TA.AperFunction,ViaDrill*%
%ADD12C,0.500000*%
%TD*%
%TA.AperFunction,ComponentDrill*%
%ADD13C,0.500000*%
%TD*%
%TA.AperFunction,ComponentDrill*%
%ADD14C,0.850000*%
%TD*%
%TA.AperFunction,ComponentDrill*%
%ADD15C,1.200000*%
%TD*%
%TA.AperFunction,ComponentDrill*%
%ADD16C,3.200000*%
%TD*%
G04 APERTURE END LIST*
D10*
%TO.C,U7*%
X17663000Y32567500D03*
X17663000Y31317500D03*
X18913000Y32567500D03*
X18913000Y31317500D03*
%TD*%
D11*
X-39243000Y-7112000D03*
X-37973000Y-3556000D03*
X-36703000Y-3160497D03*
X-36703000Y-3810000D03*
X-33274000Y11176000D03*
X-33274000Y10414000D03*
X-32258000Y11176000D03*
X-32258000Y10414000D03*
X-32004000Y762000D03*
X-31496000Y-1778000D03*
X-31242000Y11176000D03*
X-31242000Y10414000D03*
X-31242000Y762000D03*
X-29718000Y3048000D03*
X-29464000Y13418283D03*
X-29464000Y12402283D03*
X-28956000Y3048000D03*
X-28702000Y13418283D03*
X-28500000Y-500000D03*
X-28194000Y3048000D03*
X-27843000Y15450283D03*
X-27686000Y3810000D03*
X-27503316Y4984773D03*
X-27268944Y16532339D03*
X-26980204Y6015885D03*
X-26670000Y8128000D03*
X-26416000Y19304000D03*
X-26416000Y18542000D03*
X-25908000Y8890000D03*
X-25908000Y8128000D03*
X-25654000Y18542000D03*
X-24638000Y16510000D03*
X-24137556Y6103556D03*
X-23622000Y14732000D03*
X-23400000Y3600000D03*
X-23114000Y5080000D03*
X-23000000Y-4800000D03*
X-22606000Y18542000D03*
X-22606000Y7874000D03*
X-22349502Y762000D03*
X-21844000Y18542000D03*
X-21082000Y18542000D03*
X-19800000Y-3810000D03*
X-19600000Y0D03*
X-18898431Y4064000D03*
X-18542000Y16256000D03*
X-18542000Y1270000D03*
X-18034000Y7366000D03*
X-17780000Y17018000D03*
X-17780000Y16256000D03*
X-17526000Y10795000D03*
X-17272000Y7366000D03*
X-17272000Y3810000D03*
X-16510000Y7366000D03*
X-16002000Y21844000D03*
X-16002000Y21082000D03*
X-16002000Y3810000D03*
X-15240000Y22606000D03*
X-15240000Y21844000D03*
X-15106500Y4038498D03*
X-15085534Y19809934D03*
X-14986000Y10160000D03*
X-14478000Y19812000D03*
X-14478000Y13462000D03*
X-14400000Y-3400000D03*
X-14345556Y4573056D03*
X-13970000Y8636000D03*
X-13970000Y1016000D03*
X-13843000Y16637000D03*
X-13462000Y11176000D03*
X-13081000Y5842000D03*
X-12954000Y14478000D03*
X-12700000Y2032000D03*
X-12192000Y18288000D03*
X-12192000Y17526000D03*
X-12192000Y5080000D03*
X-12000000Y-3400000D03*
X-11938000Y28956000D03*
X-11938000Y12700000D03*
X-11430000Y14986000D03*
X-11311500Y18034000D03*
X-10909555Y23342097D03*
X-10414000Y8636000D03*
X-10160000Y16002000D03*
X-9906000Y27178000D03*
X-9906000Y19445503D03*
X-9906000Y18796000D03*
X-9906000Y12700000D03*
X-9144000Y22606000D03*
X-9144000Y21844000D03*
X-9144000Y15875000D03*
X-8636000Y7112000D03*
X-8509000Y15875000D03*
X-8382000Y34290000D03*
X-8382000Y30480000D03*
X-8382000Y29718000D03*
X-8200000Y0D03*
X-8150000Y-1900000D03*
X-8128000Y1900000D03*
X-7874000Y15875000D03*
X-7874000Y4572000D03*
X-7620000Y34290000D03*
X-7620000Y8382000D03*
X-7620000Y6350000D03*
X-6858000Y28194000D03*
X-6604000Y21082000D03*
X-6604000Y20320000D03*
X-6604000Y18796000D03*
X-6604000Y18034000D03*
X-6604000Y17272000D03*
X-6604000Y13970000D03*
X-6350000Y26162000D03*
X-6350000Y25400000D03*
X-6350000Y7620000D03*
X-6350000Y-6350000D03*
X-5588000Y32004000D03*
X-5588000Y30988000D03*
X-5588000Y29972000D03*
X-5588000Y26162000D03*
X-5588000Y25400000D03*
X-5588000Y11938000D03*
X-5334000Y8636000D03*
X-5334000Y3048000D03*
X-5246980Y19050000D03*
X-5207000Y19812000D03*
X-5080000Y3810000D03*
X-5080000Y1524000D03*
X-5080000Y-2540000D03*
X-4318000Y30988000D03*
X-3810000Y16764000D03*
X-3810000Y5080000D03*
X-3683000Y-3683000D03*
X-3302000Y38862000D03*
X-3302000Y38100000D03*
X-3302000Y37338000D03*
X-3302000Y36576000D03*
X-3302000Y9652000D03*
X-2540000Y36068000D03*
X-2540000Y35052000D03*
X-2540000Y3810000D03*
X-2540000Y-2540000D03*
X-2540000Y-5080000D03*
X-2413000Y1524000D03*
X-2286000Y15748000D03*
X-2032000Y8128000D03*
X-1905000Y29210000D03*
X-1900000Y-8150000D03*
X-1524000Y35052000D03*
X-1524000Y16332500D03*
X-1270000Y5080000D03*
X-1016000Y31115000D03*
X-1016000Y29210000D03*
X-734336Y11457664D03*
X-508000Y35052000D03*
X-508000Y-1778000D03*
X0Y15748000D03*
X0Y8128000D03*
X0Y2540000D03*
X0Y-8128000D03*
X254000Y26162000D03*
X254000Y11430000D03*
X508000Y35052000D03*
X508000Y9652000D03*
X762000Y15748000D03*
X762000Y8644500D03*
X1016000Y11430000D03*
X1270000Y3810000D03*
X1270000Y-5080000D03*
X1397000Y1651000D03*
X1524000Y36068000D03*
X1524000Y35052000D03*
X1524000Y26162000D03*
X1524000Y25146000D03*
X1555500Y12700000D03*
X2032000Y19304000D03*
X2032000Y5080000D03*
X2540000Y2540000D03*
X2540000Y-2540000D03*
X2555500Y12700000D03*
X2794000Y26162000D03*
X2794000Y25146000D03*
X2794000Y24130000D03*
X3048000Y19304000D03*
X3048000Y4572000D03*
X3048000Y-4191000D03*
X3302000Y15748000D03*
X3810000Y26162000D03*
X3810000Y16256000D03*
X3810000Y9398000D03*
X3810000Y3810000D03*
X4064000Y33274000D03*
X4064000Y31242000D03*
X4179542Y28829000D03*
X4318000Y15748000D03*
X4318000Y14224000D03*
X4445000Y-3810000D03*
X4572000Y9398000D03*
X4572000Y8636000D03*
X4826000Y33274000D03*
X5080000Y15240000D03*
X5080000Y14224000D03*
X5080000Y3810000D03*
X5080000Y2540000D03*
X5080000Y-2540000D03*
X5256790Y26846790D03*
X5588000Y33274000D03*
X5588000Y29718000D03*
X5842000Y28164500D03*
X6350000Y10414000D03*
X6350000Y6350000D03*
X6350000Y-6350000D03*
X6604000Y19331500D03*
X6806000Y17832000D03*
X6811867Y25931157D03*
X6858000Y28194000D03*
X6858000Y21082000D03*
X7099555Y19786097D03*
X7112000Y28702000D03*
X7308046Y29486562D03*
X7366000Y18331500D03*
X7620000Y22949000D03*
X7900000Y-1900000D03*
X8128000Y32258000D03*
X8890000Y27940000D03*
X8890000Y17780000D03*
X8890000Y14478000D03*
X9144000Y19812000D03*
X9144000Y13462000D03*
X9398000Y28956000D03*
X9652000Y14986000D03*
X9652000Y14224000D03*
X10160000Y10160000D03*
X10160000Y5080000D03*
X10287000Y20066000D03*
X10414000Y22606000D03*
X10414000Y14986000D03*
X10668000Y18288000D03*
X10668000Y13970000D03*
X11430000Y22606000D03*
X11938000Y33782000D03*
X11938000Y32512000D03*
X12446000Y35052000D03*
X12446000Y27178000D03*
X12446000Y22606000D03*
X12446000Y19304000D03*
X13462000Y27178000D03*
X13462000Y22606000D03*
X13970000Y32728500D03*
X14478000Y27178000D03*
X14478000Y22606000D03*
X15748000Y15748000D03*
X16002000Y32728500D03*
X16002000Y11938000D03*
X17018000Y23368000D03*
X17272000Y15748000D03*
X17272000Y14986000D03*
X17780000Y20320000D03*
X17780000Y10922000D03*
X18034000Y15748000D03*
X18034000Y14986000D03*
X18796000Y15748000D03*
X18796000Y14986000D03*
X19304000Y10922000D03*
X19558000Y17272000D03*
X19558000Y16510000D03*
X19558000Y15748000D03*
X19558000Y14986000D03*
X20320000Y16510000D03*
X20320000Y15748000D03*
X20320000Y14986000D03*
X20567446Y31644002D03*
X21082000Y24384000D03*
X21082000Y23622000D03*
X21082000Y22860000D03*
X21082000Y22098000D03*
X21844000Y24384000D03*
X21844000Y23622000D03*
X21844000Y22860000D03*
X21844000Y22098000D03*
X22987000Y21463000D03*
X32258000Y21710250D03*
X35052000Y-12954000D03*
X35052000Y-13589000D03*
X35052000Y-14351000D03*
X35052000Y-15113000D03*
X35052000Y-15875000D03*
X35687000Y-16129000D03*
X37592000Y-11176000D03*
D12*
X-40640000Y5080000D03*
X-35560000Y20320000D03*
X-35560000Y15240000D03*
X-35560000Y-10160000D03*
X-35052000Y10160000D03*
X-35052000Y5080000D03*
X-30480000Y-10160000D03*
X-30226000Y19260283D03*
X-25400000Y-10160000D03*
X-25400000Y-15240000D03*
X-25400000Y-20320000D03*
X-25146000Y19260283D03*
X-20320000Y35560000D03*
X-20320000Y30480000D03*
X-20320000Y25400000D03*
X-20320000Y20320000D03*
X-20320000Y-10160000D03*
X-20320000Y-15240000D03*
X-20320000Y-20320000D03*
X-20320000Y-25400000D03*
X-15240000Y35560000D03*
X-15240000Y30480000D03*
X-15240000Y-10160000D03*
X-15240000Y-15240000D03*
X-15240000Y-20320000D03*
X-15240000Y-25400000D03*
X-10160000Y35560000D03*
X-10160000Y0D03*
X-10160000Y-5080000D03*
X-10160000Y-10160000D03*
X-10160000Y-15240000D03*
X-10160000Y-20320000D03*
X-10160000Y-25400000D03*
X-5080000Y40640000D03*
X-5080000Y35560000D03*
X-5080000Y5080000D03*
X-5080000Y-5080000D03*
X-5080000Y-10160000D03*
X-5080000Y-15240000D03*
X-5080000Y-20320000D03*
X-5080000Y-25400000D03*
X0Y40640000D03*
X0Y0D03*
X0Y-10160000D03*
X0Y-15240000D03*
X0Y-20320000D03*
X0Y-25400000D03*
X5080000Y40640000D03*
X5080000Y-5080000D03*
X5080000Y-10160000D03*
X5080000Y-15240000D03*
X5080000Y-20320000D03*
X5080000Y-25400000D03*
X10160000Y35560000D03*
X10160000Y0D03*
X10160000Y-5080000D03*
X10160000Y-10160000D03*
X10160000Y-25400000D03*
X15240000Y5080000D03*
X15240000Y0D03*
X15240000Y-5080000D03*
X15240000Y-10160000D03*
X15240000Y-25400000D03*
X20320000Y10160000D03*
X20320000Y5080000D03*
X20320000Y0D03*
X20320000Y-5080000D03*
X20320000Y-10160000D03*
X20320000Y-15240000D03*
X20320000Y-20320000D03*
X20320000Y-25400000D03*
X25400000Y19170250D03*
X25400000Y15240000D03*
X25400000Y10160000D03*
X25400000Y5080000D03*
X25400000Y0D03*
X25400000Y-5080000D03*
X25400000Y-10160000D03*
X25400000Y-15240000D03*
X25400000Y-20320000D03*
X30480000Y15240000D03*
X30480000Y0D03*
X30480000Y-5080000D03*
X30480000Y-10160000D03*
X30480000Y-15240000D03*
X30480000Y-20320000D03*
X35560000Y20320000D03*
X35560000Y15240000D03*
X35560000Y10160000D03*
X35560000Y-10160000D03*
X40640000Y5080000D03*
X40640000Y0D03*
X40640000Y-5080000D03*
D13*
%TO.C,H2*%
X-28400000Y28000000D03*
%TO.C,H3*%
X-28400000Y-28000000D03*
%TO.C,H2*%
X-27697056Y29697056D03*
X-27697056Y26302944D03*
%TO.C,H3*%
X-27697056Y-26302944D03*
X-27697056Y-29697056D03*
%TO.C,H2*%
X-26000000Y30400000D03*
X-26000000Y25600000D03*
%TO.C,H3*%
X-26000000Y-25600000D03*
X-26000000Y-30400000D03*
%TO.C,H2*%
X-24302944Y29697056D03*
X-24302944Y26302944D03*
%TO.C,H3*%
X-24302944Y-26302944D03*
X-24302944Y-29697056D03*
%TO.C,H2*%
X-23600000Y28000000D03*
%TO.C,H3*%
X-23600000Y-28000000D03*
%TO.C,H1*%
X23600000Y28000000D03*
%TO.C,H4*%
X23600000Y-28000000D03*
%TO.C,H1*%
X24302944Y29697056D03*
X24302944Y26302944D03*
%TO.C,H4*%
X24302944Y-26302944D03*
X24302944Y-29697056D03*
%TO.C,H1*%
X26000000Y30400000D03*
X26000000Y25600000D03*
%TO.C,H4*%
X26000000Y-25600000D03*
X26000000Y-30400000D03*
%TO.C,H1*%
X27697056Y29697056D03*
X27697056Y26302944D03*
%TO.C,H4*%
X27697056Y-26302944D03*
X27697056Y-29697056D03*
%TO.C,H1*%
X28400000Y28000000D03*
%TO.C,H4*%
X28400000Y-28000000D03*
D14*
%TO.C,J12*%
X7530000Y-19930000D03*
X7530000Y-22470000D03*
X8800000Y-21200000D03*
X10070000Y-19930000D03*
X10070000Y-22470000D03*
D15*
%TO.C,J1*%
X-1738000Y37846000D03*
X762000Y37846000D03*
D16*
%TO.C,H2*%
X-26000000Y28000000D03*
%TO.C,H3*%
X-26000000Y-28000000D03*
%TO.C,H1*%
X26000000Y28000000D03*
%TO.C,H4*%
X26000000Y-28000000D03*
M02*
