%TF.GenerationSoftware,KiCad,Pcbnew,5.1.7-a382d34a8~88~ubuntu20.04.1*%
%TF.CreationDate,2021-06-08T03:13:41+02:00*%
%TF.ProjectId,uHoubolt_PCB_GNSS,75486f75-626f-46c7-945f-5043425f474e,rev?*%
%TF.SameCoordinates,PX8f0d180PY5f5e100*%
%TF.FileFunction,Soldermask,Top*%
%TF.FilePolarity,Negative*%
%FSLAX46Y46*%
G04 Gerber Fmt 4.6, Leading zero omitted, Abs format (unit mm)*
G04 Created by KiCad (PCBNEW 5.1.7-a382d34a8~88~ubuntu20.04.1) date 2021-06-08 03:13:41*
%MOMM*%
%LPD*%
G01*
G04 APERTURE LIST*
%ADD10C,1.500000*%
%ADD11C,0.800000*%
%ADD12C,6.400000*%
G04 APERTURE END LIST*
D10*
%TO.C,J3*%
X41100000Y0D03*
%TD*%
D11*
%TO.C,H4*%
X28597056Y-25202944D03*
X26900000Y-24500000D03*
X25202944Y-25202944D03*
X24500000Y-26900000D03*
X25202944Y-28597056D03*
X26900000Y-29300000D03*
X28597056Y-28597056D03*
X29300000Y-26900000D03*
D12*
X26900000Y-26900000D03*
%TD*%
D11*
%TO.C,H3*%
X-25202944Y-25202944D03*
X-26900000Y-24500000D03*
X-28597056Y-25202944D03*
X-29300000Y-26900000D03*
X-28597056Y-28597056D03*
X-26900000Y-29300000D03*
X-25202944Y-28597056D03*
X-24500000Y-26900000D03*
D12*
X-26900000Y-26900000D03*
%TD*%
D11*
%TO.C,H2*%
X-25202944Y28597056D03*
X-26900000Y29300000D03*
X-28597056Y28597056D03*
X-29300000Y26900000D03*
X-28597056Y25202944D03*
X-26900000Y24500000D03*
X-25202944Y25202944D03*
X-24500000Y26900000D03*
D12*
X-26900000Y26900000D03*
%TD*%
D11*
%TO.C,H1*%
X28597056Y28597056D03*
X26900000Y29300000D03*
X25202944Y28597056D03*
X24500000Y26900000D03*
X25202944Y25202944D03*
X26900000Y24500000D03*
X28597056Y25202944D03*
X29300000Y26900000D03*
D12*
X26900000Y26900000D03*
%TD*%
%TO.C,U1*%
G36*
G01*
X7401000Y1150000D02*
X5799000Y1150000D01*
G75*
G02*
X5700000Y1249000I0J99000D01*
G01*
X5700000Y2551000D01*
G75*
G02*
X5799000Y2650000I99000J0D01*
G01*
X7401000Y2650000D01*
G75*
G02*
X7500000Y2551000I0J-99000D01*
G01*
X7500000Y1249000D01*
G75*
G02*
X7401000Y1150000I-99000J0D01*
G01*
G37*
G36*
G01*
X7401000Y3050000D02*
X5799000Y3050000D01*
G75*
G02*
X5700000Y3149000I0J99000D01*
G01*
X5700000Y4451000D01*
G75*
G02*
X5799000Y4550000I99000J0D01*
G01*
X7401000Y4550000D01*
G75*
G02*
X7500000Y4451000I0J-99000D01*
G01*
X7500000Y3149000D01*
G75*
G02*
X7401000Y3050000I-99000J0D01*
G01*
G37*
G36*
G01*
X7401000Y-750000D02*
X5799000Y-750000D01*
G75*
G02*
X5700000Y-651000I0J99000D01*
G01*
X5700000Y651000D01*
G75*
G02*
X5799000Y750000I99000J0D01*
G01*
X7401000Y750000D01*
G75*
G02*
X7500000Y651000I0J-99000D01*
G01*
X7500000Y-651000D01*
G75*
G02*
X7401000Y-750000I-99000J0D01*
G01*
G37*
G36*
G01*
X7401000Y-2650000D02*
X5799000Y-2650000D01*
G75*
G02*
X5700000Y-2551000I0J99000D01*
G01*
X5700000Y-1249000D01*
G75*
G02*
X5799000Y-1150000I99000J0D01*
G01*
X7401000Y-1150000D01*
G75*
G02*
X7500000Y-1249000I0J-99000D01*
G01*
X7500000Y-2551000D01*
G75*
G02*
X7401000Y-2650000I-99000J0D01*
G01*
G37*
G36*
G01*
X7401000Y-4550000D02*
X5799000Y-4550000D01*
G75*
G02*
X5700000Y-4451000I0J99000D01*
G01*
X5700000Y-3149000D01*
G75*
G02*
X5799000Y-3050000I99000J0D01*
G01*
X7401000Y-3050000D01*
G75*
G02*
X7500000Y-3149000I0J-99000D01*
G01*
X7500000Y-4451000D01*
G75*
G02*
X7401000Y-4550000I-99000J0D01*
G01*
G37*
G36*
G01*
X-5799000Y-2650000D02*
X-7401000Y-2650000D01*
G75*
G02*
X-7500000Y-2551000I0J99000D01*
G01*
X-7500000Y-1249000D01*
G75*
G02*
X-7401000Y-1150000I99000J0D01*
G01*
X-5799000Y-1150000D01*
G75*
G02*
X-5700000Y-1249000I0J-99000D01*
G01*
X-5700000Y-2551000D01*
G75*
G02*
X-5799000Y-2650000I-99000J0D01*
G01*
G37*
G36*
G01*
X-5799000Y1150000D02*
X-7401000Y1150000D01*
G75*
G02*
X-7500000Y1249000I0J99000D01*
G01*
X-7500000Y2551000D01*
G75*
G02*
X-7401000Y2650000I99000J0D01*
G01*
X-5799000Y2650000D01*
G75*
G02*
X-5700000Y2551000I0J-99000D01*
G01*
X-5700000Y1249000D01*
G75*
G02*
X-5799000Y1150000I-99000J0D01*
G01*
G37*
G36*
G01*
X-5799000Y-750000D02*
X-7401000Y-750000D01*
G75*
G02*
X-7500000Y-651000I0J99000D01*
G01*
X-7500000Y651000D01*
G75*
G02*
X-7401000Y750000I99000J0D01*
G01*
X-5799000Y750000D01*
G75*
G02*
X-5700000Y651000I0J-99000D01*
G01*
X-5700000Y-651000D01*
G75*
G02*
X-5799000Y-750000I-99000J0D01*
G01*
G37*
G36*
G01*
X-5799000Y-4550000D02*
X-7401000Y-4550000D01*
G75*
G02*
X-7500000Y-4451000I0J99000D01*
G01*
X-7500000Y-3149000D01*
G75*
G02*
X-7401000Y-3050000I99000J0D01*
G01*
X-5799000Y-3050000D01*
G75*
G02*
X-5700000Y-3149000I0J-99000D01*
G01*
X-5700000Y-4451000D01*
G75*
G02*
X-5799000Y-4550000I-99000J0D01*
G01*
G37*
G36*
G01*
X-5799000Y3050000D02*
X-7401000Y3050000D01*
G75*
G02*
X-7500000Y3149000I0J99000D01*
G01*
X-7500000Y4451000D01*
G75*
G02*
X-7401000Y4550000I99000J0D01*
G01*
X-5799000Y4550000D01*
G75*
G02*
X-5700000Y4451000I0J-99000D01*
G01*
X-5700000Y3149000D01*
G75*
G02*
X-5799000Y3050000I-99000J0D01*
G01*
G37*
G36*
G01*
X-2650000Y5799000D02*
X-2650000Y7401000D01*
G75*
G02*
X-2551000Y7500000I99000J0D01*
G01*
X-1249000Y7500000D01*
G75*
G02*
X-1150000Y7401000I0J-99000D01*
G01*
X-1150000Y5799000D01*
G75*
G02*
X-1249000Y5700000I-99000J0D01*
G01*
X-2551000Y5700000D01*
G75*
G02*
X-2650000Y5799000I0J99000D01*
G01*
G37*
G36*
G01*
X1150000Y5799000D02*
X1150000Y7401000D01*
G75*
G02*
X1249000Y7500000I99000J0D01*
G01*
X2551000Y7500000D01*
G75*
G02*
X2650000Y7401000I0J-99000D01*
G01*
X2650000Y5799000D01*
G75*
G02*
X2551000Y5700000I-99000J0D01*
G01*
X1249000Y5700000D01*
G75*
G02*
X1150000Y5799000I0J99000D01*
G01*
G37*
G36*
G01*
X-750000Y5799000D02*
X-750000Y7401000D01*
G75*
G02*
X-651000Y7500000I99000J0D01*
G01*
X651000Y7500000D01*
G75*
G02*
X750000Y7401000I0J-99000D01*
G01*
X750000Y5799000D01*
G75*
G02*
X651000Y5700000I-99000J0D01*
G01*
X-651000Y5700000D01*
G75*
G02*
X-750000Y5799000I0J99000D01*
G01*
G37*
G36*
G01*
X-4550000Y5799000D02*
X-4550000Y7401000D01*
G75*
G02*
X-4451000Y7500000I99000J0D01*
G01*
X-3149000Y7500000D01*
G75*
G02*
X-3050000Y7401000I0J-99000D01*
G01*
X-3050000Y5799000D01*
G75*
G02*
X-3149000Y5700000I-99000J0D01*
G01*
X-4451000Y5700000D01*
G75*
G02*
X-4550000Y5799000I0J99000D01*
G01*
G37*
G36*
G01*
X3050000Y5799000D02*
X3050000Y7401000D01*
G75*
G02*
X3149000Y7500000I99000J0D01*
G01*
X4451000Y7500000D01*
G75*
G02*
X4550000Y7401000I0J-99000D01*
G01*
X4550000Y5799000D01*
G75*
G02*
X4451000Y5700000I-99000J0D01*
G01*
X3149000Y5700000D01*
G75*
G02*
X3050000Y5799000I0J99000D01*
G01*
G37*
G36*
G01*
X-4550000Y-7401000D02*
X-4550000Y-5799000D01*
G75*
G02*
X-4451000Y-5700000I99000J0D01*
G01*
X-3149000Y-5700000D01*
G75*
G02*
X-3050000Y-5799000I0J-99000D01*
G01*
X-3050000Y-7401000D01*
G75*
G02*
X-3149000Y-7500000I-99000J0D01*
G01*
X-4451000Y-7500000D01*
G75*
G02*
X-4550000Y-7401000I0J99000D01*
G01*
G37*
G36*
G01*
X-2650000Y-7401000D02*
X-2650000Y-5799000D01*
G75*
G02*
X-2551000Y-5700000I99000J0D01*
G01*
X-1249000Y-5700000D01*
G75*
G02*
X-1150000Y-5799000I0J-99000D01*
G01*
X-1150000Y-7401000D01*
G75*
G02*
X-1249000Y-7500000I-99000J0D01*
G01*
X-2551000Y-7500000D01*
G75*
G02*
X-2650000Y-7401000I0J99000D01*
G01*
G37*
G36*
G01*
X-750000Y-7401000D02*
X-750000Y-5799000D01*
G75*
G02*
X-651000Y-5700000I99000J0D01*
G01*
X651000Y-5700000D01*
G75*
G02*
X750000Y-5799000I0J-99000D01*
G01*
X750000Y-7401000D01*
G75*
G02*
X651000Y-7500000I-99000J0D01*
G01*
X-651000Y-7500000D01*
G75*
G02*
X-750000Y-7401000I0J99000D01*
G01*
G37*
G36*
G01*
X1150000Y-7401000D02*
X1150000Y-5799000D01*
G75*
G02*
X1249000Y-5700000I99000J0D01*
G01*
X2551000Y-5700000D01*
G75*
G02*
X2650000Y-5799000I0J-99000D01*
G01*
X2650000Y-7401000D01*
G75*
G02*
X2551000Y-7500000I-99000J0D01*
G01*
X1249000Y-7500000D01*
G75*
G02*
X1150000Y-7401000I0J99000D01*
G01*
G37*
G36*
G01*
X3050000Y-7401000D02*
X3050000Y-5799000D01*
G75*
G02*
X3149000Y-5700000I99000J0D01*
G01*
X4451000Y-5700000D01*
G75*
G02*
X4550000Y-5799000I0J-99000D01*
G01*
X4550000Y-7401000D01*
G75*
G02*
X4451000Y-7500000I-99000J0D01*
G01*
X3149000Y-7500000D01*
G75*
G02*
X3050000Y-7401000I0J99000D01*
G01*
G37*
%TD*%
%TO.C,C3*%
G36*
G01*
X1450000Y-9475000D02*
X1450000Y-8525000D01*
G75*
G02*
X1700000Y-8275000I250000J0D01*
G01*
X2200000Y-8275000D01*
G75*
G02*
X2450000Y-8525000I0J-250000D01*
G01*
X2450000Y-9475000D01*
G75*
G02*
X2200000Y-9725000I-250000J0D01*
G01*
X1700000Y-9725000D01*
G75*
G02*
X1450000Y-9475000I0J250000D01*
G01*
G37*
G36*
G01*
X-450000Y-9475000D02*
X-450000Y-8525000D01*
G75*
G02*
X-200000Y-8275000I250000J0D01*
G01*
X300000Y-8275000D01*
G75*
G02*
X550000Y-8525000I0J-250000D01*
G01*
X550000Y-9475000D01*
G75*
G02*
X300000Y-9725000I-250000J0D01*
G01*
X-200000Y-9725000D01*
G75*
G02*
X-450000Y-9475000I0J250000D01*
G01*
G37*
%TD*%
%TO.C,C2*%
G36*
G01*
X-3350000Y-8525000D02*
X-3350000Y-9475000D01*
G75*
G02*
X-3600000Y-9725000I-250000J0D01*
G01*
X-4100000Y-9725000D01*
G75*
G02*
X-4350000Y-9475000I0J250000D01*
G01*
X-4350000Y-8525000D01*
G75*
G02*
X-4100000Y-8275000I250000J0D01*
G01*
X-3600000Y-8275000D01*
G75*
G02*
X-3350000Y-8525000I0J-250000D01*
G01*
G37*
G36*
G01*
X-1450000Y-8525000D02*
X-1450000Y-9475000D01*
G75*
G02*
X-1700000Y-9725000I-250000J0D01*
G01*
X-2200000Y-9725000D01*
G75*
G02*
X-2450000Y-9475000I0J250000D01*
G01*
X-2450000Y-8525000D01*
G75*
G02*
X-2200000Y-8275000I250000J0D01*
G01*
X-1700000Y-8275000D01*
G75*
G02*
X-1450000Y-8525000I0J-250000D01*
G01*
G37*
%TD*%
%TO.C,C1*%
G36*
G01*
X-8525000Y3350000D02*
X-9475000Y3350000D01*
G75*
G02*
X-9725000Y3600000I0J250000D01*
G01*
X-9725000Y4100000D01*
G75*
G02*
X-9475000Y4350000I250000J0D01*
G01*
X-8525000Y4350000D01*
G75*
G02*
X-8275000Y4100000I0J-250000D01*
G01*
X-8275000Y3600000D01*
G75*
G02*
X-8525000Y3350000I-250000J0D01*
G01*
G37*
G36*
G01*
X-8525000Y1450000D02*
X-9475000Y1450000D01*
G75*
G02*
X-9725000Y1700000I0J250000D01*
G01*
X-9725000Y2200000D01*
G75*
G02*
X-9475000Y2450000I250000J0D01*
G01*
X-8525000Y2450000D01*
G75*
G02*
X-8275000Y2200000I0J-250000D01*
G01*
X-8275000Y1700000D01*
G75*
G02*
X-8525000Y1450000I-250000J0D01*
G01*
G37*
%TD*%
M02*
