%TF.GenerationSoftware,KiCad,Pcbnew,5.1.7-a382d34a8~88~ubuntu20.04.1*%
%TF.CreationDate,2021-06-08T03:13:41+02:00*%
%TF.ProjectId,uHoubolt_PCB_GNSS,75486f75-626f-46c7-945f-5043425f474e,rev?*%
%TF.SameCoordinates,PX8f0d180PY5f5e100*%
%TF.FileFunction,Paste,Top*%
%TF.FilePolarity,Positive*%
%FSLAX46Y46*%
G04 Gerber Fmt 4.6, Leading zero omitted, Abs format (unit mm)*
G04 Created by KiCad (PCBNEW 5.1.7-a382d34a8~88~ubuntu20.04.1) date 2021-06-08 03:13:41*
%MOMM*%
%LPD*%
G01*
G04 APERTURE LIST*
G04 APERTURE END LIST*
%TO.C,U1*%
G36*
G01*
X7421720Y3085000D02*
X6778280Y3085000D01*
G75*
G02*
X6740000Y3123280I0J38280D01*
G01*
X6740000Y3626720D01*
G75*
G02*
X6778280Y3665000I38280J0D01*
G01*
X7421720Y3665000D01*
G75*
G02*
X7460000Y3626720I0J-38280D01*
G01*
X7460000Y3123280D01*
G75*
G02*
X7421720Y3085000I-38280J0D01*
G01*
G37*
G36*
G01*
X6421720Y-2615000D02*
X5778280Y-2615000D01*
G75*
G02*
X5740000Y-2576720I0J38280D01*
G01*
X5740000Y-2073280D01*
G75*
G02*
X5778280Y-2035000I38280J0D01*
G01*
X6421720Y-2035000D01*
G75*
G02*
X6460000Y-2073280I0J-38280D01*
G01*
X6460000Y-2576720D01*
G75*
G02*
X6421720Y-2615000I-38280J0D01*
G01*
G37*
G36*
G01*
X6421720Y3935000D02*
X5778280Y3935000D01*
G75*
G02*
X5740000Y3973280I0J38280D01*
G01*
X5740000Y4476720D01*
G75*
G02*
X5778280Y4515000I38280J0D01*
G01*
X6421720Y4515000D01*
G75*
G02*
X6460000Y4476720I0J-38280D01*
G01*
X6460000Y3973280D01*
G75*
G02*
X6421720Y3935000I-38280J0D01*
G01*
G37*
G36*
G01*
X7421720Y-1765000D02*
X6778280Y-1765000D01*
G75*
G02*
X6740000Y-1726720I0J38280D01*
G01*
X6740000Y-1223280D01*
G75*
G02*
X6778280Y-1185000I38280J0D01*
G01*
X7421720Y-1185000D01*
G75*
G02*
X7460000Y-1223280I0J-38280D01*
G01*
X7460000Y-1726720D01*
G75*
G02*
X7421720Y-1765000I-38280J0D01*
G01*
G37*
G36*
G01*
X7421720Y-3665000D02*
X6778280Y-3665000D01*
G75*
G02*
X6740000Y-3626720I0J38280D01*
G01*
X6740000Y-3123280D01*
G75*
G02*
X6778280Y-3085000I38280J0D01*
G01*
X7421720Y-3085000D01*
G75*
G02*
X7460000Y-3123280I0J-38280D01*
G01*
X7460000Y-3626720D01*
G75*
G02*
X7421720Y-3665000I-38280J0D01*
G01*
G37*
G36*
G01*
X6421720Y-4515000D02*
X5778280Y-4515000D01*
G75*
G02*
X5740000Y-4476720I0J38280D01*
G01*
X5740000Y-3973280D01*
G75*
G02*
X5778280Y-3935000I38280J0D01*
G01*
X6421720Y-3935000D01*
G75*
G02*
X6460000Y-3973280I0J-38280D01*
G01*
X6460000Y-4476720D01*
G75*
G02*
X6421720Y-4515000I-38280J0D01*
G01*
G37*
G36*
G01*
X7421720Y135000D02*
X6778280Y135000D01*
G75*
G02*
X6740000Y173280I0J38280D01*
G01*
X6740000Y676720D01*
G75*
G02*
X6778280Y715000I38280J0D01*
G01*
X7421720Y715000D01*
G75*
G02*
X7460000Y676720I0J-38280D01*
G01*
X7460000Y173280D01*
G75*
G02*
X7421720Y135000I-38280J0D01*
G01*
G37*
G36*
G01*
X7421720Y3935000D02*
X6778280Y3935000D01*
G75*
G02*
X6740000Y3973280I0J38280D01*
G01*
X6740000Y4476720D01*
G75*
G02*
X6778280Y4515000I38280J0D01*
G01*
X7421720Y4515000D01*
G75*
G02*
X7460000Y4476720I0J-38280D01*
G01*
X7460000Y3973280D01*
G75*
G02*
X7421720Y3935000I-38280J0D01*
G01*
G37*
G36*
G01*
X7421720Y-715000D02*
X6778280Y-715000D01*
G75*
G02*
X6740000Y-676720I0J38280D01*
G01*
X6740000Y-173280D01*
G75*
G02*
X6778280Y-135000I38280J0D01*
G01*
X7421720Y-135000D01*
G75*
G02*
X7460000Y-173280I0J-38280D01*
G01*
X7460000Y-676720D01*
G75*
G02*
X7421720Y-715000I-38280J0D01*
G01*
G37*
G36*
G01*
X6421720Y-3665000D02*
X5778280Y-3665000D01*
G75*
G02*
X5740000Y-3626720I0J38280D01*
G01*
X5740000Y-3123280D01*
G75*
G02*
X5778280Y-3085000I38280J0D01*
G01*
X6421720Y-3085000D01*
G75*
G02*
X6460000Y-3123280I0J-38280D01*
G01*
X6460000Y-3626720D01*
G75*
G02*
X6421720Y-3665000I-38280J0D01*
G01*
G37*
G36*
G01*
X6421720Y2035000D02*
X5778280Y2035000D01*
G75*
G02*
X5740000Y2073280I0J38280D01*
G01*
X5740000Y2576720D01*
G75*
G02*
X5778280Y2615000I38280J0D01*
G01*
X6421720Y2615000D01*
G75*
G02*
X6460000Y2576720I0J-38280D01*
G01*
X6460000Y2073280D01*
G75*
G02*
X6421720Y2035000I-38280J0D01*
G01*
G37*
G36*
G01*
X6421720Y135000D02*
X5778280Y135000D01*
G75*
G02*
X5740000Y173280I0J38280D01*
G01*
X5740000Y676720D01*
G75*
G02*
X5778280Y715000I38280J0D01*
G01*
X6421720Y715000D01*
G75*
G02*
X6460000Y676720I0J-38280D01*
G01*
X6460000Y173280D01*
G75*
G02*
X6421720Y135000I-38280J0D01*
G01*
G37*
G36*
G01*
X6421720Y1185000D02*
X5778280Y1185000D01*
G75*
G02*
X5740000Y1223280I0J38280D01*
G01*
X5740000Y1726720D01*
G75*
G02*
X5778280Y1765000I38280J0D01*
G01*
X6421720Y1765000D01*
G75*
G02*
X6460000Y1726720I0J-38280D01*
G01*
X6460000Y1223280D01*
G75*
G02*
X6421720Y1185000I-38280J0D01*
G01*
G37*
G36*
G01*
X7421720Y-2615000D02*
X6778280Y-2615000D01*
G75*
G02*
X6740000Y-2576720I0J38280D01*
G01*
X6740000Y-2073280D01*
G75*
G02*
X6778280Y-2035000I38280J0D01*
G01*
X7421720Y-2035000D01*
G75*
G02*
X7460000Y-2073280I0J-38280D01*
G01*
X7460000Y-2576720D01*
G75*
G02*
X7421720Y-2615000I-38280J0D01*
G01*
G37*
G36*
G01*
X7421720Y1185000D02*
X6778280Y1185000D01*
G75*
G02*
X6740000Y1223280I0J38280D01*
G01*
X6740000Y1726720D01*
G75*
G02*
X6778280Y1765000I38280J0D01*
G01*
X7421720Y1765000D01*
G75*
G02*
X7460000Y1726720I0J-38280D01*
G01*
X7460000Y1223280D01*
G75*
G02*
X7421720Y1185000I-38280J0D01*
G01*
G37*
G36*
G01*
X6421720Y3085000D02*
X5778280Y3085000D01*
G75*
G02*
X5740000Y3123280I0J38280D01*
G01*
X5740000Y3626720D01*
G75*
G02*
X5778280Y3665000I38280J0D01*
G01*
X6421720Y3665000D01*
G75*
G02*
X6460000Y3626720I0J-38280D01*
G01*
X6460000Y3123280D01*
G75*
G02*
X6421720Y3085000I-38280J0D01*
G01*
G37*
G36*
G01*
X6421720Y-1765000D02*
X5778280Y-1765000D01*
G75*
G02*
X5740000Y-1726720I0J38280D01*
G01*
X5740000Y-1223280D01*
G75*
G02*
X5778280Y-1185000I38280J0D01*
G01*
X6421720Y-1185000D01*
G75*
G02*
X6460000Y-1223280I0J-38280D01*
G01*
X6460000Y-1726720D01*
G75*
G02*
X6421720Y-1765000I-38280J0D01*
G01*
G37*
G36*
G01*
X7421720Y2035000D02*
X6778280Y2035000D01*
G75*
G02*
X6740000Y2073280I0J38280D01*
G01*
X6740000Y2576720D01*
G75*
G02*
X6778280Y2615000I38280J0D01*
G01*
X7421720Y2615000D01*
G75*
G02*
X7460000Y2576720I0J-38280D01*
G01*
X7460000Y2073280D01*
G75*
G02*
X7421720Y2035000I-38280J0D01*
G01*
G37*
G36*
G01*
X6421720Y-715000D02*
X5778280Y-715000D01*
G75*
G02*
X5740000Y-676720I0J38280D01*
G01*
X5740000Y-173280D01*
G75*
G02*
X5778280Y-135000I38280J0D01*
G01*
X6421720Y-135000D01*
G75*
G02*
X6460000Y-173280I0J-38280D01*
G01*
X6460000Y-676720D01*
G75*
G02*
X6421720Y-715000I-38280J0D01*
G01*
G37*
G36*
G01*
X7421720Y-4515000D02*
X6778280Y-4515000D01*
G75*
G02*
X6740000Y-4476720I0J38280D01*
G01*
X6740000Y-3973280D01*
G75*
G02*
X6778280Y-3935000I38280J0D01*
G01*
X7421720Y-3935000D01*
G75*
G02*
X7460000Y-3973280I0J-38280D01*
G01*
X7460000Y-4476720D01*
G75*
G02*
X7421720Y-4515000I-38280J0D01*
G01*
G37*
G36*
G01*
X-5778280Y1185000D02*
X-6421720Y1185000D01*
G75*
G02*
X-6460000Y1223280I0J38280D01*
G01*
X-6460000Y1726720D01*
G75*
G02*
X-6421720Y1765000I38280J0D01*
G01*
X-5778280Y1765000D01*
G75*
G02*
X-5740000Y1726720I0J-38280D01*
G01*
X-5740000Y1223280D01*
G75*
G02*
X-5778280Y1185000I-38280J0D01*
G01*
G37*
G36*
G01*
X-6778280Y-1765000D02*
X-7421720Y-1765000D01*
G75*
G02*
X-7460000Y-1726720I0J38280D01*
G01*
X-7460000Y-1223280D01*
G75*
G02*
X-7421720Y-1185000I38280J0D01*
G01*
X-6778280Y-1185000D01*
G75*
G02*
X-6740000Y-1223280I0J-38280D01*
G01*
X-6740000Y-1726720D01*
G75*
G02*
X-6778280Y-1765000I-38280J0D01*
G01*
G37*
G36*
G01*
X-5778280Y-2615000D02*
X-6421720Y-2615000D01*
G75*
G02*
X-6460000Y-2576720I0J38280D01*
G01*
X-6460000Y-2073280D01*
G75*
G02*
X-6421720Y-2035000I38280J0D01*
G01*
X-5778280Y-2035000D01*
G75*
G02*
X-5740000Y-2073280I0J-38280D01*
G01*
X-5740000Y-2576720D01*
G75*
G02*
X-5778280Y-2615000I-38280J0D01*
G01*
G37*
G36*
G01*
X-6778280Y135000D02*
X-7421720Y135000D01*
G75*
G02*
X-7460000Y173280I0J38280D01*
G01*
X-7460000Y676720D01*
G75*
G02*
X-7421720Y715000I38280J0D01*
G01*
X-6778280Y715000D01*
G75*
G02*
X-6740000Y676720I0J-38280D01*
G01*
X-6740000Y173280D01*
G75*
G02*
X-6778280Y135000I-38280J0D01*
G01*
G37*
G36*
G01*
X-5778280Y135000D02*
X-6421720Y135000D01*
G75*
G02*
X-6460000Y173280I0J38280D01*
G01*
X-6460000Y676720D01*
G75*
G02*
X-6421720Y715000I38280J0D01*
G01*
X-5778280Y715000D01*
G75*
G02*
X-5740000Y676720I0J-38280D01*
G01*
X-5740000Y173280D01*
G75*
G02*
X-5778280Y135000I-38280J0D01*
G01*
G37*
G36*
G01*
X-5778280Y-1765000D02*
X-6421720Y-1765000D01*
G75*
G02*
X-6460000Y-1726720I0J38280D01*
G01*
X-6460000Y-1223280D01*
G75*
G02*
X-6421720Y-1185000I38280J0D01*
G01*
X-5778280Y-1185000D01*
G75*
G02*
X-5740000Y-1223280I0J-38280D01*
G01*
X-5740000Y-1726720D01*
G75*
G02*
X-5778280Y-1765000I-38280J0D01*
G01*
G37*
G36*
G01*
X-6778280Y-4515000D02*
X-7421720Y-4515000D01*
G75*
G02*
X-7460000Y-4476720I0J38280D01*
G01*
X-7460000Y-3973280D01*
G75*
G02*
X-7421720Y-3935000I38280J0D01*
G01*
X-6778280Y-3935000D01*
G75*
G02*
X-6740000Y-3973280I0J-38280D01*
G01*
X-6740000Y-4476720D01*
G75*
G02*
X-6778280Y-4515000I-38280J0D01*
G01*
G37*
G36*
G01*
X-5778280Y-4515000D02*
X-6421720Y-4515000D01*
G75*
G02*
X-6460000Y-4476720I0J38280D01*
G01*
X-6460000Y-3973280D01*
G75*
G02*
X-6421720Y-3935000I38280J0D01*
G01*
X-5778280Y-3935000D01*
G75*
G02*
X-5740000Y-3973280I0J-38280D01*
G01*
X-5740000Y-4476720D01*
G75*
G02*
X-5778280Y-4515000I-38280J0D01*
G01*
G37*
G36*
G01*
X-6778280Y-3665000D02*
X-7421720Y-3665000D01*
G75*
G02*
X-7460000Y-3626720I0J38280D01*
G01*
X-7460000Y-3123280D01*
G75*
G02*
X-7421720Y-3085000I38280J0D01*
G01*
X-6778280Y-3085000D01*
G75*
G02*
X-6740000Y-3123280I0J-38280D01*
G01*
X-6740000Y-3626720D01*
G75*
G02*
X-6778280Y-3665000I-38280J0D01*
G01*
G37*
G36*
G01*
X-5778280Y2035000D02*
X-6421720Y2035000D01*
G75*
G02*
X-6460000Y2073280I0J38280D01*
G01*
X-6460000Y2576720D01*
G75*
G02*
X-6421720Y2615000I38280J0D01*
G01*
X-5778280Y2615000D01*
G75*
G02*
X-5740000Y2576720I0J-38280D01*
G01*
X-5740000Y2073280D01*
G75*
G02*
X-5778280Y2035000I-38280J0D01*
G01*
G37*
G36*
G01*
X-6778280Y-715000D02*
X-7421720Y-715000D01*
G75*
G02*
X-7460000Y-676720I0J38280D01*
G01*
X-7460000Y-173280D01*
G75*
G02*
X-7421720Y-135000I38280J0D01*
G01*
X-6778280Y-135000D01*
G75*
G02*
X-6740000Y-173280I0J-38280D01*
G01*
X-6740000Y-676720D01*
G75*
G02*
X-6778280Y-715000I-38280J0D01*
G01*
G37*
G36*
G01*
X-6778280Y2035000D02*
X-7421720Y2035000D01*
G75*
G02*
X-7460000Y2073280I0J38280D01*
G01*
X-7460000Y2576720D01*
G75*
G02*
X-7421720Y2615000I38280J0D01*
G01*
X-6778280Y2615000D01*
G75*
G02*
X-6740000Y2576720I0J-38280D01*
G01*
X-6740000Y2073280D01*
G75*
G02*
X-6778280Y2035000I-38280J0D01*
G01*
G37*
G36*
G01*
X-6778280Y3935000D02*
X-7421720Y3935000D01*
G75*
G02*
X-7460000Y3973280I0J38280D01*
G01*
X-7460000Y4476720D01*
G75*
G02*
X-7421720Y4515000I38280J0D01*
G01*
X-6778280Y4515000D01*
G75*
G02*
X-6740000Y4476720I0J-38280D01*
G01*
X-6740000Y3973280D01*
G75*
G02*
X-6778280Y3935000I-38280J0D01*
G01*
G37*
G36*
G01*
X-6778280Y-2615000D02*
X-7421720Y-2615000D01*
G75*
G02*
X-7460000Y-2576720I0J38280D01*
G01*
X-7460000Y-2073280D01*
G75*
G02*
X-7421720Y-2035000I38280J0D01*
G01*
X-6778280Y-2035000D01*
G75*
G02*
X-6740000Y-2073280I0J-38280D01*
G01*
X-6740000Y-2576720D01*
G75*
G02*
X-6778280Y-2615000I-38280J0D01*
G01*
G37*
G36*
G01*
X-5778280Y-3665000D02*
X-6421720Y-3665000D01*
G75*
G02*
X-6460000Y-3626720I0J38280D01*
G01*
X-6460000Y-3123280D01*
G75*
G02*
X-6421720Y-3085000I38280J0D01*
G01*
X-5778280Y-3085000D01*
G75*
G02*
X-5740000Y-3123280I0J-38280D01*
G01*
X-5740000Y-3626720D01*
G75*
G02*
X-5778280Y-3665000I-38280J0D01*
G01*
G37*
G36*
G01*
X-5778280Y3935000D02*
X-6421720Y3935000D01*
G75*
G02*
X-6460000Y3973280I0J38280D01*
G01*
X-6460000Y4476720D01*
G75*
G02*
X-6421720Y4515000I38280J0D01*
G01*
X-5778280Y4515000D01*
G75*
G02*
X-5740000Y4476720I0J-38280D01*
G01*
X-5740000Y3973280D01*
G75*
G02*
X-5778280Y3935000I-38280J0D01*
G01*
G37*
G36*
G01*
X-6778280Y1185000D02*
X-7421720Y1185000D01*
G75*
G02*
X-7460000Y1223280I0J38280D01*
G01*
X-7460000Y1726720D01*
G75*
G02*
X-7421720Y1765000I38280J0D01*
G01*
X-6778280Y1765000D01*
G75*
G02*
X-6740000Y1726720I0J-38280D01*
G01*
X-6740000Y1223280D01*
G75*
G02*
X-6778280Y1185000I-38280J0D01*
G01*
G37*
G36*
G01*
X-6778280Y3085000D02*
X-7421720Y3085000D01*
G75*
G02*
X-7460000Y3123280I0J38280D01*
G01*
X-7460000Y3626720D01*
G75*
G02*
X-7421720Y3665000I38280J0D01*
G01*
X-6778280Y3665000D01*
G75*
G02*
X-6740000Y3626720I0J-38280D01*
G01*
X-6740000Y3123280D01*
G75*
G02*
X-6778280Y3085000I-38280J0D01*
G01*
G37*
G36*
G01*
X-5778280Y3085000D02*
X-6421720Y3085000D01*
G75*
G02*
X-6460000Y3123280I0J38280D01*
G01*
X-6460000Y3626720D01*
G75*
G02*
X-6421720Y3665000I38280J0D01*
G01*
X-5778280Y3665000D01*
G75*
G02*
X-5740000Y3626720I0J-38280D01*
G01*
X-5740000Y3123280D01*
G75*
G02*
X-5778280Y3085000I-38280J0D01*
G01*
G37*
G36*
G01*
X-5778280Y-715000D02*
X-6421720Y-715000D01*
G75*
G02*
X-6460000Y-676720I0J38280D01*
G01*
X-6460000Y-173280D01*
G75*
G02*
X-6421720Y-135000I38280J0D01*
G01*
X-5778280Y-135000D01*
G75*
G02*
X-5740000Y-173280I0J-38280D01*
G01*
X-5740000Y-676720D01*
G75*
G02*
X-5778280Y-715000I-38280J0D01*
G01*
G37*
G36*
G01*
X1185000Y5778280D02*
X1185000Y6421720D01*
G75*
G02*
X1223280Y6460000I38280J0D01*
G01*
X1726720Y6460000D01*
G75*
G02*
X1765000Y6421720I0J-38280D01*
G01*
X1765000Y5778280D01*
G75*
G02*
X1726720Y5740000I-38280J0D01*
G01*
X1223280Y5740000D01*
G75*
G02*
X1185000Y5778280I0J38280D01*
G01*
G37*
G36*
G01*
X-1765000Y6778280D02*
X-1765000Y7421720D01*
G75*
G02*
X-1726720Y7460000I38280J0D01*
G01*
X-1223280Y7460000D01*
G75*
G02*
X-1185000Y7421720I0J-38280D01*
G01*
X-1185000Y6778280D01*
G75*
G02*
X-1223280Y6740000I-38280J0D01*
G01*
X-1726720Y6740000D01*
G75*
G02*
X-1765000Y6778280I0J38280D01*
G01*
G37*
G36*
G01*
X-2615000Y5778280D02*
X-2615000Y6421720D01*
G75*
G02*
X-2576720Y6460000I38280J0D01*
G01*
X-2073280Y6460000D01*
G75*
G02*
X-2035000Y6421720I0J-38280D01*
G01*
X-2035000Y5778280D01*
G75*
G02*
X-2073280Y5740000I-38280J0D01*
G01*
X-2576720Y5740000D01*
G75*
G02*
X-2615000Y5778280I0J38280D01*
G01*
G37*
G36*
G01*
X135000Y6778280D02*
X135000Y7421720D01*
G75*
G02*
X173280Y7460000I38280J0D01*
G01*
X676720Y7460000D01*
G75*
G02*
X715000Y7421720I0J-38280D01*
G01*
X715000Y6778280D01*
G75*
G02*
X676720Y6740000I-38280J0D01*
G01*
X173280Y6740000D01*
G75*
G02*
X135000Y6778280I0J38280D01*
G01*
G37*
G36*
G01*
X135000Y5778280D02*
X135000Y6421720D01*
G75*
G02*
X173280Y6460000I38280J0D01*
G01*
X676720Y6460000D01*
G75*
G02*
X715000Y6421720I0J-38280D01*
G01*
X715000Y5778280D01*
G75*
G02*
X676720Y5740000I-38280J0D01*
G01*
X173280Y5740000D01*
G75*
G02*
X135000Y5778280I0J38280D01*
G01*
G37*
G36*
G01*
X-1765000Y5778280D02*
X-1765000Y6421720D01*
G75*
G02*
X-1726720Y6460000I38280J0D01*
G01*
X-1223280Y6460000D01*
G75*
G02*
X-1185000Y6421720I0J-38280D01*
G01*
X-1185000Y5778280D01*
G75*
G02*
X-1223280Y5740000I-38280J0D01*
G01*
X-1726720Y5740000D01*
G75*
G02*
X-1765000Y5778280I0J38280D01*
G01*
G37*
G36*
G01*
X-4515000Y6778280D02*
X-4515000Y7421720D01*
G75*
G02*
X-4476720Y7460000I38280J0D01*
G01*
X-3973280Y7460000D01*
G75*
G02*
X-3935000Y7421720I0J-38280D01*
G01*
X-3935000Y6778280D01*
G75*
G02*
X-3973280Y6740000I-38280J0D01*
G01*
X-4476720Y6740000D01*
G75*
G02*
X-4515000Y6778280I0J38280D01*
G01*
G37*
G36*
G01*
X-4515000Y5778280D02*
X-4515000Y6421720D01*
G75*
G02*
X-4476720Y6460000I38280J0D01*
G01*
X-3973280Y6460000D01*
G75*
G02*
X-3935000Y6421720I0J-38280D01*
G01*
X-3935000Y5778280D01*
G75*
G02*
X-3973280Y5740000I-38280J0D01*
G01*
X-4476720Y5740000D01*
G75*
G02*
X-4515000Y5778280I0J38280D01*
G01*
G37*
G36*
G01*
X-3665000Y6778280D02*
X-3665000Y7421720D01*
G75*
G02*
X-3626720Y7460000I38280J0D01*
G01*
X-3123280Y7460000D01*
G75*
G02*
X-3085000Y7421720I0J-38280D01*
G01*
X-3085000Y6778280D01*
G75*
G02*
X-3123280Y6740000I-38280J0D01*
G01*
X-3626720Y6740000D01*
G75*
G02*
X-3665000Y6778280I0J38280D01*
G01*
G37*
G36*
G01*
X2035000Y5778280D02*
X2035000Y6421720D01*
G75*
G02*
X2073280Y6460000I38280J0D01*
G01*
X2576720Y6460000D01*
G75*
G02*
X2615000Y6421720I0J-38280D01*
G01*
X2615000Y5778280D01*
G75*
G02*
X2576720Y5740000I-38280J0D01*
G01*
X2073280Y5740000D01*
G75*
G02*
X2035000Y5778280I0J38280D01*
G01*
G37*
G36*
G01*
X-715000Y6778280D02*
X-715000Y7421720D01*
G75*
G02*
X-676720Y7460000I38280J0D01*
G01*
X-173280Y7460000D01*
G75*
G02*
X-135000Y7421720I0J-38280D01*
G01*
X-135000Y6778280D01*
G75*
G02*
X-173280Y6740000I-38280J0D01*
G01*
X-676720Y6740000D01*
G75*
G02*
X-715000Y6778280I0J38280D01*
G01*
G37*
G36*
G01*
X2035000Y6778280D02*
X2035000Y7421720D01*
G75*
G02*
X2073280Y7460000I38280J0D01*
G01*
X2576720Y7460000D01*
G75*
G02*
X2615000Y7421720I0J-38280D01*
G01*
X2615000Y6778280D01*
G75*
G02*
X2576720Y6740000I-38280J0D01*
G01*
X2073280Y6740000D01*
G75*
G02*
X2035000Y6778280I0J38280D01*
G01*
G37*
G36*
G01*
X3935000Y6778280D02*
X3935000Y7421720D01*
G75*
G02*
X3973280Y7460000I38280J0D01*
G01*
X4476720Y7460000D01*
G75*
G02*
X4515000Y7421720I0J-38280D01*
G01*
X4515000Y6778280D01*
G75*
G02*
X4476720Y6740000I-38280J0D01*
G01*
X3973280Y6740000D01*
G75*
G02*
X3935000Y6778280I0J38280D01*
G01*
G37*
G36*
G01*
X-2615000Y6778280D02*
X-2615000Y7421720D01*
G75*
G02*
X-2576720Y7460000I38280J0D01*
G01*
X-2073280Y7460000D01*
G75*
G02*
X-2035000Y7421720I0J-38280D01*
G01*
X-2035000Y6778280D01*
G75*
G02*
X-2073280Y6740000I-38280J0D01*
G01*
X-2576720Y6740000D01*
G75*
G02*
X-2615000Y6778280I0J38280D01*
G01*
G37*
G36*
G01*
X-3665000Y5778280D02*
X-3665000Y6421720D01*
G75*
G02*
X-3626720Y6460000I38280J0D01*
G01*
X-3123280Y6460000D01*
G75*
G02*
X-3085000Y6421720I0J-38280D01*
G01*
X-3085000Y5778280D01*
G75*
G02*
X-3123280Y5740000I-38280J0D01*
G01*
X-3626720Y5740000D01*
G75*
G02*
X-3665000Y5778280I0J38280D01*
G01*
G37*
G36*
G01*
X3935000Y5778280D02*
X3935000Y6421720D01*
G75*
G02*
X3973280Y6460000I38280J0D01*
G01*
X4476720Y6460000D01*
G75*
G02*
X4515000Y6421720I0J-38280D01*
G01*
X4515000Y5778280D01*
G75*
G02*
X4476720Y5740000I-38280J0D01*
G01*
X3973280Y5740000D01*
G75*
G02*
X3935000Y5778280I0J38280D01*
G01*
G37*
G36*
G01*
X1185000Y6778280D02*
X1185000Y7421720D01*
G75*
G02*
X1223280Y7460000I38280J0D01*
G01*
X1726720Y7460000D01*
G75*
G02*
X1765000Y7421720I0J-38280D01*
G01*
X1765000Y6778280D01*
G75*
G02*
X1726720Y6740000I-38280J0D01*
G01*
X1223280Y6740000D01*
G75*
G02*
X1185000Y6778280I0J38280D01*
G01*
G37*
G36*
G01*
X3085000Y6778280D02*
X3085000Y7421720D01*
G75*
G02*
X3123280Y7460000I38280J0D01*
G01*
X3626720Y7460000D01*
G75*
G02*
X3665000Y7421720I0J-38280D01*
G01*
X3665000Y6778280D01*
G75*
G02*
X3626720Y6740000I-38280J0D01*
G01*
X3123280Y6740000D01*
G75*
G02*
X3085000Y6778280I0J38280D01*
G01*
G37*
G36*
G01*
X3085000Y5778280D02*
X3085000Y6421720D01*
G75*
G02*
X3123280Y6460000I38280J0D01*
G01*
X3626720Y6460000D01*
G75*
G02*
X3665000Y6421720I0J-38280D01*
G01*
X3665000Y5778280D01*
G75*
G02*
X3626720Y5740000I-38280J0D01*
G01*
X3123280Y5740000D01*
G75*
G02*
X3085000Y5778280I0J38280D01*
G01*
G37*
G36*
G01*
X-715000Y5778280D02*
X-715000Y6421720D01*
G75*
G02*
X-676720Y6460000I38280J0D01*
G01*
X-173280Y6460000D01*
G75*
G02*
X-135000Y6421720I0J-38280D01*
G01*
X-135000Y5778280D01*
G75*
G02*
X-173280Y5740000I-38280J0D01*
G01*
X-676720Y5740000D01*
G75*
G02*
X-715000Y5778280I0J38280D01*
G01*
G37*
G36*
G01*
X-3665000Y-6421720D02*
X-3665000Y-5778280D01*
G75*
G02*
X-3626720Y-5740000I38280J0D01*
G01*
X-3123280Y-5740000D01*
G75*
G02*
X-3085000Y-5778280I0J-38280D01*
G01*
X-3085000Y-6421720D01*
G75*
G02*
X-3123280Y-6460000I-38280J0D01*
G01*
X-3626720Y-6460000D01*
G75*
G02*
X-3665000Y-6421720I0J38280D01*
G01*
G37*
G36*
G01*
X-1765000Y-6421720D02*
X-1765000Y-5778280D01*
G75*
G02*
X-1726720Y-5740000I38280J0D01*
G01*
X-1223280Y-5740000D01*
G75*
G02*
X-1185000Y-5778280I0J-38280D01*
G01*
X-1185000Y-6421720D01*
G75*
G02*
X-1223280Y-6460000I-38280J0D01*
G01*
X-1726720Y-6460000D01*
G75*
G02*
X-1765000Y-6421720I0J38280D01*
G01*
G37*
G36*
G01*
X135000Y-6421720D02*
X135000Y-5778280D01*
G75*
G02*
X173280Y-5740000I38280J0D01*
G01*
X676720Y-5740000D01*
G75*
G02*
X715000Y-5778280I0J-38280D01*
G01*
X715000Y-6421720D01*
G75*
G02*
X676720Y-6460000I-38280J0D01*
G01*
X173280Y-6460000D01*
G75*
G02*
X135000Y-6421720I0J38280D01*
G01*
G37*
G36*
G01*
X2035000Y-6421720D02*
X2035000Y-5778280D01*
G75*
G02*
X2073280Y-5740000I38280J0D01*
G01*
X2576720Y-5740000D01*
G75*
G02*
X2615000Y-5778280I0J-38280D01*
G01*
X2615000Y-6421720D01*
G75*
G02*
X2576720Y-6460000I-38280J0D01*
G01*
X2073280Y-6460000D01*
G75*
G02*
X2035000Y-6421720I0J38280D01*
G01*
G37*
G36*
G01*
X-3665000Y-7421720D02*
X-3665000Y-6778280D01*
G75*
G02*
X-3626720Y-6740000I38280J0D01*
G01*
X-3123280Y-6740000D01*
G75*
G02*
X-3085000Y-6778280I0J-38280D01*
G01*
X-3085000Y-7421720D01*
G75*
G02*
X-3123280Y-7460000I-38280J0D01*
G01*
X-3626720Y-7460000D01*
G75*
G02*
X-3665000Y-7421720I0J38280D01*
G01*
G37*
G36*
G01*
X-1765000Y-7421720D02*
X-1765000Y-6778280D01*
G75*
G02*
X-1726720Y-6740000I38280J0D01*
G01*
X-1223280Y-6740000D01*
G75*
G02*
X-1185000Y-6778280I0J-38280D01*
G01*
X-1185000Y-7421720D01*
G75*
G02*
X-1223280Y-7460000I-38280J0D01*
G01*
X-1726720Y-7460000D01*
G75*
G02*
X-1765000Y-7421720I0J38280D01*
G01*
G37*
G36*
G01*
X135000Y-7421720D02*
X135000Y-6778280D01*
G75*
G02*
X173280Y-6740000I38280J0D01*
G01*
X676720Y-6740000D01*
G75*
G02*
X715000Y-6778280I0J-38280D01*
G01*
X715000Y-7421720D01*
G75*
G02*
X676720Y-7460000I-38280J0D01*
G01*
X173280Y-7460000D01*
G75*
G02*
X135000Y-7421720I0J38280D01*
G01*
G37*
G36*
G01*
X2035000Y-7421720D02*
X2035000Y-6778280D01*
G75*
G02*
X2073280Y-6740000I38280J0D01*
G01*
X2576720Y-6740000D01*
G75*
G02*
X2615000Y-6778280I0J-38280D01*
G01*
X2615000Y-7421720D01*
G75*
G02*
X2576720Y-7460000I-38280J0D01*
G01*
X2073280Y-7460000D01*
G75*
G02*
X2035000Y-7421720I0J38280D01*
G01*
G37*
G36*
G01*
X-4515000Y-6421720D02*
X-4515000Y-5778280D01*
G75*
G02*
X-4476720Y-5740000I38280J0D01*
G01*
X-3973280Y-5740000D01*
G75*
G02*
X-3935000Y-5778280I0J-38280D01*
G01*
X-3935000Y-6421720D01*
G75*
G02*
X-3973280Y-6460000I-38280J0D01*
G01*
X-4476720Y-6460000D01*
G75*
G02*
X-4515000Y-6421720I0J38280D01*
G01*
G37*
G36*
G01*
X-2615000Y-6421720D02*
X-2615000Y-5778280D01*
G75*
G02*
X-2576720Y-5740000I38280J0D01*
G01*
X-2073280Y-5740000D01*
G75*
G02*
X-2035000Y-5778280I0J-38280D01*
G01*
X-2035000Y-6421720D01*
G75*
G02*
X-2073280Y-6460000I-38280J0D01*
G01*
X-2576720Y-6460000D01*
G75*
G02*
X-2615000Y-6421720I0J38280D01*
G01*
G37*
G36*
G01*
X-715000Y-6421720D02*
X-715000Y-5778280D01*
G75*
G02*
X-676720Y-5740000I38280J0D01*
G01*
X-173280Y-5740000D01*
G75*
G02*
X-135000Y-5778280I0J-38280D01*
G01*
X-135000Y-6421720D01*
G75*
G02*
X-173280Y-6460000I-38280J0D01*
G01*
X-676720Y-6460000D01*
G75*
G02*
X-715000Y-6421720I0J38280D01*
G01*
G37*
G36*
G01*
X1185000Y-6421720D02*
X1185000Y-5778280D01*
G75*
G02*
X1223280Y-5740000I38280J0D01*
G01*
X1726720Y-5740000D01*
G75*
G02*
X1765000Y-5778280I0J-38280D01*
G01*
X1765000Y-6421720D01*
G75*
G02*
X1726720Y-6460000I-38280J0D01*
G01*
X1223280Y-6460000D01*
G75*
G02*
X1185000Y-6421720I0J38280D01*
G01*
G37*
G36*
G01*
X-4515000Y-7421720D02*
X-4515000Y-6778280D01*
G75*
G02*
X-4476720Y-6740000I38280J0D01*
G01*
X-3973280Y-6740000D01*
G75*
G02*
X-3935000Y-6778280I0J-38280D01*
G01*
X-3935000Y-7421720D01*
G75*
G02*
X-3973280Y-7460000I-38280J0D01*
G01*
X-4476720Y-7460000D01*
G75*
G02*
X-4515000Y-7421720I0J38280D01*
G01*
G37*
G36*
G01*
X-2615000Y-7421720D02*
X-2615000Y-6778280D01*
G75*
G02*
X-2576720Y-6740000I38280J0D01*
G01*
X-2073280Y-6740000D01*
G75*
G02*
X-2035000Y-6778280I0J-38280D01*
G01*
X-2035000Y-7421720D01*
G75*
G02*
X-2073280Y-7460000I-38280J0D01*
G01*
X-2576720Y-7460000D01*
G75*
G02*
X-2615000Y-7421720I0J38280D01*
G01*
G37*
G36*
G01*
X-715000Y-7421720D02*
X-715000Y-6778280D01*
G75*
G02*
X-676720Y-6740000I38280J0D01*
G01*
X-173280Y-6740000D01*
G75*
G02*
X-135000Y-6778280I0J-38280D01*
G01*
X-135000Y-7421720D01*
G75*
G02*
X-173280Y-7460000I-38280J0D01*
G01*
X-676720Y-7460000D01*
G75*
G02*
X-715000Y-7421720I0J38280D01*
G01*
G37*
G36*
G01*
X1185000Y-7421720D02*
X1185000Y-6778280D01*
G75*
G02*
X1223280Y-6740000I38280J0D01*
G01*
X1726720Y-6740000D01*
G75*
G02*
X1765000Y-6778280I0J-38280D01*
G01*
X1765000Y-7421720D01*
G75*
G02*
X1726720Y-7460000I-38280J0D01*
G01*
X1223280Y-7460000D01*
G75*
G02*
X1185000Y-7421720I0J38280D01*
G01*
G37*
G36*
G01*
X3935000Y-7421720D02*
X3935000Y-6778280D01*
G75*
G02*
X3973280Y-6740000I38280J0D01*
G01*
X4476720Y-6740000D01*
G75*
G02*
X4515000Y-6778280I0J-38280D01*
G01*
X4515000Y-7421720D01*
G75*
G02*
X4476720Y-7460000I-38280J0D01*
G01*
X3973280Y-7460000D01*
G75*
G02*
X3935000Y-7421720I0J38280D01*
G01*
G37*
G36*
G01*
X3085000Y-7421720D02*
X3085000Y-6778280D01*
G75*
G02*
X3123280Y-6740000I38280J0D01*
G01*
X3626720Y-6740000D01*
G75*
G02*
X3665000Y-6778280I0J-38280D01*
G01*
X3665000Y-7421720D01*
G75*
G02*
X3626720Y-7460000I-38280J0D01*
G01*
X3123280Y-7460000D01*
G75*
G02*
X3085000Y-7421720I0J38280D01*
G01*
G37*
G36*
G01*
X3085000Y-6421720D02*
X3085000Y-5778280D01*
G75*
G02*
X3123280Y-5740000I38280J0D01*
G01*
X3626720Y-5740000D01*
G75*
G02*
X3665000Y-5778280I0J-38280D01*
G01*
X3665000Y-6421720D01*
G75*
G02*
X3626720Y-6460000I-38280J0D01*
G01*
X3123280Y-6460000D01*
G75*
G02*
X3085000Y-6421720I0J38280D01*
G01*
G37*
G36*
G01*
X3935000Y-6421720D02*
X3935000Y-5778280D01*
G75*
G02*
X3973280Y-5740000I38280J0D01*
G01*
X4476720Y-5740000D01*
G75*
G02*
X4515000Y-5778280I0J-38280D01*
G01*
X4515000Y-6421720D01*
G75*
G02*
X4476720Y-6460000I-38280J0D01*
G01*
X3973280Y-6460000D01*
G75*
G02*
X3935000Y-6421720I0J38280D01*
G01*
G37*
%TD*%
%TO.C,C3*%
G36*
G01*
X1450000Y-9475000D02*
X1450000Y-8525000D01*
G75*
G02*
X1700000Y-8275000I250000J0D01*
G01*
X2200000Y-8275000D01*
G75*
G02*
X2450000Y-8525000I0J-250000D01*
G01*
X2450000Y-9475000D01*
G75*
G02*
X2200000Y-9725000I-250000J0D01*
G01*
X1700000Y-9725000D01*
G75*
G02*
X1450000Y-9475000I0J250000D01*
G01*
G37*
G36*
G01*
X-450000Y-9475000D02*
X-450000Y-8525000D01*
G75*
G02*
X-200000Y-8275000I250000J0D01*
G01*
X300000Y-8275000D01*
G75*
G02*
X550000Y-8525000I0J-250000D01*
G01*
X550000Y-9475000D01*
G75*
G02*
X300000Y-9725000I-250000J0D01*
G01*
X-200000Y-9725000D01*
G75*
G02*
X-450000Y-9475000I0J250000D01*
G01*
G37*
%TD*%
%TO.C,C2*%
G36*
G01*
X-3350000Y-8525000D02*
X-3350000Y-9475000D01*
G75*
G02*
X-3600000Y-9725000I-250000J0D01*
G01*
X-4100000Y-9725000D01*
G75*
G02*
X-4350000Y-9475000I0J250000D01*
G01*
X-4350000Y-8525000D01*
G75*
G02*
X-4100000Y-8275000I250000J0D01*
G01*
X-3600000Y-8275000D01*
G75*
G02*
X-3350000Y-8525000I0J-250000D01*
G01*
G37*
G36*
G01*
X-1450000Y-8525000D02*
X-1450000Y-9475000D01*
G75*
G02*
X-1700000Y-9725000I-250000J0D01*
G01*
X-2200000Y-9725000D01*
G75*
G02*
X-2450000Y-9475000I0J250000D01*
G01*
X-2450000Y-8525000D01*
G75*
G02*
X-2200000Y-8275000I250000J0D01*
G01*
X-1700000Y-8275000D01*
G75*
G02*
X-1450000Y-8525000I0J-250000D01*
G01*
G37*
%TD*%
%TO.C,C1*%
G36*
G01*
X-8525000Y3350000D02*
X-9475000Y3350000D01*
G75*
G02*
X-9725000Y3600000I0J250000D01*
G01*
X-9725000Y4100000D01*
G75*
G02*
X-9475000Y4350000I250000J0D01*
G01*
X-8525000Y4350000D01*
G75*
G02*
X-8275000Y4100000I0J-250000D01*
G01*
X-8275000Y3600000D01*
G75*
G02*
X-8525000Y3350000I-250000J0D01*
G01*
G37*
G36*
G01*
X-8525000Y1450000D02*
X-9475000Y1450000D01*
G75*
G02*
X-9725000Y1700000I0J250000D01*
G01*
X-9725000Y2200000D01*
G75*
G02*
X-9475000Y2450000I250000J0D01*
G01*
X-8525000Y2450000D01*
G75*
G02*
X-8275000Y2200000I0J-250000D01*
G01*
X-8275000Y1700000D01*
G75*
G02*
X-8525000Y1450000I-250000J0D01*
G01*
G37*
%TD*%
M02*
