%TF.GenerationSoftware,KiCad,Pcbnew,6.0.5-a6ca702e91~116~ubuntu20.04.1*%
%TF.CreationDate,2022-05-11T23:18:58+02:00*%
%TF.ProjectId,uHoubolt_PCB_Balun,75486f75-626f-46c7-945f-5043425f4261,rev?*%
%TF.SameCoordinates,Original*%
%TF.FileFunction,Copper,L1,Top*%
%TF.FilePolarity,Positive*%
%FSLAX46Y46*%
G04 Gerber Fmt 4.6, Leading zero omitted, Abs format (unit mm)*
G04 Created by KiCad (PCBNEW 6.0.5-a6ca702e91~116~ubuntu20.04.1) date 2022-05-11 23:18:58*
%MOMM*%
%LPD*%
G01*
G04 APERTURE LIST*
G04 Aperture macros list*
%AMRoundRect*
0 Rectangle with rounded corners*
0 $1 Rounding radius*
0 $2 $3 $4 $5 $6 $7 $8 $9 X,Y pos of 4 corners*
0 Add a 4 corners polygon primitive as box body*
4,1,4,$2,$3,$4,$5,$6,$7,$8,$9,$2,$3,0*
0 Add four circle primitives for the rounded corners*
1,1,$1+$1,$2,$3*
1,1,$1+$1,$4,$5*
1,1,$1+$1,$6,$7*
1,1,$1+$1,$8,$9*
0 Add four rect primitives between the rounded corners*
20,1,$1+$1,$2,$3,$4,$5,0*
20,1,$1+$1,$4,$5,$6,$7,0*
20,1,$1+$1,$6,$7,$8,$9,0*
20,1,$1+$1,$8,$9,$2,$3,0*%
G04 Aperture macros list end*
%TA.AperFunction,SMDPad,CuDef*%
%ADD10RoundRect,0.500000X1.000000X0.500000X-1.000000X0.500000X-1.000000X-0.500000X1.000000X-0.500000X0*%
%TD*%
%TA.AperFunction,SMDPad,CuDef*%
%ADD11R,0.350000X1.000000*%
%TD*%
%TA.AperFunction,SMDPad,CuDef*%
%ADD12RoundRect,0.500000X0.500000X-1.000000X0.500000X1.000000X-0.500000X1.000000X-0.500000X-1.000000X0*%
%TD*%
%TA.AperFunction,ViaPad*%
%ADD13C,0.800000*%
%TD*%
%TA.AperFunction,ViaPad*%
%ADD14C,0.500000*%
%TD*%
G04 APERTURE END LIST*
D10*
%TO.P,,1*%
%TO.N,Net-(J1-Pad1)*%
X161290000Y-80772000D03*
%TD*%
D11*
%TO.P,U1,1*%
%TO.N,Net-(J1-Pad1)*%
X158130000Y-81142000D03*
%TO.P,U1,2,GND*%
%TO.N,GND*%
X157480000Y-81142000D03*
%TO.P,U1,3*%
%TO.N,Net-(AE1-Pad1)*%
X156830000Y-81142000D03*
%TO.P,U1,4*%
%TO.N,Net-(AE1-Pad2)*%
X156830000Y-82942000D03*
%TO.P,U1,5,GND*%
%TO.N,GND*%
X157480000Y-82942000D03*
%TO.P,U1,6,GND*%
X158130000Y-82942000D03*
%TD*%
D12*
%TO.P,,1*%
%TO.N,Net-(AE1-Pad1)*%
X154940000Y-80137000D03*
%TD*%
%TO.P,,1*%
%TO.N,Net-(AE1-Pad2)*%
X154940000Y-83947000D03*
%TD*%
D13*
%TO.N,GND*%
X160274000Y-84074000D03*
X160528000Y-82550000D03*
X159258000Y-79248000D03*
X163068000Y-78994000D03*
X159004000Y-82550000D03*
X161798000Y-85090000D03*
D14*
X157480000Y-80264000D03*
D13*
X161798000Y-78994000D03*
X161798000Y-82550000D03*
X164084000Y-79502000D03*
X163068000Y-84074000D03*
X163068000Y-82550000D03*
X158750000Y-85090000D03*
D14*
X157480000Y-83820000D03*
X157480000Y-82042000D03*
X164338000Y-80772000D03*
D13*
X160528000Y-78994000D03*
X158242000Y-79756000D03*
X164084000Y-82042000D03*
%TD*%
%TA.AperFunction,Conductor*%
%TO.N,Net-(AE1-Pad2)*%
G36*
X156979094Y-82441306D02*
G01*
X156997400Y-82485500D01*
X156997400Y-83376500D01*
X156979094Y-83420694D01*
X156934900Y-83439000D01*
X154494500Y-83439000D01*
X154450306Y-83420694D01*
X154432000Y-83376500D01*
X154432000Y-82485500D01*
X154450306Y-82441306D01*
X154494500Y-82423000D01*
X156934900Y-82423000D01*
X156979094Y-82441306D01*
G37*
%TD.AperFunction*%
%TD*%
%TA.AperFunction,Conductor*%
%TO.N,GND*%
G36*
X163912888Y-78272806D02*
G01*
X164727194Y-79087111D01*
X164745500Y-79131305D01*
X164745500Y-84868695D01*
X164727194Y-84912889D01*
X163912888Y-85727194D01*
X163868694Y-85745500D01*
X157288500Y-85745500D01*
X157244306Y-85727194D01*
X157226000Y-85683000D01*
X157226000Y-80707500D01*
X157649999Y-80707500D01*
X157650000Y-81598500D01*
X157669754Y-81697807D01*
X157670927Y-81700640D01*
X157670929Y-81700645D01*
X157679042Y-81720231D01*
X157688060Y-81742001D01*
X157744311Y-81826187D01*
X157828499Y-81882440D01*
X157831338Y-81883616D01*
X157831340Y-81883617D01*
X157869855Y-81899571D01*
X157869860Y-81899573D01*
X157872693Y-81900746D01*
X157875701Y-81901344D01*
X157875703Y-81901345D01*
X157952114Y-81916544D01*
X157972000Y-81920500D01*
X159886416Y-81920500D01*
X159919212Y-81929796D01*
X159965873Y-81958559D01*
X159965875Y-81958560D01*
X159968964Y-81960464D01*
X160135955Y-82015853D01*
X160198362Y-82022247D01*
X160238288Y-82026338D01*
X160238294Y-82026338D01*
X160239872Y-82026500D01*
X162340128Y-82026500D01*
X162341724Y-82026334D01*
X162341732Y-82026334D01*
X162441944Y-82015936D01*
X162441947Y-82015935D01*
X162445343Y-82015583D01*
X162448579Y-82014504D01*
X162448581Y-82014503D01*
X162608794Y-81961052D01*
X162608796Y-81961051D01*
X162612237Y-81959903D01*
X162615322Y-81957994D01*
X162615326Y-81957992D01*
X162698172Y-81906725D01*
X162761846Y-81867322D01*
X162764413Y-81864751D01*
X162764415Y-81864749D01*
X162824203Y-81804855D01*
X162886144Y-81742806D01*
X162888391Y-81739160D01*
X162976559Y-81596127D01*
X162976560Y-81596125D01*
X162978464Y-81593036D01*
X163033853Y-81426045D01*
X163044500Y-81322128D01*
X163044500Y-80221872D01*
X163033583Y-80116657D01*
X162977903Y-79949763D01*
X162975994Y-79946678D01*
X162975992Y-79946674D01*
X162887235Y-79803246D01*
X162885322Y-79800154D01*
X162882751Y-79797587D01*
X162882749Y-79797585D01*
X162822855Y-79737797D01*
X162760806Y-79675856D01*
X162757714Y-79673950D01*
X162614127Y-79585441D01*
X162614125Y-79585440D01*
X162611036Y-79583536D01*
X162444045Y-79528147D01*
X162381638Y-79521753D01*
X162341712Y-79517662D01*
X162341706Y-79517662D01*
X162340128Y-79517500D01*
X160239872Y-79517500D01*
X160238276Y-79517666D01*
X160238268Y-79517666D01*
X160138056Y-79528064D01*
X160138053Y-79528065D01*
X160134657Y-79528417D01*
X160131421Y-79529496D01*
X160131419Y-79529497D01*
X159971206Y-79582948D01*
X159971204Y-79582949D01*
X159967763Y-79584097D01*
X159964678Y-79586006D01*
X159964674Y-79586008D01*
X159881828Y-79637275D01*
X159818154Y-79676678D01*
X159815587Y-79679249D01*
X159815585Y-79679251D01*
X159755797Y-79739145D01*
X159693856Y-79801194D01*
X159601536Y-79950964D01*
X159546147Y-80117955D01*
X159535500Y-80221872D01*
X159535500Y-80323000D01*
X159517194Y-80367194D01*
X159473000Y-80385500D01*
X157971999Y-80385500D01*
X157968987Y-80386099D01*
X157968988Y-80386099D01*
X157875702Y-80404655D01*
X157875700Y-80404656D01*
X157872692Y-80405254D01*
X157869859Y-80406427D01*
X157869854Y-80406429D01*
X157831339Y-80422383D01*
X157828498Y-80423560D01*
X157744312Y-80479811D01*
X157688059Y-80563999D01*
X157686883Y-80566838D01*
X157686882Y-80566840D01*
X157670928Y-80605355D01*
X157670926Y-80605360D01*
X157669753Y-80608193D01*
X157649999Y-80707500D01*
X157226000Y-80707500D01*
X157226000Y-78317000D01*
X157244306Y-78272806D01*
X157288500Y-78254500D01*
X163868694Y-78254500D01*
X163912888Y-78272806D01*
G37*
%TD.AperFunction*%
%TD*%
%TA.AperFunction,Conductor*%
%TO.N,Net-(AE1-Pad1)*%
G36*
X156979094Y-80663306D02*
G01*
X156997400Y-80707500D01*
X156997400Y-81598500D01*
X156979094Y-81642694D01*
X156934900Y-81661000D01*
X154494500Y-81661000D01*
X154450306Y-81642694D01*
X154432000Y-81598500D01*
X154432000Y-80707500D01*
X154450306Y-80663306D01*
X154494500Y-80645000D01*
X156934900Y-80645000D01*
X156979094Y-80663306D01*
G37*
%TD.AperFunction*%
%TD*%
%TA.AperFunction,Conductor*%
%TO.N,Net-(J1-Pad1)*%
G36*
X162160694Y-80663306D02*
G01*
X162179000Y-80707500D01*
X162179000Y-81598500D01*
X162160694Y-81642694D01*
X162116500Y-81661000D01*
X157972000Y-81661000D01*
X157927806Y-81642694D01*
X157909500Y-81598500D01*
X157909499Y-80707500D01*
X157927805Y-80663306D01*
X157971999Y-80645000D01*
X162116500Y-80645000D01*
X162160694Y-80663306D01*
G37*
%TD.AperFunction*%
%TD*%
M02*
