%TF.GenerationSoftware,KiCad,Pcbnew,5.1.7-a382d34a8~88~ubuntu20.04.1*%
%TF.CreationDate,2021-06-08T03:00:46+02:00*%
%TF.ProjectId,uHoubolt_PCB_GNSS_Cover,75486f75-626f-46c7-945f-5043425f474e,rev?*%
%TF.SameCoordinates,PX8f0d180PY5f5e100*%
%TF.FileFunction,Legend,Top*%
%TF.FilePolarity,Positive*%
%FSLAX46Y46*%
G04 Gerber Fmt 4.6, Leading zero omitted, Abs format (unit mm)*
G04 Created by KiCad (PCBNEW 5.1.7-a382d34a8~88~ubuntu20.04.1) date 2021-06-08 03:00:46*
%MOMM*%
%LPD*%
G01*
G04 APERTURE LIST*
%ADD10C,0.010000*%
G04 APERTURE END LIST*
D10*
%TO.C,G\u002A\u002A\u002A*%
G36*
X5404849Y9641997D02*
G01*
X5515447Y9503864D01*
X5536496Y9474748D01*
X5695595Y9251313D01*
X2574212Y-4476010D01*
X2249741Y-5903077D01*
X1934122Y-7291411D01*
X1629076Y-8633430D01*
X1336325Y-9921550D01*
X1057591Y-11148188D01*
X794596Y-12305761D01*
X549063Y-13386685D01*
X322713Y-14383377D01*
X117268Y-15288253D01*
X-65550Y-16093732D01*
X-224018Y-16792228D01*
X-356415Y-17376160D01*
X-461019Y-17837943D01*
X-536107Y-18169994D01*
X-579957Y-18364731D01*
X-591086Y-18415000D01*
X-644275Y-18560231D01*
X-756535Y-18618251D01*
X-903117Y-18626667D01*
X-1080155Y-18615274D01*
X-1141329Y-18561853D01*
X-1128199Y-18453485D01*
X-1107887Y-18361242D01*
X-1057090Y-18126032D01*
X-977430Y-17755438D01*
X-870530Y-17257048D01*
X-738010Y-16638447D01*
X-581494Y-15907221D01*
X-402601Y-15070956D01*
X-202955Y-14137237D01*
X15823Y-13113650D01*
X252111Y-12007781D01*
X504288Y-10827216D01*
X770731Y-9579541D01*
X1049820Y-8272341D01*
X1339931Y-6913202D01*
X1639445Y-5509711D01*
X1846090Y-4541212D01*
X2150934Y-3112692D01*
X2447459Y-1723773D01*
X2734044Y-382013D01*
X3009072Y905029D01*
X3270922Y2129795D01*
X3517976Y3284726D01*
X3748612Y4362263D01*
X3961214Y5354848D01*
X4154160Y6254922D01*
X4325831Y7054927D01*
X4474609Y7747304D01*
X4598873Y8324494D01*
X4697005Y8778939D01*
X4767385Y9103081D01*
X4808393Y9289360D01*
X4818673Y9333420D01*
X4906462Y9447357D01*
X5070470Y9575842D01*
X5245275Y9673130D01*
X5340330Y9698182D01*
X5404849Y9641997D01*
G37*
X5404849Y9641997D02*
X5515447Y9503864D01*
X5536496Y9474748D01*
X5695595Y9251313D01*
X2574212Y-4476010D01*
X2249741Y-5903077D01*
X1934122Y-7291411D01*
X1629076Y-8633430D01*
X1336325Y-9921550D01*
X1057591Y-11148188D01*
X794596Y-12305761D01*
X549063Y-13386685D01*
X322713Y-14383377D01*
X117268Y-15288253D01*
X-65550Y-16093732D01*
X-224018Y-16792228D01*
X-356415Y-17376160D01*
X-461019Y-17837943D01*
X-536107Y-18169994D01*
X-579957Y-18364731D01*
X-591086Y-18415000D01*
X-644275Y-18560231D01*
X-756535Y-18618251D01*
X-903117Y-18626667D01*
X-1080155Y-18615274D01*
X-1141329Y-18561853D01*
X-1128199Y-18453485D01*
X-1107887Y-18361242D01*
X-1057090Y-18126032D01*
X-977430Y-17755438D01*
X-870530Y-17257048D01*
X-738010Y-16638447D01*
X-581494Y-15907221D01*
X-402601Y-15070956D01*
X-202955Y-14137237D01*
X15823Y-13113650D01*
X252111Y-12007781D01*
X504288Y-10827216D01*
X770731Y-9579541D01*
X1049820Y-8272341D01*
X1339931Y-6913202D01*
X1639445Y-5509711D01*
X1846090Y-4541212D01*
X2150934Y-3112692D01*
X2447459Y-1723773D01*
X2734044Y-382013D01*
X3009072Y905029D01*
X3270922Y2129795D01*
X3517976Y3284726D01*
X3748612Y4362263D01*
X3961214Y5354848D01*
X4154160Y6254922D01*
X4325831Y7054927D01*
X4474609Y7747304D01*
X4598873Y8324494D01*
X4697005Y8778939D01*
X4767385Y9103081D01*
X4808393Y9289360D01*
X4818673Y9333420D01*
X4906462Y9447357D01*
X5070470Y9575842D01*
X5245275Y9673130D01*
X5340330Y9698182D01*
X5404849Y9641997D01*
G36*
X7443875Y-3541529D02*
G01*
X8124244Y-3544521D01*
X8673253Y-3549920D01*
X9102184Y-3558061D01*
X9422323Y-3569280D01*
X9644953Y-3583915D01*
X9781359Y-3602301D01*
X9842825Y-3624774D01*
X9849036Y-3636818D01*
X9832143Y-3748217D01*
X9788879Y-3974151D01*
X9726311Y-4278892D01*
X9670197Y-4541212D01*
X9494441Y-5349394D01*
X8379748Y-5370608D01*
X7265054Y-5391823D01*
X6624178Y-8333942D01*
X6481472Y-8987297D01*
X6347967Y-9595118D01*
X6227413Y-10140589D01*
X6123558Y-10606899D01*
X6040152Y-10977233D01*
X5980942Y-11234778D01*
X5949677Y-11362721D01*
X5946750Y-11372273D01*
X5882689Y-11414519D01*
X5717325Y-11443624D01*
X5434702Y-11461020D01*
X5018861Y-11468139D01*
X4874154Y-11468485D01*
X4457192Y-11466990D01*
X4171336Y-11460445D01*
X3993763Y-11445763D01*
X3901654Y-11419855D01*
X3872185Y-11379634D01*
X3878761Y-11333788D01*
X3905450Y-11224940D01*
X3959325Y-10988923D01*
X4036040Y-10645738D01*
X4131251Y-10215386D01*
X4240613Y-9717869D01*
X4359781Y-9173186D01*
X4484412Y-8601340D01*
X4610159Y-8022332D01*
X4732678Y-7456162D01*
X4847626Y-6922832D01*
X4950655Y-6442344D01*
X5037423Y-6034697D01*
X5103585Y-5719893D01*
X5144795Y-5517934D01*
X5156970Y-5449516D01*
X5084596Y-5427364D01*
X4885832Y-5408744D01*
X4588216Y-5395231D01*
X4219285Y-5388400D01*
X4079394Y-5387879D01*
X3655112Y-5382829D01*
X3320762Y-5368614D01*
X3096706Y-5346629D01*
X3003308Y-5318275D01*
X3001818Y-5313890D01*
X3013433Y-5231162D01*
X3050020Y-5047924D01*
X3114193Y-4752154D01*
X3208567Y-4331833D01*
X3335755Y-3774940D01*
X3349802Y-3713788D01*
X3389600Y-3540606D01*
X6620860Y-3540606D01*
X7443875Y-3541529D01*
G37*
X7443875Y-3541529D02*
X8124244Y-3544521D01*
X8673253Y-3549920D01*
X9102184Y-3558061D01*
X9422323Y-3569280D01*
X9644953Y-3583915D01*
X9781359Y-3602301D01*
X9842825Y-3624774D01*
X9849036Y-3636818D01*
X9832143Y-3748217D01*
X9788879Y-3974151D01*
X9726311Y-4278892D01*
X9670197Y-4541212D01*
X9494441Y-5349394D01*
X8379748Y-5370608D01*
X7265054Y-5391823D01*
X6624178Y-8333942D01*
X6481472Y-8987297D01*
X6347967Y-9595118D01*
X6227413Y-10140589D01*
X6123558Y-10606899D01*
X6040152Y-10977233D01*
X5980942Y-11234778D01*
X5949677Y-11362721D01*
X5946750Y-11372273D01*
X5882689Y-11414519D01*
X5717325Y-11443624D01*
X5434702Y-11461020D01*
X5018861Y-11468139D01*
X4874154Y-11468485D01*
X4457192Y-11466990D01*
X4171336Y-11460445D01*
X3993763Y-11445763D01*
X3901654Y-11419855D01*
X3872185Y-11379634D01*
X3878761Y-11333788D01*
X3905450Y-11224940D01*
X3959325Y-10988923D01*
X4036040Y-10645738D01*
X4131251Y-10215386D01*
X4240613Y-9717869D01*
X4359781Y-9173186D01*
X4484412Y-8601340D01*
X4610159Y-8022332D01*
X4732678Y-7456162D01*
X4847626Y-6922832D01*
X4950655Y-6442344D01*
X5037423Y-6034697D01*
X5103585Y-5719893D01*
X5144795Y-5517934D01*
X5156970Y-5449516D01*
X5084596Y-5427364D01*
X4885832Y-5408744D01*
X4588216Y-5395231D01*
X4219285Y-5388400D01*
X4079394Y-5387879D01*
X3655112Y-5382829D01*
X3320762Y-5368614D01*
X3096706Y-5346629D01*
X3003308Y-5318275D01*
X3001818Y-5313890D01*
X3013433Y-5231162D01*
X3050020Y-5047924D01*
X3114193Y-4752154D01*
X3208567Y-4331833D01*
X3335755Y-3774940D01*
X3349802Y-3713788D01*
X3389600Y-3540606D01*
X6620860Y-3540606D01*
X7443875Y-3541529D01*
G36*
X12920730Y-3555019D02*
G01*
X13567348Y-3558441D01*
X13635936Y-3558911D01*
X16519897Y-3579091D01*
X16140369Y-5310909D01*
X12395054Y-5310909D01*
X12347633Y-5522576D01*
X12294111Y-5750132D01*
X12231607Y-6001818D01*
X12231141Y-6003636D01*
X12186025Y-6171951D01*
X12159004Y-6301145D01*
X12166736Y-6396366D01*
X12225881Y-6462759D01*
X12353099Y-6505472D01*
X12565049Y-6529652D01*
X12878391Y-6540444D01*
X13309784Y-6542996D01*
X13875889Y-6542454D01*
X13975187Y-6542424D01*
X14549546Y-6543096D01*
X14987687Y-6546008D01*
X15307328Y-6552504D01*
X15526188Y-6563929D01*
X15661985Y-6581625D01*
X15732436Y-6606938D01*
X15755262Y-6641212D01*
X15750818Y-6677121D01*
X15717683Y-6813456D01*
X15664191Y-7054233D01*
X15600592Y-7353031D01*
X15585096Y-7427576D01*
X15520824Y-7733087D01*
X15464544Y-7991398D01*
X15426393Y-8156217D01*
X15421080Y-8176648D01*
X15397621Y-8219111D01*
X15341255Y-8252010D01*
X15233633Y-8276864D01*
X15056404Y-8295193D01*
X14791219Y-8308515D01*
X14419729Y-8318349D01*
X13923582Y-8326214D01*
X13561161Y-8330588D01*
X11737879Y-8351212D01*
X11610722Y-8851515D01*
X11543575Y-9136726D01*
X11494723Y-9383722D01*
X11476025Y-9525000D01*
X11468485Y-9698182D01*
X13315758Y-9698182D01*
X13830626Y-9699090D01*
X14290250Y-9701643D01*
X14673598Y-9705578D01*
X14959634Y-9710638D01*
X15127323Y-9716560D01*
X15163030Y-9721028D01*
X15147396Y-9808926D01*
X15106227Y-10007793D01*
X15048126Y-10278493D01*
X14981696Y-10581886D01*
X14915539Y-10878837D01*
X14858258Y-11130207D01*
X14818456Y-11296860D01*
X14808539Y-11333788D01*
X14789355Y-11368393D01*
X14745129Y-11396534D01*
X14661328Y-11418872D01*
X14523416Y-11436072D01*
X14316860Y-11448796D01*
X14027124Y-11457707D01*
X13639675Y-11463468D01*
X13139979Y-11466742D01*
X12513499Y-11468192D01*
X11855352Y-11468485D01*
X11108489Y-11468128D01*
X10501397Y-11466615D01*
X10019907Y-11463283D01*
X9649851Y-11457469D01*
X9377062Y-11448511D01*
X9187371Y-11435745D01*
X9066610Y-11418510D01*
X9000611Y-11396141D01*
X8975207Y-11367977D01*
X8976120Y-11333788D01*
X8998783Y-11234062D01*
X9051250Y-10998837D01*
X9130238Y-10642956D01*
X9232464Y-10181260D01*
X9354644Y-9628591D01*
X9493497Y-8999794D01*
X9645738Y-8309709D01*
X9808085Y-7573179D01*
X9845296Y-7404275D01*
X10009045Y-6663342D01*
X10163557Y-5968841D01*
X10305569Y-5335118D01*
X10431817Y-4776521D01*
X10539037Y-4307397D01*
X10623964Y-3942093D01*
X10683337Y-3694956D01*
X10713890Y-3580334D01*
X10716612Y-3574095D01*
X10798941Y-3566645D01*
X11018093Y-3560785D01*
X11356958Y-3556603D01*
X11798426Y-3554189D01*
X12325386Y-3553631D01*
X12920730Y-3555019D01*
G37*
X12920730Y-3555019D02*
X13567348Y-3558441D01*
X13635936Y-3558911D01*
X16519897Y-3579091D01*
X16140369Y-5310909D01*
X12395054Y-5310909D01*
X12347633Y-5522576D01*
X12294111Y-5750132D01*
X12231607Y-6001818D01*
X12231141Y-6003636D01*
X12186025Y-6171951D01*
X12159004Y-6301145D01*
X12166736Y-6396366D01*
X12225881Y-6462759D01*
X12353099Y-6505472D01*
X12565049Y-6529652D01*
X12878391Y-6540444D01*
X13309784Y-6542996D01*
X13875889Y-6542454D01*
X13975187Y-6542424D01*
X14549546Y-6543096D01*
X14987687Y-6546008D01*
X15307328Y-6552504D01*
X15526188Y-6563929D01*
X15661985Y-6581625D01*
X15732436Y-6606938D01*
X15755262Y-6641212D01*
X15750818Y-6677121D01*
X15717683Y-6813456D01*
X15664191Y-7054233D01*
X15600592Y-7353031D01*
X15585096Y-7427576D01*
X15520824Y-7733087D01*
X15464544Y-7991398D01*
X15426393Y-8156217D01*
X15421080Y-8176648D01*
X15397621Y-8219111D01*
X15341255Y-8252010D01*
X15233633Y-8276864D01*
X15056404Y-8295193D01*
X14791219Y-8308515D01*
X14419729Y-8318349D01*
X13923582Y-8326214D01*
X13561161Y-8330588D01*
X11737879Y-8351212D01*
X11610722Y-8851515D01*
X11543575Y-9136726D01*
X11494723Y-9383722D01*
X11476025Y-9525000D01*
X11468485Y-9698182D01*
X13315758Y-9698182D01*
X13830626Y-9699090D01*
X14290250Y-9701643D01*
X14673598Y-9705578D01*
X14959634Y-9710638D01*
X15127323Y-9716560D01*
X15163030Y-9721028D01*
X15147396Y-9808926D01*
X15106227Y-10007793D01*
X15048126Y-10278493D01*
X14981696Y-10581886D01*
X14915539Y-10878837D01*
X14858258Y-11130207D01*
X14818456Y-11296860D01*
X14808539Y-11333788D01*
X14789355Y-11368393D01*
X14745129Y-11396534D01*
X14661328Y-11418872D01*
X14523416Y-11436072D01*
X14316860Y-11448796D01*
X14027124Y-11457707D01*
X13639675Y-11463468D01*
X13139979Y-11466742D01*
X12513499Y-11468192D01*
X11855352Y-11468485D01*
X11108489Y-11468128D01*
X10501397Y-11466615D01*
X10019907Y-11463283D01*
X9649851Y-11457469D01*
X9377062Y-11448511D01*
X9187371Y-11435745D01*
X9066610Y-11418510D01*
X9000611Y-11396141D01*
X8975207Y-11367977D01*
X8976120Y-11333788D01*
X8998783Y-11234062D01*
X9051250Y-10998837D01*
X9130238Y-10642956D01*
X9232464Y-10181260D01*
X9354644Y-9628591D01*
X9493497Y-8999794D01*
X9645738Y-8309709D01*
X9808085Y-7573179D01*
X9845296Y-7404275D01*
X10009045Y-6663342D01*
X10163557Y-5968841D01*
X10305569Y-5335118D01*
X10431817Y-4776521D01*
X10539037Y-4307397D01*
X10623964Y-3942093D01*
X10683337Y-3694956D01*
X10713890Y-3580334D01*
X10716612Y-3574095D01*
X10798941Y-3566645D01*
X11018093Y-3560785D01*
X11356958Y-3556603D01*
X11798426Y-3554189D01*
X12325386Y-3553631D01*
X12920730Y-3555019D01*
G36*
X22902458Y-7525810D02*
G01*
X23522789Y-11472529D01*
X22440940Y-11451264D01*
X21359091Y-11430000D01*
X21294069Y-10871970D01*
X21229046Y-10313939D01*
X19600735Y-10314757D01*
X17972424Y-10315574D01*
X17643879Y-10892030D01*
X17315334Y-11468485D01*
X16162213Y-11468485D01*
X15761019Y-11464856D01*
X15420967Y-11454858D01*
X15168578Y-11439821D01*
X15030372Y-11421078D01*
X15012373Y-11410758D01*
X15051445Y-11336025D01*
X15162820Y-11141054D01*
X15339564Y-10837583D01*
X15574742Y-10437355D01*
X15861420Y-9952108D01*
X16192664Y-9393584D01*
X16561537Y-8773523D01*
X16698664Y-8543636D01*
X18922983Y-8543636D01*
X19999134Y-8543636D01*
X20425950Y-8542160D01*
X20721554Y-8535784D01*
X20908660Y-8521592D01*
X21009982Y-8496663D01*
X21048234Y-8458080D01*
X21047442Y-8408939D01*
X21030018Y-8292131D01*
X20998480Y-8049187D01*
X20956148Y-7706918D01*
X20906338Y-7292139D01*
X20854531Y-6850303D01*
X20801855Y-6401335D01*
X20754603Y-6008849D01*
X20715772Y-5696915D01*
X20688359Y-5489605D01*
X20675361Y-5410989D01*
X20675325Y-5410946D01*
X20635854Y-5470124D01*
X20534067Y-5643125D01*
X20381803Y-5908873D01*
X20190904Y-6246293D01*
X19973211Y-6634307D01*
X19740563Y-7051840D01*
X19504802Y-7477814D01*
X19277768Y-7891155D01*
X19142397Y-8139545D01*
X18922983Y-8543636D01*
X16698664Y-8543636D01*
X16961107Y-8103665D01*
X17342346Y-7466061D01*
X19669038Y-3579091D01*
X22282128Y-3579091D01*
X22902458Y-7525810D01*
G37*
X22902458Y-7525810D02*
X23522789Y-11472529D01*
X22440940Y-11451264D01*
X21359091Y-11430000D01*
X21294069Y-10871970D01*
X21229046Y-10313939D01*
X19600735Y-10314757D01*
X17972424Y-10315574D01*
X17643879Y-10892030D01*
X17315334Y-11468485D01*
X16162213Y-11468485D01*
X15761019Y-11464856D01*
X15420967Y-11454858D01*
X15168578Y-11439821D01*
X15030372Y-11421078D01*
X15012373Y-11410758D01*
X15051445Y-11336025D01*
X15162820Y-11141054D01*
X15339564Y-10837583D01*
X15574742Y-10437355D01*
X15861420Y-9952108D01*
X16192664Y-9393584D01*
X16561537Y-8773523D01*
X16698664Y-8543636D01*
X18922983Y-8543636D01*
X19999134Y-8543636D01*
X20425950Y-8542160D01*
X20721554Y-8535784D01*
X20908660Y-8521592D01*
X21009982Y-8496663D01*
X21048234Y-8458080D01*
X21047442Y-8408939D01*
X21030018Y-8292131D01*
X20998480Y-8049187D01*
X20956148Y-7706918D01*
X20906338Y-7292139D01*
X20854531Y-6850303D01*
X20801855Y-6401335D01*
X20754603Y-6008849D01*
X20715772Y-5696915D01*
X20688359Y-5489605D01*
X20675361Y-5410989D01*
X20675325Y-5410946D01*
X20635854Y-5470124D01*
X20534067Y-5643125D01*
X20381803Y-5908873D01*
X20190904Y-6246293D01*
X19973211Y-6634307D01*
X19740563Y-7051840D01*
X19504802Y-7477814D01*
X19277768Y-7891155D01*
X19142397Y-8139545D01*
X18922983Y-8543636D01*
X16698664Y-8543636D01*
X16961107Y-8103665D01*
X17342346Y-7466061D01*
X19669038Y-3579091D01*
X22282128Y-3579091D01*
X22902458Y-7525810D01*
G36*
X28501227Y-3712085D02*
G01*
X28523319Y-3834092D01*
X28564522Y-4085694D01*
X28621279Y-4444230D01*
X28690033Y-4887033D01*
X28767228Y-5391439D01*
X28833630Y-5830455D01*
X28914774Y-6356580D01*
X28991381Y-6828656D01*
X29059864Y-7226490D01*
X29116635Y-7529890D01*
X29158108Y-7718663D01*
X29178932Y-7773939D01*
X29229686Y-7710251D01*
X29348869Y-7529662D01*
X29526736Y-7247887D01*
X29753546Y-6880640D01*
X30019554Y-6443635D01*
X30315019Y-5952587D01*
X30490906Y-5657849D01*
X31750000Y-3541759D01*
X33223485Y-3541183D01*
X34696970Y-3540606D01*
X34632253Y-3829242D01*
X34602839Y-3961983D01*
X34544014Y-4228782D01*
X34459365Y-4613336D01*
X34352476Y-5099340D01*
X34226932Y-5670492D01*
X34086317Y-6310487D01*
X33934216Y-7003021D01*
X33790306Y-7658485D01*
X33632186Y-8377782D01*
X33483172Y-9053724D01*
X33346695Y-9670886D01*
X33226185Y-10213846D01*
X33125072Y-10667182D01*
X33046786Y-11015470D01*
X32994759Y-11243287D01*
X32972866Y-11333788D01*
X32941402Y-11388532D01*
X32868964Y-11426227D01*
X32730898Y-11449960D01*
X32502550Y-11462820D01*
X32159267Y-11467894D01*
X31897286Y-11468485D01*
X31481431Y-11467802D01*
X31196264Y-11463053D01*
X31018531Y-11450182D01*
X30924981Y-11425139D01*
X30892361Y-11383869D01*
X30897420Y-11322319D01*
X30903773Y-11295303D01*
X30950708Y-11093655D01*
X31020683Y-10783280D01*
X31108909Y-10386263D01*
X31210592Y-9924691D01*
X31320944Y-9420649D01*
X31435172Y-8896224D01*
X31548486Y-8373501D01*
X31656096Y-7874567D01*
X31753210Y-7421507D01*
X31835037Y-7036408D01*
X31896787Y-6741356D01*
X31933669Y-6558435D01*
X31942137Y-6508411D01*
X31904120Y-6553595D01*
X31795876Y-6717327D01*
X31625913Y-6985875D01*
X31402741Y-7345507D01*
X31134867Y-7782492D01*
X30830802Y-8283098D01*
X30499054Y-8833594D01*
X30430577Y-8947727D01*
X28919306Y-11468485D01*
X28429653Y-11468485D01*
X28131330Y-11456346D01*
X27973186Y-11418367D01*
X27939377Y-11372273D01*
X27927399Y-11264193D01*
X27894339Y-11030741D01*
X27843769Y-10694071D01*
X27779260Y-10276339D01*
X27704385Y-9799698D01*
X27622714Y-9286305D01*
X27537821Y-8758314D01*
X27453276Y-8237880D01*
X27372652Y-7747159D01*
X27299520Y-7308304D01*
X27237451Y-6943472D01*
X27190019Y-6674816D01*
X27160794Y-6524493D01*
X27153945Y-6500410D01*
X27130468Y-6564609D01*
X27078922Y-6761061D01*
X27003613Y-7071519D01*
X26908845Y-7477740D01*
X26798925Y-7961478D01*
X26678157Y-8504487D01*
X26639517Y-8680505D01*
X26512940Y-9257376D01*
X26393673Y-9798105D01*
X26286606Y-10280749D01*
X26196627Y-10683363D01*
X26128622Y-10984004D01*
X26087482Y-11160729D01*
X26082762Y-11179848D01*
X26009824Y-11468485D01*
X24973700Y-11468485D01*
X24594712Y-11467143D01*
X24278273Y-11463465D01*
X24052382Y-11457972D01*
X23945036Y-11451185D01*
X23940001Y-11449242D01*
X23956567Y-11372637D01*
X24003252Y-11159732D01*
X24076969Y-10824539D01*
X24174628Y-10381074D01*
X24293143Y-9843350D01*
X24429425Y-9225382D01*
X24580386Y-8541183D01*
X24742938Y-7804768D01*
X24809227Y-7504545D01*
X25676027Y-3579091D01*
X28461245Y-3537201D01*
X28501227Y-3712085D01*
G37*
X28501227Y-3712085D02*
X28523319Y-3834092D01*
X28564522Y-4085694D01*
X28621279Y-4444230D01*
X28690033Y-4887033D01*
X28767228Y-5391439D01*
X28833630Y-5830455D01*
X28914774Y-6356580D01*
X28991381Y-6828656D01*
X29059864Y-7226490D01*
X29116635Y-7529890D01*
X29158108Y-7718663D01*
X29178932Y-7773939D01*
X29229686Y-7710251D01*
X29348869Y-7529662D01*
X29526736Y-7247887D01*
X29753546Y-6880640D01*
X30019554Y-6443635D01*
X30315019Y-5952587D01*
X30490906Y-5657849D01*
X31750000Y-3541759D01*
X33223485Y-3541183D01*
X34696970Y-3540606D01*
X34632253Y-3829242D01*
X34602839Y-3961983D01*
X34544014Y-4228782D01*
X34459365Y-4613336D01*
X34352476Y-5099340D01*
X34226932Y-5670492D01*
X34086317Y-6310487D01*
X33934216Y-7003021D01*
X33790306Y-7658485D01*
X33632186Y-8377782D01*
X33483172Y-9053724D01*
X33346695Y-9670886D01*
X33226185Y-10213846D01*
X33125072Y-10667182D01*
X33046786Y-11015470D01*
X32994759Y-11243287D01*
X32972866Y-11333788D01*
X32941402Y-11388532D01*
X32868964Y-11426227D01*
X32730898Y-11449960D01*
X32502550Y-11462820D01*
X32159267Y-11467894D01*
X31897286Y-11468485D01*
X31481431Y-11467802D01*
X31196264Y-11463053D01*
X31018531Y-11450182D01*
X30924981Y-11425139D01*
X30892361Y-11383869D01*
X30897420Y-11322319D01*
X30903773Y-11295303D01*
X30950708Y-11093655D01*
X31020683Y-10783280D01*
X31108909Y-10386263D01*
X31210592Y-9924691D01*
X31320944Y-9420649D01*
X31435172Y-8896224D01*
X31548486Y-8373501D01*
X31656096Y-7874567D01*
X31753210Y-7421507D01*
X31835037Y-7036408D01*
X31896787Y-6741356D01*
X31933669Y-6558435D01*
X31942137Y-6508411D01*
X31904120Y-6553595D01*
X31795876Y-6717327D01*
X31625913Y-6985875D01*
X31402741Y-7345507D01*
X31134867Y-7782492D01*
X30830802Y-8283098D01*
X30499054Y-8833594D01*
X30430577Y-8947727D01*
X28919306Y-11468485D01*
X28429653Y-11468485D01*
X28131330Y-11456346D01*
X27973186Y-11418367D01*
X27939377Y-11372273D01*
X27927399Y-11264193D01*
X27894339Y-11030741D01*
X27843769Y-10694071D01*
X27779260Y-10276339D01*
X27704385Y-9799698D01*
X27622714Y-9286305D01*
X27537821Y-8758314D01*
X27453276Y-8237880D01*
X27372652Y-7747159D01*
X27299520Y-7308304D01*
X27237451Y-6943472D01*
X27190019Y-6674816D01*
X27160794Y-6524493D01*
X27153945Y-6500410D01*
X27130468Y-6564609D01*
X27078922Y-6761061D01*
X27003613Y-7071519D01*
X26908845Y-7477740D01*
X26798925Y-7961478D01*
X26678157Y-8504487D01*
X26639517Y-8680505D01*
X26512940Y-9257376D01*
X26393673Y-9798105D01*
X26286606Y-10280749D01*
X26196627Y-10683363D01*
X26128622Y-10984004D01*
X26087482Y-11160729D01*
X26082762Y-11179848D01*
X26009824Y-11468485D01*
X24973700Y-11468485D01*
X24594712Y-11467143D01*
X24278273Y-11463465D01*
X24052382Y-11457972D01*
X23945036Y-11451185D01*
X23940001Y-11449242D01*
X23956567Y-11372637D01*
X24003252Y-11159732D01*
X24076969Y-10824539D01*
X24174628Y-10381074D01*
X24293143Y-9843350D01*
X24429425Y-9225382D01*
X24580386Y-8541183D01*
X24742938Y-7804768D01*
X24809227Y-7504545D01*
X25676027Y-3579091D01*
X28461245Y-3537201D01*
X28501227Y-3712085D01*
G36*
X-29864267Y1114462D02*
G01*
X-29137136Y981592D01*
X-28442149Y756955D01*
X-27816759Y449589D01*
X-27365254Y127788D01*
X-27059902Y-134063D01*
X-27263497Y-394153D01*
X-27417486Y-581434D01*
X-27631738Y-830294D01*
X-27861944Y-1089336D01*
X-27879590Y-1108813D01*
X-28292088Y-1563384D01*
X-28652185Y-1288515D01*
X-29198132Y-960173D01*
X-29823864Y-735016D01*
X-30420223Y-634986D01*
X-30826791Y-634810D01*
X-31119572Y-713015D01*
X-31322602Y-879414D01*
X-31419354Y-1042849D01*
X-31457888Y-1193649D01*
X-31419826Y-1334148D01*
X-31292086Y-1473683D01*
X-31061591Y-1621586D01*
X-30715259Y-1787192D01*
X-30240011Y-1979836D01*
X-29956540Y-2086772D01*
X-29463319Y-2277895D01*
X-29083520Y-2447369D01*
X-28782138Y-2614368D01*
X-28524166Y-2798062D01*
X-28299084Y-2994530D01*
X-27958979Y-3385359D01*
X-27758567Y-3801121D01*
X-27683724Y-4272837D01*
X-27682456Y-4348788D01*
X-27749951Y-4954761D01*
X-27948282Y-5503133D01*
X-28250835Y-5950241D01*
X-28737954Y-6399339D01*
X-29304941Y-6727324D01*
X-29957720Y-6936052D01*
X-30702216Y-7027380D01*
X-31544352Y-7003162D01*
X-31596061Y-6998276D01*
X-32205277Y-6897868D01*
X-32829034Y-6723633D01*
X-33402423Y-6495764D01*
X-33682497Y-6349232D01*
X-33933874Y-6185618D01*
X-34186995Y-5994301D01*
X-34409789Y-5802944D01*
X-34570185Y-5639212D01*
X-34636112Y-5530767D01*
X-34636364Y-5526440D01*
X-34588961Y-5441793D01*
X-34460064Y-5267250D01*
X-34269638Y-5028685D01*
X-34049302Y-4765587D01*
X-33462241Y-4079168D01*
X-33154830Y-4356895D01*
X-32932525Y-4526270D01*
X-32628870Y-4717528D01*
X-32304439Y-4892926D01*
X-32260225Y-4914345D01*
X-31974506Y-5045338D01*
X-31749363Y-5127551D01*
X-31530504Y-5172311D01*
X-31263639Y-5190944D01*
X-30916090Y-5194762D01*
X-30564617Y-5192370D01*
X-30332700Y-5179837D01*
X-30185991Y-5150287D01*
X-30090141Y-5096847D01*
X-30011696Y-5013746D01*
X-29879329Y-4755597D01*
X-29885155Y-4502314D01*
X-30026365Y-4287383D01*
X-30075909Y-4248154D01*
X-30236823Y-4158378D01*
X-30501111Y-4036159D01*
X-30826929Y-3900130D01*
X-31057273Y-3811119D01*
X-31705377Y-3555360D01*
X-32222285Y-3317454D01*
X-32627647Y-3084547D01*
X-32941111Y-2843787D01*
X-33182327Y-2582319D01*
X-33362267Y-2303397D01*
X-33553779Y-1804991D01*
X-33603167Y-1298424D01*
X-33520345Y-799639D01*
X-33315231Y-324583D01*
X-32997738Y110802D01*
X-32577783Y490571D01*
X-32065282Y798780D01*
X-31470150Y1019484D01*
X-31265151Y1068756D01*
X-30586089Y1146529D01*
X-29864267Y1114462D01*
G37*
X-29864267Y1114462D02*
X-29137136Y981592D01*
X-28442149Y756955D01*
X-27816759Y449589D01*
X-27365254Y127788D01*
X-27059902Y-134063D01*
X-27263497Y-394153D01*
X-27417486Y-581434D01*
X-27631738Y-830294D01*
X-27861944Y-1089336D01*
X-27879590Y-1108813D01*
X-28292088Y-1563384D01*
X-28652185Y-1288515D01*
X-29198132Y-960173D01*
X-29823864Y-735016D01*
X-30420223Y-634986D01*
X-30826791Y-634810D01*
X-31119572Y-713015D01*
X-31322602Y-879414D01*
X-31419354Y-1042849D01*
X-31457888Y-1193649D01*
X-31419826Y-1334148D01*
X-31292086Y-1473683D01*
X-31061591Y-1621586D01*
X-30715259Y-1787192D01*
X-30240011Y-1979836D01*
X-29956540Y-2086772D01*
X-29463319Y-2277895D01*
X-29083520Y-2447369D01*
X-28782138Y-2614368D01*
X-28524166Y-2798062D01*
X-28299084Y-2994530D01*
X-27958979Y-3385359D01*
X-27758567Y-3801121D01*
X-27683724Y-4272837D01*
X-27682456Y-4348788D01*
X-27749951Y-4954761D01*
X-27948282Y-5503133D01*
X-28250835Y-5950241D01*
X-28737954Y-6399339D01*
X-29304941Y-6727324D01*
X-29957720Y-6936052D01*
X-30702216Y-7027380D01*
X-31544352Y-7003162D01*
X-31596061Y-6998276D01*
X-32205277Y-6897868D01*
X-32829034Y-6723633D01*
X-33402423Y-6495764D01*
X-33682497Y-6349232D01*
X-33933874Y-6185618D01*
X-34186995Y-5994301D01*
X-34409789Y-5802944D01*
X-34570185Y-5639212D01*
X-34636112Y-5530767D01*
X-34636364Y-5526440D01*
X-34588961Y-5441793D01*
X-34460064Y-5267250D01*
X-34269638Y-5028685D01*
X-34049302Y-4765587D01*
X-33462241Y-4079168D01*
X-33154830Y-4356895D01*
X-32932525Y-4526270D01*
X-32628870Y-4717528D01*
X-32304439Y-4892926D01*
X-32260225Y-4914345D01*
X-31974506Y-5045338D01*
X-31749363Y-5127551D01*
X-31530504Y-5172311D01*
X-31263639Y-5190944D01*
X-30916090Y-5194762D01*
X-30564617Y-5192370D01*
X-30332700Y-5179837D01*
X-30185991Y-5150287D01*
X-30090141Y-5096847D01*
X-30011696Y-5013746D01*
X-29879329Y-4755597D01*
X-29885155Y-4502314D01*
X-30026365Y-4287383D01*
X-30075909Y-4248154D01*
X-30236823Y-4158378D01*
X-30501111Y-4036159D01*
X-30826929Y-3900130D01*
X-31057273Y-3811119D01*
X-31705377Y-3555360D01*
X-32222285Y-3317454D01*
X-32627647Y-3084547D01*
X-32941111Y-2843787D01*
X-33182327Y-2582319D01*
X-33362267Y-2303397D01*
X-33553779Y-1804991D01*
X-33603167Y-1298424D01*
X-33520345Y-799639D01*
X-33315231Y-324583D01*
X-32997738Y110802D01*
X-32577783Y490571D01*
X-32065282Y798780D01*
X-31470150Y1019484D01*
X-31265151Y1068756D01*
X-30586089Y1146529D01*
X-29864267Y1114462D01*
G36*
X-7611748Y1123729D02*
G01*
X-6858737Y990218D01*
X-6191546Y732907D01*
X-5605138Y350107D01*
X-5310909Y81064D01*
X-5123176Y-134360D01*
X-4929536Y-394934D01*
X-4749050Y-669264D01*
X-4600780Y-925954D01*
X-4503786Y-1133609D01*
X-4477130Y-1260835D01*
X-4485511Y-1278440D01*
X-4567773Y-1314730D01*
X-4762397Y-1386563D01*
X-5035176Y-1482419D01*
X-5351902Y-1590777D01*
X-5678371Y-1700118D01*
X-5980373Y-1798920D01*
X-6223703Y-1875665D01*
X-6374153Y-1918831D01*
X-6403089Y-1924242D01*
X-6469799Y-1860614D01*
X-6554969Y-1704421D01*
X-6568110Y-1674091D01*
X-6747483Y-1391531D01*
X-7024125Y-1115261D01*
X-7346112Y-889516D01*
X-7634880Y-765254D01*
X-8098338Y-703238D01*
X-8606616Y-738626D01*
X-9091889Y-863905D01*
X-9285842Y-948191D01*
X-9744440Y-1254980D01*
X-10115417Y-1651736D01*
X-10393339Y-2114057D01*
X-10572774Y-2617540D01*
X-10648289Y-3137784D01*
X-10614450Y-3650386D01*
X-10465823Y-4130945D01*
X-10196976Y-4555056D01*
X-10110011Y-4649741D01*
X-9713465Y-4947268D01*
X-9250525Y-5124645D01*
X-8750020Y-5182678D01*
X-8240783Y-5122170D01*
X-7751643Y-4943924D01*
X-7311431Y-4648745D01*
X-7225162Y-4569313D01*
X-6945778Y-4297131D01*
X-6166828Y-4815759D01*
X-5866899Y-5019826D01*
X-5620530Y-5195780D01*
X-5452594Y-5325258D01*
X-5387964Y-5389897D01*
X-5387879Y-5390793D01*
X-5440503Y-5465193D01*
X-5581189Y-5616182D01*
X-5784162Y-5816721D01*
X-5885350Y-5912558D01*
X-6514589Y-6400466D01*
X-7210395Y-6749838D01*
X-7971285Y-6960221D01*
X-8795775Y-7031161D01*
X-9424305Y-6996042D01*
X-10201630Y-6842871D01*
X-10901241Y-6568043D01*
X-11512208Y-6179836D01*
X-12023598Y-5686534D01*
X-12424479Y-5096417D01*
X-12664719Y-4541212D01*
X-12751199Y-4161490D01*
X-12798203Y-3687679D01*
X-12804703Y-3174748D01*
X-12769667Y-2677670D01*
X-12706558Y-2309091D01*
X-12447702Y-1535397D01*
X-12063123Y-839536D01*
X-11565364Y-231673D01*
X-10966969Y278029D01*
X-10280485Y679407D01*
X-9518454Y962296D01*
X-8693422Y1116532D01*
X-8455614Y1135127D01*
X-7611748Y1123729D01*
G37*
X-7611748Y1123729D02*
X-6858737Y990218D01*
X-6191546Y732907D01*
X-5605138Y350107D01*
X-5310909Y81064D01*
X-5123176Y-134360D01*
X-4929536Y-394934D01*
X-4749050Y-669264D01*
X-4600780Y-925954D01*
X-4503786Y-1133609D01*
X-4477130Y-1260835D01*
X-4485511Y-1278440D01*
X-4567773Y-1314730D01*
X-4762397Y-1386563D01*
X-5035176Y-1482419D01*
X-5351902Y-1590777D01*
X-5678371Y-1700118D01*
X-5980373Y-1798920D01*
X-6223703Y-1875665D01*
X-6374153Y-1918831D01*
X-6403089Y-1924242D01*
X-6469799Y-1860614D01*
X-6554969Y-1704421D01*
X-6568110Y-1674091D01*
X-6747483Y-1391531D01*
X-7024125Y-1115261D01*
X-7346112Y-889516D01*
X-7634880Y-765254D01*
X-8098338Y-703238D01*
X-8606616Y-738626D01*
X-9091889Y-863905D01*
X-9285842Y-948191D01*
X-9744440Y-1254980D01*
X-10115417Y-1651736D01*
X-10393339Y-2114057D01*
X-10572774Y-2617540D01*
X-10648289Y-3137784D01*
X-10614450Y-3650386D01*
X-10465823Y-4130945D01*
X-10196976Y-4555056D01*
X-10110011Y-4649741D01*
X-9713465Y-4947268D01*
X-9250525Y-5124645D01*
X-8750020Y-5182678D01*
X-8240783Y-5122170D01*
X-7751643Y-4943924D01*
X-7311431Y-4648745D01*
X-7225162Y-4569313D01*
X-6945778Y-4297131D01*
X-6166828Y-4815759D01*
X-5866899Y-5019826D01*
X-5620530Y-5195780D01*
X-5452594Y-5325258D01*
X-5387964Y-5389897D01*
X-5387879Y-5390793D01*
X-5440503Y-5465193D01*
X-5581189Y-5616182D01*
X-5784162Y-5816721D01*
X-5885350Y-5912558D01*
X-6514589Y-6400466D01*
X-7210395Y-6749838D01*
X-7971285Y-6960221D01*
X-8795775Y-7031161D01*
X-9424305Y-6996042D01*
X-10201630Y-6842871D01*
X-10901241Y-6568043D01*
X-11512208Y-6179836D01*
X-12023598Y-5686534D01*
X-12424479Y-5096417D01*
X-12664719Y-4541212D01*
X-12751199Y-4161490D01*
X-12798203Y-3687679D01*
X-12804703Y-3174748D01*
X-12769667Y-2677670D01*
X-12706558Y-2309091D01*
X-12447702Y-1535397D01*
X-12063123Y-839536D01*
X-11565364Y-231673D01*
X-10966969Y278029D01*
X-10280485Y679407D01*
X-9518454Y962296D01*
X-8693422Y1116532D01*
X-8455614Y1135127D01*
X-7611748Y1123729D01*
G36*
X-22847301Y998706D02*
G01*
X-22262770Y990884D01*
X-21794055Y973955D01*
X-21422105Y944735D01*
X-21127871Y900039D01*
X-20892303Y836683D01*
X-20696351Y751483D01*
X-20520966Y641255D01*
X-20347097Y502814D01*
X-20289539Y452801D01*
X-19891688Y10578D01*
X-19636054Y-490525D01*
X-19522624Y-1050553D01*
X-19551382Y-1669556D01*
X-19583849Y-1848371D01*
X-19791788Y-2505070D01*
X-20119912Y-3069332D01*
X-20562946Y-3534331D01*
X-21115616Y-3893243D01*
X-21193510Y-3930945D01*
X-21566741Y-4077414D01*
X-21987285Y-4184528D01*
X-22481667Y-4256192D01*
X-23076411Y-4296316D01*
X-23758076Y-4308778D01*
X-24771606Y-4310303D01*
X-24939348Y-5060758D01*
X-25029585Y-5461127D01*
X-25125012Y-5879158D01*
X-25209388Y-6243857D01*
X-25234303Y-6350000D01*
X-25361515Y-6888788D01*
X-26381364Y-6910264D01*
X-26813916Y-6916046D01*
X-27112355Y-6911081D01*
X-27296228Y-6893877D01*
X-27385083Y-6862944D01*
X-27401212Y-6832468D01*
X-27385069Y-6739973D01*
X-27338727Y-6511752D01*
X-27265316Y-6162369D01*
X-27167966Y-5706386D01*
X-27049807Y-5158365D01*
X-26913969Y-4532870D01*
X-26763582Y-3844464D01*
X-26601777Y-3107708D01*
X-26554545Y-2893348D01*
X-26462271Y-2474571D01*
X-24378586Y-2474571D01*
X-23355233Y-2449558D01*
X-22925835Y-2436300D01*
X-22620420Y-2418072D01*
X-22409032Y-2390434D01*
X-22261716Y-2348943D01*
X-22148516Y-2289158D01*
X-22114879Y-2265639D01*
X-21876088Y-2024866D01*
X-21716575Y-1732279D01*
X-21658338Y-1436906D01*
X-21677511Y-1290803D01*
X-21764736Y-1077871D01*
X-21901110Y-923411D01*
X-22109773Y-817875D01*
X-22413868Y-751718D01*
X-22836536Y-715391D01*
X-23096253Y-705524D01*
X-23500482Y-697729D01*
X-23772750Y-702259D01*
X-23934677Y-720919D01*
X-24007882Y-755514D01*
X-24018180Y-782493D01*
X-24035815Y-896883D01*
X-24080581Y-1124900D01*
X-24145095Y-1430149D01*
X-24200200Y-1679861D01*
X-24378586Y-2474571D01*
X-26462271Y-2474571D01*
X-26390407Y-2148423D01*
X-26236756Y-1450104D01*
X-26096705Y-812600D01*
X-25973365Y-250123D01*
X-25869848Y223117D01*
X-25789264Y592911D01*
X-25734725Y845048D01*
X-25709343Y965318D01*
X-25707879Y973552D01*
X-25634166Y980579D01*
X-25426051Y986927D01*
X-25103073Y992349D01*
X-24684769Y996598D01*
X-24190675Y999427D01*
X-23640331Y1000590D01*
X-23566697Y1000606D01*
X-22847301Y998706D01*
G37*
X-22847301Y998706D02*
X-22262770Y990884D01*
X-21794055Y973955D01*
X-21422105Y944735D01*
X-21127871Y900039D01*
X-20892303Y836683D01*
X-20696351Y751483D01*
X-20520966Y641255D01*
X-20347097Y502814D01*
X-20289539Y452801D01*
X-19891688Y10578D01*
X-19636054Y-490525D01*
X-19522624Y-1050553D01*
X-19551382Y-1669556D01*
X-19583849Y-1848371D01*
X-19791788Y-2505070D01*
X-20119912Y-3069332D01*
X-20562946Y-3534331D01*
X-21115616Y-3893243D01*
X-21193510Y-3930945D01*
X-21566741Y-4077414D01*
X-21987285Y-4184528D01*
X-22481667Y-4256192D01*
X-23076411Y-4296316D01*
X-23758076Y-4308778D01*
X-24771606Y-4310303D01*
X-24939348Y-5060758D01*
X-25029585Y-5461127D01*
X-25125012Y-5879158D01*
X-25209388Y-6243857D01*
X-25234303Y-6350000D01*
X-25361515Y-6888788D01*
X-26381364Y-6910264D01*
X-26813916Y-6916046D01*
X-27112355Y-6911081D01*
X-27296228Y-6893877D01*
X-27385083Y-6862944D01*
X-27401212Y-6832468D01*
X-27385069Y-6739973D01*
X-27338727Y-6511752D01*
X-27265316Y-6162369D01*
X-27167966Y-5706386D01*
X-27049807Y-5158365D01*
X-26913969Y-4532870D01*
X-26763582Y-3844464D01*
X-26601777Y-3107708D01*
X-26554545Y-2893348D01*
X-26462271Y-2474571D01*
X-24378586Y-2474571D01*
X-23355233Y-2449558D01*
X-22925835Y-2436300D01*
X-22620420Y-2418072D01*
X-22409032Y-2390434D01*
X-22261716Y-2348943D01*
X-22148516Y-2289158D01*
X-22114879Y-2265639D01*
X-21876088Y-2024866D01*
X-21716575Y-1732279D01*
X-21658338Y-1436906D01*
X-21677511Y-1290803D01*
X-21764736Y-1077871D01*
X-21901110Y-923411D01*
X-22109773Y-817875D01*
X-22413868Y-751718D01*
X-22836536Y-715391D01*
X-23096253Y-705524D01*
X-23500482Y-697729D01*
X-23772750Y-702259D01*
X-23934677Y-720919D01*
X-24007882Y-755514D01*
X-24018180Y-782493D01*
X-24035815Y-896883D01*
X-24080581Y-1124900D01*
X-24145095Y-1430149D01*
X-24200200Y-1679861D01*
X-24378586Y-2474571D01*
X-26462271Y-2474571D01*
X-26390407Y-2148423D01*
X-26236756Y-1450104D01*
X-26096705Y-812600D01*
X-25973365Y-250123D01*
X-25869848Y223117D01*
X-25789264Y592911D01*
X-25734725Y845048D01*
X-25709343Y965318D01*
X-25707879Y973552D01*
X-25634166Y980579D01*
X-25426051Y986927D01*
X-25103073Y992349D01*
X-24684769Y996598D01*
X-24190675Y999427D01*
X-23640331Y1000590D01*
X-23566697Y1000606D01*
X-22847301Y998706D01*
G36*
X-14285228Y788939D02*
G01*
X-14263547Y665836D01*
X-14221764Y412834D01*
X-14162677Y47748D01*
X-14089084Y-411606D01*
X-14003782Y-947412D01*
X-13909569Y-1541855D01*
X-13809242Y-2177119D01*
X-13705600Y-2835390D01*
X-13601440Y-3498852D01*
X-13499559Y-4149689D01*
X-13402756Y-4770085D01*
X-13313827Y-5342226D01*
X-13235570Y-5848296D01*
X-13170784Y-6270480D01*
X-13122265Y-6590961D01*
X-13092812Y-6791925D01*
X-13084848Y-6855117D01*
X-13157833Y-6882535D01*
X-13360932Y-6904730D01*
X-13670364Y-6920098D01*
X-14062345Y-6927037D01*
X-14154867Y-6927273D01*
X-15224885Y-6927273D01*
X-15276466Y-6446212D01*
X-15299651Y-6198276D01*
X-15322042Y-6011480D01*
X-15363396Y-5877252D01*
X-15443473Y-5787016D01*
X-15582031Y-5732201D01*
X-15798828Y-5704231D01*
X-16113624Y-5694533D01*
X-16546176Y-5694534D01*
X-17005938Y-5695758D01*
X-18607563Y-5695758D01*
X-19280909Y-6888788D01*
X-20454697Y-6910035D01*
X-20859986Y-6915418D01*
X-21204700Y-6916271D01*
X-21462463Y-6912827D01*
X-21606897Y-6905319D01*
X-21628485Y-6899680D01*
X-21590110Y-6829740D01*
X-21479559Y-6639280D01*
X-21303693Y-6339881D01*
X-21069375Y-5943124D01*
X-20783464Y-5460590D01*
X-20452823Y-4903858D01*
X-20084313Y-4284509D01*
X-19852919Y-3896234D01*
X-17626061Y-3896234D01*
X-17553747Y-3906874D01*
X-17355425Y-3915781D01*
X-17059023Y-3922176D01*
X-16692468Y-3925281D01*
X-16578230Y-3925455D01*
X-15530400Y-3925455D01*
X-15575460Y-3598333D01*
X-15600353Y-3402406D01*
X-15637390Y-3091813D01*
X-15682093Y-2704930D01*
X-15729984Y-2280132D01*
X-15743849Y-2155152D01*
X-15790221Y-1749959D01*
X-15833904Y-1394345D01*
X-15870921Y-1118873D01*
X-15897292Y-954108D01*
X-15903786Y-926596D01*
X-15946179Y-967887D01*
X-16050179Y-1121419D01*
X-16202790Y-1364780D01*
X-16391012Y-1675561D01*
X-16601848Y-2031348D01*
X-16822300Y-2409731D01*
X-17039371Y-2788299D01*
X-17240063Y-3144639D01*
X-17411377Y-3456340D01*
X-17540317Y-3700991D01*
X-17613885Y-3856180D01*
X-17626061Y-3896234D01*
X-19852919Y-3896234D01*
X-19684795Y-3614125D01*
X-19278721Y-2933736D01*
X-16928956Y1000606D01*
X-14328595Y1000606D01*
X-14285228Y788939D01*
G37*
X-14285228Y788939D02*
X-14263547Y665836D01*
X-14221764Y412834D01*
X-14162677Y47748D01*
X-14089084Y-411606D01*
X-14003782Y-947412D01*
X-13909569Y-1541855D01*
X-13809242Y-2177119D01*
X-13705600Y-2835390D01*
X-13601440Y-3498852D01*
X-13499559Y-4149689D01*
X-13402756Y-4770085D01*
X-13313827Y-5342226D01*
X-13235570Y-5848296D01*
X-13170784Y-6270480D01*
X-13122265Y-6590961D01*
X-13092812Y-6791925D01*
X-13084848Y-6855117D01*
X-13157833Y-6882535D01*
X-13360932Y-6904730D01*
X-13670364Y-6920098D01*
X-14062345Y-6927037D01*
X-14154867Y-6927273D01*
X-15224885Y-6927273D01*
X-15276466Y-6446212D01*
X-15299651Y-6198276D01*
X-15322042Y-6011480D01*
X-15363396Y-5877252D01*
X-15443473Y-5787016D01*
X-15582031Y-5732201D01*
X-15798828Y-5704231D01*
X-16113624Y-5694533D01*
X-16546176Y-5694534D01*
X-17005938Y-5695758D01*
X-18607563Y-5695758D01*
X-19280909Y-6888788D01*
X-20454697Y-6910035D01*
X-20859986Y-6915418D01*
X-21204700Y-6916271D01*
X-21462463Y-6912827D01*
X-21606897Y-6905319D01*
X-21628485Y-6899680D01*
X-21590110Y-6829740D01*
X-21479559Y-6639280D01*
X-21303693Y-6339881D01*
X-21069375Y-5943124D01*
X-20783464Y-5460590D01*
X-20452823Y-4903858D01*
X-20084313Y-4284509D01*
X-19852919Y-3896234D01*
X-17626061Y-3896234D01*
X-17553747Y-3906874D01*
X-17355425Y-3915781D01*
X-17059023Y-3922176D01*
X-16692468Y-3925281D01*
X-16578230Y-3925455D01*
X-15530400Y-3925455D01*
X-15575460Y-3598333D01*
X-15600353Y-3402406D01*
X-15637390Y-3091813D01*
X-15682093Y-2704930D01*
X-15729984Y-2280132D01*
X-15743849Y-2155152D01*
X-15790221Y-1749959D01*
X-15833904Y-1394345D01*
X-15870921Y-1118873D01*
X-15897292Y-954108D01*
X-15903786Y-926596D01*
X-15946179Y-967887D01*
X-16050179Y-1121419D01*
X-16202790Y-1364780D01*
X-16391012Y-1675561D01*
X-16601848Y-2031348D01*
X-16822300Y-2409731D01*
X-17039371Y-2788299D01*
X-17240063Y-3144639D01*
X-17411377Y-3456340D01*
X-17540317Y-3700991D01*
X-17613885Y-3856180D01*
X-17626061Y-3896234D01*
X-19852919Y-3896234D01*
X-19684795Y-3614125D01*
X-19278721Y-2933736D01*
X-16928956Y1000606D01*
X-14328595Y1000606D01*
X-14285228Y788939D01*
G36*
X292633Y1000254D02*
G01*
X902067Y998760D01*
X1385780Y995467D01*
X1757880Y989719D01*
X2032477Y980858D01*
X2223679Y968227D01*
X2345595Y951170D01*
X2412334Y929030D01*
X2438004Y901150D01*
X2436714Y866872D01*
X2436453Y865909D01*
X2400037Y717322D01*
X2346276Y480682D01*
X2308522Y307879D01*
X2241856Y6979D01*
X2174240Y-283965D01*
X2144895Y-404091D01*
X2072248Y-692727D01*
X-1667117Y-692727D01*
X-1795680Y-1291001D01*
X-1856098Y-1578767D01*
X-1901270Y-1806507D01*
X-1923284Y-1933955D01*
X-1924242Y-1945243D01*
X-1850817Y-1961000D01*
X-1644713Y-1975040D01*
X-1327185Y-1986707D01*
X-919491Y-1995342D01*
X-442887Y-2000287D01*
X-115455Y-2001212D01*
X393547Y-2003555D01*
X846883Y-2010130D01*
X1223345Y-2020260D01*
X1501727Y-2033268D01*
X1660818Y-2048474D01*
X1690249Y-2058939D01*
X1673514Y-2153698D01*
X1630641Y-2365112D01*
X1568588Y-2659500D01*
X1511392Y-2924848D01*
X1335619Y-3733030D01*
X-503222Y-3771515D01*
X-2342064Y-3810000D01*
X-2476362Y-4387273D01*
X-2541230Y-4676324D01*
X-2589823Y-4912199D01*
X-2613048Y-5050360D01*
X-2613815Y-5060758D01*
X-2580529Y-5092443D01*
X-2468803Y-5116864D01*
X-2264327Y-5134768D01*
X-1952796Y-5146902D01*
X-1519903Y-5154011D01*
X-951338Y-5156842D01*
X-769697Y-5156970D01*
X-161572Y-5158754D01*
X306960Y-5164603D01*
X650209Y-5175265D01*
X882487Y-5191487D01*
X1018103Y-5214015D01*
X1071368Y-5243597D01*
X1073477Y-5253182D01*
X1055854Y-5365382D01*
X1011625Y-5590880D01*
X948218Y-5892845D01*
X898819Y-6119091D01*
X728260Y-6888788D01*
X-2175870Y-6908956D01*
X-2948262Y-6913352D01*
X-3579046Y-6914554D01*
X-4080529Y-6912231D01*
X-4465017Y-6906054D01*
X-4744815Y-6895693D01*
X-4932229Y-6880819D01*
X-5039564Y-6861101D01*
X-5079127Y-6836211D01*
X-5080000Y-6831159D01*
X-5063858Y-6738924D01*
X-5017519Y-6510957D01*
X-4944113Y-6161813D01*
X-4846769Y-5706050D01*
X-4728618Y-5158223D01*
X-4592788Y-4532889D01*
X-4442410Y-3844605D01*
X-4280613Y-3107925D01*
X-4233333Y-2893348D01*
X-4069194Y-2148423D01*
X-3915544Y-1450104D01*
X-3775493Y-812600D01*
X-3652153Y-250123D01*
X-3548635Y223117D01*
X-3468052Y592911D01*
X-3413513Y845048D01*
X-3388131Y965318D01*
X-3386667Y973552D01*
X-3312481Y979596D01*
X-3101057Y985169D01*
X-2769098Y990118D01*
X-2333306Y994288D01*
X-1810380Y997526D01*
X-1217024Y999676D01*
X-569940Y1000586D01*
X-456631Y1000606D01*
X292633Y1000254D01*
G37*
X292633Y1000254D02*
X902067Y998760D01*
X1385780Y995467D01*
X1757880Y989719D01*
X2032477Y980858D01*
X2223679Y968227D01*
X2345595Y951170D01*
X2412334Y929030D01*
X2438004Y901150D01*
X2436714Y866872D01*
X2436453Y865909D01*
X2400037Y717322D01*
X2346276Y480682D01*
X2308522Y307879D01*
X2241856Y6979D01*
X2174240Y-283965D01*
X2144895Y-404091D01*
X2072248Y-692727D01*
X-1667117Y-692727D01*
X-1795680Y-1291001D01*
X-1856098Y-1578767D01*
X-1901270Y-1806507D01*
X-1923284Y-1933955D01*
X-1924242Y-1945243D01*
X-1850817Y-1961000D01*
X-1644713Y-1975040D01*
X-1327185Y-1986707D01*
X-919491Y-1995342D01*
X-442887Y-2000287D01*
X-115455Y-2001212D01*
X393547Y-2003555D01*
X846883Y-2010130D01*
X1223345Y-2020260D01*
X1501727Y-2033268D01*
X1660818Y-2048474D01*
X1690249Y-2058939D01*
X1673514Y-2153698D01*
X1630641Y-2365112D01*
X1568588Y-2659500D01*
X1511392Y-2924848D01*
X1335619Y-3733030D01*
X-503222Y-3771515D01*
X-2342064Y-3810000D01*
X-2476362Y-4387273D01*
X-2541230Y-4676324D01*
X-2589823Y-4912199D01*
X-2613048Y-5050360D01*
X-2613815Y-5060758D01*
X-2580529Y-5092443D01*
X-2468803Y-5116864D01*
X-2264327Y-5134768D01*
X-1952796Y-5146902D01*
X-1519903Y-5154011D01*
X-951338Y-5156842D01*
X-769697Y-5156970D01*
X-161572Y-5158754D01*
X306960Y-5164603D01*
X650209Y-5175265D01*
X882487Y-5191487D01*
X1018103Y-5214015D01*
X1071368Y-5243597D01*
X1073477Y-5253182D01*
X1055854Y-5365382D01*
X1011625Y-5590880D01*
X948218Y-5892845D01*
X898819Y-6119091D01*
X728260Y-6888788D01*
X-2175870Y-6908956D01*
X-2948262Y-6913352D01*
X-3579046Y-6914554D01*
X-4080529Y-6912231D01*
X-4465017Y-6906054D01*
X-4744815Y-6895693D01*
X-4932229Y-6880819D01*
X-5039564Y-6861101D01*
X-5079127Y-6836211D01*
X-5080000Y-6831159D01*
X-5063858Y-6738924D01*
X-5017519Y-6510957D01*
X-4944113Y-6161813D01*
X-4846769Y-5706050D01*
X-4728618Y-5158223D01*
X-4592788Y-4532889D01*
X-4442410Y-3844605D01*
X-4280613Y-3107925D01*
X-4233333Y-2893348D01*
X-4069194Y-2148423D01*
X-3915544Y-1450104D01*
X-3775493Y-812600D01*
X-3652153Y-250123D01*
X-3548635Y223117D01*
X-3468052Y592911D01*
X-3413513Y845048D01*
X-3388131Y965318D01*
X-3386667Y973552D01*
X-3312481Y979596D01*
X-3101057Y985169D01*
X-2769098Y990118D01*
X-2333306Y994288D01*
X-1810380Y997526D01*
X-1217024Y999676D01*
X-569940Y1000586D01*
X-456631Y1000606D01*
X292633Y1000254D01*
G36*
X-9016761Y7382086D02*
G01*
X-8877425Y7364176D01*
X-8851515Y7350173D01*
X-8867446Y7266199D01*
X-8911734Y7056308D01*
X-8979121Y6744808D01*
X-9064350Y6356007D01*
X-9159394Y5926667D01*
X-9258928Y5462204D01*
X-9345059Y5028132D01*
X-9412179Y4655350D01*
X-9454682Y4374755D01*
X-9467273Y4229945D01*
X-9408013Y3845170D01*
X-9240186Y3537379D01*
X-9007974Y3349485D01*
X-8728014Y3264461D01*
X-8372754Y3236931D01*
X-8009850Y3267290D01*
X-7738084Y3342123D01*
X-7566144Y3431903D01*
X-7419524Y3556705D01*
X-7290476Y3734345D01*
X-7171248Y3982644D01*
X-7054094Y4319421D01*
X-6931263Y4762493D01*
X-6795007Y5329680D01*
X-6710797Y5704333D01*
X-6346719Y7350606D01*
X-5982753Y7374066D01*
X-5755685Y7378276D01*
X-5645848Y7346381D01*
X-5618788Y7275220D01*
X-5637007Y7127945D01*
X-5687185Y6860147D01*
X-5762601Y6500302D01*
X-5856537Y6076890D01*
X-5962273Y5618386D01*
X-6073088Y5153269D01*
X-6182263Y4710017D01*
X-6283079Y4317106D01*
X-6368815Y4003015D01*
X-6432752Y3796221D01*
X-6450534Y3750339D01*
X-6732478Y3273829D01*
X-7099533Y2906874D01*
X-7341046Y2754244D01*
X-7658582Y2643910D01*
X-8065451Y2576363D01*
X-8502190Y2554942D01*
X-8909332Y2582983D01*
X-9193428Y2650297D01*
X-9581138Y2835016D01*
X-9859746Y3074725D01*
X-10063788Y3388239D01*
X-10152437Y3594449D01*
X-10206986Y3815754D01*
X-10226250Y4074417D01*
X-10209043Y4392697D01*
X-10154179Y4792858D01*
X-10060474Y5297161D01*
X-9929091Y5917167D01*
X-9832126Y6360506D01*
X-9747697Y6749945D01*
X-9680962Y7061406D01*
X-9637081Y7270810D01*
X-9621212Y7354078D01*
X-9621212Y7354129D01*
X-9551936Y7374080D01*
X-9374823Y7386738D01*
X-9236364Y7389091D01*
X-9016761Y7382086D01*
G37*
X-9016761Y7382086D02*
X-8877425Y7364176D01*
X-8851515Y7350173D01*
X-8867446Y7266199D01*
X-8911734Y7056308D01*
X-8979121Y6744808D01*
X-9064350Y6356007D01*
X-9159394Y5926667D01*
X-9258928Y5462204D01*
X-9345059Y5028132D01*
X-9412179Y4655350D01*
X-9454682Y4374755D01*
X-9467273Y4229945D01*
X-9408013Y3845170D01*
X-9240186Y3537379D01*
X-9007974Y3349485D01*
X-8728014Y3264461D01*
X-8372754Y3236931D01*
X-8009850Y3267290D01*
X-7738084Y3342123D01*
X-7566144Y3431903D01*
X-7419524Y3556705D01*
X-7290476Y3734345D01*
X-7171248Y3982644D01*
X-7054094Y4319421D01*
X-6931263Y4762493D01*
X-6795007Y5329680D01*
X-6710797Y5704333D01*
X-6346719Y7350606D01*
X-5982753Y7374066D01*
X-5755685Y7378276D01*
X-5645848Y7346381D01*
X-5618788Y7275220D01*
X-5637007Y7127945D01*
X-5687185Y6860147D01*
X-5762601Y6500302D01*
X-5856537Y6076890D01*
X-5962273Y5618386D01*
X-6073088Y5153269D01*
X-6182263Y4710017D01*
X-6283079Y4317106D01*
X-6368815Y4003015D01*
X-6432752Y3796221D01*
X-6450534Y3750339D01*
X-6732478Y3273829D01*
X-7099533Y2906874D01*
X-7341046Y2754244D01*
X-7658582Y2643910D01*
X-8065451Y2576363D01*
X-8502190Y2554942D01*
X-8909332Y2582983D01*
X-9193428Y2650297D01*
X-9581138Y2835016D01*
X-9859746Y3074725D01*
X-10063788Y3388239D01*
X-10152437Y3594449D01*
X-10206986Y3815754D01*
X-10226250Y4074417D01*
X-10209043Y4392697D01*
X-10154179Y4792858D01*
X-10060474Y5297161D01*
X-9929091Y5917167D01*
X-9832126Y6360506D01*
X-9747697Y6749945D01*
X-9680962Y7061406D01*
X-9637081Y7270810D01*
X-9621212Y7354078D01*
X-9621212Y7354129D01*
X-9551936Y7374080D01*
X-9374823Y7386738D01*
X-9236364Y7389091D01*
X-9016761Y7382086D01*
G36*
X-11477846Y7387428D02*
G01*
X-11153040Y7378691D01*
X-10930437Y7358765D01*
X-10792800Y7323209D01*
X-10722886Y7267586D01*
X-10703456Y7187456D01*
X-10717271Y7078379D01*
X-10746894Y6936894D01*
X-10795000Y6696364D01*
X-12279289Y6696364D01*
X-12573472Y5330152D01*
X-12681331Y4831676D01*
X-12790920Y4329457D01*
X-12893005Y3865520D01*
X-12978352Y3481893D01*
X-13021632Y3290455D01*
X-13175609Y2616970D01*
X-13555029Y2616970D01*
X-13779277Y2622539D01*
X-13884430Y2651172D01*
X-13905246Y2720754D01*
X-13891576Y2790152D01*
X-13863521Y2911653D01*
X-13807577Y3160596D01*
X-13728842Y3514059D01*
X-13632409Y3949120D01*
X-13523377Y4442855D01*
X-13442396Y4810606D01*
X-13036087Y6657879D01*
X-13761220Y6680005D01*
X-14486353Y6702132D01*
X-14432856Y6987298D01*
X-14388942Y7188462D01*
X-14349212Y7319075D01*
X-14343318Y7330777D01*
X-14259399Y7347249D01*
X-14043397Y7361917D01*
X-13717167Y7374090D01*
X-13302562Y7383074D01*
X-12821436Y7388179D01*
X-12503033Y7389091D01*
X-11922098Y7389415D01*
X-11477846Y7387428D01*
G37*
X-11477846Y7387428D02*
X-11153040Y7378691D01*
X-10930437Y7358765D01*
X-10792800Y7323209D01*
X-10722886Y7267586D01*
X-10703456Y7187456D01*
X-10717271Y7078379D01*
X-10746894Y6936894D01*
X-10795000Y6696364D01*
X-12279289Y6696364D01*
X-12573472Y5330152D01*
X-12681331Y4831676D01*
X-12790920Y4329457D01*
X-12893005Y3865520D01*
X-12978352Y3481893D01*
X-13021632Y3290455D01*
X-13175609Y2616970D01*
X-13555029Y2616970D01*
X-13779277Y2622539D01*
X-13884430Y2651172D01*
X-13905246Y2720754D01*
X-13891576Y2790152D01*
X-13863521Y2911653D01*
X-13807577Y3160596D01*
X-13728842Y3514059D01*
X-13632409Y3949120D01*
X-13523377Y4442855D01*
X-13442396Y4810606D01*
X-13036087Y6657879D01*
X-13761220Y6680005D01*
X-14486353Y6702132D01*
X-14432856Y6987298D01*
X-14388942Y7188462D01*
X-14349212Y7319075D01*
X-14343318Y7330777D01*
X-14259399Y7347249D01*
X-14043397Y7361917D01*
X-13717167Y7374090D01*
X-13302562Y7383074D01*
X-12821436Y7388179D01*
X-12503033Y7389091D01*
X-11922098Y7389415D01*
X-11477846Y7387428D01*
G36*
X950267Y6946515D02*
G01*
X969036Y6718555D01*
X990925Y6373841D01*
X1013874Y5949470D01*
X1035825Y5482540D01*
X1048490Y5176212D01*
X1068234Y4743570D01*
X1090815Y4369914D01*
X1114281Y4080041D01*
X1136679Y3898742D01*
X1153004Y3848485D01*
X1199410Y3914890D01*
X1302611Y4101821D01*
X1453151Y4390851D01*
X1641570Y4763553D01*
X1858412Y5201501D01*
X2061634Y5618788D01*
X2917459Y7389091D01*
X3771996Y7389091D01*
X2578485Y5003030D01*
X1384973Y2616970D01*
X558443Y2616970D01*
X506744Y4021667D01*
X487304Y4498375D01*
X465564Y4946350D01*
X443372Y5332893D01*
X422577Y5625306D01*
X407752Y5772727D01*
X360460Y6119091D01*
X-494140Y4387273D01*
X-1348741Y2655455D01*
X-1751946Y2632190D01*
X-1977382Y2623187D01*
X-2123945Y2625016D01*
X-2155647Y2632190D01*
X-2160744Y2711873D01*
X-2174920Y2925980D01*
X-2196895Y3255342D01*
X-2225385Y3680792D01*
X-2259108Y4183164D01*
X-2296783Y4743290D01*
X-2309091Y4926061D01*
X-2347872Y5504831D01*
X-2383069Y6035944D01*
X-2413384Y6499365D01*
X-2437521Y6875056D01*
X-2454183Y7142984D01*
X-2462073Y7283111D01*
X-2462535Y7296901D01*
X-2413004Y7357280D01*
X-2249230Y7379105D01*
X-2058939Y7373871D01*
X-1654848Y7350606D01*
X-1607058Y6196061D01*
X-1588068Y5716810D01*
X-1569956Y5223210D01*
X-1554566Y4767947D01*
X-1543746Y4403709D01*
X-1542350Y4348788D01*
X-1525433Y3656061D01*
X-608675Y5522576D01*
X308084Y7389091D01*
X903753Y7389091D01*
X950267Y6946515D01*
G37*
X950267Y6946515D02*
X969036Y6718555D01*
X990925Y6373841D01*
X1013874Y5949470D01*
X1035825Y5482540D01*
X1048490Y5176212D01*
X1068234Y4743570D01*
X1090815Y4369914D01*
X1114281Y4080041D01*
X1136679Y3898742D01*
X1153004Y3848485D01*
X1199410Y3914890D01*
X1302611Y4101821D01*
X1453151Y4390851D01*
X1641570Y4763553D01*
X1858412Y5201501D01*
X2061634Y5618788D01*
X2917459Y7389091D01*
X3771996Y7389091D01*
X2578485Y5003030D01*
X1384973Y2616970D01*
X558443Y2616970D01*
X506744Y4021667D01*
X487304Y4498375D01*
X465564Y4946350D01*
X443372Y5332893D01*
X422577Y5625306D01*
X407752Y5772727D01*
X360460Y6119091D01*
X-494140Y4387273D01*
X-1348741Y2655455D01*
X-1751946Y2632190D01*
X-1977382Y2623187D01*
X-2123945Y2625016D01*
X-2155647Y2632190D01*
X-2160744Y2711873D01*
X-2174920Y2925980D01*
X-2196895Y3255342D01*
X-2225385Y3680792D01*
X-2259108Y4183164D01*
X-2296783Y4743290D01*
X-2309091Y4926061D01*
X-2347872Y5504831D01*
X-2383069Y6035944D01*
X-2413384Y6499365D01*
X-2437521Y6875056D01*
X-2454183Y7142984D01*
X-2462073Y7283111D01*
X-2462535Y7296901D01*
X-2413004Y7357280D01*
X-2249230Y7379105D01*
X-2058939Y7373871D01*
X-1654848Y7350606D01*
X-1607058Y6196061D01*
X-1588068Y5716810D01*
X-1569956Y5223210D01*
X-1554566Y4767947D01*
X-1543746Y4403709D01*
X-1542350Y4348788D01*
X-1525433Y3656061D01*
X-608675Y5522576D01*
X308084Y7389091D01*
X903753Y7389091D01*
X950267Y6946515D01*
G36*
X9268227Y7100455D02*
G01*
X9226271Y6898265D01*
X9189009Y6766652D01*
X9183227Y6754091D01*
X9098951Y6734448D01*
X8887581Y6717673D01*
X8575952Y6705004D01*
X8190903Y6697679D01*
X7931688Y6696364D01*
X6713066Y6696364D01*
X6589260Y6148134D01*
X6528266Y5864448D01*
X6484054Y5632892D01*
X6465556Y5500526D01*
X6465455Y5495846D01*
X6497000Y5453934D01*
X6604245Y5422602D01*
X6806098Y5399835D01*
X7121471Y5383621D01*
X7569274Y5371945D01*
X7641757Y5370591D01*
X8818060Y5349394D01*
X8753288Y5022273D01*
X8688517Y4695152D01*
X6260762Y4695152D01*
X6132199Y4096878D01*
X6071401Y3802648D01*
X6026120Y3561980D01*
X6004437Y3418416D01*
X6003636Y3404151D01*
X6045614Y3365888D01*
X6181985Y3338564D01*
X6428405Y3320939D01*
X6800531Y3311773D01*
X7196667Y3309697D01*
X7658644Y3309595D01*
X7987297Y3303865D01*
X8203219Y3284374D01*
X8327004Y3242989D01*
X8379246Y3171575D01*
X8380540Y3061998D01*
X8351480Y2906125D01*
X8341591Y2857500D01*
X8293485Y2616970D01*
X6686742Y2616970D01*
X6208200Y2619600D01*
X5786407Y2626951D01*
X5443920Y2638211D01*
X5203294Y2652572D01*
X5087086Y2669222D01*
X5079851Y2674697D01*
X5095760Y2761508D01*
X5140894Y2979949D01*
X5211245Y3311341D01*
X5302809Y3737004D01*
X5411578Y4238258D01*
X5533547Y4796424D01*
X5591577Y5060758D01*
X6103452Y7389091D01*
X9320309Y7389091D01*
X9268227Y7100455D01*
G37*
X9268227Y7100455D02*
X9226271Y6898265D01*
X9189009Y6766652D01*
X9183227Y6754091D01*
X9098951Y6734448D01*
X8887581Y6717673D01*
X8575952Y6705004D01*
X8190903Y6697679D01*
X7931688Y6696364D01*
X6713066Y6696364D01*
X6589260Y6148134D01*
X6528266Y5864448D01*
X6484054Y5632892D01*
X6465556Y5500526D01*
X6465455Y5495846D01*
X6497000Y5453934D01*
X6604245Y5422602D01*
X6806098Y5399835D01*
X7121471Y5383621D01*
X7569274Y5371945D01*
X7641757Y5370591D01*
X8818060Y5349394D01*
X8753288Y5022273D01*
X8688517Y4695152D01*
X6260762Y4695152D01*
X6132199Y4096878D01*
X6071401Y3802648D01*
X6026120Y3561980D01*
X6004437Y3418416D01*
X6003636Y3404151D01*
X6045614Y3365888D01*
X6181985Y3338564D01*
X6428405Y3320939D01*
X6800531Y3311773D01*
X7196667Y3309697D01*
X7658644Y3309595D01*
X7987297Y3303865D01*
X8203219Y3284374D01*
X8327004Y3242989D01*
X8379246Y3171575D01*
X8380540Y3061998D01*
X8351480Y2906125D01*
X8341591Y2857500D01*
X8293485Y2616970D01*
X6686742Y2616970D01*
X6208200Y2619600D01*
X5786407Y2626951D01*
X5443920Y2638211D01*
X5203294Y2652572D01*
X5087086Y2669222D01*
X5079851Y2674697D01*
X5095760Y2761508D01*
X5140894Y2979949D01*
X5211245Y3311341D01*
X5302809Y3737004D01*
X5411578Y4238258D01*
X5533547Y4796424D01*
X5591577Y5060758D01*
X6103452Y7389091D01*
X9320309Y7389091D01*
X9268227Y7100455D01*
G36*
X14113600Y5179814D02*
G01*
X13988312Y4609437D01*
X13872140Y4081631D01*
X13769619Y3616915D01*
X13685284Y3235810D01*
X13623670Y2958836D01*
X13589312Y2806513D01*
X13585474Y2790152D01*
X13538241Y2683347D01*
X13434797Y2632152D01*
X13230628Y2617626D01*
X13179594Y2617444D01*
X12815455Y2617918D01*
X12394417Y3521838D01*
X12186096Y3967810D01*
X11944115Y4483880D01*
X11700848Y5001088D01*
X11518296Y5387879D01*
X11063213Y6350000D01*
X10690704Y4656667D01*
X10580695Y4157380D01*
X10479760Y3700747D01*
X10393272Y3310964D01*
X10326607Y3012229D01*
X10285139Y2828739D01*
X10276116Y2790152D01*
X10230673Y2685695D01*
X10131899Y2634052D01*
X9936470Y2617648D01*
X9849188Y2616970D01*
X9622536Y2620984D01*
X9515656Y2647573D01*
X9494386Y2718552D01*
X9517734Y2828636D01*
X9547815Y2957007D01*
X9606241Y3214378D01*
X9688236Y3579414D01*
X9789026Y4030781D01*
X9903837Y4547143D01*
X10027894Y5107167D01*
X10047410Y5195455D01*
X10523693Y7350606D01*
X11323154Y7350606D01*
X11980517Y5965152D01*
X12197360Y5507507D01*
X12405219Y5067676D01*
X12589844Y4675900D01*
X12736983Y4362422D01*
X12832384Y4157483D01*
X12832899Y4156364D01*
X13027918Y3733030D01*
X13826986Y7350606D01*
X14213486Y7373450D01*
X14599986Y7396295D01*
X14113600Y5179814D01*
G37*
X14113600Y5179814D02*
X13988312Y4609437D01*
X13872140Y4081631D01*
X13769619Y3616915D01*
X13685284Y3235810D01*
X13623670Y2958836D01*
X13589312Y2806513D01*
X13585474Y2790152D01*
X13538241Y2683347D01*
X13434797Y2632152D01*
X13230628Y2617626D01*
X13179594Y2617444D01*
X12815455Y2617918D01*
X12394417Y3521838D01*
X12186096Y3967810D01*
X11944115Y4483880D01*
X11700848Y5001088D01*
X11518296Y5387879D01*
X11063213Y6350000D01*
X10690704Y4656667D01*
X10580695Y4157380D01*
X10479760Y3700747D01*
X10393272Y3310964D01*
X10326607Y3012229D01*
X10285139Y2828739D01*
X10276116Y2790152D01*
X10230673Y2685695D01*
X10131899Y2634052D01*
X9936470Y2617648D01*
X9849188Y2616970D01*
X9622536Y2620984D01*
X9515656Y2647573D01*
X9494386Y2718552D01*
X9517734Y2828636D01*
X9547815Y2957007D01*
X9606241Y3214378D01*
X9688236Y3579414D01*
X9789026Y4030781D01*
X9903837Y4547143D01*
X10027894Y5107167D01*
X10047410Y5195455D01*
X10523693Y7350606D01*
X11323154Y7350606D01*
X11980517Y5965152D01*
X12197360Y5507507D01*
X12405219Y5067676D01*
X12589844Y4675900D01*
X12736983Y4362422D01*
X12832384Y4157483D01*
X12832899Y4156364D01*
X13027918Y3733030D01*
X13826986Y7350606D01*
X14213486Y7373450D01*
X14599986Y7396295D01*
X14113600Y5179814D01*
G36*
X7332791Y18311576D02*
G01*
X7403871Y18016220D01*
X7444642Y17597196D01*
X7456241Y17081530D01*
X7439806Y16496247D01*
X7396475Y15868372D01*
X7327386Y15224931D01*
X7233677Y14592949D01*
X7159620Y14198763D01*
X7092311Y13850119D01*
X7060137Y13598608D01*
X7061509Y13391868D01*
X7094840Y13177536D01*
X7124625Y13044218D01*
X7187866Y12666333D01*
X7219928Y12226985D01*
X7223618Y11750266D01*
X7201747Y11260269D01*
X7157122Y10781087D01*
X7092552Y10336811D01*
X7010846Y9951534D01*
X6914811Y9649349D01*
X6807257Y9454347D01*
X6698678Y9390303D01*
X6636943Y9450689D01*
X6509718Y9615231D01*
X6335391Y9859004D01*
X6132349Y10157085D01*
X6126430Y10165969D01*
X5908056Y10491032D01*
X5755076Y10705455D01*
X5648754Y10827517D01*
X5570353Y10875495D01*
X5501136Y10867666D01*
X5441206Y10834407D01*
X4968368Y10537918D01*
X4575769Y10299761D01*
X4276164Y10127345D01*
X4082309Y10028079D01*
X4015206Y10006061D01*
X3950851Y10075636D01*
X3927853Y10266900D01*
X3944811Y10553659D01*
X4000321Y10909722D01*
X4082951Y11271099D01*
X4398995Y12204531D01*
X4837057Y13050287D01*
X5054737Y13376789D01*
X5218482Y13620026D01*
X5344825Y13850015D01*
X5450965Y14108299D01*
X5554099Y14436422D01*
X5665054Y14851041D01*
X5908740Y15705697D01*
X6183166Y16498788D01*
X6478568Y17206704D01*
X6785184Y17805836D01*
X7064216Y18234606D01*
X7261338Y18496788D01*
X7332791Y18311576D01*
G37*
X7332791Y18311576D02*
X7403871Y18016220D01*
X7444642Y17597196D01*
X7456241Y17081530D01*
X7439806Y16496247D01*
X7396475Y15868372D01*
X7327386Y15224931D01*
X7233677Y14592949D01*
X7159620Y14198763D01*
X7092311Y13850119D01*
X7060137Y13598608D01*
X7061509Y13391868D01*
X7094840Y13177536D01*
X7124625Y13044218D01*
X7187866Y12666333D01*
X7219928Y12226985D01*
X7223618Y11750266D01*
X7201747Y11260269D01*
X7157122Y10781087D01*
X7092552Y10336811D01*
X7010846Y9951534D01*
X6914811Y9649349D01*
X6807257Y9454347D01*
X6698678Y9390303D01*
X6636943Y9450689D01*
X6509718Y9615231D01*
X6335391Y9859004D01*
X6132349Y10157085D01*
X6126430Y10165969D01*
X5908056Y10491032D01*
X5755076Y10705455D01*
X5648754Y10827517D01*
X5570353Y10875495D01*
X5501136Y10867666D01*
X5441206Y10834407D01*
X4968368Y10537918D01*
X4575769Y10299761D01*
X4276164Y10127345D01*
X4082309Y10028079D01*
X4015206Y10006061D01*
X3950851Y10075636D01*
X3927853Y10266900D01*
X3944811Y10553659D01*
X4000321Y10909722D01*
X4082951Y11271099D01*
X4398995Y12204531D01*
X4837057Y13050287D01*
X5054737Y13376789D01*
X5218482Y13620026D01*
X5344825Y13850015D01*
X5450965Y14108299D01*
X5554099Y14436422D01*
X5665054Y14851041D01*
X5908740Y15705697D01*
X6183166Y16498788D01*
X6478568Y17206704D01*
X6785184Y17805836D01*
X7064216Y18234606D01*
X7261338Y18496788D01*
X7332791Y18311576D01*
%TD*%
M02*
